<svg width="32" height="32" viewBox="0 0 32 32" fill="none" xmlns="http://www.w3.org/2000/svg">
<path d="M26.1775 9.47965L17.5455 4.11965C17.0733 3.82448 16.5277 3.66797 15.9708 3.66797C15.414 3.66797 14.8683 3.82448 14.3962 4.11965L5.7655 9.51032C5.27452 9.81953 4.88484 10.2658 4.64458 10.7939C4.40431 11.3221 4.32398 11.909 4.4135 12.4823L6.64016 25.8516C6.75735 26.5518 7.12136 27.1868 7.66629 27.6417C8.21122 28.0966 8.90104 28.3414 9.61083 28.3317H22.3868C23.0968 28.3414 23.7868 28.0967 24.3319 27.6418C24.8771 27.1869 25.2414 26.5519 25.3588 25.8516L27.5855 12.4823C27.6754 11.8985 27.5892 11.3011 27.338 10.7665C27.0867 10.2319 26.6817 9.78431 26.1748 9.48098" fill="white"/>
<path d="M26.1775 9.47965L17.5455 4.11965C17.0733 3.82448 16.5277 3.66797 15.9708 3.66797C15.414 3.66797 14.8683 3.82448 14.3962 4.11965L5.7655 9.51032C5.27452 9.81953 4.88484 10.2658 4.64458 10.7939C4.40431 11.3221 4.32398 11.909 4.4135 12.4823L6.64016 25.8516C6.75735 26.5518 7.12136 27.1868 7.66629 27.6417C8.21122 28.0966 8.90104 28.3414 9.61083 28.3317H22.3868C23.0968 28.3414 23.7868 28.0967 24.3319 27.6418C24.8771 27.1869 25.2414 26.5519 25.3588 25.8516L27.5855 12.4823C27.6754 11.8985 27.5892 11.3011 27.338 10.7665C27.0867 10.2319 26.6817 9.78431 26.1748 9.48098" stroke="#FFD94A" strokeWidth="2" strokeLinecap="round" strokeLinejoin="round"/>
<path d="M16.0006 14.424C14.8086 11.7254 12.0366 11.4867 10.7473 12.664C9.6953 13.6067 9.18997 15.8707 10.15 17.9547C11.806 21.5374 16.0006 23.4187 16.0006 23.4187C16.0006 23.4187 20.1953 21.5374 21.8513 17.9547C22.8113 15.8707 22.306 13.608 21.2553 12.6627C19.9646 11.4867 17.1926 11.7254 16.0006 14.424Z" stroke="#FFD94A" strokeLinecap="round" strokeLinejoin="round"/>
</svg>
