<svg width="32" height="32" viewBox="0 0 32 32" fill="none" xmlns="http://www.w3.org/2000/svg">
<mask id="path-1-inside-1_995_19063" fill="white">
<path d="M5.31899 4.48433C5.40347 3.97558 5.66611 3.51344 6.05998 3.18051C6.45385 2.84759 6.95327 2.66557 7.46899 2.667C8.00499 2.667 8.49566 2.859 8.87699 3.177C9.29064 2.84669 9.80431 2.66685 10.3337 2.667C10.8843 2.667 11.391 2.85767 11.7903 3.177C12.185 2.84658 12.6836 2.66598 13.1983 2.667C13.714 2.66557 14.2135 2.84759 14.6073 3.18051C15.0012 3.51344 15.2639 3.97558 15.3483 4.48433C15.5937 5.98567 16.0003 8.75233 16.0003 10.667C16.001 11.5675 15.7868 12.4551 15.3755 13.2562C14.9643 14.0573 14.3678 14.7487 13.6357 15.273C13.209 15.5797 13.0003 15.9497 13.0003 16.2663C13.0003 16.2917 13.001 16.309 13.0023 16.329C13.061 17.0597 13.667 24.6457 13.667 26.0003C13.667 26.8844 13.3158 27.7322 12.6907 28.3574C12.0656 28.9825 11.2177 29.3337 10.3337 29.3337C9.44961 29.3337 8.60176 28.9825 7.97664 28.3574C7.35152 27.7322 7.00033 26.8844 7.00033 26.0003C7.00033 24.6457 7.60633 17.0597 7.66433 16.329C7.6662 16.3082 7.66709 16.2873 7.66699 16.2663C7.66699 15.9497 7.45899 15.5797 7.03166 15.273C6.29953 14.7487 5.70306 14.0573 5.29179 13.2562C4.88052 12.4551 4.66632 11.5675 4.66699 10.667C4.66699 8.75233 5.07366 5.98567 5.31899 4.48433ZM12.667 11.167C12.667 11.388 12.5792 11.6 12.4229 11.7563C12.2666 11.9125 12.0547 12.0003 11.8337 12.0003C11.6126 12.0003 11.4007 11.9125 11.2444 11.7563C11.0881 11.6 11.0003 11.388 11.0003 11.167V5.00033C11.0003 4.82352 10.9301 4.65395 10.8051 4.52893C10.68 4.40391 10.5105 4.33367 10.3337 4.33367C10.1568 4.33367 9.98728 4.40391 9.86226 4.52893C9.73723 4.65395 9.66699 4.82352 9.66699 5.00033V11.167C9.66699 11.388 9.5792 11.6 9.42292 11.7563C9.26664 11.9125 9.05467 12.0003 8.83366 12.0003C8.61265 12.0003 8.40069 11.9125 8.2444 11.7563C8.08812 11.6 8.00033 11.388 8.00033 11.167V4.865C8.00033 4.72408 7.94435 4.58894 7.8447 4.48929C7.74506 4.38965 7.60991 4.33367 7.46899 4.33367C7.21033 4.33367 7.00233 4.51567 6.96366 4.75367C6.71699 6.265 6.33366 8.90633 6.33366 10.667C6.33301 11.3029 6.48421 11.9297 6.77468 12.4953C7.06515 13.061 7.4865 13.5491 8.00366 13.919C8.68366 14.407 9.33366 15.221 9.33366 16.2657C9.33366 16.331 9.33166 16.3923 9.32633 16.4623C9.26233 17.2537 8.66699 24.7337 8.66699 26.0003C8.66699 26.4424 8.84259 26.8663 9.15515 27.1788C9.46771 27.4914 9.89163 27.667 10.3337 27.667C10.7757 27.667 11.1996 27.4914 11.5122 27.1788C11.8247 26.8663 12.0003 26.4424 12.0003 26.0003C12.0003 24.7337 11.405 17.2537 11.3417 16.4623C11.3366 16.3971 11.3339 16.3317 11.3337 16.2663C11.3337 15.221 11.9837 14.4063 12.6637 13.919C13.1808 13.5491 13.6022 13.061 13.8926 12.4953C14.1831 11.9297 14.3343 11.3029 14.3337 10.667C14.3337 8.90633 13.9503 6.265 13.7037 4.75367C13.6831 4.63503 13.6209 4.52761 13.5283 4.45064C13.4357 4.37368 13.3187 4.33221 13.1983 4.33367C13.0574 4.33367 12.9223 4.38965 12.8226 4.48929C12.723 4.58894 12.667 4.72408 12.667 4.865V11.167ZM24.3337 4.355V15.167C24.3337 15.5603 24.459 17.387 24.597 19.3903L24.6063 19.5263C24.793 22.237 25.0003 25.261 25.0003 26.0003C25.0003 26.4424 24.8247 26.8663 24.5122 27.1788C24.1996 27.4914 23.7757 27.667 23.3337 27.667C22.8916 27.667 22.4677 27.4914 22.1551 27.1788C21.8426 26.8663 21.667 26.4424 21.667 26.0003C21.667 25.3457 21.8303 22.6763 21.9983 20.1203C22.0969 18.6246 22.1984 17.129 22.303 15.6337L22.3317 15.2257C22.3397 15.1116 22.3242 14.997 22.2861 14.8892C22.2479 14.7814 22.188 14.6825 22.11 14.5988C22.032 14.5152 21.9377 14.4484 21.8328 14.4028C21.7279 14.3572 21.6147 14.3337 21.5003 14.3337H19.5003C19.3677 14.3337 19.2405 14.281 19.1468 14.1872C19.053 14.0935 19.0003 13.9663 19.0003 13.8337V10.167C19.0003 8.70644 19.5482 7.299 20.5357 6.22286C21.5232 5.14672 22.8785 4.48019 24.3337 4.355ZM20.607 16.0003L20.565 16.6083C20.5023 17.5163 20.4183 18.7417 20.3357 20.011C20.1703 22.527 20.0003 25.2743 20.0003 26.0003C20.0003 26.8844 20.3515 27.7322 20.9766 28.3574C21.6018 28.9825 22.4496 29.3337 23.3337 29.3337C24.2177 29.3337 25.0656 28.9825 25.6907 28.3574C26.3158 27.7322 26.667 26.8844 26.667 26.0003C26.667 25.1943 26.457 22.1377 26.275 19.499L26.269 19.4123C26.1237 17.2977 26.0003 15.4937 26.0003 15.167V3.50033C26.0003 3.04033 25.627 2.667 25.167 2.667H24.8337C20.6917 2.667 17.3337 6.025 17.3337 10.167V13.8337C17.3337 14.4083 17.5619 14.9594 17.9683 15.3657C18.3746 15.7721 18.9257 16.0003 19.5003 16.0003H20.607Z"/>
</mask>
<path d="M5.31899 4.48433C5.40347 3.97558 5.66611 3.51344 6.05998 3.18051C6.45385 2.84759 6.95327 2.66557 7.46899 2.667C8.00499 2.667 8.49566 2.859 8.87699 3.177C9.29064 2.84669 9.80431 2.66685 10.3337 2.667C10.8843 2.667 11.391 2.85767 11.7903 3.177C12.185 2.84658 12.6836 2.66598 13.1983 2.667C13.714 2.66557 14.2135 2.84759 14.6073 3.18051C15.0012 3.51344 15.2639 3.97558 15.3483 4.48433C15.5937 5.98567 16.0003 8.75233 16.0003 10.667C16.001 11.5675 15.7868 12.4551 15.3755 13.2562C14.9643 14.0573 14.3678 14.7487 13.6357 15.273C13.209 15.5797 13.0003 15.9497 13.0003 16.2663C13.0003 16.2917 13.001 16.309 13.0023 16.329C13.061 17.0597 13.667 24.6457 13.667 26.0003C13.667 26.8844 13.3158 27.7322 12.6907 28.3574C12.0656 28.9825 11.2177 29.3337 10.3337 29.3337C9.44961 29.3337 8.60176 28.9825 7.97664 28.3574C7.35152 27.7322 7.00033 26.8844 7.00033 26.0003C7.00033 24.6457 7.60633 17.0597 7.66433 16.329C7.6662 16.3082 7.66709 16.2873 7.66699 16.2663C7.66699 15.9497 7.45899 15.5797 7.03166 15.273C6.29953 14.7487 5.70306 14.0573 5.29179 13.2562C4.88052 12.4551 4.66632 11.5675 4.66699 10.667C4.66699 8.75233 5.07366 5.98567 5.31899 4.48433ZM12.667 11.167C12.667 11.388 12.5792 11.6 12.4229 11.7563C12.2666 11.9125 12.0547 12.0003 11.8337 12.0003C11.6126 12.0003 11.4007 11.9125 11.2444 11.7563C11.0881 11.6 11.0003 11.388 11.0003 11.167V5.00033C11.0003 4.82352 10.9301 4.65395 10.8051 4.52893C10.68 4.40391 10.5105 4.33367 10.3337 4.33367C10.1568 4.33367 9.98728 4.40391 9.86226 4.52893C9.73723 4.65395 9.66699 4.82352 9.66699 5.00033V11.167C9.66699 11.388 9.5792 11.6 9.42292 11.7563C9.26664 11.9125 9.05467 12.0003 8.83366 12.0003C8.61265 12.0003 8.40069 11.9125 8.2444 11.7563C8.08812 11.6 8.00033 11.388 8.00033 11.167V4.865C8.00033 4.72408 7.94435 4.58894 7.8447 4.48929C7.74506 4.38965 7.60991 4.33367 7.46899 4.33367C7.21033 4.33367 7.00233 4.51567 6.96366 4.75367C6.71699 6.265 6.33366 8.90633 6.33366 10.667C6.33301 11.3029 6.48421 11.9297 6.77468 12.4953C7.06515 13.061 7.4865 13.5491 8.00366 13.919C8.68366 14.407 9.33366 15.221 9.33366 16.2657C9.33366 16.331 9.33166 16.3923 9.32633 16.4623C9.26233 17.2537 8.66699 24.7337 8.66699 26.0003C8.66699 26.4424 8.84259 26.8663 9.15515 27.1788C9.46771 27.4914 9.89163 27.667 10.3337 27.667C10.7757 27.667 11.1996 27.4914 11.5122 27.1788C11.8247 26.8663 12.0003 26.4424 12.0003 26.0003C12.0003 24.7337 11.405 17.2537 11.3417 16.4623C11.3366 16.3971 11.3339 16.3317 11.3337 16.2663C11.3337 15.221 11.9837 14.4063 12.6637 13.919C13.1808 13.5491 13.6022 13.061 13.8926 12.4953C14.1831 11.9297 14.3343 11.3029 14.3337 10.667C14.3337 8.90633 13.9503 6.265 13.7037 4.75367C13.6831 4.63503 13.6209 4.52761 13.5283 4.45064C13.4357 4.37368 13.3187 4.33221 13.1983 4.33367C13.0574 4.33367 12.9223 4.38965 12.8226 4.48929C12.723 4.58894 12.667 4.72408 12.667 4.865V11.167ZM24.3337 4.355V15.167C24.3337 15.5603 24.459 17.387 24.597 19.3903L24.6063 19.5263C24.793 22.237 25.0003 25.261 25.0003 26.0003C25.0003 26.4424 24.8247 26.8663 24.5122 27.1788C24.1996 27.4914 23.7757 27.667 23.3337 27.667C22.8916 27.667 22.4677 27.4914 22.1551 27.1788C21.8426 26.8663 21.667 26.4424 21.667 26.0003C21.667 25.3457 21.8303 22.6763 21.9983 20.1203C22.0969 18.6246 22.1984 17.129 22.303 15.6337L22.3317 15.2257C22.3397 15.1116 22.3242 14.997 22.2861 14.8892C22.2479 14.7814 22.188 14.6825 22.11 14.5988C22.032 14.5152 21.9377 14.4484 21.8328 14.4028C21.7279 14.3572 21.6147 14.3337 21.5003 14.3337H19.5003C19.3677 14.3337 19.2405 14.281 19.1468 14.1872C19.053 14.0935 19.0003 13.9663 19.0003 13.8337V10.167C19.0003 8.70644 19.5482 7.299 20.5357 6.22286C21.5232 5.14672 22.8785 4.48019 24.3337 4.355ZM20.607 16.0003L20.565 16.6083C20.5023 17.5163 20.4183 18.7417 20.3357 20.011C20.1703 22.527 20.0003 25.2743 20.0003 26.0003C20.0003 26.8844 20.3515 27.7322 20.9766 28.3574C21.6018 28.9825 22.4496 29.3337 23.3337 29.3337C24.2177 29.3337 25.0656 28.9825 25.6907 28.3574C26.3158 27.7322 26.667 26.8844 26.667 26.0003C26.667 25.1943 26.457 22.1377 26.275 19.499L26.269 19.4123C26.1237 17.2977 26.0003 15.4937 26.0003 15.167V3.50033C26.0003 3.04033 25.627 2.667 25.167 2.667H24.8337C20.6917 2.667 17.3337 6.025 17.3337 10.167V13.8337C17.3337 14.4083 17.5619 14.9594 17.9683 15.3657C18.3746 15.7721 18.9257 16.0003 19.5003 16.0003H20.607Z" fill="white" stroke="#FFD94A" strokeWidth="4" mask="url(#path-1-inside-1_995_19063)"/>
</svg>
