<svg width="32" height="32" viewBox="0 0 32 32" fill="none" xmlns="http://www.w3.org/2000/svg">
<path d="M29.3332 13.9999V12.9559C29.3332 10.3692 29.3332 9.07722 28.5518 8.27322C27.7705 7.47056 26.5145 7.47056 23.9998 7.47056H21.2278C20.0052 7.47056 19.9945 7.46789 18.8945 6.91722L14.4532 4.69456C12.5985 3.76656 11.6705 3.30256 10.6825 3.33456C9.6945 3.36656 8.79984 3.89056 7.00384 4.93856L5.36784 5.89322C4.04917 6.66256 3.3905 7.04789 3.02917 7.68789C2.6665 8.32789 2.6665 9.10656 2.6665 10.6652V21.6212C2.6665 23.6679 2.6665 24.6919 3.1225 25.2612C3.4265 25.6412 3.85184 25.8959 4.3225 25.9812C5.02917 26.1079 5.89584 25.6026 7.6265 24.5919C8.8025 23.9052 9.93317 23.1919 11.3398 23.3852C12.5185 23.5479 13.6132 24.2919 14.6665 24.8186M10.6665 3.33322V23.3332ZM19.9998 7.33322V12.6666Z" fill="white"/>
<path d="M29.3332 13.9999V12.9559C29.3332 10.3692 29.3332 9.07722 28.5518 8.27322C27.7705 7.47056 26.5145 7.47056 23.9998 7.47056H21.2278C20.0052 7.47056 19.9945 7.46789 18.8945 6.91722L14.4532 4.69456C12.5985 3.76656 11.6705 3.30256 10.6825 3.33456C9.6945 3.36656 8.79984 3.89056 7.00384 4.93856L5.36784 5.89322C4.04917 6.66256 3.3905 7.04789 3.02917 7.68789C2.6665 8.32789 2.6665 9.10656 2.6665 10.6652V21.6212C2.6665 23.6679 2.6665 24.6919 3.1225 25.2612C3.4265 25.6412 3.85184 25.8959 4.3225 25.9812C5.02917 26.1079 5.89584 25.6026 7.6265 24.5919C8.8025 23.9052 9.93317 23.1919 11.3398 23.3852C12.5185 23.5479 13.6132 24.2919 14.6665 24.8186M10.6665 3.33322V23.3332M19.9998 7.33322V12.6666" stroke="#FFD94A" strokeWidth="2" strokeLinecap="round" strokeLinejoin="round"/>
<path d="M23.333 22H23.345M23.333 16C26.5797 16 29.333 18.6893 29.333 21.9507C29.333 25.264 26.5357 27.5907 23.9517 29.1707C23.7632 29.2775 23.5503 29.3336 23.3337 29.3336C23.1171 29.3336 22.9041 29.2775 22.7157 29.1707C20.1357 27.5747 17.333 25.276 17.333 21.9507C17.333 18.688 20.0863 16 23.333 16Z" stroke="#FFD94A" strokeWidth="1.5" strokeLinecap="round" strokeLinejoin="round"/>
</svg>