<svg width="32" height="32" viewBox="0 0 32 32" fill="none" xmlns="http://www.w3.org/2000/svg">
<path d="M25.8891 20.9509C31.1571 14.2709 29.7345 7.64688 25.9505 5.32555C22.3745 3.13221 19.2531 4.01621 17.3785 5.42421L15.9998 6.45621M25.8891 20.9509C24.6251 22.5549 22.9758 24.1602 20.8798 25.7109C18.8198 27.2375 17.7891 28.0002 15.9998 28.0002C14.2105 28.0002 13.1811 27.2375 11.1198 25.7109C0.295812 17.7002 1.35715 8.20421 6.04915 5.32555C9.62514 3.13221 12.7465 4.01621 14.6211 5.42421L15.9998 6.45621M25.8891 20.9509L18.5225 12.5935C18.3762 12.4282 18.176 12.32 17.9576 12.2883C17.7391 12.2566 17.5164 12.3033 17.3291 12.4202L14.4145 14.2415C13.8429 14.6032 13.1536 14.7297 12.4909 14.5947C11.8281 14.4597 11.2432 14.0737 10.8586 13.5173C10.474 12.961 10.3194 12.2774 10.4273 11.6097C10.5351 10.942 10.8969 10.3419 11.4371 9.93488L15.9998 6.45621" fill="white"/>
<path d="M25.8891 20.9509C31.1571 14.2709 29.7345 7.64688 25.9505 5.32555C22.3745 3.13221 19.2531 4.01621 17.3785 5.42421L15.9998 6.45621M25.8891 20.9509C24.6251 22.5549 22.9758 24.1602 20.8798 25.7109C18.8198 27.2375 17.7891 28.0002 15.9998 28.0002C14.2105 28.0002 13.1811 27.2375 11.1198 25.7109C0.295812 17.7002 1.35715 8.20421 6.04915 5.32555C9.62514 3.13221 12.7465 4.01621 14.6211 5.42421L15.9998 6.45621M25.8891 20.9509L18.5225 12.5935C18.3762 12.4282 18.176 12.32 17.9576 12.2883C17.7391 12.2566 17.5164 12.3033 17.3291 12.4202L14.4145 14.2415C13.8429 14.6032 13.1536 14.7297 12.4909 14.5947C11.8281 14.4597 11.2432 14.0737 10.8586 13.5173C10.474 12.961 10.3194 12.2774 10.4273 11.6097C10.5351 10.942 10.8969 10.3419 11.4371 9.93488L15.9998 6.45621" stroke="#FFD94A" strokeWidth="2" strokeLinecap="round" strokeLinejoin="round"/>
</svg>
