<svg width="90" height="90" viewBox="0 0 90 90" fill="none" xmlns="http://www.w3.org/2000/svg">
<path d="M87.2789 22.8252C84.9164 14.1293 75.8725 5.08359 67.1748 2.72109C61.8416 1.39219 54.6979 0.0228516 45 0C35.3021 0.0228516 28.1584 1.39219 22.8252 2.72109C14.1293 5.08359 5.08359 14.1275 2.72109 22.8252C1.39219 28.1584 0.0228516 35.3021 0 45C0.0228516 54.6979 1.39219 61.8416 2.72109 67.1748C5.08359 75.8725 14.1293 84.9164 22.8252 87.2789C28.1584 88.6078 35.3057 89.9771 45 90C54.6961 89.9771 61.8416 88.6078 67.1748 87.2789C75.8725 84.9164 84.9164 75.8725 87.2789 67.1748C88.6078 61.8416 89.9771 54.6943 90 45C89.9771 35.3021 88.6078 28.1584 87.2789 22.8252Z" fill="#FFF7F8"/>
<path d="M45 15.1172C39.0898 15.1172 33.3122 16.8698 28.398 20.1534C23.4838 23.4369 19.6537 28.104 17.3919 33.5643C15.1301 39.0247 14.5384 45.0331 15.6914 50.8298C16.8444 56.6265 19.6905 61.9512 23.8697 66.1303C28.0489 70.3095 33.3735 73.1556 39.1702 74.3086C44.9669 75.4617 50.9753 74.8699 56.4357 72.6081C61.896 70.3464 66.5631 66.5162 69.8467 61.602C73.1302 56.6878 74.8828 50.9103 74.8828 45C74.8828 37.0746 71.7345 29.4738 66.1304 23.8697C60.5262 18.2655 52.9254 15.1172 45 15.1172Z" fill="url(#paint0_linear_1256_16225)"/>
<path d="M62.0513 40.0517L44.0812 58.9165C43.5918 59.4304 43.0037 59.8402 42.3522 60.1214C41.7007 60.4026 40.9991 60.5494 40.2896 60.553H40.2667C39.5612 60.553 38.8629 60.4114 38.2132 60.1366C37.5634 59.8619 36.9754 59.4595 36.4839 58.9534L26.9513 49.1325C26.4329 48.6441 26.0188 48.0558 25.7339 47.403C25.4491 46.7501 25.2995 46.0464 25.2941 45.3342C25.2887 44.622 25.4276 43.916 25.7025 43.259C25.9774 42.6019 26.3825 42.0074 26.8934 41.5111C27.4044 41.0149 28.0105 40.6274 28.6754 40.3718C29.3402 40.1163 30.0499 39.9981 30.7616 40.0243C31.4734 40.0506 32.1725 40.2207 32.8167 40.5245C33.4609 40.8283 34.0368 41.2594 34.5099 41.7919L40.2228 47.6788L54.4065 32.7831C54.8838 32.2811 55.4553 31.8781 56.0883 31.597C56.7213 31.3159 57.4035 31.1622 58.0959 31.1447C58.7883 31.1273 59.4774 31.2464 60.1238 31.4952C60.7702 31.744 61.3612 32.1178 61.8632 32.595C62.3651 33.0723 62.7682 33.6437 63.0493 34.2768C63.3304 34.9098 63.4841 35.592 63.5015 36.2844C63.519 36.9768 63.3999 37.6659 63.1511 38.3123C62.9022 38.9587 62.5285 39.5497 62.0513 40.0517Z" fill="url(#paint1_linear_1256_16225)"/>
<defs>
<linearGradient id="paint0_linear_1256_16225" x1="66.1342" y1="66.1342" x2="23.8658" y2="23.8658" gradientUnits="userSpaceOnUse">
<stop stopColor="#EB1933"/>
<stop offset="0.52" stopColor="#FFA43A"/>
<stop offset="1" stopColor="#FFF2C5"/>
</linearGradient>
<linearGradient id="paint1_linear_1256_16225" x1="53.1989" y1="49.8022" x2="36.0708" y2="32.6724" gradientUnits="userSpaceOnUse">
<stop stopColor="white"/>
<stop offset="0.57" stopColor="white"/>
<stop offset="1" stopColor="white"/>
</linearGradient>
</defs>
</svg>
