<svg width="24" height="24" viewBox="0 0 24 24" fill="none" xmlns="http://www.w3.org/2000/svg">
<path d="M10.0538 2.09374C10.5966 1.63107 11.2865 1.37695 11.9998 1.37695C12.713 1.37695 13.4029 1.63107 13.9458 2.09374L15.2938 3.24274C15.4542 3.37951 15.6537 3.46211 15.8638 3.47874L17.6288 3.61874C18.3397 3.67544 19.0073 3.98359 19.5116 4.48792C20.0159 4.99225 20.3241 5.65976 20.3808 6.37074L20.5208 8.13674C20.5376 8.34651 20.6202 8.54563 20.7568 8.70574L21.9058 10.0537C22.3684 10.5966 22.6226 11.2865 22.6226 11.9997C22.6226 12.713 22.3684 13.4029 21.9058 13.9457L20.7568 15.2937C20.6202 15.4538 20.5376 15.653 20.5208 15.8627L20.3808 17.6277C20.3241 18.3387 20.0159 19.0062 19.5116 19.5106C19.0073 20.0149 18.3397 20.323 17.6288 20.3797L15.8628 20.5197C15.6529 20.5369 15.4538 20.6198 15.2938 20.7567L13.9458 21.9047C13.4029 22.3674 12.713 22.6215 11.9998 22.6215C11.2865 22.6215 10.5966 22.3674 10.0538 21.9047L8.70577 20.7567C8.54567 20.6202 8.34655 20.5376 8.13677 20.5207L6.37177 20.3797C5.6608 20.323 4.99329 20.0149 4.48896 19.5106C3.98463 19.0062 3.67648 18.3387 3.61977 17.6277L3.47977 15.8627C3.46286 15.6525 3.37991 15.453 3.24277 15.2927L2.09477 13.9447C1.63238 13.402 1.37842 12.7123 1.37842 11.9992C1.37842 11.2862 1.63238 10.5965 2.09477 10.0537L3.24277 8.70574C3.37955 8.54536 3.46215 8.34586 3.47877 8.13574L3.61977 6.37074C3.6767 5.65994 3.98495 4.99267 4.48926 4.48854C4.99357 3.98441 5.66096 3.67641 6.37177 3.61974L8.13677 3.47974C8.3469 3.46311 8.54639 3.38051 8.70677 3.24374L10.0538 2.09374ZM12.6488 3.61574C12.4679 3.4616 12.2379 3.37695 12.0003 3.37695C11.7626 3.37695 11.5327 3.4616 11.3518 3.61574L10.0038 4.76574C9.52292 5.17494 8.92522 5.42201 8.29577 5.47174L6.53077 5.61274C6.2939 5.6317 6.07151 5.7344 5.90348 5.90244C5.73544 6.07047 5.63274 6.29286 5.61377 6.52974L5.47277 8.29573C5.42255 8.92494 5.17515 9.52228 4.76577 10.0027L3.61577 11.3507C3.46164 11.5317 3.37699 11.7616 3.37699 11.9992C3.37699 12.2369 3.46164 12.4668 3.61577 12.6477L4.76577 13.9957C5.17515 14.4762 5.42255 15.0735 5.47277 15.7027L5.61277 17.4687C5.63177 17.7058 5.73462 17.9283 5.90286 18.0963C6.0711 18.2644 6.29372 18.367 6.53077 18.3857L8.29577 18.5267C8.92533 18.5767 9.52305 18.8242 10.0038 19.2337L11.3518 20.3837C11.5327 20.5379 11.7626 20.6225 12.0003 20.6225C12.2379 20.6225 12.4679 20.5379 12.6488 20.3837L13.9968 19.2337C14.4772 18.8244 15.0746 18.577 15.7038 18.5267L17.4688 18.3867C17.706 18.368 17.9287 18.2652 18.097 18.097C18.2653 17.9287 18.368 17.7059 18.3868 17.4687L18.5268 15.7027C18.5768 15.0737 18.8248 14.4767 19.2348 13.9957L20.3838 12.6477C20.5379 12.4668 20.6226 12.2369 20.6226 11.9992C20.6226 11.7616 20.5379 11.5317 20.3838 11.3507L19.2338 10.0027C18.8248 9.52215 18.5777 8.92483 18.5278 8.29573L18.3868 6.52974C18.3678 6.2927 18.2649 6.07019 18.0967 5.90213C17.9285 5.73408 17.7058 5.63147 17.4688 5.61274L15.7038 5.47274C15.0745 5.42223 14.4771 5.17447 13.9968 4.76474L12.6488 3.61574ZM14.8288 7.75674L16.2428 9.17073L9.17177 16.2427L7.75677 14.8277L14.8288 7.75674ZM10.2318 10.2317C10.0934 10.375 9.92789 10.4893 9.74488 10.5679C9.56187 10.6465 9.36504 10.6879 9.16588 10.6896C8.96671 10.6913 8.76919 10.6534 8.58484 10.578C8.4005 10.5025 8.23302 10.3912 8.09218 10.2503C7.95134 10.1095 7.83996 9.94201 7.76454 9.75767C7.68912 9.57332 7.65117 9.3758 7.6529 9.17663C7.65463 8.97746 7.69601 8.78063 7.77462 8.59763C7.85324 8.41462 7.96751 8.24911 8.11077 8.11074C8.39368 7.8375 8.77258 7.68631 9.16588 7.68972C9.55917 7.69314 9.93539 7.8509 10.2135 8.12901C10.4916 8.40712 10.6494 8.78334 10.6528 9.17663C10.6562 9.56993 10.505 9.94883 10.2318 10.2317ZM13.7678 15.8887C13.9061 16.032 14.0717 16.1463 14.2547 16.2249C14.4377 16.3035 14.6345 16.3449 14.8337 16.3466C15.0328 16.3483 15.2304 16.3104 15.4147 16.235C15.599 16.1595 15.7665 16.0482 15.9074 15.9073C16.0482 15.7665 16.1596 15.599 16.235 15.4147C16.3104 15.2303 16.3484 15.0328 16.3467 14.8336C16.3449 14.6345 16.3035 14.4376 16.2249 14.2546C16.1463 14.0716 16.032 13.9061 15.8888 13.7677C15.6051 13.4993 15.2278 13.352 14.8373 13.3574C14.4467 13.3627 14.0736 13.5202 13.7974 13.7963C13.5211 14.0725 13.3634 14.4455 13.3579 14.836C13.3524 15.2266 13.4994 15.6039 13.7678 15.8877" fill="black"/>
</svg>
