<svg width="25" height="24" viewBox="0 0 25 24" fill="none" xmlns="http://www.w3.org/2000/svg">
<path d="M20.9844 2.8125H15.0781C15.0008 2.8125 14.9375 2.87578 14.9375 2.95312V4.26562C14.9375 4.34297 15.0008 4.40625 15.0781 4.40625H18.8375L14.1664 9.07734C12.9945 8.175 11.5648 7.6875 10.0625 7.6875C8.26016 7.6875 6.56328 8.39062 5.29062 9.66562C4.01797 10.9406 3.3125 12.6352 3.3125 14.4375C3.3125 16.2398 4.01562 17.9367 5.29062 19.2094C6.56328 20.4844 8.26016 21.1875 10.0625 21.1875C11.8648 21.1875 13.5617 20.4844 14.8344 19.2094C16.1094 17.9367 16.8125 16.2398 16.8125 14.4375C16.8125 12.9352 16.325 11.5102 15.425 10.3383L20.0938 5.66953V9.42188C20.0938 9.49922 20.157 9.5625 20.2344 9.5625H21.5469C21.6242 9.5625 21.6875 9.49922 21.6875 9.42188V3.51562C21.6875 3.12891 21.3711 2.8125 20.9844 2.8125ZM10.0625 19.4062C7.32266 19.4062 5.09375 17.1773 5.09375 14.4375C5.09375 11.6977 7.32266 9.46875 10.0625 9.46875C12.8023 9.46875 15.0312 11.6977 15.0312 14.4375C15.0312 17.1773 12.8023 19.4062 10.0625 19.4062Z" fill="black"/>
</svg>
