<svg width="51" height="50" viewBox="0 0 51 50" fill="none" xmlns="http://www.w3.org/2000/svg">
<g clipPath="url(#clip0_255_2411)">
<path d="M48.9605 14.6997C50.955 12.6845 51.0148 9.41069 49.0908 7.32814C47.9628 6.10716 46.4115 5.53735 44.8872 5.61676C44.9667 4.09186 44.3959 2.53951 43.1739 1.41137C41.0909 -0.511569 37.8179 -0.450392 35.8034 1.54422C34.2133 3.11863 33.8215 5.44226 34.6282 7.38569C35.1343 8.6051 34.8886 10.006 33.9549 10.9395L30.3821 14.5124L35.9911 20.1214L39.5639 16.5485C40.4975 15.615 41.8984 15.369 43.1177 15.8752C45.0616 16.6825 47.3861 16.2905 48.9605 14.6997Z" fill="url(#paint0_linear_255_2411)"/>
<path d="M35.7844 9.11093C36.8974 10.224 38.3809 10.7425 39.8379 10.6659C39.9035 9.39475 40.422 8.14338 41.3929 7.1725C42.3638 6.20162 43.6158 5.6826 44.8869 5.61691C44.9635 4.15985 44.445 2.67642 43.3319 1.56338C41.2474 -0.521127 37.8683 -0.521127 35.7839 1.56338C33.6999 3.6473 33.6999 7.02642 35.7844 9.11093Z" fill="url(#paint1_linear_255_2411)"/>
<path d="M35.9912 20.1213L38.2953 17.8172L35.3503 14.8722C35.0249 14.4944 34.512 14.3012 33.9896 14.4267C33.6716 14.5032 33.3458 14.4454 33.0799 14.2823L33.0736 14.2759C33.0504 14.2528 32.6141 13.8165 32.6141 13.8165C32.3386 13.541 32.005 13.3498 31.6487 13.2456L30.3821 14.5123L35.9912 20.1213Z" fill="url(#paint2_linear_255_2411)"/>
<path d="M4.92103 23.4953L4.91152 23.5559C4.74789 24.5974 4.13789 25.5159 3.24133 26.0707L3.2126 26.0884C1.86525 26.9222 1.21721 28.5357 1.61348 30.0697L1.62946 30.1316C1.88838 31.1339 1.70564 32.1992 1.1274 33.0579L1.12123 33.0672C0.221619 34.403 0.313286 36.1727 1.34613 37.4086L1.4628 37.5481C2.08299 38.2902 2.35231 39.2641 2.20152 40.2194C1.94956 41.8152 2.83417 43.3733 4.33358 43.9746L4.46544 44.0275C5.38231 44.3953 6.10897 45.122 6.47652 46.0389L6.48436 46.0586C7.0974 47.5878 8.66446 48.4946 10.3005 48.3006C11.2892 48.1833 12.2826 48.4787 13.0468 49.1174L13.0951 49.1578C14.3305 50.1905 16.0998 50.2824 17.4354 49.3834L17.4466 49.3759C18.3051 48.798 19.3699 48.6155 20.3717 48.8744L20.4335 48.8904C21.9677 49.2868 23.5812 48.6388 24.4152 47.2915L24.433 47.2625C24.9879 46.366 25.9063 45.7561 26.9479 45.5924L27.0085 45.5828C28.5599 45.339 29.7768 44.1222 30.0207 42.5707L30.0303 42.5101C30.1941 41.4684 30.804 40.55 31.7005 39.995L31.73 39.9768C33.077 39.1428 33.7248 37.5296 33.3284 35.9957L33.3124 35.9337C33.0535 34.9316 33.2361 33.8666 33.8143 33.008L33.8209 32.9981C34.2561 32.3519 34.1544 31.2339 33.9225 30.2338C33.6784 29.1811 34.1834 28.1298 35.1121 27.5771C35.1219 27.5712 35.1305 27.5656 35.1378 27.5601C35.6042 27.2088 35.8948 26.6491 35.8529 26.0372C35.8281 25.6743 35.9855 25.3224 36.2583 25.0817L37.4469 24.0323C37.9471 23.5908 38.0149 22.8133 37.5607 22.3246C37.2393 21.9786 37.1504 21.4771 37.3325 21.0423L37.9135 19.6547C38.3078 18.713 37.6161 17.6735 36.5952 17.6735C36.2832 17.6735 36.0158 17.4501 35.9605 17.1429L35.6736 15.5503C35.5313 14.7606 34.7699 14.2393 33.9897 14.4268C33.483 14.5485 32.9563 14.3301 32.6844 13.8867L32.6143 13.8166C31.9106 13.1129 30.8303 12.9509 29.9512 13.4172C29.6064 13.6 29.1826 13.5365 28.9066 13.2605C28.2511 12.605 27.2612 12.6766 26.7067 13.4194L26.1338 14.1871C25.9304 14.4595 25.6211 14.6331 25.2826 14.6648L24.3679 14.7504C23.8025 14.8032 23.2823 15.039 22.8759 15.4063C22.8731 15.4088 22.8702 15.4115 22.8673 15.4142C22.1805 16.0616 21.2282 16.3539 20.3065 16.1508C19.362 15.9425 18.3475 16.1158 17.5054 16.6829L17.4962 16.6891C16.6379 17.2674 15.5728 17.4503 14.5707 17.1914L14.5083 17.1752C12.9742 16.7788 11.3606 17.4269 10.5267 18.7742L10.5088 18.8031C9.95397 19.6996 9.03564 20.3095 7.99417 20.4732L7.93329 20.4828C6.38182 20.7268 5.16486 21.9438 4.92103 23.4953Z" fill="url(#paint3_radial_255_2411)"/>
<path d="M37.9135 19.6549C38.3078 18.7132 37.6161 17.6737 36.5952 17.6737C36.2832 17.6737 36.0158 17.4503 35.9605 17.1431L35.6736 15.5505C35.5313 14.7608 34.7699 14.2395 33.9897 14.4269C33.9161 14.4446 33.8422 14.4543 33.7686 14.458L33.5123 15.07C33.3303 15.5048 33.4191 16.0064 33.7405 16.3523C34.1948 16.8411 34.1269 17.6185 33.6267 18.0601L32.4381 19.1094C32.1653 19.3502 32.0079 19.702 32.0327 20.065C32.0746 20.6769 31.784 21.2366 31.3176 21.5878C31.3103 21.5933 31.3017 21.599 31.2919 21.6049C30.3633 22.1576 29.8583 23.2089 30.1023 24.2616C30.3342 25.2617 30.4359 26.3797 30.0007 27.026L29.9941 27.0359C29.4159 27.8944 29.2332 28.9595 29.4922 29.9616L29.5082 30.0235C29.9046 31.5573 29.2568 33.1707 27.9098 34.0046L27.8803 34.0228C26.9838 34.5778 26.3739 35.4963 26.2101 36.538L26.2005 36.5986C25.9566 38.15 24.7398 39.3668 23.1883 39.6108L23.1277 39.6203C22.086 39.784 21.1677 40.3939 20.6128 41.2905L20.595 41.3194C19.761 42.6667 18.1474 43.3147 16.6133 42.9183L16.5515 42.9023C15.5497 42.6435 14.4849 42.8261 13.6264 43.4038L13.6152 43.4114C12.2795 44.3104 10.5102 44.2185 9.27495 43.1858L9.22662 43.1454C8.4624 42.5066 7.46897 42.2113 6.48034 42.3285C4.84426 42.5225 3.27721 41.6158 2.66417 40.0866L2.65622 40.0668C2.54191 39.7817 2.39289 39.5152 2.21426 39.2719C2.25417 39.5839 2.25142 39.9028 2.20132 40.2198V40.2199C1.94936 41.8157 2.83397 43.3737 4.33338 43.975L4.46524 44.0279C5.38211 44.3957 6.10877 45.1223 6.47632 46.0393L6.48426 46.059C7.0973 47.5882 8.66436 48.495 10.3004 48.301C11.2891 48.1837 12.2825 48.4791 13.0467 49.1178L13.095 49.1582C14.3304 50.1909 16.0997 50.2828 17.4353 49.3838L17.4465 49.3763C18.305 48.7984 19.3698 48.6159 20.3716 48.8748L20.4334 48.8908C21.9675 49.2871 23.5811 48.6392 24.4151 47.2918L24.4329 47.2629C24.9878 46.3664 25.9062 45.7565 26.9478 45.5927L27.0084 45.5832C28.5598 45.3394 29.7767 44.1225 30.0206 42.5711L30.0302 42.5105C30.194 41.4688 30.8039 40.5504 31.7004 39.9954L31.7299 39.9771C33.0769 39.1433 33.7247 37.53 33.3283 35.9961L33.3123 35.9341C33.0534 34.9319 33.236 33.8669 33.8142 33.0084L33.8208 32.9985C34.256 32.3522 34.1543 31.2343 33.9224 30.2342C33.6783 29.1815 34.1834 28.1302 35.112 27.5774C35.1218 27.5716 35.1304 27.5659 35.1377 27.5604C35.6041 27.2091 35.8947 26.6494 35.8528 26.0375C35.828 25.6746 35.9853 25.3227 36.2582 25.0819L37.4468 24.0326C37.947 23.5911 38.0149 22.8136 37.5606 22.3249C37.2392 21.9789 37.1503 21.4774 37.3324 21.0425L37.9135 19.6549Z" fill="url(#paint4_linear_255_2411)"/>
<g opacity="0.6">
<path d="M8.23608 38.0205C8.82881 38.0205 9.30931 37.54 9.30931 36.9473C9.30931 36.3545 8.82881 35.874 8.23608 35.874C7.64335 35.874 7.16284 36.3545 7.16284 36.9473C7.16284 37.54 7.64335 38.0205 8.23608 38.0205Z" fill="url(#paint5_linear_255_2411)"/>
<path d="M5.29647 39.5353C5.7644 39.5353 6.14373 39.156 6.14373 38.6881C6.14373 38.2201 5.7644 37.8408 5.29647 37.8408C4.82855 37.8408 4.44922 38.2201 4.44922 38.6881C4.44922 39.156 4.82855 39.5353 5.29647 39.5353Z" fill="url(#paint6_linear_255_2411)"/>
<path d="M8.39286 41.3336C8.67496 41.3336 8.90365 41.1049 8.90365 40.8228C8.90365 40.5407 8.67496 40.312 8.39286 40.312C8.11077 40.312 7.88208 40.5407 7.88208 40.8228C7.88208 41.1049 8.11077 41.3336 8.39286 41.3336Z" fill="url(#paint7_linear_255_2411)"/>
<path d="M13.1077 40.7609C13.5457 40.7609 13.9008 40.4058 13.9008 39.9678C13.9008 39.5299 13.5457 39.1748 13.1077 39.1748C12.6698 39.1748 12.3147 39.5299 12.3147 39.9678C12.3147 40.4058 12.6698 40.7609 13.1077 40.7609Z" fill="url(#paint8_linear_255_2411)"/>
<path d="M10.7008 39.8327C11.0466 39.8327 11.3269 39.5524 11.3269 39.2066C11.3269 38.8609 11.0466 38.5806 10.7008 38.5806C10.355 38.5806 10.0747 38.8609 10.0747 39.2066C10.0747 39.5524 10.355 39.8327 10.7008 39.8327Z" fill="url(#paint9_linear_255_2411)"/>
<path d="M11.0505 42.3408C11.259 42.3408 11.428 42.1718 11.428 41.9634C11.428 41.7549 11.259 41.5859 11.0505 41.5859C10.8421 41.5859 10.6731 41.7549 10.6731 41.9634C10.6731 42.1718 10.8421 42.3408 11.0505 42.3408Z" fill="url(#paint10_linear_255_2411)"/>
<path d="M30.148 18.4547C30.586 18.4547 30.9411 18.0997 30.9411 17.6617C30.9411 17.2237 30.586 16.8687 30.148 16.8687C29.71 16.8687 29.355 17.2237 29.355 17.6617C29.355 18.0997 29.71 18.4547 30.148 18.4547Z" fill="url(#paint11_linear_255_2411)"/>
<path d="M27.7411 17.5266C28.0868 17.5266 28.3671 17.2463 28.3671 16.9005C28.3671 16.5547 28.0868 16.2744 27.7411 16.2744C27.3953 16.2744 27.115 16.5547 27.115 16.9005C27.115 17.2463 27.3953 17.5266 27.7411 17.5266Z" fill="url(#paint12_linear_255_2411)"/>
<path d="M28.0908 20.0347C28.2993 20.0347 28.4683 19.8657 28.4683 19.6572C28.4683 19.4488 28.2993 19.2798 28.0908 19.2798C27.8824 19.2798 27.7134 19.4488 27.7134 19.6572C27.7134 19.8657 27.8824 20.0347 28.0908 20.0347Z" fill="url(#paint13_linear_255_2411)"/>
</g>
<path d="M36.9342 28.3335C37.7905 28.3335 37.7905 31.4342 36.9342 31.4342C36.0779 31.4342 35.3838 30.7401 35.3838 29.8838C35.3838 29.0275 36.0779 28.3335 36.9342 28.3335Z" fill="url(#paint14_linear_255_2411)"/>
<path d="M0.687012 19.712C0.687012 18.8558 3.7877 18.8558 3.7877 19.712C3.7877 20.5683 3.09358 21.2624 2.23731 21.2624C1.38103 21.2624 0.687012 20.5682 0.687012 19.712Z" fill="url(#paint15_linear_255_2411)"/>
<path d="M38.8543 28.319C39.2629 28.319 39.5941 27.9877 39.5941 27.5792C39.5941 27.1706 39.2629 26.8394 38.8543 26.8394C38.4457 26.8394 38.1145 27.1706 38.1145 27.5792C38.1145 27.9877 38.4457 28.319 38.8543 28.319Z" fill="url(#paint16_linear_255_2411)"/>
<path d="M1.24371 43.8854C1.65229 43.8854 1.98351 43.5541 1.98351 43.1456C1.98351 42.737 1.65229 42.4058 1.24371 42.4058C0.835128 42.4058 0.503906 42.737 0.503906 43.1456C0.503906 43.5541 0.835128 43.8854 1.24371 43.8854Z" fill="url(#paint17_linear_255_2411)"/>
<path d="M38.4844 35.0937C39.0972 35.0937 39.594 34.5969 39.594 33.9841C39.594 33.3713 39.0972 32.8745 38.4844 32.8745C37.8715 32.8745 37.3748 33.3713 37.3748 33.9841C37.3748 34.5969 37.8715 35.0937 38.4844 35.0937Z" fill="url(#paint18_linear_255_2411)"/>
<path d="M2.15868 25.3481C2.7715 25.3481 3.26829 24.8513 3.26829 24.2385C3.26829 23.6257 2.7715 23.1289 2.15868 23.1289C1.54586 23.1289 1.04907 23.6257 1.04907 24.2385C1.04907 24.8513 1.54586 25.3481 2.15868 25.3481Z" fill="url(#paint19_linear_255_2411)"/>
</g>
<defs>
<linearGradient id="paint0_linear_255_2411" x1="37.0639" y1="9.93964" x2="45.9111" y2="11.3833" gradientUnits="userSpaceOnUse">
<stop stopColor="#F8F6FB"/>
<stop offset="1" stopColor="#EFDCFB"/>
</linearGradient>
<linearGradient id="paint1_linear_255_2411" x1="38.9334" y1="5.45828" x2="55.4127" y2="0.208175" gradientUnits="userSpaceOnUse">
<stop stopColor="#EFDCFB" stopOpacity="0"/>
<stop offset="0.4856" stopColor="#BAAAD6" stopOpacity="0.486"/>
<stop offset="1" stopColor="#8679B2"/>
</linearGradient>
<linearGradient id="paint2_linear_255_2411" x1="39.8839" y1="21.7071" x2="31.492" y2="13.3151" gradientUnits="userSpaceOnUse">
<stop stopColor="#EFDCFB" stopOpacity="0"/>
<stop offset="0.4856" stopColor="#BAAAD6" stopOpacity="0.486"/>
<stop offset="1" stopColor="#8679B2"/>
</linearGradient>
<radialGradient id="paint3_radial_255_2411" cx="0" cy="0" r="1" gradientUnits="userSpaceOnUse" gradientTransform="translate(4.50623 15.7365) rotate(-45) scale(33.2051)">
<stop stopColor="#FFD945"/>
<stop offset="0.3111" stopColor="#FFD643"/>
<stop offset="0.5584" stopColor="#FFCC3D"/>
<stop offset="0.7831" stopColor="#FFBB33"/>
<stop offset="0.9944" stopColor="#FFA425"/>
<stop offset="1" stopColor="#FFA325"/>
</radialGradient>
<linearGradient id="paint4_linear_255_2411" x1="22.664" y1="31.6125" x2="84.1087" y2="49.1366" gradientUnits="userSpaceOnUse">
<stop stopColor="#F82814" stopOpacity="0"/>
<stop offset="1" stopColor="#C0272D"/>
</linearGradient>
<linearGradient id="paint5_linear_255_2411" x1="8.36315" y1="38.5874" x2="7.57458" y2="33.5694" gradientUnits="userSpaceOnUse">
<stop stopColor="#F82814" stopOpacity="0"/>
<stop offset="0.2454" stopColor="#F12817" stopOpacity="0.245"/>
<stop offset="0.6052" stopColor="#DD2820" stopOpacity="0.605"/>
<stop offset="1" stopColor="#C0272D"/>
</linearGradient>
<linearGradient id="paint6_linear_255_2411" x1="5.36933" y1="39.9869" x2="4.74677" y2="36.0255" gradientUnits="userSpaceOnUse">
<stop stopColor="#F82814" stopOpacity="0"/>
<stop offset="0.2454" stopColor="#F12817" stopOpacity="0.245"/>
<stop offset="0.6052" stopColor="#DD2820" stopOpacity="0.605"/>
<stop offset="1" stopColor="#C0272D"/>
</linearGradient>
<linearGradient id="paint7_linear_255_2411" x1="8.38521" y1="41.6171" x2="8.00983" y2="39.2288" gradientUnits="userSpaceOnUse">
<stop stopColor="#F82814" stopOpacity="0"/>
<stop offset="0.2454" stopColor="#F12817" stopOpacity="0.245"/>
<stop offset="0.6052" stopColor="#DD2820" stopOpacity="0.605"/>
<stop offset="1" stopColor="#C0272D"/>
</linearGradient>
<linearGradient id="paint8_linear_255_2411" x1="12.2813" y1="40.8553" x2="14.6554" y2="37.9487" gradientUnits="userSpaceOnUse">
<stop stopColor="#F82814" stopOpacity="0"/>
<stop offset="0.2454" stopColor="#F12817" stopOpacity="0.245"/>
<stop offset="0.6052" stopColor="#DD2820" stopOpacity="0.605"/>
<stop offset="1" stopColor="#C0272D"/>
</linearGradient>
<linearGradient id="paint9_linear_255_2411" x1="10.0357" y1="39.8968" x2="11.9099" y2="37.6021" gradientUnits="userSpaceOnUse">
<stop stopColor="#F82814" stopOpacity="0"/>
<stop offset="0.2454" stopColor="#F12817" stopOpacity="0.245"/>
<stop offset="0.6052" stopColor="#DD2820" stopOpacity="0.605"/>
<stop offset="1" stopColor="#C0272D"/>
</linearGradient>
<linearGradient id="paint10_linear_255_2411" x1="10.6241" y1="42.3602" x2="11.754" y2="40.9768" gradientUnits="userSpaceOnUse">
<stop stopColor="#F82814" stopOpacity="0"/>
<stop offset="0.2454" stopColor="#F12817" stopOpacity="0.245"/>
<stop offset="0.6052" stopColor="#DD2820" stopOpacity="0.605"/>
<stop offset="1" stopColor="#C0272D"/>
</linearGradient>
<linearGradient id="paint11_linear_255_2411" x1="29.3252" y1="18.557" x2="31.6994" y2="15.6503" gradientUnits="userSpaceOnUse">
<stop stopColor="#F82814" stopOpacity="0"/>
<stop offset="0.2454" stopColor="#F12817" stopOpacity="0.245"/>
<stop offset="0.6052" stopColor="#DD2820" stopOpacity="0.605"/>
<stop offset="1" stopColor="#C0272D"/>
</linearGradient>
<linearGradient id="paint12_linear_255_2411" x1="27.0796" y1="17.5984" x2="28.9539" y2="15.3037" gradientUnits="userSpaceOnUse">
<stop stopColor="#F82814" stopOpacity="0"/>
<stop offset="0.2454" stopColor="#F12817" stopOpacity="0.245"/>
<stop offset="0.6052" stopColor="#DD2820" stopOpacity="0.605"/>
<stop offset="1" stopColor="#C0272D"/>
</linearGradient>
<linearGradient id="paint13_linear_255_2411" x1="27.668" y1="20.0617" x2="28.798" y2="18.6783" gradientUnits="userSpaceOnUse">
<stop stopColor="#F82814" stopOpacity="0"/>
<stop offset="0.2454" stopColor="#F12817" stopOpacity="0.245"/>
<stop offset="0.6052" stopColor="#DD2820" stopOpacity="0.605"/>
<stop offset="1" stopColor="#C0272D"/>
</linearGradient>
<linearGradient id="paint14_linear_255_2411" x1="35.1228" y1="30.7973" x2="37.6207" y2="29.4192" gradientUnits="userSpaceOnUse">
<stop stopColor="#FFD945"/>
<stop offset="0.3043" stopColor="#FFCD3E"/>
<stop offset="0.8558" stopColor="#FFAD2B"/>
<stop offset="1" stopColor="#FFA325"/>
</linearGradient>
<linearGradient id="paint15_linear_255_2411" x1="3.15093" y1="21.5234" x2="1.7728" y2="19.0256" gradientUnits="userSpaceOnUse">
<stop stopColor="#FFD945"/>
<stop offset="0.3043" stopColor="#FFCD3E"/>
<stop offset="0.8558" stopColor="#FFAD2B"/>
<stop offset="1" stopColor="#FFA325"/>
</linearGradient>
<linearGradient id="paint16_linear_255_2411" x1="38.3608" y1="26.6847" x2="39.1752" y2="28.1608" gradientUnits="userSpaceOnUse">
<stop stopColor="#FFD945"/>
<stop offset="0.3043" stopColor="#FFCD3E"/>
<stop offset="0.8558" stopColor="#FFAD2B"/>
<stop offset="1" stopColor="#FFA325"/>
</linearGradient>
<linearGradient id="paint17_linear_255_2411" x1="0.750181" y1="42.2511" x2="1.56459" y2="43.7271" gradientUnits="userSpaceOnUse">
<stop stopColor="#FFD945"/>
<stop offset="0.3043" stopColor="#FFCD3E"/>
<stop offset="0.8558" stopColor="#FFAD2B"/>
<stop offset="1" stopColor="#FFA325"/>
</linearGradient>
<linearGradient id="paint18_linear_255_2411" x1="37.7441" y1="32.6424" x2="38.9657" y2="34.8565" gradientUnits="userSpaceOnUse">
<stop stopColor="#FFD945"/>
<stop offset="0.3043" stopColor="#FFCD3E"/>
<stop offset="0.8558" stopColor="#FFAD2B"/>
<stop offset="1" stopColor="#FFA325"/>
</linearGradient>
<linearGradient id="paint19_linear_255_2411" x1="1.41839" y1="22.8968" x2="2.64005" y2="25.111" gradientUnits="userSpaceOnUse">
<stop stopColor="#FFD945"/>
<stop offset="0.3043" stopColor="#FFCD3E"/>
<stop offset="0.8558" stopColor="#FFAD2B"/>
<stop offset="1" stopColor="#FFA325"/>
</linearGradient>
<clipPath id="clip0_255_2411">
<rect width="50" height="50" fill="white" transform="translate(0.5)"/>
</clipPath>
</defs>
</svg>
