<svg width="51" height="50" viewBox="0 0 51 50" fill="none" xmlns="http://www.w3.org/2000/svg">
<g clipPath="url(#clip0_255_2407)">
<path d="M28.8681 48.1674C28.8681 47.155 26.2424 46.3345 23.0034 46.3345C19.7643 46.3345 17.1387 47.155 17.1387 48.1674C17.1387 49.1795 19.7643 50 23.0034 50C26.2424 50 28.8681 49.1795 28.8681 48.1674Z" fill="url(#paint0_radial_255_2407)"/>
<path d="M44.4327 27.4824C44.4327 39.3167 34.838 48.9114 23.0033 48.9114C11.1689 48.9114 1.57422 39.3167 1.57422 27.4824C1.57422 27.4088 1.57536 27.3367 1.57994 27.2646C1.58337 27.1753 1.59024 27.0864 1.59901 26.9983C2.14032 25.0166 11.5176 23.4399 23.0033 23.4399C34.4893 23.4399 43.8662 25.0169 44.4079 26.9983C44.4167 27.0864 44.4236 27.1753 44.427 27.2646C44.4312 27.3367 44.4327 27.4091 44.4327 27.4824Z" fill="url(#paint1_radial_255_2407)"/>
<path d="M44.4324 27.1795C44.4324 25.1142 34.8384 23.4399 23.0033 23.4399C11.1682 23.4399 1.57422 25.1142 1.57422 27.1795C1.57422 29.2451 11.1682 30.9194 23.0033 30.9194C34.8384 30.9194 44.4324 29.2451 44.4324 27.1795Z" fill="url(#paint2_linear_255_2407)"/>
<path d="M43.1036 27.1798C43.1036 25.5188 34.1044 24.1719 23.0032 24.1719C11.9021 24.1719 2.90283 25.5188 2.90283 27.1798C2.90283 28.8411 11.9021 30.1877 23.0032 30.1877C34.1044 30.1877 43.1036 28.8411 43.1036 27.1798Z" fill="url(#paint3_linear_255_2407)"/>
<path d="M43.8053 32.6494C43.6271 33.3712 43.412 34.0773 43.1625 34.7673C40.1817 36.2066 32.2811 37.2362 23.0033 37.2362C13.7256 37.2362 5.825 36.2066 2.84419 34.7673C2.59509 34.0773 2.37956 33.3712 2.20142 32.6494C4.51122 34.2791 12.9497 35.4879 23.0033 35.4879C33.057 35.4879 41.4955 34.2791 43.8053 32.6494Z" fill="url(#paint4_linear_255_2407)"/>
<path d="M44.2985 29.8872C44.2115 30.6723 44.0818 31.4447 43.9105 32.2027C39.593 33.5428 31.8446 34.4359 23.0033 34.4359C14.1623 34.4359 6.41393 33.5428 2.09645 32.2027C1.92517 31.4447 1.79547 30.6723 1.7085 29.8872C5.93785 31.296 13.8915 32.2455 23.0033 32.2455C32.1154 32.2455 40.0687 31.296 44.2985 29.8872Z" fill="url(#paint5_linear_255_2407)"/>
<path d="M14.9299 25.1308C14.9299 26.2 14.0632 27.0671 12.994 27.0671C11.9243 27.0671 11.0576 26.2 11.0576 25.1308C11.0576 24.0615 11.9243 23.1948 12.994 23.1948C14.0632 23.1948 14.9299 24.0615 14.9299 25.1308Z" fill="url(#paint6_linear_255_2407)"/>
<path d="M33.8251 29.7157C33.4291 29.7539 33.0244 29.7901 32.6101 29.8229C32.1501 29.8611 31.6774 29.8961 31.196 29.9286C30.6749 29.9625 30.1424 29.9942 29.5999 30.0224C28.1656 30.0968 26.6577 30.1475 25.0955 30.1712C24.8216 30.1769 24.5451 30.1803 24.2666 30.1826C23.9168 30.1861 23.5639 30.1872 23.2088 30.1884H22.8636C22.4485 30.1884 22.0358 30.1861 21.6276 30.1815C21.4651 30.1792 21.3026 30.1781 21.1401 30.1746C20.8605 30.1712 20.582 30.1666 20.3069 30.1613C19.8488 30.1521 19.3964 30.1411 18.9489 30.1273C17.5459 30.0846 16.1958 30.019 14.9156 29.9354C14.3709 29.8996 13.8395 29.8599 13.3219 29.8172C12.8393 29.7775 12.3689 29.7348 11.9123 29.6898C11.4961 29.6478 11.091 29.6051 10.6985 29.5589C10.763 29.3197 10.8351 29.084 10.9152 28.8517C11.1307 28.2204 11.4012 27.6123 11.7227 27.0336C12.0184 26.498 12.3579 25.9868 12.7367 25.5066C13.006 25.1625 13.2952 24.8333 13.603 24.5205C13.6808 24.4419 13.7609 24.3625 13.8418 24.2851C15.9963 22.2175 18.9657 20.9385 22.2421 20.9385C25.0089 20.9385 27.5564 21.8498 29.5797 23.3803C29.9982 23.695 30.3942 24.0368 30.7642 24.4045C30.7775 24.4171 30.7901 24.4293 30.8035 24.4442C31.23 24.868 31.6236 25.325 31.9788 25.8098C32.3633 26.3344 32.704 26.8902 32.995 27.4746C33.3479 28.1841 33.6275 28.9341 33.8251 29.7157Z" fill="url(#paint7_linear_255_2407)"/>
<path d="M32.6101 29.8228C32.1501 29.8609 31.6774 29.896 31.196 29.9284C30.6749 29.9624 30.1424 29.9941 29.6 30.0223C28.1656 30.0967 26.6577 30.1474 25.0956 30.1711C24.8217 30.1768 24.5451 30.1802 24.2666 30.1825C23.9168 30.1859 23.564 30.1871 23.2088 30.1882H22.8636C22.4485 30.1882 22.0358 30.1859 21.6276 30.1814C21.4651 30.1791 21.3026 30.1779 21.1401 30.1745C20.8605 30.1711 20.582 30.1665 20.307 30.1611C19.8488 30.152 19.3964 30.1409 18.9489 30.1272C17.5459 30.0845 16.1959 30.0188 14.9157 29.9353C14.3709 29.8994 13.8395 29.8598 13.3219 29.817C12.8393 29.7774 12.369 29.7347 11.9124 29.6896C12.0352 29.2586 12.1862 28.8401 12.3644 28.4342C12.6127 27.867 12.9114 27.3257 13.2567 26.8145C13.5801 26.3342 13.9444 25.8818 14.3438 25.461C14.707 25.0788 15.1007 24.7225 15.5192 24.3964C15.5222 24.3929 15.5272 24.3899 15.5314 24.3864C17.3689 22.9586 19.7023 22.1045 22.2422 22.1045C24.3479 22.1045 26.3113 22.6923 27.9684 23.7063C28.2705 23.8902 28.5616 24.0897 28.8424 24.3006C28.9766 24.4032 29.1086 24.507 29.2372 24.6142C29.677 24.9808 30.0852 25.3809 30.4575 25.8109C30.8565 26.2698 31.2155 26.7626 31.5275 27.2849C31.9979 28.0711 32.3656 28.9225 32.6101 29.8228Z" fill="url(#paint8_linear_255_2407)"/>
<path d="M29.6001 30.0224C28.1657 30.0968 26.6578 30.1475 25.0957 30.1712C24.8218 30.1769 24.5452 30.1803 24.2667 30.1826C23.9169 30.186 23.5641 30.1872 23.2089 30.1883H22.8637C22.4487 30.1883 22.0359 30.186 21.6277 30.1815C21.4652 30.1792 21.3027 30.178 21.1402 30.1746C20.8606 30.1712 20.5821 30.1666 20.3071 30.1612C19.8489 30.1521 19.3965 30.141 18.9491 30.1273C17.546 30.0846 16.196 30.019 14.9158 29.9354C15.1042 29.4269 15.3465 28.9444 15.6387 28.4931C15.9366 28.0304 16.2849 27.6031 16.6763 27.2151C17.052 26.844 17.467 26.509 17.9156 26.2191C18.3334 25.9487 18.7797 25.7164 19.2489 25.5268C20.1705 25.1548 21.181 24.9492 22.2423 24.9492C23.0308 24.9492 23.7907 25.0621 24.5071 25.2742C24.9839 25.4127 25.4409 25.5966 25.8739 25.819C26.3442 26.0582 26.7852 26.3431 27.1915 26.667C27.6176 27.0076 28.0067 27.391 28.3508 27.8106C28.8875 28.4683 29.3124 29.2137 29.6001 30.0224Z" fill="url(#paint9_linear_255_2407)"/>
<path d="M29.874 24.8207C29.874 25.89 29.0073 26.7571 27.9377 26.7571C26.8684 26.7571 26.0017 25.89 26.0017 24.8207C26.0017 23.7515 26.8684 22.8848 27.9377 22.8848C29.0073 22.8848 29.874 23.7515 29.874 24.8207Z" fill="url(#paint10_linear_255_2407)"/>
<path d="M46.9096 0.471763C47.2053 0.945548 47.0557 1.56963 46.5781 1.85841L19.5026 18.2277C19.2348 18.3894 18.8869 18.3062 18.7217 18.0407C18.5561 17.7756 18.6347 17.4266 18.8979 17.2576L45.5188 0.158957C45.9884 -0.142785 46.6144 -0.00202288 46.9096 0.471763Z" fill="url(#paint11_linear_255_2407)"/>
<path d="M49.3379 2.99507C49.6073 3.48449 49.4245 4.09942 48.9317 4.36187L21.0104 19.2422C20.7342 19.3895 20.3913 19.2876 20.2406 19.0137C20.0899 18.7398 20.1872 18.3954 20.4588 18.2409L47.9662 2.60749C48.4514 2.33169 49.0686 2.50602 49.3379 2.99507Z" fill="url(#paint12_linear_255_2407)"/>
<path d="M22.6649 28.0351H21.3114V18.7306C21.3114 18.4197 21.0585 18.1664 20.7476 18.1664C20.4367 18.1664 20.1838 18.4197 20.1838 18.7306V26.9074H18.8303V18.7306C18.8303 17.6732 19.6902 16.813 20.7476 16.813C21.805 16.813 22.6649 17.6732 22.6649 18.7306V28.0351Z" fill="url(#paint13_linear_255_2407)"/>
<path d="M41.1911 28.4626C40.8291 28.5774 40.4197 28.688 39.9662 28.7952C39.5084 28.9024 39.0056 29.005 38.4605 29.1031C37.8944 29.2045 37.2833 29.3018 36.6325 29.3907C35.7639 29.5116 34.8243 29.62 33.8253 29.7157C33.4293 29.7539 33.0246 29.7901 32.6103 29.8229C32.1502 29.8611 31.6776 29.8961 31.1962 29.929C30.6751 29.9625 30.1426 29.9942 29.6001 30.0224C28.1658 30.0968 26.6578 30.1475 25.0957 30.1712C24.8218 30.1769 24.5453 30.1803 24.2668 30.1826C23.917 30.1861 23.5641 30.1872 23.209 30.1884H22.8637C22.4487 30.1884 22.0359 30.1861 21.6278 30.1815C21.4653 30.1792 21.3028 30.1781 21.1403 30.1746C20.8606 30.1716 20.5822 30.167 20.3071 30.1613C20.396 29.9629 20.4929 29.7664 20.5948 29.5734C20.8122 29.1595 21.056 28.7605 21.3234 28.3768C21.5488 28.051 21.7914 27.7374 22.0508 27.4364C22.76 26.6098 23.5878 25.8812 24.5071 25.2743C25.0564 24.9111 25.6374 24.5918 26.2474 24.3214C26.3263 24.2851 26.4064 24.2515 26.4866 24.2176C26.9649 24.0166 27.4601 23.8453 27.9686 23.7068C28.4919 23.5622 29.0298 23.4527 29.5803 23.3806C30.1181 23.3074 30.6686 23.27 31.2278 23.27C33.6258 23.27 35.8589 23.9548 37.7289 25.1324C39.1056 25.9994 40.2866 27.1351 41.1911 28.4626Z" fill="url(#paint14_linear_255_2407)"/>
<path d="M39.9662 28.7953C39.5085 28.9025 39.0053 29.0051 38.4606 29.1031C37.8945 29.2046 37.2833 29.3018 36.6326 29.3907C35.7639 29.5117 34.8244 29.62 33.8249 29.7157C33.4294 29.7539 33.0242 29.7901 32.6103 29.8229C32.1503 29.8611 31.6776 29.8962 31.1962 29.929C30.6751 29.9626 30.1426 29.9942 29.6002 30.0224C28.1655 30.0968 26.6575 30.1476 25.0958 30.1712C24.8215 30.1769 24.5453 30.1804 24.2668 30.1827C23.917 30.1861 23.5642 30.1872 23.2086 30.1884H22.8638C22.4487 30.1884 22.036 30.1861 21.6274 30.1815C21.7899 29.8657 21.9692 29.559 22.1634 29.2622C22.3854 28.9227 22.628 28.5969 22.8897 28.2856C23.7164 27.2965 24.728 26.4572 25.874 25.819C26.4084 25.52 26.9726 25.264 27.5601 25.0576C28.1002 24.8673 28.6598 24.7181 29.2374 24.6143C29.747 24.5209 30.2704 24.4633 30.8037 24.4442C30.9448 24.4373 31.086 24.4351 31.2279 24.4351H31.2451C31.81 24.4362 32.3651 24.4793 32.9064 24.5625C35.8124 25.0034 38.3309 26.5743 39.9662 28.7953Z" fill="url(#paint15_linear_255_2407)"/>
<path d="M36.6325 29.3908C35.7639 29.5118 34.8243 29.6197 33.8249 29.7159C33.4293 29.754 33.0242 29.7902 32.6103 29.823C32.1502 29.8612 31.6776 29.8963 31.1962 29.9287C30.6751 29.9627 30.1425 29.9943 29.6001 30.0226C28.1654 30.0969 26.6574 30.1477 25.0957 30.1713C25.9391 29.1292 27.0603 28.3071 28.3504 27.8108C28.8581 27.6159 29.3926 27.4701 29.9465 27.3813C30.3638 27.3145 30.7914 27.2798 31.2278 27.2798C31.3282 27.2798 31.4285 27.2817 31.5277 27.2851C32.0308 27.3034 32.5214 27.3687 32.9952 27.4747C34.3891 27.7883 35.6388 28.4627 36.6325 29.3908Z" fill="url(#paint16_linear_255_2407)"/>
<path d="M24.2668 30.1827C23.917 30.1861 23.5641 30.1873 23.2086 30.1884H22.8638C22.4487 30.1884 22.036 30.1861 21.6274 30.1815C21.4649 30.1792 21.3028 30.1781 21.1403 30.1747C20.8607 30.1712 20.5822 30.1667 20.3068 30.1613C19.849 30.1522 19.3966 30.1411 18.9487 30.1274C17.5461 30.0846 16.196 30.019 14.9158 29.9355C14.3711 29.8996 13.8397 29.86 13.3221 29.8172C12.8395 29.7776 12.3691 29.7348 11.9121 29.6898C11.496 29.6479 11.0912 29.6051 10.6987 29.559C10.3683 29.5204 10.0468 29.4812 9.73319 29.4396C8.9733 29.3404 8.26376 29.2309 7.61298 29.1157C7.02094 29.0097 6.47734 28.8979 5.98563 28.7819C5.50726 28.6679 5.07887 28.5496 4.70312 28.4268C6.10503 26.8048 7.95935 25.5608 10.0784 24.8772C11.2617 24.495 12.5271 24.2874 13.842 24.2852H13.8592C14.4062 24.2852 14.9452 24.321 15.4728 24.3901C15.4888 24.3923 15.5044 24.3935 15.5193 24.3969C16.1465 24.4801 16.7576 24.6121 17.3496 24.7883C18.0096 24.981 18.6443 25.2304 19.2489 25.5268C20.2778 26.0323 21.2204 26.6762 22.0505 27.4365C22.345 27.7047 22.6257 27.9877 22.8897 28.2856C23.2044 28.6366 23.4955 29.0039 23.7625 29.39C23.9418 29.6467 24.11 29.9107 24.2668 30.1827Z" fill="url(#paint17_linear_255_2407)"/>
<path d="M22.8637 30.188C22.4487 30.188 22.0359 30.1858 21.6274 30.1816C21.4649 30.1793 21.3028 30.1781 21.1402 30.1747C20.8606 30.1713 20.5822 30.1667 20.3067 30.161C19.849 30.1522 19.3965 30.1407 18.9487 30.1274C17.546 30.0843 16.196 30.0191 14.9158 29.9355C14.3711 29.8997 13.8397 29.86 13.322 29.8173C12.8395 29.7776 12.3691 29.7349 11.9121 29.6899C11.4959 29.6479 11.0912 29.6052 10.6987 29.559C10.3683 29.5205 10.0467 29.4812 9.73315 29.4392C8.97327 29.34 8.26373 29.2306 7.61295 29.1157C7.0209 29.0097 6.47731 28.8979 5.9856 28.782C7.70412 26.9818 10.0761 25.7741 12.7368 25.5067C13.1057 25.4693 13.48 25.4502 13.8591 25.4502C14.0213 25.4502 14.1838 25.4536 14.344 25.4613C14.944 25.4861 15.5315 25.5597 16.1022 25.6779C16.7293 25.8065 17.3351 25.9881 17.9161 26.2192C19.1936 26.7235 20.3487 27.4613 21.3233 28.3768C21.6209 28.6545 21.9017 28.9509 22.1633 29.2622C22.4147 29.5579 22.6482 29.8669 22.8637 30.188Z" fill="url(#paint18_linear_255_2407)"/>
<path d="M18.9487 30.1274C17.5457 30.0843 16.1956 30.0191 14.9154 29.9355C14.3707 29.8997 13.8397 29.86 13.322 29.8173C12.8391 29.7776 12.3687 29.7349 11.9121 29.6898C11.4959 29.6479 11.0912 29.6052 10.6987 29.559C10.3679 29.5205 10.0467 29.4812 9.73315 29.4392C10.1066 29.2115 10.5026 29.0154 10.9153 28.8518C11.3777 28.669 11.8614 28.5279 12.3645 28.4344C12.8471 28.3417 13.348 28.2944 13.8587 28.2944C13.8961 28.2944 13.9324 28.2944 13.9694 28.2956C14.5435 28.3036 15.1016 28.3715 15.6387 28.4932C16.8838 28.7751 18.0137 29.3458 18.9487 30.1274Z" fill="url(#paint19_linear_255_2407)"/>
<path d="M24.9263 30.1745C24.2938 30.1837 23.6518 30.1879 23.0033 30.1879C22.4688 30.1879 21.9397 30.1848 21.4167 30.1791C21.7246 29.5168 22.3956 29.0591 23.1727 29.0591C23.9486 29.0591 24.6173 29.5157 24.9263 30.1745Z" fill="url(#paint20_linear_255_2407)"/>
<path d="M42.7103 27.7754C42.1057 28.2267 40.8266 28.6406 39.0367 28.9946C38.9578 28.784 38.915 28.5559 38.915 28.3167C38.915 27.2478 39.7825 26.3804 40.8514 26.3804C41.7322 26.3804 42.4768 26.969 42.7103 27.7754Z" fill="url(#paint21_linear_255_2407)"/>
<path d="M20.7618 17.0244C19.7497 17.0244 18.9292 17.845 18.9292 18.857C18.9292 19.6672 19.4552 20.3531 20.1839 20.5954V18.7303C20.1839 18.4194 20.4368 18.1662 20.7477 18.1662C21.0586 18.1662 21.3115 18.4194 21.3115 18.7303V20.6057C22.055 20.3722 22.5944 19.6775 22.5944 18.857C22.5944 17.845 21.7738 17.0244 20.7618 17.0244Z" fill="url(#paint22_radial_255_2407)"/>
</g>
<defs>
<radialGradient id="paint0_radial_255_2407" cx="0" cy="0" r="1" gradientUnits="userSpaceOnUse" gradientTransform="translate(22.9471 47.6016) scale(9.07924 3.26489)">
<stop stopColor="#FFFCF8"/>
<stop offset="0.2378" stopColor="#FCF9F7"/>
<stop offset="0.4365" stopColor="#F1F2F3"/>
<stop offset="0.621" stopColor="#E0E5ED"/>
<stop offset="0.797" stopColor="#C8D2E5"/>
<stop offset="0.9655" stopColor="#A8BBDB"/>
<stop offset="1" stopColor="#A1B5D8"/>
</radialGradient>
<radialGradient id="paint1_radial_255_2407" cx="0" cy="0" r="1" gradientUnits="userSpaceOnUse" gradientTransform="translate(15.5596 15.8259) scale(38.5722)">
<stop stopColor="#FFFCF8"/>
<stop offset="0.4554" stopColor="#FDFBF7"/>
<stop offset="0.6194" stopColor="#F6F5F5"/>
<stop offset="0.7363" stopColor="#EBEDF1"/>
<stop offset="0.8309" stopColor="#DAE0EB"/>
<stop offset="0.9118" stopColor="#C4CFE4"/>
<stop offset="0.9822" stopColor="#A9BBDB"/>
<stop offset="1" stopColor="#A1B5D8"/>
</radialGradient>
<linearGradient id="paint2_linear_255_2407" x1="22.1398" y1="21.8213" x2="25.0722" y2="40.0173" gradientUnits="userSpaceOnUse">
<stop stopColor="#FFFCF8"/>
<stop offset="0.1875" stopColor="#FAF8F6"/>
<stop offset="0.4041" stopColor="#ECEEF2"/>
<stop offset="0.6353" stopColor="#D5DCEA"/>
<stop offset="0.875" stopColor="#B5C4DF"/>
<stop offset="1" stopColor="#A1B5D8"/>
</linearGradient>
<linearGradient id="paint3_linear_255_2407" x1="23.0033" y1="34.9997" x2="23.0033" y2="13.8307" gradientUnits="userSpaceOnUse">
<stop stopColor="#FFFCF8"/>
<stop offset="0.1875" stopColor="#FAF8F6"/>
<stop offset="0.4041" stopColor="#ECEEF2"/>
<stop offset="0.6353" stopColor="#D5DCEA"/>
<stop offset="0.875" stopColor="#B5C4DF"/>
<stop offset="1" stopColor="#A1B5D8"/>
</linearGradient>
<linearGradient id="paint4_linear_255_2407" x1="17.3078" y1="34.9428" x2="36.9351" y2="34.9428" gradientUnits="userSpaceOnUse">
<stop stopColor="#FF6E3A"/>
<stop offset="0.1596" stopColor="#FF6440"/>
<stop offset="0.4266" stopColor="#FF4B52"/>
<stop offset="0.7662" stopColor="#FF216E"/>
<stop offset="1" stopColor="#FF0084"/>
</linearGradient>
<linearGradient id="paint5_linear_255_2407" x1="17.3077" y1="32.1616" x2="36.9351" y2="32.1616" gradientUnits="userSpaceOnUse">
<stop stopColor="#FF6E3A"/>
<stop offset="0.1596" stopColor="#FF6440"/>
<stop offset="0.4266" stopColor="#FF4B52"/>
<stop offset="0.7662" stopColor="#FF216E"/>
<stop offset="1" stopColor="#FF0084"/>
</linearGradient>
<linearGradient id="paint6_linear_255_2407" x1="12.5282" y1="23.2888" x2="13.74" y2="28.0835" gradientUnits="userSpaceOnUse">
<stop stopColor="#C6E56F"/>
<stop offset="0.3371" stopColor="#C4E56F"/>
<stop offset="0.4953" stopColor="#BCE36E"/>
<stop offset="0.6162" stopColor="#AFE16D"/>
<stop offset="0.7182" stopColor="#9DDD6B"/>
<stop offset="0.8083" stopColor="#85D968"/>
<stop offset="0.8899" stopColor="#68D365"/>
<stop offset="0.9635" stopColor="#46CD61"/>
<stop offset="1" stopColor="#32C95F"/>
</linearGradient>
<linearGradient id="paint7_linear_255_2407" x1="16.5293" y1="21.0585" x2="27.4398" y2="36.0898" gradientUnits="userSpaceOnUse">
<stop stopColor="#FFD459"/>
<stop offset="0.2296" stopColor="#FFD355"/>
<stop offset="0.4362" stopColor="#FFCF4A"/>
<stop offset="0.634" stopColor="#FFC838"/>
<stop offset="0.825" stopColor="#FFBF1F"/>
<stop offset="1" stopColor="#FFB400"/>
</linearGradient>
<linearGradient id="paint8_linear_255_2407" x1="20.3829" y1="22.3246" x2="23.6255" y2="35.1539" gradientUnits="userSpaceOnUse">
<stop stopColor="#E58200" stopOpacity="0"/>
<stop offset="0.0396" stopColor="#E27F04" stopOpacity="0.039216"/>
<stop offset="0.4671" stopColor="#C15D2F" stopOpacity="0.466667"/>
<stop offset="0.8016" stopColor="#AD4949" stopOpacity="0.8"/>
<stop offset="1" stopColor="#A64153"/>
</linearGradient>
<linearGradient id="paint9_linear_255_2407" x1="20.123" y1="25.0836" x2="23.7229" y2="33.2991" gradientUnits="userSpaceOnUse">
<stop stopColor="#E58200" stopOpacity="0"/>
<stop offset="0.0396" stopColor="#E27F04" stopOpacity="0.039216"/>
<stop offset="0.4671" stopColor="#C15D2F" stopOpacity="0.466667"/>
<stop offset="0.8016" stopColor="#AD4949" stopOpacity="0.8"/>
<stop offset="1" stopColor="#A64153"/>
</linearGradient>
<linearGradient id="paint10_linear_255_2407" x1="27.4722" y1="22.9787" x2="28.6841" y2="27.7734" gradientUnits="userSpaceOnUse">
<stop stopColor="#C6E56F"/>
<stop offset="0.3371" stopColor="#C4E56F"/>
<stop offset="0.4953" stopColor="#BCE36E"/>
<stop offset="0.6162" stopColor="#AFE16D"/>
<stop offset="0.7182" stopColor="#9DDD6B"/>
<stop offset="0.8083" stopColor="#85D968"/>
<stop offset="0.8899" stopColor="#68D365"/>
<stop offset="0.9635" stopColor="#46CD61"/>
<stop offset="1" stopColor="#32C95F"/>
</linearGradient>
<linearGradient id="paint11_linear_255_2407" x1="32.6509" y1="9.02095" x2="33.5622" y2="10.3324" gradientUnits="userSpaceOnUse">
<stop stopColor="#FF6E3A"/>
<stop offset="0.1596" stopColor="#FF6440"/>
<stop offset="0.4266" stopColor="#FF4B52"/>
<stop offset="0.7662" stopColor="#FF216E"/>
<stop offset="1" stopColor="#FF0084"/>
</linearGradient>
<linearGradient id="paint12_linear_255_2407" x1="34.6404" y1="10.7586" x2="35.4796" y2="12.1174" gradientUnits="userSpaceOnUse">
<stop stopColor="#FF6E3A"/>
<stop offset="0.1596" stopColor="#FF6440"/>
<stop offset="0.4266" stopColor="#FF4B52"/>
<stop offset="0.7662" stopColor="#FF216E"/>
<stop offset="1" stopColor="#FF0084"/>
</linearGradient>
<linearGradient id="paint13_linear_255_2407" x1="19.4985" y1="17.042" x2="21.2185" y2="24.8524" gradientUnits="userSpaceOnUse">
<stop stopColor="#FFD459"/>
<stop offset="0.2296" stopColor="#FFD355"/>
<stop offset="0.4362" stopColor="#FFCF4A"/>
<stop offset="0.634" stopColor="#FFC838"/>
<stop offset="0.825" stopColor="#FFBF1F"/>
<stop offset="1" stopColor="#FFB400"/>
</linearGradient>
<linearGradient id="paint14_linear_255_2407" x1="26.2578" y1="23.12" x2="34.5813" y2="34.5874" gradientUnits="userSpaceOnUse">
<stop stopColor="#FFD459"/>
<stop offset="0.2296" stopColor="#FFD355"/>
<stop offset="0.4362" stopColor="#FFCF4A"/>
<stop offset="0.634" stopColor="#FFC838"/>
<stop offset="0.825" stopColor="#FFBF1F"/>
<stop offset="1" stopColor="#FFB400"/>
</linearGradient>
<linearGradient id="paint15_linear_255_2407" x1="29.8299" y1="24.2062" x2="32.4522" y2="38.5299" gradientUnits="userSpaceOnUse">
<stop stopColor="#E58200" stopOpacity="0"/>
<stop offset="0.0396" stopColor="#E27F04" stopOpacity="0.039216"/>
<stop offset="0.4671" stopColor="#C15D2F" stopOpacity="0.466667"/>
<stop offset="0.8016" stopColor="#AD4949" stopOpacity="0.8"/>
<stop offset="1" stopColor="#A64153"/>
</linearGradient>
<linearGradient id="paint16_linear_255_2407" x1="29.994" y1="28.2749" x2="33.7723" y2="34.8165" gradientUnits="userSpaceOnUse">
<stop stopColor="#E58200" stopOpacity="0"/>
<stop offset="0.0396" stopColor="#E27F04" stopOpacity="0.039216"/>
<stop offset="0.4671" stopColor="#C15D2F" stopOpacity="0.466667"/>
<stop offset="0.8016" stopColor="#AD4949" stopOpacity="0.8"/>
<stop offset="1" stopColor="#A64153"/>
</linearGradient>
<linearGradient id="paint17_linear_255_2407" x1="10.0932" y1="23.2028" x2="18.9752" y2="35.4395" gradientUnits="userSpaceOnUse">
<stop stopColor="#FFD459"/>
<stop offset="0.2296" stopColor="#FFD355"/>
<stop offset="0.4362" stopColor="#FFCF4A"/>
<stop offset="0.634" stopColor="#FFC838"/>
<stop offset="0.825" stopColor="#FFBF1F"/>
<stop offset="1" stopColor="#FFB400"/>
</linearGradient>
<linearGradient id="paint18_linear_255_2407" x1="14.2403" y1="25.5536" x2="14.8042" y2="37.5934" gradientUnits="userSpaceOnUse">
<stop stopColor="#E58200" stopOpacity="0"/>
<stop offset="0.0396" stopColor="#E27F04" stopOpacity="0.039216"/>
<stop offset="0.4671" stopColor="#C15D2F" stopOpacity="0.466667"/>
<stop offset="0.8016" stopColor="#AD4949" stopOpacity="0.8"/>
<stop offset="1" stopColor="#A64153"/>
</linearGradient>
<linearGradient id="paint19_linear_255_2407" x1="13.646" y1="28.6145" x2="16.7475" y2="33.8308" gradientUnits="userSpaceOnUse">
<stop stopColor="#E58200" stopOpacity="0"/>
<stop offset="0.0396" stopColor="#E27F04" stopOpacity="0.039216"/>
<stop offset="0.4671" stopColor="#C15D2F" stopOpacity="0.466667"/>
<stop offset="0.8016" stopColor="#AD4949" stopOpacity="0.8"/>
<stop offset="1" stopColor="#A64153"/>
</linearGradient>
<linearGradient id="paint20_linear_255_2407" x1="22.895" y1="29.0832" x2="23.3865" y2="31.0276" gradientUnits="userSpaceOnUse">
<stop stopColor="#C6E56F"/>
<stop offset="0.3371" stopColor="#C4E56F"/>
<stop offset="0.4953" stopColor="#BCE36E"/>
<stop offset="0.6162" stopColor="#AFE16D"/>
<stop offset="0.7182" stopColor="#9DDD6B"/>
<stop offset="0.8083" stopColor="#85D968"/>
<stop offset="0.8899" stopColor="#68D365"/>
<stop offset="0.9635" stopColor="#46CD61"/>
<stop offset="1" stopColor="#32C95F"/>
</linearGradient>
<linearGradient id="paint21_linear_255_2407" x1="40.3807" y1="26.4594" x2="41.0648" y2="29.1658" gradientUnits="userSpaceOnUse">
<stop stopColor="#C6E56F"/>
<stop offset="0.3371" stopColor="#C4E56F"/>
<stop offset="0.4953" stopColor="#BCE36E"/>
<stop offset="0.6162" stopColor="#AFE16D"/>
<stop offset="0.7182" stopColor="#9DDD6B"/>
<stop offset="0.8083" stopColor="#85D968"/>
<stop offset="0.8899" stopColor="#68D365"/>
<stop offset="0.9635" stopColor="#46CD61"/>
<stop offset="1" stopColor="#32C95F"/>
</linearGradient>
<radialGradient id="paint22_radial_255_2407" cx="0" cy="0" r="1" gradientUnits="userSpaceOnUse" gradientTransform="translate(20.5456 18.6599) scale(1.35911)">
<stop stopColor="#A64153"/>
<stop offset="1" stopColor="#FFC738" stopOpacity="0"/>
</radialGradient>
<clipPath id="clip0_255_2407">
<rect width="50" height="50" fill="white" transform="translate(0.5)"/>
</clipPath>
</defs>
</svg>
