<svg width="51" height="50" viewBox="0 0 51 50" fill="none" xmlns="http://www.w3.org/2000/svg">
<g clipPath="url(#clip0_255_3625)">
<path d="M45.9795 22.4098H5.98283C5.70589 22.4098 5.4812 22.1852 5.4812 21.9082V34.5551C5.4812 35.1517 5.9649 35.6354 6.56152 35.6354H44.8992C45.4958 35.6354 45.9795 35.1517 45.9795 34.5551V22.4098Z" fill="url(#paint0_linear_255_3625)"/>
<path d="M45.9795 25.6647V27.5106C45.9795 28.2152 45.4138 28.7989 44.7089 28.8C44.7047 28.8 44.7001 28.8 44.6959 28.8C43.6705 28.8 42.6459 28.5845 41.6911 28.153C40.5501 27.6365 39.2432 27.6365 38.1037 28.1519H38.1018C36.1922 29.0159 34.0018 29.0159 32.0921 28.1519L32.0853 28.1492C30.947 27.6365 29.6431 27.6373 28.5048 28.1519L28.4724 28.1668C26.5704 29.0159 24.3941 29.0109 22.494 28.1519L22.4883 28.15C21.35 27.6373 20.045 27.6373 18.9066 28.1519C16.9982 29.0159 14.807 29.0159 12.897 28.1519L12.8825 28.145C11.7461 27.6365 10.4449 27.6392 9.31078 28.1519L9.29132 28.161C8.51846 28.5078 7.69945 28.7134 6.87242 28.7775C6.12245 28.8362 5.4812 28.2434 5.4812 27.4912V25.7795C6.35591 25.9481 7.27068 25.8463 8.09808 25.4728L8.11754 25.4637C10.0226 24.6088 12.205 24.6107 14.1089 25.4717L14.1215 25.4774C15.2579 25.9874 16.5598 25.9855 17.6951 25.4728C19.6047 24.6088 21.7959 24.6088 23.7059 25.4717L23.7078 25.4736C24.8469 25.9874 26.1538 25.9874 27.2921 25.4728L27.3245 25.4579C29.2265 24.6088 31.404 24.6137 33.3029 25.4717L33.3087 25.4747C34.4462 25.9874 35.7489 25.9874 36.8861 25.4747L36.891 25.4717C38.8011 24.6088 40.9911 24.6088 42.9011 25.4717C43.8754 25.9119 44.9717 25.9767 45.9795 25.6647Z" fill="url(#paint1_linear_255_3625)"/>
<path d="M45.9795 30.5421V32.3869C45.9795 33.0918 45.4138 33.6751 44.7089 33.6766C44.7047 33.6766 44.7001 33.6766 44.6959 33.6766C43.6705 33.6766 42.6459 33.4607 41.6911 33.0293C40.5501 32.5139 39.2432 32.5139 38.1037 33.0285L38.1018 33.0293C36.1922 33.8921 34.0018 33.8921 32.0921 33.0293L32.0853 33.0266C30.947 32.5139 29.6431 32.5139 28.5048 33.0285L28.4724 33.043C26.5704 33.8921 24.3941 33.8883 22.494 33.0293L22.4883 33.0266C21.35 32.5139 20.045 32.5147 18.9066 33.0285C16.9982 33.8921 14.807 33.8921 12.897 33.0293L12.8825 33.0224C11.7461 32.5139 10.4449 32.5158 9.31078 33.0285L9.29132 33.0373C8.51808 33.384 7.69945 33.5896 6.87242 33.6541C6.12245 33.7125 5.4812 33.12 5.4812 32.3678V30.6569C6.35591 30.8255 7.27068 30.7237 8.09808 30.3491L8.11754 30.3403C10.0226 29.4854 12.205 29.4881 14.1089 30.3491L14.1215 30.3548C15.2579 30.8637 16.5598 30.8629 17.6951 30.3491C19.6047 29.4854 21.7959 29.4854 23.7059 30.3491L23.7078 30.3498C24.8469 30.8648 26.1538 30.8637 27.2921 30.3491L27.3245 30.3342C29.2265 29.4854 31.404 29.4904 33.3029 30.3491L33.3087 30.3521C34.4462 30.8637 35.7489 30.8637 36.8861 30.351L36.891 30.3491C38.8011 29.4854 40.9911 29.4854 42.9011 30.3479C43.8754 30.7893 44.9717 30.8537 45.9795 30.5421Z" fill="url(#paint2_linear_255_3625)"/>
<path d="M45.9795 22.4097H5.98283C5.93324 22.4097 5.88632 22.4006 5.84131 22.3872L19.0894 35.6353H44.8992C45.4958 35.6353 45.9795 35.1516 45.9795 34.5549V22.4097Z" fill="url(#paint3_linear_255_3625)"/>
<path d="M36.4814 23.445C36.5234 23.8017 36.705 24.1152 36.9686 24.3323L45.9797 33.3434V22.4097H36.4814V23.445Z" fill="url(#paint4_linear_255_3625)"/>
<path d="M45.9795 22.4097H40.4333V23.0685C40.4578 23.1352 40.4704 23.2077 40.4704 23.2832V24.8831C40.4704 25.2913 40.6519 25.6567 40.9373 25.9062L45.9795 30.9481V22.4097Z" fill="url(#paint5_linear_255_3625)"/>
<path d="M44.7997 22.4099C40.5284 14.2232 33.5482 12.2476 33.5482 12.2476L5.84742 21.3727C5.27293 21.5619 5.40912 22.4099 6.01375 22.4099H35.6929C36.1315 22.4599 36.4718 22.8318 36.4718 23.2835C36.4718 24.0342 37.0806 24.6427 37.8314 24.6427C38.5821 24.6427 39.1909 24.0342 39.1909 23.2835C39.1909 22.9299 39.4774 22.6438 39.8307 22.6438C40.1839 22.6438 40.4704 22.9302 40.4704 23.2835V24.8826C40.4704 25.6337 41.0792 26.2422 41.8299 26.2422C42.581 26.2422 43.1895 25.6337 43.1895 24.8826V22.4099H44.7997Z" fill="url(#paint6_linear_255_3625)"/>
<path d="M44.8008 23.881C44.2702 23.881 43.7583 23.593 43.4958 23.0906C39.5633 15.5528 33.2118 13.6809 33.1481 13.663C32.3665 13.4417 31.9121 12.6288 32.1334 11.8475C32.3546 11.0659 33.1675 10.6116 33.9488 10.8328C34.2589 10.9206 41.5908 13.0805 46.1036 21.7299C46.4789 22.4501 46.2001 23.3382 45.4799 23.7139C45.2628 23.8272 45.0301 23.881 44.8008 23.881Z" fill="url(#paint7_linear_255_3625)"/>
<path d="M40.9851 23.0098C40.9633 22.8049 40.913 22.6107 40.8412 22.4292L31.3755 12.9634L24.3389 15.2812C24.5449 15.8267 24.8745 16.3131 25.2944 16.7045L30.9997 22.4097H35.6929C36.1312 22.4601 36.4719 22.8316 36.4719 23.2833C36.4719 24.034 37.0803 24.6428 37.8315 24.6428C38.5822 24.6428 39.191 24.0344 39.191 23.2833C39.191 22.93 39.4775 22.6436 39.8307 22.6436C40.184 22.6436 40.4705 22.93 40.4705 23.2833V24.8828C40.4705 25.0102 40.4891 25.133 40.522 25.2501C40.8302 24.7069 41.0064 24.0794 41.0064 23.4103C41.0064 23.2753 40.9992 23.1414 40.9851 23.0098Z" fill="url(#paint8_linear_255_3625)"/>
<path d="M31.5493 13.5742C31.4047 12.2184 30.0749 11.3018 28.7528 11.6359C28.4594 11.7103 28.1519 11.7496 27.8353 11.7496C27.5187 11.7496 27.2116 11.7103 26.9183 11.6359C25.5946 11.3014 24.2644 12.2207 24.1209 13.5784C24.1026 13.7538 24.0962 13.9328 24.103 14.1143C24.1736 16.0522 25.7494 17.6319 27.6869 17.707C29.8174 17.7898 31.5707 16.0869 31.5707 13.9747C31.5707 13.8393 31.5634 13.7058 31.5493 13.5742Z" fill="url(#paint9_linear_255_3625)"/>
<path d="M27.8742 13.06C27.5679 13.06 27.3074 12.8258 27.2814 12.5149C27.1716 11.2148 27.6286 8.52508 30.1428 7.65037C30.4541 7.54242 30.7936 7.70645 30.9016 8.01773C31.0099 8.32824 30.8455 8.66813 30.5346 8.77609C29.6008 9.1011 28.9706 9.79194 28.6612 10.8295C28.4132 11.66 28.4686 12.4092 28.4693 12.4165C28.4949 12.7441 28.2511 13.0314 27.9234 13.0581C27.907 13.0592 27.8906 13.06 27.8742 13.06Z" fill="url(#paint10_radial_255_3625)"/>
<path d="M29.3392 12.4072C29.3392 11.9891 28.6659 11.6504 27.8354 11.6504C27.0053 11.6504 26.332 11.9891 26.332 12.4072C26.332 12.8253 27.0053 13.1641 27.8354 13.1641C28.6659 13.1641 29.3392 12.8253 29.3392 12.4072Z" fill="url(#paint11_linear_255_3625)"/>
<path d="M10.7199 22.4098H5.98283C5.70589 22.4098 5.4812 22.1852 5.4812 21.9082V34.5551C5.4812 35.1517 5.9649 35.6354 6.56152 35.6354H10.7199V22.4098Z" fill="url(#paint12_linear_255_3625)"/>
<path d="M37.0105 42.5024H13.9896C11.8549 42.5024 9.7789 41.8051 8.07678 40.5168L4.87549 38.0938H46.1246L42.9233 40.5168C41.2212 41.8051 39.1452 42.5024 37.0105 42.5024Z" fill="url(#paint13_linear_255_3625)"/>
<path d="M48.1688 39.7722H2.83116C1.5437 39.7722 0.5 38.7285 0.5 37.441C0.5 36.1536 1.5437 35.1099 2.83116 35.1099H48.1688C49.4563 35.1099 50.5 36.1536 50.5 37.441C50.5 38.7285 49.4563 39.7722 48.1688 39.7722Z" fill="url(#paint14_linear_255_3625)"/>
</g>
<defs>
<linearGradient id="paint0_linear_255_3625" x1="24.7765" y1="23.7918" x2="28.7743" y2="43.6808" gradientUnits="userSpaceOnUse">
<stop stopColor="#FFB92D"/>
<stop offset="1" stopColor="#F59500"/>
</linearGradient>
<linearGradient id="paint1_linear_255_3625" x1="25.7304" y1="25.9774" x2="25.7304" y2="29.4518" gradientUnits="userSpaceOnUse">
<stop stopColor="#F8EBE1"/>
<stop offset="1" stopColor="#FBD1A2"/>
</linearGradient>
<linearGradient id="paint2_linear_255_3625" x1="25.7304" y1="30.7433" x2="25.7304" y2="33.3423" gradientUnits="userSpaceOnUse">
<stop stopColor="#FFF465"/>
<stop offset="1" stopColor="#FFE600"/>
</linearGradient>
<linearGradient id="paint3_linear_255_3625" x1="26.2811" y1="26.2544" x2="24.9238" y2="12.1377" gradientUnits="userSpaceOnUse">
<stop stopColor="#BE3F45" stopOpacity="0"/>
<stop offset="1" stopColor="#BE3F45"/>
</linearGradient>
<linearGradient id="paint4_linear_255_3625" x1="44.2679" y1="26.8427" x2="36.0051" y2="16.6404" gradientUnits="userSpaceOnUse">
<stop stopColor="#BE3F45" stopOpacity="0"/>
<stop offset="1" stopColor="#BE3F45"/>
</linearGradient>
<linearGradient id="paint5_linear_255_3625" x1="45.1079" y1="26.5788" x2="41.0112" y2="20.6582" gradientUnits="userSpaceOnUse">
<stop stopColor="#BE3F45" stopOpacity="0"/>
<stop offset="1" stopColor="#BE3F45"/>
</linearGradient>
<linearGradient id="paint6_linear_255_3625" x1="24.7348" y1="18.2736" x2="25.6325" y2="26.8656" gradientUnits="userSpaceOnUse">
<stop stopColor="#8C6239"/>
<stop offset="1" stopColor="#42210B"/>
</linearGradient>
<linearGradient id="paint7_linear_255_3625" x1="41.1546" y1="14.3848" x2="37.9218" y2="19.1904" gradientUnits="userSpaceOnUse">
<stop stopColor="#8C6239"/>
<stop offset="1" stopColor="#42210B"/>
</linearGradient>
<linearGradient id="paint8_linear_255_3625" x1="35.088" y1="21.5885" x2="24.3682" y2="10.8687" gradientUnits="userSpaceOnUse">
<stop stopColor="#42210B" stopOpacity="0"/>
<stop offset="1" stopColor="#42210B"/>
</linearGradient>
<linearGradient id="paint9_linear_255_3625" x1="27.667" y1="14.0373" x2="30.6724" y2="17.0428" gradientUnits="userSpaceOnUse">
<stop stopColor="#FF4C54"/>
<stop offset="0.2336" stopColor="#FA4B53"/>
<stop offset="0.496" stopColor="#ED4850"/>
<stop offset="0.7713" stopColor="#D6444B"/>
<stop offset="1" stopColor="#BE3F45"/>
</linearGradient>
<radialGradient id="paint10_radial_255_3625" cx="0" cy="0" r="1" gradientUnits="userSpaceOnUse" gradientTransform="translate(32.0014 12.1465) scale(4.6198)">
<stop stopColor="#BE3F45"/>
<stop offset="0.3634" stopColor="#C03F46"/>
<stop offset="0.5718" stopColor="#C94147"/>
<stop offset="0.7411" stopColor="#D7444B"/>
<stop offset="0.8884" stopColor="#EA484F"/>
<stop offset="1" stopColor="#FF4C54"/>
</radialGradient>
<linearGradient id="paint11_linear_255_3625" x1="27.8355" y1="12.1129" x2="27.8355" y2="13.5522" gradientUnits="userSpaceOnUse">
<stop stopColor="#BE3F45" stopOpacity="0"/>
<stop offset="1" stopColor="#BE3F45"/>
</linearGradient>
<linearGradient id="paint12_linear_255_3625" x1="8.26654" y1="28.7718" x2="-3.26063" y2="28.7718" gradientUnits="userSpaceOnUse">
<stop stopColor="#BE3F45" stopOpacity="0"/>
<stop offset="1" stopColor="#BE3F45"/>
</linearGradient>
<linearGradient id="paint13_linear_255_3625" x1="25.5" y1="42.0125" x2="25.5" y2="38.9745" gradientUnits="userSpaceOnUse">
<stop stopColor="#F8EBE1"/>
<stop offset="1" stopColor="#FBD1A2"/>
</linearGradient>
<linearGradient id="paint14_linear_255_3625" x1="22.4058" y1="37.4411" x2="50.6943" y2="37.4411" gradientUnits="userSpaceOnUse">
<stop stopColor="#F8EBE1"/>
<stop offset="1" stopColor="#FBD1A2"/>
</linearGradient>
<clipPath id="clip0_255_3625">
<rect width="50" height="50" fill="white" transform="translate(0.5)"/>
</clipPath>
</defs>
</svg>
