<svg width="51" height="50" viewBox="0 0 51 50" fill="none" xmlns="http://www.w3.org/2000/svg">
<g clipPath="url(#clip0_255_2395)">
<path d="M25.5001 45.7845C36.979 45.7845 46.2845 36.479 46.2845 25.0001C46.2845 13.5213 36.979 4.21582 25.5001 4.21582C14.0213 4.21582 4.71582 13.5213 4.71582 25.0001C4.71582 36.479 14.0213 45.7845 25.5001 45.7845Z" fill="url(#paint0_linear_255_2395)"/>
<path d="M22.2527 4.47119C18.0614 5.1306 14.033 7.07374 10.8032 10.3035C2.68638 18.4203 2.68638 31.5802 10.8032 39.697C14.033 42.9267 18.0614 44.8698 22.2527 45.5293V4.47119Z" fill="url(#paint1_linear_255_2395)"/>
<path d="M10.8032 39.6968C18.9199 47.8136 32.0798 47.8136 40.1966 39.6968C44.8255 35.0679 46.8132 28.7989 46.1624 22.7603H4.8374C4.18671 28.7988 6.17426 35.0678 10.8032 39.6968Z" fill="url(#paint2_linear_255_2395)"/>
<path d="M25.5 40.2861C33.9422 40.2861 40.7859 33.4424 40.7859 25.0002C40.7859 16.5581 33.9422 9.71436 25.5 9.71436C17.0578 9.71436 10.2141 16.5581 10.2141 25.0002C10.2141 33.4424 17.0578 40.2861 25.5 40.2861Z" fill="url(#paint3_linear_255_2395)"/>
<path d="M45.6033 30.2848L22.8825 7.56396H16.4803V17.1193L8.30933 27.0848L11.8952 30.6707L11.4362 32.6328L24.5664 45.763C30.1923 46.0144 35.9007 43.9928 40.1966 39.6969C42.899 36.9946 44.7004 33.7329 45.6033 30.2848Z" fill="url(#paint4_linear_255_2395)"/>
<path d="M44.5619 33.2979H23.3528L17.842 38.8086L24.805 45.7716C30.3533 45.956 35.9614 43.9321 40.1966 39.697C42.0965 37.7972 43.5516 35.621 44.5619 33.2979Z" fill="url(#paint5_linear_255_2395)"/>
<path d="M23.8645 36.2115L32.2984 44.6454C35.1835 43.6493 37.8933 42.0004 40.1967 39.6971C45.1523 34.7414 47.082 27.9058 45.9863 21.4858L39.9522 15.4517L23.8645 36.2115Z" fill="url(#paint6_linear_255_2395)"/>
<path d="M41.7078 19.8076C41.7077 19.7835 41.7075 19.7595 41.7071 19.7355C41.6553 16.3437 38.9093 13.5552 35.5186 13.4545C34.998 13.439 34.4911 13.4861 34.0046 13.5885C32.109 13.9879 30.1405 13.8309 28.3588 13.0704C27.4206 12.6699 26.3878 12.4482 25.3031 12.4482C20.9929 12.4481 17.4841 15.9765 17.5069 20.2866C17.5167 22.1237 18.1621 23.8101 19.2345 25.1375C20.527 26.7375 21.2543 28.7163 21.333 30.7716C21.3342 30.8014 21.3355 30.8313 21.3369 30.8612C21.5371 34.9009 24.853 38.1456 28.8961 38.2607C31.176 38.3256 33.242 37.4107 34.7065 35.9067C35.6353 34.9527 36.9221 34.4237 38.2536 34.4236C38.301 34.4236 38.3485 34.4231 38.3962 34.4221C41.7669 34.3484 44.5267 31.6174 44.6333 28.2476C44.6848 26.6232 44.1288 25.1305 43.1756 23.9779C42.2084 22.8087 41.7142 21.3246 41.7078 19.8076Z" fill="url(#paint7_linear_255_2395)"/>
<path d="M41.7078 19.8076C41.7077 19.7835 41.7075 19.7595 41.7071 19.7355C41.6553 16.3437 38.9093 13.5552 35.5186 13.4545C34.998 13.439 34.4911 13.4861 34.0046 13.5885C32.109 13.9879 30.1405 13.8309 28.3588 13.0704C27.4206 12.6699 26.3878 12.4482 25.3031 12.4482C20.9929 12.4481 17.4841 15.9765 17.5069 20.2866C17.5167 22.1237 18.1621 23.8101 19.2345 25.1375C20.527 26.7375 21.2543 28.7163 21.333 30.7716C21.3342 30.8014 21.3355 30.8313 21.3369 30.8612C21.5371 34.9009 24.853 38.1456 28.8961 38.2607C31.176 38.3256 33.242 37.4107 34.7065 35.9067C35.6353 34.9527 36.9221 34.4237 38.2536 34.4236C38.301 34.4236 38.3485 34.4231 38.3962 34.4221C41.7669 34.3484 44.5267 31.6174 44.6333 28.2476C44.6848 26.6232 44.1288 25.1305 43.1756 23.9779C42.2084 22.8087 41.7142 21.3246 41.7078 19.8076Z" fill="url(#paint8_linear_255_2395)"/>
<path d="M43.8909 31.0221L26.0675 13.1987H21.9738C19.325 14.4577 17.4904 17.1668 17.5069 20.2867C17.5167 22.1238 18.1621 23.8102 19.2345 25.1376C20.527 26.7376 21.2543 28.7164 21.333 30.7718C21.3342 30.8016 21.3355 30.8315 21.3369 30.8614C21.5371 34.9011 24.853 38.1458 28.8961 38.2609C31.176 38.3258 33.242 37.411 34.7065 35.9069C35.6353 34.9528 36.9221 34.4239 38.2536 34.4239C38.301 34.4239 38.3485 34.4234 38.3962 34.4224C40.7677 34.3704 42.8355 33.0021 43.8909 31.0221Z" fill="url(#paint9_linear_255_2395)"/>
<path d="M44.6332 28.2475C44.634 28.2206 44.6334 28.194 44.6339 28.1673L37.0418 20.5752L27.4802 30.1368L33.9396 36.5962C34.2101 36.3831 34.4665 36.1528 34.7063 35.9065C35.6351 34.9524 36.922 34.4235 38.2535 34.4235C38.3008 34.4235 38.3484 34.423 38.396 34.422C41.7668 34.3483 44.5265 31.6174 44.6332 28.2475Z" fill="url(#paint10_linear_255_2395)"/>
<path d="M32.2611 32.1174C35.9951 32.1174 39.0222 29.0903 39.0222 25.3563C39.0222 21.6223 35.9951 18.5952 32.2611 18.5952C28.527 18.5952 25.5 21.6223 25.5 25.3563C25.5 29.0903 28.527 32.1174 32.2611 32.1174Z" fill="url(#paint11_linear_255_2395)"/>
<path d="M20.732 33.6989C21.7401 33.6989 22.5573 32.8817 22.5573 31.8736C22.5573 30.8656 21.7401 30.0483 20.732 30.0483C19.724 30.0483 18.9067 30.8656 18.9067 31.8736C18.9067 32.8817 19.724 33.6989 20.732 33.6989Z" fill="url(#paint12_linear_255_2395)"/>
<path d="M21.7594 41.4821C22.7675 41.4821 23.5847 40.6649 23.5847 39.6568C23.5847 38.6488 22.7675 37.8315 21.7594 37.8315C20.7513 37.8315 19.9341 38.6488 19.9341 39.6568C19.9341 40.6649 20.7513 41.4821 21.7594 41.4821Z" fill="url(#paint13_linear_255_2395)"/>
<path d="M18.3194 36.1501C19.3275 36.1501 20.1447 35.3329 20.1447 34.3248C20.1447 33.3167 19.3275 32.4995 18.3194 32.4995C17.3114 32.4995 16.4941 33.3167 16.4941 34.3248C16.4941 35.3329 17.3114 36.1501 18.3194 36.1501Z" fill="url(#paint14_linear_255_2395)"/>
<path d="M18.9066 39.1516C19.9147 39.1516 20.7319 38.3344 20.7319 37.3263C20.7319 36.3182 19.9147 35.501 18.9066 35.501C17.8985 35.501 17.0813 36.3182 17.0813 37.3263C17.0813 38.3344 17.8985 39.1516 18.9066 39.1516Z" fill="url(#paint15_linear_255_2395)"/>
<path d="M20.732 36.9831C21.7401 36.9831 22.5573 36.1659 22.5573 35.1578C22.5573 34.1497 21.7401 33.3325 20.732 33.3325C19.724 33.3325 18.9067 34.1497 18.9067 35.1578C18.9067 36.1659 19.724 36.9831 20.732 36.9831Z" fill="url(#paint16_linear_255_2395)"/>
<path d="M24.078 36.1501C25.0861 36.1501 25.9033 35.3329 25.9033 34.3248C25.9033 33.3167 25.0861 32.4995 24.078 32.4995C23.0699 32.4995 22.2527 33.3167 22.2527 34.3248C22.2527 35.3329 23.0699 36.1501 24.078 36.1501Z" fill="url(#paint17_linear_255_2395)"/>
<path d="M22.5572 38.8083C23.5653 38.8083 24.3825 37.9911 24.3825 36.983C24.3825 35.9749 23.5653 35.1577 22.5572 35.1577C21.5491 35.1577 20.7319 35.9749 20.7319 36.983C20.7319 37.9911 21.5491 38.8083 22.5572 38.8083Z" fill="url(#paint18_linear_255_2395)"/>
<path d="M13.2751 25.2047C12.9808 23.6844 13.8476 21.8256 15.2014 21.0738L16.6283 20.2815C17.9877 19.5266 18.8501 17.6772 18.5545 16.1507L18.2443 14.5482C17.95 13.0281 18.8169 11.1691 20.1706 10.4175L21.5975 9.62511C22.1298 9.32952 22.5848 8.8655 22.9244 8.31903C23.1327 7.98393 23.0023 7.54187 22.6446 7.37521L18.3434 5.36952C18.0342 5.2254 17.668 5.34295 17.4971 5.63805C17.1512 6.23531 16.6698 6.74491 16.0997 7.06148L14.6729 7.85384C13.3191 8.6056 12.4523 10.4644 12.7466 11.9847L13.0568 13.5871C13.3511 15.1073 12.4843 16.9662 11.1305 17.7179L9.70365 18.5102C8.34992 19.262 7.48306 21.1208 7.77737 22.6411L8.08757 24.2434C8.21149 24.8836 8.13051 25.5799 7.89531 26.2289C7.77914 26.5495 7.92453 26.9057 8.23365 27.0498L12.5349 29.0555C12.8925 29.2223 13.3149 29.038 13.4378 28.6631C13.6382 28.0517 13.7011 27.405 13.5853 26.8072L13.2751 25.2047Z" fill="url(#paint19_linear_255_2395)"/>
<path d="M13.2752 25.2048C12.9809 23.6845 13.8477 21.8257 15.2015 21.0739L16.6284 20.2816C17.9878 19.5267 18.8502 17.6773 18.5546 16.1508L18.2444 14.5484C17.9501 13.0282 18.817 11.1692 20.1707 10.4176L21.5976 9.62521C22.1299 9.32962 22.5849 8.8656 22.9245 8.31913C23.1328 7.98404 23.0024 7.54198 22.6447 7.37531L21.6168 6.896C21.277 7.7207 20.6892 8.45031 19.9537 8.85874L18.5269 9.65109C17.1732 10.4029 16.3063 12.2617 16.6006 13.7819L16.9108 15.3843C17.2064 16.9108 16.3439 18.7603 14.9845 19.5151L13.5577 20.3075C12.2039 21.0592 11.3371 22.9182 11.6314 24.4384L11.9416 26.0407C12.1015 26.8666 11.9203 27.7858 11.5071 28.5763L12.535 29.0556C12.8926 29.2224 13.315 29.0382 13.4379 28.6633C13.6383 28.0518 13.7012 27.4051 13.5854 26.8073L13.2752 25.2048Z" fill="url(#paint20_linear_255_2395)"/>
<path d="M10.7201 24.0135C10.4258 22.4933 11.2926 20.6344 12.6464 19.8826L14.0732 19.0902C15.4327 18.3353 16.2951 16.4859 15.9995 14.9595L15.6893 13.357C15.395 11.8368 16.2619 9.97789 17.6156 9.22622L19.0425 8.43387C19.7779 8.02544 20.3657 7.29583 20.7055 6.47113L19.8836 6.08789C19.5438 6.9126 18.9561 7.6422 18.2206 8.05064L16.7937 8.84299C15.44 9.59475 14.5731 11.4536 14.8675 12.9738L15.1777 14.5762C15.4732 16.1027 14.6108 17.9522 13.2514 18.707L11.8245 19.4994C10.4708 20.2511 9.60393 22.11 9.89824 23.6302L10.2084 25.2326C10.3683 26.0585 10.1872 26.9777 9.77393 27.7682L10.5958 28.1514C11.0091 27.3609 11.1903 26.4417 11.0303 25.6158L10.7201 24.0135Z" fill="url(#paint21_linear_255_2395)"/>
<path d="M9.2555 23.3304C8.96119 21.8102 9.82795 19.9513 11.1818 19.1995L12.6086 18.4071C13.9681 17.6522 14.8305 15.8028 14.5349 14.2764L14.2247 12.6739C13.9304 11.1537 14.7973 9.29479 16.151 8.54312L17.5779 7.75077C18.3133 7.34233 18.9011 6.61273 19.2409 5.78802L18.419 5.40479C18.0792 6.22949 17.4915 6.9591 16.756 7.36753L15.3291 8.15988C13.9754 8.91165 13.1085 10.7705 13.4029 12.2907L13.7131 13.8931C14.0086 15.4196 13.1462 17.2691 11.7868 18.0239L10.3599 18.8163C9.00619 19.568 8.13933 21.4269 8.43364 22.9471L8.74384 24.5495C8.90374 25.3754 8.72256 26.2946 8.30933 27.0851L9.13119 27.4683C9.54452 26.6778 9.7257 25.7586 9.5657 24.9327L9.2555 23.3304Z" fill="url(#paint22_linear_255_2395)"/>
<path d="M16.4021 30.7526C16.1078 29.2324 16.9745 27.3735 18.3283 26.6217L19.7552 25.8293C21.1146 25.0744 21.9771 23.225 21.6815 21.6986L21.3713 20.0961C21.077 18.5759 21.9438 16.717 23.2976 15.9653L24.7244 15.173C25.2568 14.8774 25.7118 14.4134 26.0514 13.8669C26.2596 13.5318 26.1292 13.0897 25.7716 12.9231L21.4703 10.9174C21.1612 10.7733 20.7949 10.8908 20.624 11.1859C20.2782 11.7832 19.7968 12.2928 19.2267 12.6093L17.7998 13.4017C16.4461 14.1535 15.5792 16.0123 15.8735 17.5326L16.1837 19.1349C16.4781 20.6551 15.6113 22.514 14.2575 23.2657L12.8306 24.0581C11.4769 24.8098 10.61 26.6687 10.9043 28.1889L11.2145 29.7913C11.3384 30.4315 11.2575 31.1278 11.0223 31.7767C10.9061 32.0973 11.0515 32.4535 11.3606 32.5976L15.6619 34.6033C16.0194 34.77 16.4419 34.5858 16.5647 34.2109C16.7651 33.5994 16.8281 32.9528 16.7123 32.3549L16.4021 30.7526Z" fill="url(#paint23_linear_255_2395)"/>
<path d="M16.4022 30.7527C16.1079 29.2325 16.9746 27.3736 18.3284 26.6218L19.7553 25.8294C21.1147 25.0745 21.9772 23.2251 21.6816 21.6987L21.3714 20.0962C21.0771 18.576 21.9439 16.7171 23.2977 15.9654L24.7245 15.1731C25.2569 14.8775 25.7119 14.4135 26.0515 13.867C26.2597 13.5319 26.1293 13.0898 25.7717 12.9232L24.7437 12.4438C24.4039 13.2686 23.8162 13.9982 23.0807 14.4066L21.6538 15.1989C20.3001 15.9507 19.4332 17.8095 19.7276 19.3297L20.0378 20.9322C20.3333 22.4587 19.4709 24.3082 18.1115 25.063L16.6846 25.8553C15.3309 26.6071 14.464 28.466 14.7583 29.9862L15.0685 31.5886C15.2284 32.4144 15.0473 33.3337 14.634 34.1241L15.662 34.6035C16.0195 34.7702 16.442 34.586 16.5648 34.2111C16.7652 33.5996 16.8282 32.953 16.7124 32.3551L16.4022 30.7527Z" fill="url(#paint24_linear_255_2395)"/>
<path d="M13.8471 29.5613C13.5527 28.0411 14.4195 26.1822 15.7733 25.4304L17.2002 24.6381C18.5596 23.8832 19.4221 22.0338 19.1265 20.5073L18.8163 18.9049C18.522 17.3847 19.3888 15.5257 20.7425 14.7741L22.1694 13.9817C22.9049 13.5733 23.4926 12.8437 23.8324 12.019L23.0106 11.6357C22.6708 12.4604 22.083 13.1901 21.3475 13.5985L19.9207 14.3908C18.567 15.1426 17.7001 17.0014 17.9944 18.5216L18.3046 20.1241C18.6002 21.6505 17.7377 23.5001 16.3783 24.2549L14.9515 25.0472C13.5977 25.799 12.7309 27.6579 13.0252 29.1781L13.3354 30.7805C13.4953 31.6063 13.3141 32.5255 12.9009 33.316L13.7227 33.6993C14.1361 32.9088 14.3173 31.9896 14.1573 31.1637L13.8471 29.5613Z" fill="url(#paint25_linear_255_2395)"/>
<path d="M12.3825 28.8782C12.0881 27.3579 12.9549 25.4991 14.3087 24.7473L15.7356 23.955C17.095 23.2001 17.9575 21.3507 17.6619 19.8242L17.3517 18.2218C17.0574 16.7016 17.9242 14.8426 19.2779 14.091L20.7048 13.2986C21.4403 12.8902 22.028 12.1606 22.3678 11.3359L21.546 10.9526C21.2062 11.7773 20.6184 12.507 19.8829 12.9154L18.4561 13.7077C17.1024 14.4595 16.2355 16.3183 16.5298 17.8385L16.84 19.441C17.1356 20.9674 16.2731 22.817 14.9137 23.5718L13.4869 24.3641C12.1331 25.1159 11.2663 26.9748 11.5606 28.495L11.8708 30.0973C12.0307 30.9232 11.8495 31.8424 11.4363 32.6329L12.2581 33.0162C12.6715 32.2257 12.8527 31.3065 12.6927 30.4806L12.3825 28.8782Z" fill="url(#paint26_linear_255_2395)"/>
<path d="M42.8587 20.3501C43.5572 20.8984 43.9671 21.7351 43.9318 22.6224L43.6128 39.1412C43.57 40.2169 44.4305 41.1123 45.5071 41.1123C46.5837 41.1123 47.4442 40.2169 47.4014 39.1412L47.0824 22.6224C47.0471 21.735 47.457 20.8983 48.1555 20.3501C49.5637 19.2448 50.5 17.2845 50.5 15.0499C50.5 11.597 48.2646 8.79785 45.5071 8.79785C42.7496 8.79785 40.5142 11.597 40.5142 15.0499C40.5142 17.2845 41.4505 19.2448 42.8587 20.3501Z" fill="url(#paint27_linear_255_2395)"/>
<path d="M45.5071 19.4444C47.4453 19.4444 49.0164 17.477 49.0164 15.0501C49.0164 12.6232 47.4453 10.6558 45.5071 10.6558C43.569 10.6558 41.9978 12.6232 41.9978 15.0501C41.9978 17.477 43.569 19.4444 45.5071 19.4444Z" fill="url(#paint28_linear_255_2395)"/>
<path d="M3.92951 21.4299L3.59863 39.2315C3.55588 40.3072 4.41637 41.2026 5.49294 41.2026C6.56951 41.2026 7.43 40.3072 7.38726 39.2315L7.05647 21.4299C7.02745 20.7005 7.37324 20.0106 7.96686 19.5858C9.47167 18.509 10.486 16.4804 10.486 14.1546C10.486 12.3075 9.84598 10.6482 8.82873 9.50395C8.43833 9.06483 7.70941 9.3515 7.70941 9.93914V14.894C7.70941 15.2468 7.43765 15.5543 7.0851 15.5649C6.72029 15.5759 6.42118 15.2835 6.42118 14.9211V10.7418C6.42118 10.2366 6.00784 9.82326 5.50265 9.82326H5.48363C4.97627 9.82326 4.5651 10.2345 4.5651 10.7418V14.9211C4.5651 15.2769 4.27667 15.5652 3.92098 15.5652C3.5652 15.5652 3.27686 15.2768 3.27686 14.9211V9.93914C3.27686 9.3515 2.54804 9.06483 2.15755 9.50395C1.14 10.6482 0.5 12.3075 0.5 14.1546C0.5 16.4803 1.51431 18.5089 3.01912 19.5858C3.61275 20.0106 3.95853 20.7005 3.92951 21.4299Z" fill="url(#paint29_linear_255_2395)"/>
</g>
<defs>
<linearGradient id="paint0_linear_255_2395" x1="11.9217" y1="11.4217" x2="35.3582" y2="34.8582" gradientUnits="userSpaceOnUse">
<stop stopColor="#FFFDF1"/>
<stop offset="1" stopColor="#FFF5C6"/>
</linearGradient>
<linearGradient id="paint1_linear_255_2395" x1="11.2999" y1="23.6806" x2="5.87511" y2="23.027" gradientUnits="userSpaceOnUse">
<stop stopColor="#FEA613" stopOpacity="0"/>
<stop offset="0.1832" stopColor="#FC9B19" stopOpacity="0.183"/>
<stop offset="0.5086" stopColor="#F57D28" stopOpacity="0.509"/>
<stop offset="0.9356" stopColor="#EB4C40" stopOpacity="0.936"/>
<stop offset="1" stopColor="#E94444"/>
</linearGradient>
<linearGradient id="paint2_linear_255_2395" x1="25.4999" y1="34.2157" x2="25.4999" y2="52.2933" gradientUnits="userSpaceOnUse">
<stop stopColor="#FEA613" stopOpacity="0"/>
<stop offset="0.1832" stopColor="#FC9B19" stopOpacity="0.183"/>
<stop offset="0.5086" stopColor="#F57D28" stopOpacity="0.509"/>
<stop offset="0.9356" stopColor="#EB4C40" stopOpacity="0.936"/>
<stop offset="1" stopColor="#E94444"/>
</linearGradient>
<linearGradient id="paint3_linear_255_2395" x1="29.7647" y1="29.2649" x2="19.343" y2="18.8433" gradientUnits="userSpaceOnUse">
<stop stopColor="#FFFDF1"/>
<stop offset="1" stopColor="#FFF5C6"/>
</linearGradient>
<linearGradient id="paint4_linear_255_2395" x1="23.5975" y1="26.6289" x2="1.97982" y2="20.7465" gradientUnits="userSpaceOnUse">
<stop stopColor="#FEA613" stopOpacity="0"/>
<stop offset="0.1832" stopColor="#FC9B19" stopOpacity="0.183"/>
<stop offset="0.5086" stopColor="#F57D28" stopOpacity="0.509"/>
<stop offset="0.9356" stopColor="#EB4C40" stopOpacity="0.936"/>
<stop offset="1" stopColor="#E94444"/>
</linearGradient>
<linearGradient id="paint5_linear_255_2395" x1="30.7587" y1="35.5888" x2="22.5234" y2="26.9614" gradientUnits="userSpaceOnUse">
<stop stopColor="#FEA613" stopOpacity="0"/>
<stop offset="0.1832" stopColor="#FC9B19" stopOpacity="0.183"/>
<stop offset="0.5086" stopColor="#F57D28" stopOpacity="0.509"/>
<stop offset="0.9356" stopColor="#EB4C40" stopOpacity="0.936"/>
<stop offset="1" stopColor="#E94444"/>
</linearGradient>
<linearGradient id="paint6_linear_255_2395" x1="45.5844" y1="36.5572" x2="24.2119" y2="21.8513" gradientUnits="userSpaceOnUse">
<stop stopColor="#FEA613" stopOpacity="0"/>
<stop offset="0.1832" stopColor="#FC9B19" stopOpacity="0.183"/>
<stop offset="0.5086" stopColor="#F57D28" stopOpacity="0.509"/>
<stop offset="0.9356" stopColor="#EB4C40" stopOpacity="0.936"/>
<stop offset="1" stopColor="#E94444"/>
</linearGradient>
<linearGradient id="paint7_linear_255_2395" x1="26.5692" y1="20.4961" x2="38.7378" y2="32.6647" gradientUnits="userSpaceOnUse">
<stop stopColor="#FFFDF1"/>
<stop offset="1" stopColor="#FFF5C6"/>
</linearGradient>
<linearGradient id="paint8_linear_255_2395" x1="21.0788" y1="15.0057" x2="36.7084" y2="30.6353" gradientUnits="userSpaceOnUse">
<stop stopColor="white"/>
<stop offset="1" stopColor="#EAF6FF" stopOpacity="0"/>
</linearGradient>
<linearGradient id="paint9_linear_255_2395" x1="24.0624" y1="24.6395" x2="14.7487" y2="21.0121" gradientUnits="userSpaceOnUse">
<stop stopColor="#FEA613" stopOpacity="0"/>
<stop offset="0.1832" stopColor="#FC9B19" stopOpacity="0.183"/>
<stop offset="0.5086" stopColor="#F57D28" stopOpacity="0.509"/>
<stop offset="0.9356" stopColor="#EB4C40" stopOpacity="0.936"/>
<stop offset="1" stopColor="#E94444"/>
</linearGradient>
<linearGradient id="paint10_linear_255_2395" x1="39.1436" y1="32.2385" x2="26.9407" y2="20.0357" gradientUnits="userSpaceOnUse">
<stop stopColor="#FEA613" stopOpacity="0"/>
<stop offset="0.1832" stopColor="#FC9B19" stopOpacity="0.183"/>
<stop offset="0.5086" stopColor="#F57D28" stopOpacity="0.509"/>
<stop offset="0.9356" stopColor="#EB4C40" stopOpacity="0.936"/>
<stop offset="1" stopColor="#E94444"/>
</linearGradient>
<linearGradient id="paint11_linear_255_2395" x1="29.7647" y1="22.8599" x2="35.8439" y2="28.9391" gradientUnits="userSpaceOnUse">
<stop stopColor="#FEF48B"/>
<stop offset="0.1462" stopColor="#FDF07E"/>
<stop offset="0.4164" stopColor="#FCE55C"/>
<stop offset="0.778" stopColor="#FBD325"/>
<stop offset="1" stopColor="#FAC600"/>
</linearGradient>
<linearGradient id="paint12_linear_255_2395" x1="19.9365" y1="31.0781" x2="21.7444" y2="32.8859" gradientUnits="userSpaceOnUse">
<stop stopColor="#BBEC6C"/>
<stop offset="1" stopColor="#78A91F"/>
</linearGradient>
<linearGradient id="paint13_linear_255_2395" x1="20.9639" y1="38.8613" x2="22.7717" y2="40.6691" gradientUnits="userSpaceOnUse">
<stop stopColor="#BBEC6C"/>
<stop offset="1" stopColor="#78A91F"/>
</linearGradient>
<linearGradient id="paint14_linear_255_2395" x1="17.5239" y1="33.5293" x2="19.3317" y2="35.3371" gradientUnits="userSpaceOnUse">
<stop stopColor="#BBEC6C"/>
<stop offset="1" stopColor="#78A91F"/>
</linearGradient>
<linearGradient id="paint15_linear_255_2395" x1="18.1112" y1="36.5309" x2="19.9189" y2="38.3386" gradientUnits="userSpaceOnUse">
<stop stopColor="#BBEC6C"/>
<stop offset="1" stopColor="#78A91F"/>
</linearGradient>
<linearGradient id="paint16_linear_255_2395" x1="19.9365" y1="34.3623" x2="21.7444" y2="36.1701" gradientUnits="userSpaceOnUse">
<stop stopColor="#BBEC6C"/>
<stop offset="1" stopColor="#78A91F"/>
</linearGradient>
<linearGradient id="paint17_linear_255_2395" x1="23.2826" y1="33.5293" x2="25.0903" y2="35.3371" gradientUnits="userSpaceOnUse">
<stop stopColor="#BBEC6C"/>
<stop offset="1" stopColor="#78A91F"/>
</linearGradient>
<linearGradient id="paint18_linear_255_2395" x1="21.7617" y1="36.1876" x2="23.5695" y2="37.9954" gradientUnits="userSpaceOnUse">
<stop stopColor="#BBEC6C"/>
<stop offset="1" stopColor="#78A91F"/>
</linearGradient>
<linearGradient id="paint19_linear_255_2395" x1="10.451" y1="14.8893" x2="23.4269" y2="20.9475" gradientUnits="userSpaceOnUse">
<stop stopColor="#FD8087"/>
<stop offset="1" stopColor="#E74335"/>
</linearGradient>
<linearGradient id="paint20_linear_255_2395" x1="4.67758" y1="12.1938" x2="21.2422" y2="19.9276" gradientUnits="userSpaceOnUse">
<stop stopColor="#E41F2D" stopOpacity="0"/>
<stop offset="0.3461" stopColor="#DE1E2B" stopOpacity="0.346"/>
<stop offset="0.8036" stopColor="#CE1B28" stopOpacity="0.804"/>
<stop offset="1" stopColor="#C41926"/>
</linearGradient>
<linearGradient id="paint21_linear_255_2395" x1="6.99826" y1="13.2774" x2="28.5497" y2="23.3395" gradientUnits="userSpaceOnUse">
<stop stopColor="#E41F2D" stopOpacity="0"/>
<stop offset="0.3461" stopColor="#DE1E2B" stopOpacity="0.346"/>
<stop offset="0.8036" stopColor="#CE1B28" stopOpacity="0.804"/>
<stop offset="1" stopColor="#C41926"/>
</linearGradient>
<linearGradient id="paint22_linear_255_2395" x1="5.53409" y1="12.5937" x2="27.0855" y2="22.6558" gradientUnits="userSpaceOnUse">
<stop stopColor="#E41F2D" stopOpacity="0"/>
<stop offset="0.3461" stopColor="#DE1E2B" stopOpacity="0.346"/>
<stop offset="0.8036" stopColor="#CE1B28" stopOpacity="0.804"/>
<stop offset="1" stopColor="#C41926"/>
</linearGradient>
<linearGradient id="paint23_linear_255_2395" x1="13.575" y1="20.4379" x2="26.5509" y2="26.4961" gradientUnits="userSpaceOnUse">
<stop stopColor="#FD8087"/>
<stop offset="1" stopColor="#E74335"/>
</linearGradient>
<linearGradient id="paint24_linear_255_2395" x1="7.80155" y1="17.7424" x2="24.3662" y2="25.4762" gradientUnits="userSpaceOnUse">
<stop stopColor="#E41F2D" stopOpacity="0"/>
<stop offset="0.3461" stopColor="#DE1E2B" stopOpacity="0.346"/>
<stop offset="0.8036" stopColor="#CE1B28" stopOpacity="0.804"/>
<stop offset="1" stopColor="#C41926"/>
</linearGradient>
<linearGradient id="paint25_linear_255_2395" x1="10.1222" y1="18.826" x2="31.6737" y2="28.8881" gradientUnits="userSpaceOnUse">
<stop stopColor="#E41F2D" stopOpacity="0"/>
<stop offset="0.3461" stopColor="#DE1E2B" stopOpacity="0.346"/>
<stop offset="0.8036" stopColor="#CE1B28" stopOpacity="0.804"/>
<stop offset="1" stopColor="#C41926"/>
</linearGradient>
<linearGradient id="paint26_linear_255_2395" x1="8.65814" y1="18.1423" x2="30.2095" y2="28.2044" gradientUnits="userSpaceOnUse">
<stop stopColor="#E41F2D" stopOpacity="0"/>
<stop offset="0.3461" stopColor="#DE1E2B" stopOpacity="0.346"/>
<stop offset="0.8036" stopColor="#CE1B28" stopOpacity="0.804"/>
<stop offset="1" stopColor="#C41926"/>
</linearGradient>
<linearGradient id="paint27_linear_255_2395" x1="41.2554" y1="24.9551" x2="50.7059" y2="24.9551" gradientUnits="userSpaceOnUse">
<stop stopColor="#E1D3CE"/>
<stop offset="1" stopColor="#9E9797"/>
</linearGradient>
<linearGradient id="paint28_linear_255_2395" x1="50.6317" y1="15.0501" x2="40.3221" y2="15.0501" gradientUnits="userSpaceOnUse">
<stop stopColor="#E1D3CE"/>
<stop offset="1" stopColor="#9E9797"/>
</linearGradient>
<linearGradient id="paint29_linear_255_2395" x1="3.88794" y1="25.2468" x2="8.39127" y2="25.2468" gradientUnits="userSpaceOnUse">
<stop stopColor="#E1D3CE"/>
<stop offset="1" stopColor="#9E9797"/>
</linearGradient>
<clipPath id="clip0_255_2395">
<rect width="50" height="50" fill="white" transform="translate(0.5)"/>
</clipPath>
</defs>
</svg>