<svg width="51" height="50" viewBox="0 0 51 50" fill="none" xmlns="http://www.w3.org/2000/svg">
<g clipPath="url(#clip0_255_2415)">
<path d="M0.935791 41.4591C0.935791 44.7875 3.26942 47.6566 6.52667 48.3407C11.4135 49.3671 18.1109 50.0001 25.4999 50.0001C32.8889 50.0001 39.5863 49.3671 44.4731 48.3407C47.7304 47.6566 50.064 44.7876 50.064 41.4592C50.064 40.3229 48.963 39.5062 47.8787 39.8459C43.0016 41.3736 34.7999 42.3768 25.4999 42.3768C16.1999 42.3768 7.99824 41.3736 3.12109 39.8458C2.03677 39.5061 0.935791 40.3229 0.935791 41.4591Z" fill="url(#paint0_linear_255_2415)"/>
<path d="M20.3691 42.2727L28.0703 49.9739C34.4354 49.8457 40.1597 49.2465 44.4731 48.3406C45.7036 48.0821 46.8018 47.5115 47.6927 46.7225L42.1254 41.1553C37.5365 41.9204 31.7687 42.3766 25.4998 42.3766C23.7455 42.3767 22.0304 42.341 20.3691 42.2727Z" fill="url(#paint1_linear_255_2415)"/>
<path d="M47.8788 39.8458C45.8789 40.4723 43.3193 41.0103 40.355 41.4274L46.5015 47.5738C48.6562 46.3514 50.0642 44.044 50.0642 41.4591C50.0641 40.3229 48.9631 39.5061 47.8788 39.8458Z" fill="url(#paint2_linear_255_2415)"/>
<g opacity="0.6">
<path d="M7.6733 44.5395C8.12969 44.5395 8.49967 44.1695 8.49967 43.7131C8.49967 43.2567 8.12969 42.8867 7.6733 42.8867C7.2169 42.8867 6.84692 43.2567 6.84692 43.7131C6.84692 44.1695 7.2169 44.5395 7.6733 44.5395Z" fill="url(#paint3_linear_255_2415)"/>
<path d="M6.13878 46.5027C6.49912 46.5027 6.79123 46.2105 6.79123 45.8502C6.79123 45.4899 6.49912 45.1978 6.13878 45.1978C5.77844 45.1978 5.48633 45.4899 5.48633 45.8502C5.48633 46.2105 5.77844 46.5027 6.13878 46.5027Z" fill="url(#paint4_linear_255_2415)"/>
<path d="M8.98244 46.7911C9.19968 46.7911 9.37578 46.615 9.37578 46.3977C9.37578 46.1805 9.19968 46.0044 8.98244 46.0044C8.76521 46.0044 8.58911 46.1805 8.58911 46.3977C8.58911 46.615 8.76521 46.7911 8.98244 46.7911Z" fill="url(#paint5_linear_255_2415)"/>
<path d="M12.0428 44.9465C12.3801 44.9465 12.6535 44.6731 12.6535 44.3358C12.6535 43.9985 12.3801 43.7251 12.0428 43.7251C11.7055 43.7251 11.4321 43.9985 11.4321 44.3358C11.4321 44.6731 11.7055 44.9465 12.0428 44.9465Z" fill="url(#paint6_linear_255_2415)"/>
<path d="M10.11 45.0256C10.3762 45.0256 10.592 44.8098 10.592 44.5436C10.592 44.2774 10.3762 44.0615 10.11 44.0615C9.84375 44.0615 9.62793 44.2774 9.62793 44.5436C9.62793 44.8098 9.84375 45.0256 10.11 45.0256Z" fill="url(#paint7_linear_255_2415)"/>
<path d="M11.2094 46.6702C11.3699 46.6702 11.5001 46.5401 11.5001 46.3796C11.5001 46.219 11.3699 46.0889 11.2094 46.0889C11.0488 46.0889 10.9187 46.219 10.9187 46.3796C10.9187 46.5401 11.0488 46.6702 11.2094 46.6702Z" fill="url(#paint8_linear_255_2415)"/>
</g>
<path d="M1.49756 44.2104C2.37677 46.2744 4.21942 47.856 6.52677 48.3406C11.4136 49.367 18.111 50.0001 25.5 50.0001C32.889 50.0001 39.5864 49.367 44.4732 48.3406C46.7806 47.856 48.6232 46.2745 49.5025 44.2104H1.49756Z" fill="url(#paint9_linear_255_2415)"/>
<path d="M0.935791 34.7824V36.3664C0.935791 38.6585 2.4804 40.6718 4.70079 41.2406C9.66971 42.5135 17.1424 43.3234 25.4999 43.3234C33.8575 43.3234 41.3301 42.5135 46.299 41.2406C48.5194 40.6718 50.064 38.6586 50.064 36.3664V34.7824C50.064 33.646 48.963 32.8293 47.8787 33.169C43.0016 34.6969 34.7999 35.7 25.4999 35.7C16.1999 35.7 7.99824 34.6969 3.12109 33.169C2.03677 32.8293 0.935791 33.6461 0.935791 34.7824Z" fill="url(#paint10_linear_255_2415)"/>
<path d="M47.8787 33.169C43.0016 34.6969 34.8 35.7 25.4999 35.7C16.1999 35.7 7.99824 34.6969 3.12109 33.169C2.52197 32.9814 1.91883 33.1478 1.49805 33.5249L10.2977 42.3245C14.6322 42.9547 19.8641 43.3234 25.4998 43.3234C33.8574 43.3234 41.33 42.5134 46.2989 41.2406C48.5193 40.6718 50.0639 38.6585 50.0639 36.3664V34.7824C50.064 33.6461 48.963 32.8293 47.8787 33.169Z" fill="url(#paint11_linear_255_2415)"/>
<path d="M50.0641 36.3663V35.2531L47.9598 33.1489C47.9328 33.156 47.9058 33.1605 47.8788 33.169C45.2737 33.9851 41.7194 34.6513 37.5564 35.0951V37.8184C37.5564 38.429 37.8327 38.9747 38.2665 39.3387L41.181 42.2532C43.0836 41.9636 44.8052 41.6232 46.2991 41.2405C48.5195 40.6717 50.0641 38.6584 50.0641 36.3663Z" fill="url(#paint12_linear_255_2415)"/>
<path d="M36.2002 35.23C32.9181 35.5324 29.3011 35.7002 25.5001 35.7002C21.7168 35.7002 18.1154 35.5341 14.8455 35.2343C14.5448 35.7773 14.5922 36.4958 15.0895 36.993L21.3519 43.2554C22.7045 43.2999 24.0892 43.3235 25.5001 43.3235C32.1412 43.3235 38.2219 42.8117 42.9332 41.963L36.2002 35.23Z" fill="url(#paint13_linear_255_2415)"/>
<path d="M35.2965 34.5429C28.9088 32.6075 22.0912 32.6075 15.7036 34.5429C14.6391 34.8654 14.303 36.2064 15.0894 36.9929L22.686 44.5894C24.2401 46.1435 26.7599 46.1435 28.314 44.5894L35.9106 36.9929C36.6971 36.2064 36.3609 34.8654 35.2965 34.5429Z" fill="url(#paint14_linear_255_2415)"/>
<path d="M50.064 32.1778C50.064 25.2292 0.935791 25.2292 0.935791 32.1778C0.935791 33.3758 2.39707 34.3672 4.81461 35.1521C5.69285 35.4372 6.50285 35.9 7.18011 36.5276L7.25275 36.5948C8.7253 37.9594 10.8573 38.3424 12.7126 37.5755L12.7139 37.5749C14.2988 36.9198 16.1059 37.096 17.5344 38.0449L17.6703 38.1352C19.2455 39.1815 21.2712 39.2674 22.9292 38.3582L23.0559 38.2887C24.5787 37.4536 26.4225 37.4534 27.9454 38.2883L28.073 38.3582C29.7313 39.2672 31.7571 39.181 33.3322 38.1345L33.497 38.025C34.9175 37.0813 36.7164 36.9124 38.2878 37.575C40.1295 38.3517 42.2554 37.9777 43.7214 36.6189L43.82 36.5275C44.4972 35.8998 45.3072 35.4371 46.1853 35.152C48.6028 34.3672 50.064 33.3758 50.064 32.1778Z" fill="url(#paint15_linear_255_2415)"/>
<path d="M50.0642 32.1775C50.0642 33.3757 48.6024 34.3658 46.1849 35.1506C45.3072 35.4367 44.4969 35.8996 43.8199 36.5271L43.7211 36.6185C42.764 37.5067 41.5223 37.974 40.2641 37.974C39.5976 37.974 38.9251 37.8437 38.2885 37.5741C36.7174 36.912 34.9184 37.0813 33.4971 38.025L33.3323 38.1343C31.7581 39.1798 29.7315 39.2666 28.0734 38.3574L27.9461 38.287C26.4229 37.4527 24.579 37.4527 23.0557 38.2885L22.9299 38.3574C21.2719 39.2665 19.2453 39.1812 17.6711 38.1343L17.5348 38.0444C16.1059 37.0948 14.2995 36.9195 12.7148 37.5741H12.7133C11.6275 38.0219 10.4486 38.0789 9.36129 37.7733L3.03903 31.451C2.70207 31.1409 2.41746 30.777 2.19727 30.3756C5.02511 28.5049 12.2566 27.404 20.2669 27.073C23.7074 26.9307 27.2932 26.9307 30.7335 27.073C41.0444 27.4984 50.0642 29.1999 50.0642 32.1775Z" fill="url(#paint16_linear_255_2415)"/>
<path d="M17.7981 27.2017C12.4107 27.5404 7.57284 28.2453 4.47559 29.317C4.57657 29.7937 4.84706 30.2076 5.22333 30.491L12.4177 37.6854C12.5167 37.6515 12.6153 37.6161 12.7127 37.5758L12.7141 37.5752C14.299 36.9201 16.1061 37.0963 17.5346 38.0452L17.6705 38.1355C19.2457 39.1818 21.2714 39.2676 22.9294 38.3584L23.0561 38.2889C24.5789 37.4538 26.4226 37.4537 27.9456 38.2885L28.0732 38.3585C28.5174 38.602 28.9882 38.7718 29.4694 38.873L17.7981 27.2017Z" fill="url(#paint17_linear_255_2415)"/>
<path d="M45.9448 31.1338H37.5564V37.3324C37.8039 37.395 38.0487 37.4742 38.2879 37.575C40.1296 38.3516 42.2555 37.9776 43.7215 36.6188L43.8201 36.5274C44.4973 35.8998 45.3073 35.437 46.1854 35.1519C47.2588 34.8034 48.1431 34.4142 48.7952 33.9842L45.9448 31.1338Z" fill="url(#paint18_linear_255_2415)"/>
<path d="M37.5564 31.1338V37.8182C37.5564 38.9142 38.4448 39.8026 39.5408 39.8026C40.6368 39.8026 41.5252 38.9142 41.5252 37.8182V36.464C41.5252 36.0843 41.833 35.7765 42.2127 35.7765C42.5924 35.7765 42.9001 36.0843 42.9001 36.464V36.5742C42.9001 37.415 43.5817 38.0965 44.4225 38.0965C45.2633 38.0965 45.9448 37.415 45.9448 36.5742V31.1338H37.5564Z" fill="url(#paint19_linear_255_2415)"/>
<path d="M1.66382 28.2051V28.3151C1.66382 30.2315 2.94029 31.9179 4.78882 32.4233C9.60009 33.7386 17.0881 34.5841 25.5 34.5841C33.9119 34.5841 41.3999 33.7386 46.2112 32.4233C48.0597 31.9179 49.3362 30.2316 49.3362 28.3151C49.3362 28.2786 49.3362 28.2422 49.3362 28.2055C49.3362 26.195 47.4468 24.7226 45.4967 25.2116C40.6766 26.4202 33.5079 27.1867 25.5 27.1867C17.4921 27.1867 10.3234 26.4202 5.50333 25.2117C3.55313 24.7227 1.66382 26.1946 1.66382 28.2051Z" fill="url(#paint20_linear_255_2415)"/>
<path d="M17.519 26.9228C12.7935 26.6007 8.64827 26.0006 5.50317 25.212C5.13934 25.1207 4.77768 25.098 4.42993 25.1339V28.9066C4.42993 29.5549 4.74219 30.1288 5.22307 30.491L7.8617 33.1296C12.452 34.0192 18.5172 34.5663 25.1796 34.5833L17.519 26.9228Z" fill="url(#paint21_linear_255_2415)"/>
<path d="M45.4021 25.2349C40.583 26.43 33.4564 27.1868 25.5001 27.1868C25.1568 27.1868 24.8157 27.1849 24.4756 27.1821L31.7191 34.4256C37.5526 34.1228 42.6256 33.4038 46.2113 32.4235C47.8037 31.9881 48.9694 30.6756 49.2624 29.0953L45.4021 25.2349Z" fill="url(#paint22_linear_255_2415)"/>
<path d="M0.935791 22.3542V23.9382C0.935791 26.2302 2.4804 28.2436 4.70079 28.8124C9.66971 30.0852 17.1424 30.8951 25.4999 30.8951C33.8575 30.8951 41.3301 30.0852 46.299 28.8124C48.5194 28.2436 50.064 26.2303 50.064 23.9382V22.3542C50.064 21.2178 48.963 20.4011 47.8787 20.7408C43.0016 22.2687 34.7999 23.2718 25.4999 23.2718C16.1999 23.2718 7.99824 22.2687 3.12109 20.7408C2.03677 20.4011 0.935791 21.2179 0.935791 22.3542Z" fill="url(#paint23_linear_255_2415)"/>
<path d="M47.8787 20.7408C43.0016 22.2687 34.8 23.2718 25.4999 23.2718C16.1999 23.2718 7.99824 22.2687 3.12109 20.7408C2.52197 20.5532 1.91883 20.7195 1.49805 21.0967L10.2977 29.8963C14.6323 30.5265 19.8642 30.8951 25.4999 30.8951C33.8575 30.8951 41.3301 30.0852 46.299 28.8124C48.5194 28.2436 50.064 26.2303 50.064 23.9382V22.3541C50.064 21.2179 48.963 20.4011 47.8787 20.7408Z" fill="url(#paint24_linear_255_2415)"/>
<path d="M48.1008 27.9334L42.2045 22.0371C37.603 22.8101 31.8048 23.2715 25.5001 23.2715C24.1278 23.2715 22.7804 23.2492 21.4631 23.207C21.3604 23.6702 21.4761 24.1824 21.858 24.5644L28.1204 30.8267C28.3778 30.8352 28.6376 30.8422 28.8974 30.8491C35.8675 30.6624 42.0145 29.9097 46.2991 28.812C46.9695 28.6403 47.5776 28.3363 48.1008 27.9334Z" fill="url(#paint25_linear_255_2415)"/>
<path d="M42.065 22.1146C35.6775 20.1792 28.8598 20.1792 22.4721 22.1146C21.4077 22.4372 21.0715 23.7782 21.858 24.5646L29.4546 32.1612C31.0087 33.7153 33.5285 33.7153 35.0826 32.1612L42.6792 24.5646C43.4656 23.7782 43.1295 22.4372 42.065 22.1146Z" fill="url(#paint26_linear_255_2415)"/>
<path d="M4.70096 28.8125C8.84645 29.8744 14.7353 30.6136 21.4261 30.8296L13.2415 22.645C12.0967 22.5204 10.9986 22.379 9.95498 22.2222H4.43018V28.7338C4.51939 28.7622 4.60939 28.789 4.70096 28.8125Z" fill="url(#paint27_linear_255_2415)"/>
<path d="M4.43018 22.2222V28.9066C4.43018 30.0026 5.31861 30.891 6.41459 30.891C7.51057 30.891 8.399 30.0026 8.399 28.9066V27.5524C8.399 27.1727 8.70674 26.8649 9.08645 26.8649C9.46616 26.8649 9.7739 27.1727 9.7739 27.5524V27.6626C9.7739 28.5033 10.4555 29.1849 11.2963 29.1849C12.137 29.1849 12.8186 28.5033 12.8186 27.6626V22.2222H4.43018Z" fill="url(#paint28_linear_255_2415)"/>
<path d="M50.064 19.7496C50.064 12.8009 0.935791 12.8009 0.935791 19.7496C0.935791 20.9476 2.39707 21.939 4.81461 22.7239C5.69285 23.009 6.50285 23.4718 7.18011 24.0994L7.25275 24.1666C8.7253 25.5312 10.8573 25.9142 12.7126 25.1473L12.7139 25.1467C14.2988 24.4916 16.1059 24.6678 17.5344 25.6167L17.6703 25.707C19.2455 26.7533 21.2712 26.8392 22.9292 25.9299L23.0559 25.8604C24.5787 25.0253 26.4225 25.0251 27.9454 25.86L28.073 25.9299C29.7313 26.839 31.7571 26.7528 33.3322 25.7063L33.497 25.5968C34.9175 24.6531 36.7164 24.4842 38.2878 25.1468C40.1295 25.9236 42.2554 25.5495 43.7214 24.1906L43.82 24.0993C44.4972 23.4716 45.3072 23.0089 46.1853 22.7238C48.6028 21.939 50.064 20.9476 50.064 19.7496Z" fill="url(#paint29_linear_255_2415)"/>
<path d="M50.0642 19.7503C50.0642 20.9485 48.6024 21.9386 46.1849 22.7234C45.3072 23.0095 44.4969 23.4723 43.8199 24.0999L43.7211 24.1912C42.764 25.0795 41.5223 25.5467 40.2641 25.5467C39.5976 25.5467 38.9251 25.4164 38.2885 25.1468C36.7174 24.4848 34.9184 24.6541 33.4971 25.5977L33.3323 25.707C31.7581 26.7525 29.7315 26.8394 28.0734 25.9302L27.9461 25.8598C26.4229 25.0255 24.579 25.0255 23.0557 25.8612L22.9299 25.9302C21.2719 26.8393 19.2453 26.754 17.6711 25.707L17.5348 25.6171C16.1059 24.6675 14.2995 24.4922 12.7148 25.1468H12.7133C11.6275 25.5947 10.4486 25.6516 9.36129 25.3461L3.03903 19.0238C2.70207 18.7137 2.41746 18.3498 2.19727 17.9484C5.02511 16.0776 12.2566 14.9767 20.2669 14.6458C23.7074 14.5035 27.2932 14.5035 30.7335 14.6458C41.0444 15.0711 50.0642 16.7726 50.0642 19.7503Z" fill="url(#paint30_linear_255_2415)"/>
<path d="M1.66382 15.7769V15.8869C1.66382 17.8032 2.94029 19.4896 4.78882 19.995C9.60009 21.3104 17.0881 22.1559 25.5 22.1559C33.9119 22.1559 41.3999 21.3104 46.2112 19.995C48.0597 19.4896 49.3362 17.8033 49.3362 15.8869C49.3362 15.8504 49.3362 15.8139 49.3362 15.7773C49.3362 13.7668 47.4468 12.2944 45.4967 12.7833C40.6766 13.992 33.5079 14.7584 25.5 14.7584C17.4921 14.7584 10.3234 13.992 5.50333 12.7834C3.55313 12.2944 1.66382 13.7664 1.66382 15.7769Z" fill="url(#paint31_linear_255_2415)"/>
<path d="M49.3363 15.7778V15.8871C49.3363 17.8028 48.0601 19.4894 46.2119 19.9957C41.3994 21.3108 33.9119 22.1555 25.5001 22.1555C18.7434 22.1555 12.583 21.6103 7.92629 20.7146L1.87061 14.6589C2.41286 13.2614 3.93757 12.3913 5.50276 12.7836C10.3228 13.9923 17.4928 14.7577 25.5 14.7577C33.5073 14.7577 40.6774 13.9923 45.4973 12.7836C47.4476 12.2939 49.3363 13.7663 49.3363 15.7778Z" fill="url(#paint32_linear_255_2415)"/>
<path d="M50.5 13.0703C50.5 20.019 0.5 20.019 0.5 13.0703C0.5 6.12171 11.6928 0.48877 25.5 0.48877C39.3072 0.48877 50.5 6.12171 50.5 13.0703Z" fill="url(#paint33_linear_255_2415)"/>
<g opacity="0.6">
<path d="M42.4135 11.6098C42.8699 11.6098 43.2399 11.2398 43.2399 10.7834C43.2399 10.327 42.8699 9.95703 42.4135 9.95703C41.9571 9.95703 41.5872 10.327 41.5872 10.7834C41.5872 11.2398 41.9571 11.6098 42.4135 11.6098Z" fill="url(#paint34_linear_255_2415)"/>
<path d="M40.879 13.573C41.2394 13.573 41.5315 13.2809 41.5315 12.9205C41.5315 12.5602 41.2394 12.2681 40.879 12.2681C40.5187 12.2681 40.2266 12.5602 40.2266 12.9205C40.2266 13.2809 40.5187 13.573 40.879 13.573Z" fill="url(#paint35_linear_255_2415)"/>
<path d="M43.7227 13.8614C43.9399 13.8614 44.116 13.6853 44.116 13.468C44.116 13.2508 43.9399 13.0747 43.7227 13.0747C43.5054 13.0747 43.3293 13.2508 43.3293 13.468C43.3293 13.6853 43.5054 13.8614 43.7227 13.8614Z" fill="url(#paint36_linear_255_2415)"/>
<path d="M46.7831 12.0168C47.1203 12.0168 47.3937 11.7434 47.3937 11.4061C47.3937 11.0688 47.1203 10.7954 46.7831 10.7954C46.4458 10.7954 46.1724 11.0688 46.1724 11.4061C46.1724 11.7434 46.4458 12.0168 46.7831 12.0168Z" fill="url(#paint37_linear_255_2415)"/>
<path d="M44.8502 12.096C45.1165 12.096 45.3323 11.8801 45.3323 11.6139C45.3323 11.3477 45.1165 11.1318 44.8502 11.1318C44.584 11.1318 44.3682 11.3477 44.3682 11.6139C44.3682 11.8801 44.584 12.096 44.8502 12.096Z" fill="url(#paint38_linear_255_2415)"/>
<path d="M45.9496 13.7406C46.1102 13.7406 46.2403 13.6104 46.2403 13.4499C46.2403 13.2893 46.1102 13.1592 45.9496 13.1592C45.7891 13.1592 45.6589 13.2893 45.6589 13.4499C45.6589 13.6104 45.7891 13.7406 45.9496 13.7406Z" fill="url(#paint39_linear_255_2415)"/>
</g>
<path d="M0.5 13.0704C0.5 20.019 50.5 20.019 50.5 13.0704C50.5 11.7881 50.1177 10.5508 49.4093 9.38525H1.59069C0.882255 10.5507 0.5 11.788 0.5 13.0704Z" fill="url(#paint40_linear_255_2415)"/>
<path d="M14.3384 11.5332C15.094 11.5332 15.7065 11.265 15.7065 10.9341C15.7065 10.6032 15.094 10.335 14.3384 10.335C13.5828 10.335 12.9702 10.6032 12.9702 10.9341C12.9702 11.265 13.5828 11.5332 14.3384 11.5332Z" fill="url(#paint41_linear_255_2415)"/>
<path d="M21.7795 11.5332C22.5351 11.5332 23.1477 11.265 23.1477 10.9341C23.1477 10.6032 22.5351 10.335 21.7795 10.335C21.0239 10.335 20.4114 10.6032 20.4114 10.9341C20.4114 11.265 21.0239 11.5332 21.7795 11.5332Z" fill="url(#paint42_linear_255_2415)"/>
<path d="M29.2209 11.5332C29.9765 11.5332 30.5891 11.265 30.5891 10.9341C30.5891 10.6032 29.9765 10.335 29.2209 10.335C28.4653 10.335 27.8528 10.6032 27.8528 10.9341C27.8528 11.265 28.4653 11.5332 29.2209 11.5332Z" fill="url(#paint43_linear_255_2415)"/>
<path d="M36.6621 11.5332C37.4177 11.5332 38.0302 11.265 38.0302 10.9341C38.0302 10.6032 37.4177 10.335 36.6621 10.335C35.9065 10.335 35.2939 10.6032 35.2939 10.9341C35.2939 11.265 35.9065 11.5332 36.6621 11.5332Z" fill="url(#paint44_linear_255_2415)"/>
<path d="M10.6176 8.08837C11.3732 8.08837 11.9858 7.82014 11.9858 7.48925C11.9858 7.15837 11.3732 6.89014 10.6176 6.89014C9.86205 6.89014 9.24951 7.15837 9.24951 7.48925C9.24951 7.82014 9.86205 8.08837 10.6176 8.08837Z" fill="url(#paint45_linear_255_2415)"/>
<path d="M18.0588 8.08837C18.8144 8.08837 19.4269 7.82014 19.4269 7.48925C19.4269 7.15837 18.8144 6.89014 18.0588 6.89014C17.3032 6.89014 16.6907 7.15837 16.6907 7.48925C16.6907 7.82014 17.3032 8.08837 18.0588 8.08837Z" fill="url(#paint46_linear_255_2415)"/>
<path d="M25.5002 8.08837C26.2558 8.08837 26.8684 7.82014 26.8684 7.48925C26.8684 7.15837 26.2558 6.89014 25.5002 6.89014C24.7446 6.89014 24.1321 7.15837 24.1321 7.48925C24.1321 7.82014 24.7446 8.08837 25.5002 8.08837Z" fill="url(#paint47_linear_255_2415)"/>
<path d="M32.9414 8.08837C33.697 8.08837 34.3095 7.82014 34.3095 7.48925C34.3095 7.15837 33.697 6.89014 32.9414 6.89014C32.1858 6.89014 31.5732 7.15837 31.5732 7.48925C31.5732 7.82014 32.1858 8.08837 32.9414 8.08837Z" fill="url(#paint48_linear_255_2415)"/>
<path d="M40.3825 8.08837C41.1381 8.08837 41.7507 7.82014 41.7507 7.48925C41.7507 7.15837 41.1381 6.89014 40.3825 6.89014C39.6269 6.89014 39.0144 7.15837 39.0144 7.48925C39.0144 7.82014 39.6269 8.08837 40.3825 8.08837Z" fill="url(#paint49_linear_255_2415)"/>
<path d="M14.3384 4.64306C15.094 4.64306 15.7065 4.37483 15.7065 4.04394C15.7065 3.71306 15.094 3.44482 14.3384 3.44482C13.5828 3.44482 12.9702 3.71306 12.9702 4.04394C12.9702 4.37483 13.5828 4.64306 14.3384 4.64306Z" fill="url(#paint50_linear_255_2415)"/>
<path d="M21.7795 4.64306C22.5351 4.64306 23.1477 4.37483 23.1477 4.04394C23.1477 3.71306 22.5351 3.44482 21.7795 3.44482C21.0239 3.44482 20.4114 3.71306 20.4114 4.04394C20.4114 4.37483 21.0239 4.64306 21.7795 4.64306Z" fill="url(#paint51_linear_255_2415)"/>
<path d="M29.2209 4.64306C29.9765 4.64306 30.5891 4.37483 30.5891 4.04394C30.5891 3.71306 29.9765 3.44482 29.2209 3.44482C28.4653 3.44482 27.8528 3.71306 27.8528 4.04394C27.8528 4.37483 28.4653 4.64306 29.2209 4.64306Z" fill="url(#paint52_linear_255_2415)"/>
<path d="M36.6621 4.64306C37.4177 4.64306 38.0302 4.37483 38.0302 4.04394C38.0302 3.71306 37.4177 3.44482 36.6621 3.44482C35.9065 3.44482 35.2939 3.71306 35.2939 4.04394C35.2939 4.37483 35.9065 4.64306 36.6621 4.64306Z" fill="url(#paint53_linear_255_2415)"/>
<path d="M25.5002 1.19824C26.2558 1.19824 26.8684 0.930001 26.8684 0.599118C26.8684 0.268234 26.2558 0 25.5002 0C24.7446 0 24.1321 0.268234 24.1321 0.599118C24.1321 0.930001 24.7446 1.19824 25.5002 1.19824Z" fill="url(#paint54_linear_255_2415)"/>
<path d="M34.1435 1.26812C34.0787 1.59263 33.4254 1.73557 32.6845 1.58753C31.9435 1.43949 31.3954 1.05636 31.4603 0.731847C31.5251 0.407337 32.1784 0.264396 32.9193 0.412435C33.6602 0.560475 34.2084 0.943612 34.1435 1.26812Z" fill="url(#paint55_linear_255_2415)"/>
<path d="M16.8568 1.26812C16.9216 1.59263 17.5749 1.73557 18.3158 1.58753C19.0568 1.43949 19.6049 1.05636 19.54 0.731847C19.4751 0.407337 18.8219 0.264396 18.081 0.412435C17.34 0.560573 16.7919 0.943612 16.8568 1.26812Z" fill="url(#paint56_linear_255_2415)"/>
</g>
<defs>
<linearGradient id="paint0_linear_255_2415" x1="25.288" y1="40.9534" x2="28.5832" y2="53.9843" gradientUnits="userSpaceOnUse">
<stop stopColor="#FAA68E"/>
<stop offset="0.2061" stopColor="#FBA682"/>
<stop offset="0.5808" stopColor="#FDA861"/>
<stop offset="1" stopColor="#FFA936"/>
</linearGradient>
<linearGradient id="paint1_linear_255_2415" x1="36.4137" y1="50.7569" x2="29.7236" y2="33.1826" gradientUnits="userSpaceOnUse">
<stop stopColor="#F82814" stopOpacity="0"/>
<stop offset="0.2454" stopColor="#F12817" stopOpacity="0.245"/>
<stop offset="0.6052" stopColor="#DD2820" stopOpacity="0.605"/>
<stop offset="1" stopColor="#C0272D"/>
</linearGradient>
<linearGradient id="paint2_linear_255_2415" x1="46.3225" y1="44.1605" x2="43.8886" y2="37.8697" gradientUnits="userSpaceOnUse">
<stop stopColor="#F82814" stopOpacity="0"/>
<stop offset="0.2454" stopColor="#F12817" stopOpacity="0.245"/>
<stop offset="0.6052" stopColor="#DD2820" stopOpacity="0.605"/>
<stop offset="1" stopColor="#C0272D"/>
</linearGradient>
<linearGradient id="paint3_linear_255_2415" x1="8.34674" y1="44.8047" x2="6.23518" y2="41.5095" gradientUnits="userSpaceOnUse">
<stop stopColor="#F82814" stopOpacity="0"/>
<stop offset="0.2454" stopColor="#F12817" stopOpacity="0.245"/>
<stop offset="0.6052" stopColor="#DD2820" stopOpacity="0.605"/>
<stop offset="1" stopColor="#C0272D"/>
</linearGradient>
<linearGradient id="paint4_linear_255_2415" x1="6.6687" y1="46.7198" x2="5.00168" y2="44.1185" gradientUnits="userSpaceOnUse">
<stop stopColor="#F82814" stopOpacity="0"/>
<stop offset="0.2454" stopColor="#F12817" stopOpacity="0.245"/>
<stop offset="0.6052" stopColor="#DD2820" stopOpacity="0.605"/>
<stop offset="1" stopColor="#C0272D"/>
</linearGradient>
<linearGradient id="paint5_linear_255_2415" x1="9.30097" y1="46.9351" x2="8.29598" y2="45.3668" gradientUnits="userSpaceOnUse">
<stop stopColor="#F82814" stopOpacity="0"/>
<stop offset="0.2454" stopColor="#F12817" stopOpacity="0.245"/>
<stop offset="0.6052" stopColor="#DD2820" stopOpacity="0.605"/>
<stop offset="1" stopColor="#C0272D"/>
</linearGradient>
<linearGradient id="paint6_linear_255_2415" x1="11.7969" y1="45.2486" x2="12.5709" y2="42.4629" gradientUnits="userSpaceOnUse">
<stop stopColor="#F82814" stopOpacity="0"/>
<stop offset="0.2454" stopColor="#F12817" stopOpacity="0.245"/>
<stop offset="0.6052" stopColor="#DD2820" stopOpacity="0.605"/>
<stop offset="1" stopColor="#C0272D"/>
</linearGradient>
<linearGradient id="paint7_linear_255_2415" x1="9.91599" y1="45.2683" x2="10.527" y2="43.0691" gradientUnits="userSpaceOnUse">
<stop stopColor="#F82814" stopOpacity="0"/>
<stop offset="0.2454" stopColor="#F12817" stopOpacity="0.245"/>
<stop offset="0.6052" stopColor="#DD2820" stopOpacity="0.605"/>
<stop offset="1" stopColor="#C0272D"/>
</linearGradient>
<linearGradient id="paint8_linear_255_2415" x1="11.0941" y1="46.8236" x2="11.4625" y2="45.4978" gradientUnits="userSpaceOnUse">
<stop stopColor="#F82814" stopOpacity="0"/>
<stop offset="0.2454" stopColor="#F12817" stopOpacity="0.245"/>
<stop offset="0.6052" stopColor="#DD2820" stopOpacity="0.605"/>
<stop offset="1" stopColor="#C0272D"/>
</linearGradient>
<linearGradient id="paint9_linear_255_2415" x1="25.5" y1="46.0078" x2="25.5" y2="52.1283" gradientUnits="userSpaceOnUse">
<stop stopColor="#F82814" stopOpacity="0"/>
<stop offset="0.2454" stopColor="#F12817" stopOpacity="0.245"/>
<stop offset="0.6052" stopColor="#DD2820" stopOpacity="0.605"/>
<stop offset="1" stopColor="#C0272D"/>
</linearGradient>
<linearGradient id="paint10_linear_255_2415" x1="25.4999" y1="34.0752" x2="25.4999" y2="44.7856" gradientUnits="userSpaceOnUse">
<stop stopColor="#A57C52"/>
<stop offset="0.1339" stopColor="#A26C4A"/>
<stop offset="0.5155" stopColor="#994336"/>
<stop offset="0.8174" stopColor="#942A2A"/>
<stop offset="1" stopColor="#922125"/>
</linearGradient>
<linearGradient id="paint11_linear_255_2415" x1="26.0289" y1="38.9782" x2="25.5796" y2="30.191" gradientUnits="userSpaceOnUse">
<stop stopColor="#42210B" stopOpacity="0"/>
<stop offset="1" stopColor="#42210B"/>
</linearGradient>
<linearGradient id="paint12_linear_255_2415" x1="47.6538" y1="41.6824" x2="41.6252" y2="34.1558" gradientUnits="userSpaceOnUse">
<stop stopColor="#42210B" stopOpacity="0"/>
<stop offset="1" stopColor="#42210B"/>
</linearGradient>
<linearGradient id="paint13_linear_255_2415" x1="30.0896" y1="44.4496" x2="28.5918" y2="38.1963" gradientUnits="userSpaceOnUse">
<stop stopColor="#42210B" stopOpacity="0"/>
<stop offset="1" stopColor="#42210B"/>
</linearGradient>
<linearGradient id="paint14_linear_255_2415" x1="23.7523" y1="34.2027" x2="32.5372" y2="42.9876" gradientUnits="userSpaceOnUse">
<stop stopColor="#FFD945"/>
<stop offset="0.3043" stopColor="#FFCD3E"/>
<stop offset="0.8558" stopColor="#FFAD2B"/>
<stop offset="1" stopColor="#FFA325"/>
</linearGradient>
<linearGradient id="paint15_linear_255_2415" x1="25.4999" y1="31.2292" x2="25.4999" y2="40.3247" gradientUnits="userSpaceOnUse">
<stop stopColor="#BADA00"/>
<stop offset="0.2269" stopColor="#B0CE00"/>
<stop offset="0.6378" stopColor="#95AE00"/>
<stop offset="1" stopColor="#798C00"/>
</linearGradient>
<linearGradient id="paint16_linear_255_2415" x1="26.0597" y1="37.3126" x2="26.1596" y2="28.8251" gradientUnits="userSpaceOnUse">
<stop stopColor="#798C00" stopOpacity="0"/>
<stop offset="0.6542" stopColor="#556100" stopOpacity="0.654"/>
<stop offset="1" stopColor="#464F00"/>
</linearGradient>
<linearGradient id="paint17_linear_255_2415" x1="18.9091" y1="37.6839" x2="10.3716" y2="22.2565" gradientUnits="userSpaceOnUse">
<stop stopColor="#798C00" stopOpacity="0"/>
<stop offset="0.6542" stopColor="#556100" stopOpacity="0.654"/>
<stop offset="1" stopColor="#464F00"/>
</linearGradient>
<linearGradient id="paint18_linear_255_2415" x1="44.6903" y1="38.3739" x2="41.4326" y2="32.5324" gradientUnits="userSpaceOnUse">
<stop stopColor="#798C00" stopOpacity="0"/>
<stop offset="0.6542" stopColor="#556100" stopOpacity="0.654"/>
<stop offset="1" stopColor="#464F00"/>
</linearGradient>
<linearGradient id="paint19_linear_255_2415" x1="40.5004" y1="33.2068" x2="44.1937" y2="37.961" gradientUnits="userSpaceOnUse">
<stop stopColor="#FFDECF"/>
<stop offset="0.3791" stopColor="#FDC4B0"/>
<stop offset="0.7655" stopColor="#FBAE97"/>
<stop offset="1" stopColor="#FAA68E"/>
</linearGradient>
<linearGradient id="paint20_linear_255_2415" x1="25.5" y1="29.9561" x2="25.5" y2="34.4551" gradientUnits="userSpaceOnUse">
<stop stopColor="#FF6359"/>
<stop offset="0.2243" stopColor="#FE5B50"/>
<stop offset="0.5952" stopColor="#FC4637"/>
<stop offset="1" stopColor="#F82814"/>
</linearGradient>
<linearGradient id="paint21_linear_255_2415" x1="16.1207" y1="36.284" x2="13.0252" y2="25.9491" gradientUnits="userSpaceOnUse">
<stop stopColor="#F82814" stopOpacity="0"/>
<stop offset="1" stopColor="#C0272D"/>
</linearGradient>
<linearGradient id="paint22_linear_255_2415" x1="39.5228" y1="35.2622" x2="37.6256" y2="30.1697" gradientUnits="userSpaceOnUse">
<stop stopColor="#F82814" stopOpacity="0"/>
<stop offset="1" stopColor="#C0272D"/>
</linearGradient>
<linearGradient id="paint23_linear_255_2415" x1="25.4999" y1="21.647" x2="25.4999" y2="32.3574" gradientUnits="userSpaceOnUse">
<stop stopColor="#A57C52"/>
<stop offset="0.1339" stopColor="#A26C4A"/>
<stop offset="0.5155" stopColor="#994336"/>
<stop offset="0.8174" stopColor="#942A2A"/>
<stop offset="1" stopColor="#922125"/>
</linearGradient>
<linearGradient id="paint24_linear_255_2415" x1="26.0289" y1="26.5499" x2="25.5796" y2="17.7628" gradientUnits="userSpaceOnUse">
<stop stopColor="#42210B" stopOpacity="0"/>
<stop offset="1" stopColor="#42210B"/>
</linearGradient>
<linearGradient id="paint25_linear_255_2415" x1="38.422" y1="32.6422" x2="33.4792" y2="23.5555" gradientUnits="userSpaceOnUse">
<stop stopColor="#42210B" stopOpacity="0"/>
<stop offset="1" stopColor="#42210B"/>
</linearGradient>
<linearGradient id="paint26_linear_255_2415" x1="30.5208" y1="21.7744" x2="39.3057" y2="30.5593" gradientUnits="userSpaceOnUse">
<stop stopColor="#FFD945"/>
<stop offset="0.3043" stopColor="#FFCD3E"/>
<stop offset="0.8558" stopColor="#FFAD2B"/>
<stop offset="1" stopColor="#FFA325"/>
</linearGradient>
<linearGradient id="paint27_linear_255_2415" x1="13.4067" y1="31.2069" x2="11.21" y2="24.6664" gradientUnits="userSpaceOnUse">
<stop stopColor="#42210B" stopOpacity="0"/>
<stop offset="1" stopColor="#42210B"/>
</linearGradient>
<linearGradient id="paint28_linear_255_2415" x1="7.3741" y1="24.2952" x2="11.0674" y2="29.0493" gradientUnits="userSpaceOnUse">
<stop stopColor="#FFDECF"/>
<stop offset="0.3791" stopColor="#FDC4B0"/>
<stop offset="0.7655" stopColor="#FBAE97"/>
<stop offset="1" stopColor="#FAA68E"/>
</linearGradient>
<linearGradient id="paint29_linear_255_2415" x1="25.4999" y1="18.8009" x2="25.4999" y2="27.8965" gradientUnits="userSpaceOnUse">
<stop stopColor="#BADA00"/>
<stop offset="0.2269" stopColor="#B0CE00"/>
<stop offset="0.6378" stopColor="#95AE00"/>
<stop offset="1" stopColor="#798C00"/>
</linearGradient>
<linearGradient id="paint30_linear_255_2415" x1="26.0597" y1="24.8854" x2="26.1596" y2="16.3978" gradientUnits="userSpaceOnUse">
<stop stopColor="#798C00" stopOpacity="0"/>
<stop offset="0.6542" stopColor="#556100" stopOpacity="0.654"/>
<stop offset="1" stopColor="#464F00"/>
</linearGradient>
<linearGradient id="paint31_linear_255_2415" x1="25.5" y1="17.5278" x2="25.5" y2="22.0269" gradientUnits="userSpaceOnUse">
<stop stopColor="#FF6359"/>
<stop offset="0.2243" stopColor="#FE5B50"/>
<stop offset="0.5952" stopColor="#FC4637"/>
<stop offset="1" stopColor="#F82814"/>
</linearGradient>
<linearGradient id="paint32_linear_255_2415" x1="25.5337" y1="22.2592" x2="25.6086" y2="14.7702" gradientUnits="userSpaceOnUse">
<stop stopColor="#F82814" stopOpacity="0"/>
<stop offset="1" stopColor="#C0272D"/>
</linearGradient>
<linearGradient id="paint33_linear_255_2415" x1="22.8907" y1="2.89298" x2="27.5636" y2="20.5296" gradientUnits="userSpaceOnUse">
<stop stopColor="#FAA68E"/>
<stop offset="0.2061" stopColor="#FBA682"/>
<stop offset="0.5808" stopColor="#FDA861"/>
<stop offset="1" stopColor="#FFA936"/>
</linearGradient>
<linearGradient id="paint34_linear_255_2415" x1="43.1011" y1="11.8542" x2="40.9896" y2="8.55905" gradientUnits="userSpaceOnUse">
<stop stopColor="#F82814" stopOpacity="0"/>
<stop offset="0.2454" stopColor="#F12817" stopOpacity="0.245"/>
<stop offset="0.6052" stopColor="#DD2820" stopOpacity="0.605"/>
<stop offset="1" stopColor="#C0272D"/>
</linearGradient>
<linearGradient id="paint35_linear_255_2415" x1="41.4231" y1="13.7695" x2="39.7561" y2="11.1681" gradientUnits="userSpaceOnUse">
<stop stopColor="#F82814" stopOpacity="0"/>
<stop offset="0.2454" stopColor="#F12817" stopOpacity="0.245"/>
<stop offset="0.6052" stopColor="#DD2820" stopOpacity="0.605"/>
<stop offset="1" stopColor="#C0272D"/>
</linearGradient>
<linearGradient id="paint36_linear_255_2415" x1="44.0554" y1="13.9847" x2="43.0504" y2="12.4163" gradientUnits="userSpaceOnUse">
<stop stopColor="#F82814" stopOpacity="0"/>
<stop offset="0.2454" stopColor="#F12817" stopOpacity="0.245"/>
<stop offset="0.6052" stopColor="#DD2820" stopOpacity="0.605"/>
<stop offset="1" stopColor="#C0272D"/>
</linearGradient>
<linearGradient id="paint37_linear_255_2415" x1="46.5411" y1="12.3027" x2="47.3151" y2="9.51699" gradientUnits="userSpaceOnUse">
<stop stopColor="#F82814" stopOpacity="0"/>
<stop offset="0.2454" stopColor="#F12817" stopOpacity="0.245"/>
<stop offset="0.6052" stopColor="#DD2820" stopOpacity="0.605"/>
<stop offset="1" stopColor="#C0272D"/>
</linearGradient>
<linearGradient id="paint38_linear_255_2415" x1="44.6601" y1="12.3223" x2="45.2712" y2="10.1231" gradientUnits="userSpaceOnUse">
<stop stopColor="#F82814" stopOpacity="0"/>
<stop offset="0.2454" stopColor="#F12817" stopOpacity="0.245"/>
<stop offset="0.6052" stopColor="#DD2820" stopOpacity="0.605"/>
<stop offset="1" stopColor="#C0272D"/>
</linearGradient>
<linearGradient id="paint39_linear_255_2415" x1="45.8383" y1="13.8777" x2="46.2067" y2="12.5519" gradientUnits="userSpaceOnUse">
<stop stopColor="#F82814" stopOpacity="0"/>
<stop offset="0.2454" stopColor="#F12817" stopOpacity="0.245"/>
<stop offset="0.6052" stopColor="#DD2820" stopOpacity="0.605"/>
<stop offset="1" stopColor="#C0272D"/>
</linearGradient>
<linearGradient id="paint40_linear_255_2415" x1="25.5" y1="11.6852" x2="25.5" y2="20.5817" gradientUnits="userSpaceOnUse">
<stop stopColor="#F82814" stopOpacity="0"/>
<stop offset="0.2497" stopColor="#F32816" stopOpacity="0.25"/>
<stop offset="0.5421" stopColor="#E5281D" stopOpacity="0.542"/>
<stop offset="0.8547" stopColor="#CE2727" stopOpacity="0.855"/>
<stop offset="1" stopColor="#C0272D"/>
</linearGradient>
<linearGradient id="paint41_linear_255_2415" x1="14.206" y1="10.5503" x2="14.7053" y2="11.9981" gradientUnits="userSpaceOnUse">
<stop stopColor="#FFDECF"/>
<stop offset="0.3791" stopColor="#FDC4B0"/>
<stop offset="0.7655" stopColor="#FBAE97"/>
<stop offset="1" stopColor="#FAA68E"/>
</linearGradient>
<linearGradient id="paint42_linear_255_2415" x1="21.6472" y1="10.5503" x2="22.1464" y2="11.9981" gradientUnits="userSpaceOnUse">
<stop stopColor="#FFDECF"/>
<stop offset="0.3791" stopColor="#FDC4B0"/>
<stop offset="0.7655" stopColor="#FBAE97"/>
<stop offset="1" stopColor="#FAA68E"/>
</linearGradient>
<linearGradient id="paint43_linear_255_2415" x1="29.0886" y1="10.5503" x2="29.5879" y2="11.9981" gradientUnits="userSpaceOnUse">
<stop stopColor="#FFDECF"/>
<stop offset="0.3791" stopColor="#FDC4B0"/>
<stop offset="0.7655" stopColor="#FBAE97"/>
<stop offset="1" stopColor="#FAA68E"/>
</linearGradient>
<linearGradient id="paint44_linear_255_2415" x1="36.5297" y1="10.5503" x2="37.0289" y2="11.9981" gradientUnits="userSpaceOnUse">
<stop stopColor="#FFDECF"/>
<stop offset="0.3791" stopColor="#FDC4B0"/>
<stop offset="0.7655" stopColor="#FBAE97"/>
<stop offset="1" stopColor="#FAA68E"/>
</linearGradient>
<linearGradient id="paint45_linear_255_2415" x1="10.4853" y1="7.10543" x2="10.9846" y2="8.55337" gradientUnits="userSpaceOnUse">
<stop stopColor="#FFDECF"/>
<stop offset="0.3791" stopColor="#FDC4B0"/>
<stop offset="0.7655" stopColor="#FBAE97"/>
<stop offset="1" stopColor="#FAA68E"/>
</linearGradient>
<linearGradient id="paint46_linear_255_2415" x1="17.9265" y1="7.10543" x2="18.4257" y2="8.55337" gradientUnits="userSpaceOnUse">
<stop stopColor="#FFDECF"/>
<stop offset="0.3791" stopColor="#FDC4B0"/>
<stop offset="0.7655" stopColor="#FBAE97"/>
<stop offset="1" stopColor="#FAA68E"/>
</linearGradient>
<linearGradient id="paint47_linear_255_2415" x1="25.3679" y1="7.10543" x2="25.8672" y2="8.55337" gradientUnits="userSpaceOnUse">
<stop stopColor="#FFDECF"/>
<stop offset="0.3791" stopColor="#FDC4B0"/>
<stop offset="0.7655" stopColor="#FBAE97"/>
<stop offset="1" stopColor="#FAA68E"/>
</linearGradient>
<linearGradient id="paint48_linear_255_2415" x1="32.809" y1="7.10543" x2="33.3083" y2="8.55337" gradientUnits="userSpaceOnUse">
<stop stopColor="#FFDECF"/>
<stop offset="0.3791" stopColor="#FDC4B0"/>
<stop offset="0.7655" stopColor="#FBAE97"/>
<stop offset="1" stopColor="#FAA68E"/>
</linearGradient>
<linearGradient id="paint49_linear_255_2415" x1="40.2502" y1="7.10543" x2="40.7494" y2="8.55337" gradientUnits="userSpaceOnUse">
<stop stopColor="#FFDECF"/>
<stop offset="0.3791" stopColor="#FDC4B0"/>
<stop offset="0.7655" stopColor="#FBAE97"/>
<stop offset="1" stopColor="#FAA68E"/>
</linearGradient>
<linearGradient id="paint50_linear_255_2415" x1="14.206" y1="3.66012" x2="14.7053" y2="5.10796" gradientUnits="userSpaceOnUse">
<stop stopColor="#FFDECF"/>
<stop offset="0.3791" stopColor="#FDC4B0"/>
<stop offset="0.7655" stopColor="#FBAE97"/>
<stop offset="1" stopColor="#FAA68E"/>
</linearGradient>
<linearGradient id="paint51_linear_255_2415" x1="21.6472" y1="3.66012" x2="22.1464" y2="5.10796" gradientUnits="userSpaceOnUse">
<stop stopColor="#FFDECF"/>
<stop offset="0.3791" stopColor="#FDC4B0"/>
<stop offset="0.7655" stopColor="#FBAE97"/>
<stop offset="1" stopColor="#FAA68E"/>
</linearGradient>
<linearGradient id="paint52_linear_255_2415" x1="29.0886" y1="3.66012" x2="29.5879" y2="5.10796" gradientUnits="userSpaceOnUse">
<stop stopColor="#FFDECF"/>
<stop offset="0.3791" stopColor="#FDC4B0"/>
<stop offset="0.7655" stopColor="#FBAE97"/>
<stop offset="1" stopColor="#FAA68E"/>
</linearGradient>
<linearGradient id="paint53_linear_255_2415" x1="36.5297" y1="3.66012" x2="37.0289" y2="5.10796" gradientUnits="userSpaceOnUse">
<stop stopColor="#FFDECF"/>
<stop offset="0.3791" stopColor="#FDC4B0"/>
<stop offset="0.7655" stopColor="#FBAE97"/>
<stop offset="1" stopColor="#FAA68E"/>
</linearGradient>
<linearGradient id="paint54_linear_255_2415" x1="25.3679" y1="0.215294" x2="25.8672" y2="1.66314" gradientUnits="userSpaceOnUse">
<stop stopColor="#FFDECF"/>
<stop offset="0.3791" stopColor="#FDC4B0"/>
<stop offset="0.7655" stopColor="#FBAE97"/>
<stop offset="1" stopColor="#FAA68E"/>
</linearGradient>
<linearGradient id="paint55_linear_255_2415" x1="32.7634" y1="0.590031" x2="32.9694" y2="2.10823" gradientUnits="userSpaceOnUse">
<stop stopColor="#FFDECF"/>
<stop offset="0.3791" stopColor="#FDC4B0"/>
<stop offset="0.7655" stopColor="#FBAE97"/>
<stop offset="1" stopColor="#FAA68E"/>
</linearGradient>
<linearGradient id="paint56_linear_255_2415" x1="18.3142" y1="0.601646" x2="18.1082" y2="2.11994" gradientUnits="userSpaceOnUse">
<stop stopColor="#FFDECF"/>
<stop offset="0.3791" stopColor="#FDC4B0"/>
<stop offset="0.7655" stopColor="#FBAE97"/>
<stop offset="1" stopColor="#FAA68E"/>
</linearGradient>
<clipPath id="clip0_255_2415">
<rect width="50" height="50" fill="white" transform="translate(0.5)"/>
</clipPath>
</defs>
</svg>