<svg width="51" height="50" viewBox="0 0 51 50" fill="none" xmlns="http://www.w3.org/2000/svg">
<g clipPath="url(#clip0_255_2403)">
<path d="M43.6919 50.0003H31.0892C30.148 50.0003 29.3525 49.3025 29.2299 48.3691L25.8601 22.7144H48.921L45.5513 48.3691C45.4286 49.3025 44.6332 50.0003 43.6919 50.0003Z" fill="url(#paint0_linear_255_2403)"/>
<path d="M28.584 43.4521L29.2298 48.3692C29.3525 49.3024 30.1479 50.0002 31.0892 50.0002H43.6919C44.6332 50.0002 45.4286 49.3024 45.5512 48.3692L46.1971 43.4521H28.584Z" fill="url(#paint1_linear_255_2403)"/>
<path d="M28.584 43.4521L29.2298 48.3692C29.3525 49.3024 30.1479 50.0002 31.0892 50.0002H43.6919C44.6332 50.0002 45.4286 49.3024 45.5512 48.3692L46.1971 43.4521H28.584Z" fill="url(#paint2_linear_255_2403)"/>
<path d="M46.0467 44.597L48.921 22.7144H25.8601L26.1165 24.6667L46.0467 44.597Z" fill="url(#paint3_linear_255_2403)"/>
<path d="M47.1492 44.6352L48.8153 31.267C48.9269 30.3709 48.2282 29.5796 47.3251 29.5796H27.4563C26.5532 29.5796 25.8544 30.3709 25.9661 31.267L27.6322 44.6352C27.7259 45.3869 28.3648 45.9512 29.1223 45.9512H45.659C46.4165 45.9511 47.0554 45.3869 47.1492 44.6352Z" fill="url(#paint4_linear_255_2403)"/>
<path d="M48.1881 22.1699H26.593V17.847C26.593 17.1664 27.1448 16.6147 27.8254 16.6147H46.9558C47.6364 16.6147 48.1882 17.1665 48.1882 17.847V22.1699H48.1881Z" fill="url(#paint5_linear_255_2403)"/>
<path d="M48.4579 24.7126H26.3232C25.2083 24.7126 24.3044 23.8088 24.3044 22.6938V22.3889C24.3044 21.274 25.2083 20.3701 26.3232 20.3701H48.4579C49.5728 20.3701 50.4767 21.274 50.4767 22.3889V22.6938C50.4767 23.8089 49.5728 24.7126 48.4579 24.7126Z" fill="url(#paint6_linear_255_2403)"/>
<path d="M19.9109 49.8513H7.30822C6.36695 49.8513 5.57151 49.1535 5.44888 48.2202L2.0791 22.5654H25.14L21.7703 48.2202C21.6476 49.1535 20.8522 49.8513 19.9109 49.8513Z" fill="url(#paint7_linear_255_2403)"/>
<path d="M4.80298 43.3032L5.44884 48.2203C5.57147 49.1535 6.36691 49.8513 7.30818 49.8513H19.9109C20.8522 49.8513 21.6476 49.1535 21.7702 48.2203L22.4161 43.3032H4.80298Z" fill="url(#paint8_linear_255_2403)"/>
<path d="M4.80298 43.3032L5.44884 48.2203C5.57147 49.1535 6.36691 49.8513 7.30818 49.8513H19.9109C20.8522 49.8513 21.6476 49.1535 21.7702 48.2203L22.4161 43.3032H4.80298Z" fill="url(#paint9_linear_255_2403)"/>
<path d="M22.2657 44.4481L25.14 22.5654H2.0791L2.33553 24.5179L22.2657 44.4481Z" fill="url(#paint10_linear_255_2403)"/>
<path d="M23.3682 44.4863L25.0343 31.1181C25.1459 30.222 24.4472 29.4307 23.5441 29.4307H3.67526C2.77218 29.4307 2.07342 30.222 2.18508 31.1181L3.85117 44.4863C3.94491 45.238 4.58382 45.8023 5.34134 45.8023H21.878C22.6355 45.8023 23.2744 45.238 23.3682 44.4863Z" fill="url(#paint11_linear_255_2403)"/>
<path d="M24.4071 22.021H2.81201V17.6981C2.81201 17.0175 3.36375 16.4658 4.04429 16.4658H23.1747C23.8553 16.4658 24.407 17.0176 24.407 17.6981L24.4071 22.021Z" fill="url(#paint12_linear_255_2403)"/>
<path d="M24.6769 24.5637H2.54223C1.4273 24.5637 0.523438 23.6598 0.523438 22.5449V22.24C0.523438 21.1251 1.4273 20.2212 2.54223 20.2212H24.6769C25.7918 20.2212 26.6957 21.1251 26.6957 22.24V22.5449C26.6957 23.6598 25.7918 24.5637 24.6769 24.5637Z" fill="url(#paint13_linear_255_2403)"/>
<path d="M34.7962 3.91797C35.1301 3.91797 35.4182 4.1503 35.4912 4.47607C35.5071 4.54679 35.5203 4.61859 35.5309 4.69156C35.6849 5.75478 35.2367 6.77461 34.3611 7.35298C34.0465 7.56083 33.867 7.90149 33.8685 8.28779C33.87 8.674 34.0522 9.01319 34.3684 9.21839C35.4408 9.91451 35.8364 11.3301 35.2886 12.5115L34.9462 13.2067C34.7743 13.5556 34.3549 13.703 34.0025 13.5382C33.64 13.3686 33.4874 12.9343 33.6643 12.5753L34.0089 11.8757C34.2439 11.369 34.0741 10.7618 33.6141 10.4632C32.888 9.99188 32.4524 9.18088 32.449 8.29377C32.4456 7.40666 32.8749 6.59203 33.5973 6.11473C33.9998 5.84881 34.1977 5.39835 34.127 4.90959C34.1216 4.87266 34.1149 4.83632 34.1068 4.80077C34.0038 4.34992 34.3339 3.91797 34.7962 3.91797Z" fill="url(#paint14_linear_255_2403)"/>
<path d="M41.5673 13.6051C41.9012 13.6051 42.1893 13.3728 42.2623 13.047C42.2782 12.9764 42.2914 12.9045 42.302 12.8316C42.456 11.7683 42.0078 10.7485 41.1322 10.1701C40.8176 9.96228 40.6381 9.62162 40.6396 9.23532C40.6411 8.84911 40.8232 8.50992 41.1394 8.30472C42.2118 7.60861 42.6074 6.19297 42.0596 5.01163L41.7172 4.3164C41.5453 3.96751 41.1259 3.8201 40.7735 3.98494C40.411 4.15449 40.2584 4.58879 40.4353 4.94777L40.7799 5.64741C41.0149 6.15409 40.8451 6.76136 40.3851 7.05991C39.659 7.53123 39.2234 8.34223 39.22 9.22924C39.2166 10.1164 39.6459 10.931 40.3683 11.4084C40.7708 11.6743 40.9687 12.1248 40.898 12.6135C40.8926 12.6505 40.8859 12.6868 40.8778 12.7223C40.775 13.1733 41.1051 13.6051 41.5673 13.6051Z" fill="url(#paint15_linear_255_2403)"/>
<path d="M7.6297 13.6051C7.96361 13.6051 8.25177 13.3728 8.32474 13.047C8.34061 12.9764 8.35383 12.9045 8.36441 12.8316C8.51838 11.7683 8.07017 10.7485 7.19462 10.1701C6.88001 9.96228 6.70048 9.62162 6.70204 9.23532C6.70351 8.84911 6.88569 8.50992 7.20187 8.30472C8.27429 7.60861 8.6699 6.19297 8.12208 5.01163L7.77966 4.3164C7.60776 3.96751 7.18835 3.8201 6.83604 3.98494C6.47353 4.15449 6.32093 4.58879 6.49782 4.94777L6.8424 5.64741C7.07738 6.15409 6.90763 6.76136 6.44758 7.05991C5.72149 7.53123 5.28592 8.34223 5.28249 9.22924C5.27906 10.1164 5.70837 10.931 6.43083 11.4084C6.83329 11.6743 7.03124 12.1248 6.96053 12.6135C6.95514 12.6505 6.94838 12.6868 6.94025 12.7223C6.83741 13.1733 7.16739 13.6051 7.6297 13.6051Z" fill="url(#paint16_linear_255_2403)"/>
<path d="M14.4008 3.91797C14.7347 3.91797 15.0228 4.1503 15.0958 4.47607C15.1117 4.54679 15.1249 4.61859 15.1355 4.69156C15.2895 5.75478 14.8413 6.77461 13.9657 7.35298C13.6511 7.56083 13.4716 7.90149 13.4731 8.28779C13.4746 8.674 13.6567 9.01319 13.9729 9.21839C15.0453 9.91451 15.441 11.3301 14.8931 12.5115L14.5507 13.2067C14.3788 13.5556 13.9593 13.703 13.607 13.5382C13.2445 13.3686 13.0919 12.9343 13.2688 12.5753L13.6134 11.8757C13.8484 11.369 13.6786 10.7618 13.2186 10.4632C12.4925 9.99188 12.0569 9.18088 12.0535 8.29377C12.0501 7.40666 12.4794 6.59203 13.2018 6.11473C13.6043 5.84881 13.8022 5.39835 13.7315 4.90959C13.7261 4.87266 13.7194 4.83632 13.7112 4.80077C13.6084 4.34992 13.9385 3.91797 14.4008 3.91797Z" fill="url(#paint17_linear_255_2403)"/>
<path d="M21.1717 13.6051C21.5056 13.6051 21.7937 13.3728 21.8667 13.047C21.8826 12.9764 21.8958 12.9045 21.9064 12.8316C22.0604 11.7683 21.6122 10.7485 20.7366 10.1701C20.422 9.96228 20.2425 9.62162 20.244 9.23532C20.2455 8.84911 20.4277 8.50992 20.7439 8.30472C21.8163 7.60861 22.2119 6.19297 21.6641 5.01163L21.3217 4.3164C21.1498 3.96751 20.7303 3.8201 20.378 3.98494C20.0155 4.15449 19.8629 4.58879 20.0398 4.94777L20.3844 5.64741C20.6194 6.15409 20.4496 6.76136 19.9896 7.05991C19.2635 7.53123 18.8279 8.34223 18.8245 9.22924C18.8211 10.1164 19.2504 10.931 19.9728 11.4084C20.3753 11.6743 20.5732 12.1248 20.5025 12.6135C20.4971 12.6505 20.4904 12.6868 20.4822 12.7223C20.3794 13.1733 20.7095 13.6051 21.1717 13.6051Z" fill="url(#paint18_linear_255_2403)"/>
<path d="M31.3134 1.38233C30.6461 0.544979 29.7004 0.0557321 28.6507 0.00450558C28.5889 0.00146921 28.5264 0 28.4648 0C27.4812 0 26.5527 0.378959 25.8505 1.06723C25.7236 1.19153 25.6067 1.32347 25.5 1.46196C25.3934 1.32347 25.2765 1.19163 25.1496 1.06723C24.4473 0.379056 23.5188 0 22.5353 0C22.4737 0 22.4112 0.00146921 22.3495 0.00450558C21.2998 0.0556341 20.3541 0.544979 19.6868 1.38223C18.9663 2.28629 18.6714 3.46959 18.878 4.6288C19.1438 6.12103 20.0763 7.55498 21.6494 8.89088C22.8587 9.91786 24.1406 10.6223 24.797 10.9508C25.0143 11.0595 25.2574 11.117 25.5001 11.117C25.7428 11.117 25.9859 11.0595 26.2032 10.9508C26.8597 10.6223 28.1416 9.91776 29.3508 8.89088C30.9239 7.55488 31.8564 6.12093 32.1222 4.6288C32.3287 3.46969 32.0339 2.28639 31.3134 1.38233Z" fill="url(#paint19_linear_255_2403)"/>
</g>
<defs>
<linearGradient id="paint0_linear_255_2403" x1="33.3952" y1="29.8557" x2="45.6044" y2="42.641" gradientUnits="userSpaceOnUse">
<stop stopColor="#EAF6FF"/>
<stop offset="1" stopColor="#B3DAFE"/>
</linearGradient>
<linearGradient id="paint1_linear_255_2403" x1="37.3905" y1="48.225" x2="37.3905" y2="45.4865" gradientUnits="userSpaceOnUse">
<stop stopColor="#8AC9FE" stopOpacity="0"/>
<stop offset="0.4105" stopColor="#75AACE" stopOpacity="0.411"/>
<stop offset="1" stopColor="#537983"/>
</linearGradient>
<linearGradient id="paint2_linear_255_2403" x1="37.3905" y1="47.7556" x2="37.3905" y2="50.7288" gradientUnits="userSpaceOnUse">
<stop stopColor="#8AC9FE" stopOpacity="0"/>
<stop offset="0.4105" stopColor="#75AACE" stopOpacity="0.411"/>
<stop offset="1" stopColor="#537983"/>
</linearGradient>
<linearGradient id="paint3_linear_255_2403" x1="37.3906" y1="35.8625" x2="37.3906" y2="14.6344" gradientUnits="userSpaceOnUse">
<stop stopColor="#8AC9FE" stopOpacity="0"/>
<stop offset="0.4105" stopColor="#75AACE" stopOpacity="0.411"/>
<stop offset="1" stopColor="#537983"/>
</linearGradient>
<linearGradient id="paint4_linear_255_2403" x1="28.9405" y1="37.7653" x2="42.0106" y2="37.7653" gradientUnits="userSpaceOnUse">
<stop stopColor="#F5F173"/>
<stop offset="1" stopColor="#FBB03B"/>
</linearGradient>
<linearGradient id="paint5_linear_255_2403" x1="37.3905" y1="17.8665" x2="37.3905" y2="20.771" gradientUnits="userSpaceOnUse">
<stop stopColor="#EAF6FF"/>
<stop offset="1" stopColor="#B3DAFE"/>
</linearGradient>
<linearGradient id="paint6_linear_255_2403" x1="36.9049" y1="21.0962" x2="38.5089" y2="25.869" gradientUnits="userSpaceOnUse">
<stop stopColor="#EAF6FF"/>
<stop offset="1" stopColor="#B3DAFE"/>
</linearGradient>
<linearGradient id="paint7_linear_255_2403" x1="9.6142" y1="29.7068" x2="21.8235" y2="42.4919" gradientUnits="userSpaceOnUse">
<stop stopColor="#EAF6FF"/>
<stop offset="1" stopColor="#B3DAFE"/>
</linearGradient>
<linearGradient id="paint8_linear_255_2403" x1="13.6095" y1="48.0761" x2="13.6095" y2="45.3376" gradientUnits="userSpaceOnUse">
<stop stopColor="#8AC9FE" stopOpacity="0"/>
<stop offset="0.4105" stopColor="#75AACE" stopOpacity="0.411"/>
<stop offset="1" stopColor="#537983"/>
</linearGradient>
<linearGradient id="paint9_linear_255_2403" x1="13.6095" y1="47.6066" x2="13.6095" y2="50.5798" gradientUnits="userSpaceOnUse">
<stop stopColor="#8AC9FE" stopOpacity="0"/>
<stop offset="0.4105" stopColor="#75AACE" stopOpacity="0.411"/>
<stop offset="1" stopColor="#537983"/>
</linearGradient>
<linearGradient id="paint10_linear_255_2403" x1="13.6096" y1="35.7136" x2="13.6096" y2="14.4855" gradientUnits="userSpaceOnUse">
<stop stopColor="#8AC9FE" stopOpacity="0"/>
<stop offset="0.4105" stopColor="#75AACE" stopOpacity="0.411"/>
<stop offset="1" stopColor="#537983"/>
</linearGradient>
<linearGradient id="paint11_linear_255_2403" x1="5.15945" y1="37.6165" x2="18.2296" y2="37.6165" gradientUnits="userSpaceOnUse">
<stop stopColor="#F5F173"/>
<stop offset="1" stopColor="#FBB03B"/>
</linearGradient>
<linearGradient id="paint12_linear_255_2403" x1="13.6095" y1="17.7177" x2="13.6095" y2="20.6221" gradientUnits="userSpaceOnUse">
<stop stopColor="#EAF6FF"/>
<stop offset="1" stopColor="#B3DAFE"/>
</linearGradient>
<linearGradient id="paint13_linear_255_2403" x1="13.1239" y1="20.9472" x2="14.7279" y2="25.7201" gradientUnits="userSpaceOnUse">
<stop stopColor="#EAF6FF"/>
<stop offset="1" stopColor="#B3DAFE"/>
</linearGradient>
<linearGradient id="paint14_linear_255_2403" x1="32.6669" y1="8.76157" x2="36.0673" y2="8.76157" gradientUnits="userSpaceOnUse">
<stop stopColor="#EAF6FF"/>
<stop offset="1" stopColor="#B3DAFE"/>
</linearGradient>
<linearGradient id="paint15_linear_255_2403" x1="39.4381" y1="8.76145" x2="42.8384" y2="8.76145" gradientUnits="userSpaceOnUse">
<stop stopColor="#EAF6FF"/>
<stop offset="1" stopColor="#B3DAFE"/>
</linearGradient>
<linearGradient id="paint16_linear_255_2403" x1="5.50042" y1="8.76145" x2="8.90077" y2="8.76145" gradientUnits="userSpaceOnUse">
<stop stopColor="#EAF6FF"/>
<stop offset="1" stopColor="#B3DAFE"/>
</linearGradient>
<linearGradient id="paint17_linear_255_2403" x1="12.2715" y1="8.76157" x2="15.6719" y2="8.76157" gradientUnits="userSpaceOnUse">
<stop stopColor="#EAF6FF"/>
<stop offset="1" stopColor="#B3DAFE"/>
</linearGradient>
<linearGradient id="paint18_linear_255_2403" x1="19.0424" y1="8.76145" x2="22.4428" y2="8.76145" gradientUnits="userSpaceOnUse">
<stop stopColor="#EAF6FF"/>
<stop offset="1" stopColor="#B3DAFE"/>
</linearGradient>
<linearGradient id="paint19_linear_255_2403" x1="24.1654" y1="2.83186" x2="30.6873" y2="9.35378" gradientUnits="userSpaceOnUse">
<stop stopColor="#FEAEE1"/>
<stop offset="1" stopColor="#FE2AA8"/>
</linearGradient>
<clipPath id="clip0_255_2403">
<rect width="50" height="50" fill="white" transform="translate(0.5)"/>
</clipPath>
</defs>
</svg>
