<svg width="51" height="50" viewBox="0 0 51 50" fill="none" xmlns="http://www.w3.org/2000/svg">
<g clipPath="url(#clip0_255_4512)">
<path d="M10.7869 33.3266L14.0464 33.3578C14.7793 33.3647 15.3792 32.7763 15.3862 32.0434L15.6049 2.6663C15.6143 1.67797 14.5788 1.0264 13.692 1.46277L10.8777 2.84728C10.1453 3.20758 9.67836 3.94973 9.67061 4.76581L9.47247 31.9869C9.46551 32.7197 10.0539 33.3196 10.7869 33.3266Z" fill="url(#paint0_linear_255_4512)"/>
<path d="M15.4617 21.945L15.3866 32.0434C15.3789 32.7763 14.7797 33.3645 14.0468 33.3578L10.7866 33.3259C10.0538 33.3192 9.46556 32.7188 9.47222 31.986L9.67085 4.76537C9.67634 4.12409 9.96664 3.52929 10.4445 3.13086L14.0214 20.8876C14.1572 21.5654 14.7885 22.0167 15.4617 21.945Z" fill="url(#paint1_linear_255_4512)"/>
<path d="M23.7864 33.3266L20.5269 33.3578C19.7939 33.3647 19.194 32.7763 19.1871 32.0434L18.9683 2.6663C18.9589 1.67797 19.9944 1.0264 20.8813 1.46277L23.6956 2.84728C24.4279 3.20758 24.8949 3.94973 24.9026 4.76581L25.1008 31.9869C25.1078 32.7197 24.5193 33.3196 23.7864 33.3266Z" fill="url(#paint2_linear_255_4512)"/>
<path d="M35.114 32.0019L31.8545 32.0331C31.1216 32.0401 30.5216 31.4517 30.5147 30.7187L30.296 1.34165C30.2866 0.35322 31.322 -0.29825 32.2089 0.138024L35.0232 1.52253C35.7556 1.88283 36.2225 2.62498 36.2303 3.44106L36.4284 30.6621C36.4355 31.3951 35.8469 31.995 35.114 32.0019Z" fill="url(#paint3_linear_255_4512)"/>
<path d="M40.3506 29.666L37.1071 29.9913C36.3778 30.0645 35.7272 29.5326 35.6541 28.8032L33.369 6.0223C33.2704 5.03887 34.2428 4.29652 35.1655 4.65093L38.0933 5.77564C38.8552 6.06828 39.3872 6.76524 39.4687 7.5773L41.5386 28.213C41.6118 28.9423 41.0799 29.5929 40.3506 29.666Z" fill="url(#paint4_linear_255_4512)"/>
<path d="M20.4279 32.6942L17.1845 33.0195C16.4552 33.0926 15.7999 32.5134 15.7208 31.7257L13.2527 7.12039C13.1461 6.05813 14.1135 5.2647 15.0397 5.6546L17.9788 6.89176C18.7436 7.21372 19.2816 7.97009 19.3696 8.84725L21.6053 31.1354C21.6844 31.9231 21.1572 32.621 20.4279 32.6942Z" fill="url(#paint5_linear_255_4512)"/>
<path d="M38.2815 32.7957L41.4883 33.3803C42.2094 33.5117 42.9006 33.0337 43.0321 32.3126L48.2401 3.40008C48.4174 2.42773 47.5077 1.60969 46.5595 1.88891L43.5508 2.77498C42.7678 3.00557 42.1816 3.65753 42.0352 4.46047L37.2139 31.2519C37.0824 31.9731 37.5603 32.6642 38.2815 32.7957Z" fill="url(#paint6_linear_255_4512)"/>
<path d="M43.5508 2.77483C42.7678 3.00542 42.1815 3.65738 42.0352 4.46032L37.2139 31.2518C37.0824 31.9729 37.5605 32.664 38.2815 32.7955L38.878 32.9042C39.055 32.6947 39.1847 32.4298 39.2395 32.1292L44.5902 2.46875L43.5508 2.77483Z" fill="url(#paint7_linear_255_4512)"/>
<path d="M27.8093 33.9637L31.0557 33.6656C31.7857 33.5985 32.324 32.9433 32.258 32.2019L29.5507 2.49462C29.4617 1.49492 28.3665 0.94129 27.5274 1.47188L24.8648 3.15551C24.172 3.59364 23.7813 4.3907 23.8547 5.21619L26.3679 32.7429C26.434 33.4841 27.0793 34.0307 27.8093 33.9637Z" fill="url(#paint8_linear_255_4512)"/>
<path d="M24.8648 3.1553C24.172 3.59344 23.7813 4.3905 23.8547 5.21599L26.3679 32.7427C26.4339 33.484 27.0792 34.0306 27.8092 33.9636L28.413 33.9081C28.5276 33.6551 28.5817 33.3606 28.5542 33.0516L25.7846 2.57373L24.8648 3.1553Z" fill="url(#paint9_linear_255_4512)"/>
<path d="M42.8084 20.7693C42.7364 20.6697 42.6496 20.5772 42.5454 20.4961L32.0204 12.5699C29.8502 10.875 26.8501 11.9795 26.1895 14.6528L25.0413 18.2118L26.3679 32.7429C26.4339 33.4842 27.0792 34.0309 27.8092 33.9639L31.0557 33.6657C31.7857 33.5987 32.3239 32.9434 32.2579 32.202L32.2422 32.0294L35.1138 32.002C35.8468 31.995 36.4353 31.3951 36.4282 30.6622L36.4225 29.8767C36.6298 29.9719 36.8637 30.016 37.107 29.9916L37.4467 29.9576L37.2137 31.2522C37.0822 31.9733 37.5603 32.6644 38.2814 32.7959L41.4882 33.3805C42.2093 33.512 42.9005 33.034 43.0319 32.3129L44.7598 22.7207L42.8084 20.7693Z" fill="url(#paint10_linear_255_4512)"/>
<path d="M21.2382 12.5768C20.949 12.0912 15.3339 13.6593 15.1728 14.4594L11.3701 33.3318L14.0465 33.3574C14.7794 33.3644 15.3793 32.776 15.3863 32.043L15.4116 28.6412L15.721 31.7255C15.8 32.5132 16.4553 33.0924 17.1846 33.0193L19.4294 32.7941C19.6722 33.1382 20.0739 33.3617 20.5269 33.3574L23.7864 33.3263C24.5193 33.3193 25.1079 32.7194 25.1008 31.9865L26.3681 32.7427C26.434 33.4841 27.0793 34.0308 27.8093 33.9637L31.0558 33.6656C31.7858 33.5985 32.324 32.9432 32.2581 32.2018L32.2424 32.0293L35.1139 32.0018C35.8469 31.9949 36.4354 31.395 36.4284 30.662L36.4227 29.8765C36.6299 29.9717 36.8638 30.0159 37.1072 29.9914L38.5119 29.8506L21.2382 12.5768Z" fill="url(#paint11_linear_255_4512)"/>
<path d="M42.5455 20.4963L32.0205 12.276C29.8503 10.5811 26.6541 11.6856 25.9936 14.3588L21.9137 30.8695C21.736 31.5814 22.1686 32.301 22.8793 32.4786L26.0424 33.2677C26.7532 33.4454 27.4739 33.0128 27.6515 32.3021L30.9537 18.95L37.2136 23.8414C37.8581 24.3425 38.7289 24.4384 39.4661 24.0875L42.3003 22.7432C43.1934 22.3195 43.3258 21.1032 42.5455 20.4963Z" fill="url(#paint12_linear_255_4512)"/>
<path d="M30.9539 18.9498L27.6518 32.3018C27.4741 33.0126 26.7534 33.4452 26.0427 33.2675L22.8796 32.4784C22.1688 32.3008 21.7362 31.5811 21.9139 30.8693L25.8451 14.959L30.9539 18.9498Z" fill="url(#paint13_linear_255_4512)"/>
<path d="M12.0458 32.6871L8.8503 33.3309C8.13177 33.4757 7.43187 33.0106 7.28707 32.292L2.76481 9.8479C2.56962 8.87898 3.46403 8.04427 4.41716 8.30594L7.44177 9.13624C8.22883 9.35231 8.82707 9.99329 8.98824 10.7934L13.0847 31.1241C13.2294 31.8425 12.7643 32.5424 12.0458 32.6871Z" fill="url(#paint14_linear_255_4512)"/>
<path d="M12.0458 32.6871L8.8503 33.3309C8.13177 33.4757 7.43187 33.0106 7.28707 32.292L2.76481 9.8479C2.56962 8.87898 3.46403 8.04427 4.41716 8.30594L7.44177 9.13624C8.22883 9.35231 8.82707 9.99329 8.98824 10.7934L13.0847 31.1241C13.2294 31.8425 12.7643 32.5424 12.0458 32.6871Z" fill="url(#paint15_linear_255_4512)"/>
<path d="M12.1151 36.3532L15.3106 36.9971C16.0291 37.1419 16.729 36.6767 16.8738 35.9581L21.3962 13.5139C21.5913 12.545 20.6969 11.7103 19.7438 11.972L16.7192 12.8023C15.9321 13.0183 15.3339 13.6593 15.1727 14.4594L11.0762 34.7901C10.9313 35.5086 11.3965 36.2085 12.1151 36.3532Z" fill="url(#paint16_linear_255_4512)"/>
<path d="M4.66724 19.2893L7.28724 32.292C7.43204 33.0105 8.13184 33.4757 8.85047 33.3309L10.0444 33.0903C10.2554 33.2366 10.5109 33.3235 10.7869 33.3261L11.3702 33.3317L11.0764 34.7898C10.9316 35.5084 11.3967 36.2083 12.1153 36.353L15.3108 36.9968C16.0293 37.1416 16.7292 36.6765 16.874 35.9579L17.4719 32.9901L19.4296 32.7938C19.6723 33.1379 20.0741 33.3614 20.527 33.3571L23.7866 33.3259C24.1492 33.3225 24.4762 33.1736 24.7134 32.9355L26.0426 33.2671C26.2109 33.3092 26.3794 33.316 26.5415 33.2941C26.7921 33.7346 27.2778 34.0122 27.8096 33.9634L31.0561 33.6652C31.7861 33.5982 32.3243 32.9429 32.2583 32.2015L32.2426 32.029L35.1142 32.0015C35.8471 31.9946 36.4357 31.3947 36.4286 30.6617L36.4229 29.8762C36.6302 29.9714 36.8641 30.0155 37.1074 29.9911L37.447 29.9571L37.2141 31.2517C37.0826 31.9728 37.5607 32.664 38.2817 32.7954L41.4886 33.38C42.2097 33.5115 42.9009 33.0335 43.0323 32.3124L45.3782 19.2891H4.66724V19.2893Z" fill="url(#paint17_linear_255_4512)"/>
<path d="M43.988 25.4907C41.8001 25.4907 39.6592 26.0715 37.741 27.1239C34.7112 28.786 30.2525 29.8364 25.2809 29.8364C20.3092 29.8364 15.8507 28.786 12.8208 27.1239C10.9025 26.0715 8.76166 25.4907 6.57372 25.4907C5.88234 25.4907 5.37333 26.1377 5.53578 26.8096L10.3728 46.807C10.8534 48.7941 12.702 50.1428 14.7404 49.9881C21.4555 49.4785 29.1061 49.4785 35.8212 49.9881C37.8596 50.1428 39.7081 48.7941 40.1887 46.807L45.0258 26.8096C45.1884 26.1376 44.6793 25.4907 43.988 25.4907Z" fill="url(#paint18_linear_255_4512)"/>
<path d="M36.0217 35.5319C35.8569 35.2706 35.5759 35.0846 35.2379 35.0606C28.8607 34.6081 21.7012 34.6081 15.3238 35.0606C14.6982 35.105 14.2636 35.7022 14.4113 36.3117C14.7042 37.521 15.166 39.4277 15.4982 40.7991C15.6081 41.2527 15.8639 41.6378 16.206 41.9141L23.9038 49.612C27.9502 49.5752 32.0345 49.7004 35.8214 49.9878C37.8598 50.1425 39.7083 48.7937 40.1889 46.8067L41.5733 41.0833L36.0217 35.5319Z" fill="url(#paint19_linear_255_4512)"/>
<path d="M14.4112 36.3117C14.7042 37.521 15.1659 39.4277 15.4982 40.7991C15.7312 41.761 16.6152 42.4214 17.6035 42.3691C22.6051 42.1044 27.9566 42.1044 32.9582 42.3691C33.9464 42.4214 34.8305 41.761 35.0635 40.7991C35.3957 39.4276 35.8575 37.521 36.1504 36.3117C36.2981 35.7022 35.8635 35.105 35.2379 35.0606C28.8606 34.6081 21.701 34.6081 15.3238 35.0606C14.6982 35.105 14.2637 35.7022 14.4112 36.3117Z" fill="url(#paint20_linear_255_4512)"/>
<path d="M9.47217 43.0835L10.3728 46.8069C10.8533 48.794 12.7019 50.1427 14.7403 49.988C21.4554 49.4784 29.106 49.4784 35.8211 49.988C37.8595 50.1427 39.7081 48.794 40.1886 46.8069L41.0892 43.0835H9.47217Z" fill="url(#paint21_linear_255_4512)"/>
</g>
<defs>
<linearGradient id="paint0_linear_255_4512" x1="9.51532" y1="16.0308" x2="20.3312" y2="20.6661" gradientUnits="userSpaceOnUse">
<stop stopColor="#FFD945"/>
<stop offset="0.3043" stopColor="#FFCD3E"/>
<stop offset="0.8558" stopColor="#FFAD2B"/>
<stop offset="1" stopColor="#FFA325"/>
</linearGradient>
<linearGradient id="paint1_linear_255_4512" x1="13.0192" y1="18.0491" x2="6.69154" y2="19.8885" gradientUnits="userSpaceOnUse">
<stop stopColor="#F82814" stopOpacity="0"/>
<stop offset="1" stopColor="#C0272D"/>
</linearGradient>
<linearGradient id="paint2_linear_255_4512" x1="29.5952" y1="10.0805" x2="24.2976" y2="15.1574" gradientUnits="userSpaceOnUse">
<stop stopColor="#FFD945"/>
<stop offset="0.3043" stopColor="#FFCD3E"/>
<stop offset="0.8558" stopColor="#FFAD2B"/>
<stop offset="1" stopColor="#FFA325"/>
</linearGradient>
<linearGradient id="paint3_linear_255_4512" x1="29.4779" y1="15.6016" x2="33.6718" y2="16.3742" gradientUnits="userSpaceOnUse">
<stop stopColor="#FFD945"/>
<stop offset="0.3043" stopColor="#FFCD3E"/>
<stop offset="0.8558" stopColor="#FFAD2B"/>
<stop offset="1" stopColor="#FFA325"/>
</linearGradient>
<linearGradient id="paint4_linear_255_4512" x1="35.1048" y1="17.2351" x2="38.7101" y2="17.4559" gradientUnits="userSpaceOnUse">
<stop stopColor="#FFD945"/>
<stop offset="0.3043" stopColor="#FFCD3E"/>
<stop offset="0.8558" stopColor="#FFAD2B"/>
<stop offset="1" stopColor="#FFA325"/>
</linearGradient>
<linearGradient id="paint5_linear_255_4512" x1="20.697" y1="17.5689" x2="14.1865" y2="20.3156" gradientUnits="userSpaceOnUse">
<stop stopColor="#FFD945"/>
<stop offset="0.3043" stopColor="#FFCD3E"/>
<stop offset="0.8558" stopColor="#FFAD2B"/>
<stop offset="1" stopColor="#FFA325"/>
</linearGradient>
<linearGradient id="paint6_linear_255_4512" x1="38.4914" y1="14.5634" x2="48.3678" y2="20.9726" gradientUnits="userSpaceOnUse">
<stop stopColor="#FFD945"/>
<stop offset="0.3043" stopColor="#FFCD3E"/>
<stop offset="0.8558" stopColor="#FFAD2B"/>
<stop offset="1" stopColor="#FFA325"/>
</linearGradient>
<linearGradient id="paint7_linear_255_4512" x1="39.28" y1="11.9119" x2="48.4771" y2="41.4163" gradientUnits="userSpaceOnUse">
<stop stopColor="#F82814" stopOpacity="0"/>
<stop offset="1" stopColor="#C0272D"/>
</linearGradient>
<linearGradient id="paint8_linear_255_4512" x1="24.8081" y1="16.6158" x2="36.1233" y2="20.1746" gradientUnits="userSpaceOnUse">
<stop stopColor="#FFD945"/>
<stop offset="0.3043" stopColor="#FFCD3E"/>
<stop offset="0.8558" stopColor="#FFAD2B"/>
<stop offset="1" stopColor="#FFA325"/>
</linearGradient>
<linearGradient id="paint9_linear_255_4512" x1="19.2993" y1="7.30634" x2="36.2847" y2="33.6682" gradientUnits="userSpaceOnUse">
<stop stopColor="#F82814" stopOpacity="0"/>
<stop offset="1" stopColor="#C0272D"/>
</linearGradient>
<linearGradient id="paint10_linear_255_4512" x1="37.1787" y1="32.4976" x2="28.8224" y2="8.15532" gradientUnits="userSpaceOnUse">
<stop stopColor="#F82814" stopOpacity="0"/>
<stop offset="1" stopColor="#C0272D"/>
</linearGradient>
<linearGradient id="paint11_linear_255_4512" x1="25.1187" y1="26.6976" x2="4.76776" y2="18.0283" gradientUnits="userSpaceOnUse">
<stop stopColor="#F82814" stopOpacity="0"/>
<stop offset="1" stopColor="#C0272D"/>
</linearGradient>
<linearGradient id="paint12_linear_255_4512" x1="27.9985" y1="22.5515" x2="40.4148" y2="27.8727" gradientUnits="userSpaceOnUse">
<stop stopColor="#FFD945"/>
<stop offset="0.3043" stopColor="#FFCD3E"/>
<stop offset="0.8558" stopColor="#FFAD2B"/>
<stop offset="1" stopColor="#FFA325"/>
</linearGradient>
<linearGradient id="paint13_linear_255_4512" x1="26.531" y1="24.2514" x2="35.9121" y2="26.4588" gradientUnits="userSpaceOnUse">
<stop stopColor="#F82814" stopOpacity="0"/>
<stop offset="1" stopColor="#C0272D"/>
</linearGradient>
<linearGradient id="paint14_linear_255_4512" x1="3.57001" y1="19.8287" x2="14.8951" y2="23.507" gradientUnits="userSpaceOnUse">
<stop stopColor="#FFD945"/>
<stop offset="0.3043" stopColor="#FFCD3E"/>
<stop offset="0.8558" stopColor="#FFAD2B"/>
<stop offset="1" stopColor="#FFA325"/>
</linearGradient>
<linearGradient id="paint15_linear_255_4512" x1="3.57001" y1="19.8287" x2="14.8951" y2="23.507" gradientUnits="userSpaceOnUse">
<stop stopColor="#FFD945"/>
<stop offset="0.3043" stopColor="#FFCD3E"/>
<stop offset="0.8558" stopColor="#FFAD2B"/>
<stop offset="1" stopColor="#FFA325"/>
</linearGradient>
<linearGradient id="paint16_linear_255_4512" x1="12.597" y1="22.4247" x2="19.1086" y2="25.5149" gradientUnits="userSpaceOnUse">
<stop stopColor="#FFD945"/>
<stop offset="0.3043" stopColor="#FFCD3E"/>
<stop offset="0.8558" stopColor="#FFAD2B"/>
<stop offset="1" stopColor="#FFA325"/>
</linearGradient>
<linearGradient id="paint17_linear_255_4512" x1="25.0226" y1="22.2242" x2="25.0226" y2="34.6974" gradientUnits="userSpaceOnUse">
<stop stopColor="#F82814" stopOpacity="0"/>
<stop offset="0.2662" stopColor="#EE2818" stopOpacity="0.266"/>
<stop offset="0.7123" stopColor="#D42724" stopOpacity="0.712"/>
<stop offset="1" stopColor="#C0272D"/>
</linearGradient>
<linearGradient id="paint18_linear_255_4512" x1="12.9055" y1="30.951" x2="43.8078" y2="44.0845" gradientUnits="userSpaceOnUse">
<stop stopColor="#FF6359"/>
<stop offset="0.2243" stopColor="#FE5B50"/>
<stop offset="0.5952" stopColor="#FC4637"/>
<stop offset="1" stopColor="#F82814"/>
</linearGradient>
<linearGradient id="paint19_linear_255_4512" x1="31.0721" y1="52.152" x2="26.8783" y2="33.8313" gradientUnits="userSpaceOnUse">
<stop stopColor="#F82814" stopOpacity="0"/>
<stop offset="1" stopColor="#C0272D"/>
</linearGradient>
<linearGradient id="paint20_linear_255_4512" x1="24.1219" y1="34.4267" x2="28.5915" y2="44.6901" gradientUnits="userSpaceOnUse">
<stop stopColor="#FFD945"/>
<stop offset="0.3043" stopColor="#FFCD3E"/>
<stop offset="0.8558" stopColor="#FFAD2B"/>
<stop offset="1" stopColor="#FFA325"/>
</linearGradient>
<linearGradient id="paint21_linear_255_4512" x1="25.2808" y1="45.5115" x2="25.2808" y2="51.9592" gradientUnits="userSpaceOnUse">
<stop stopColor="#F82814" stopOpacity="0"/>
<stop offset="1" stopColor="#C0272D"/>
</linearGradient>
<clipPath id="clip0_255_4512">
<rect width="50" height="50" fill="white" transform="translate(0.5)"/>
</clipPath>
</defs>
</svg>
