<svg width="51" height="50" viewBox="0 0 51 50" fill="none" xmlns="http://www.w3.org/2000/svg">
<g clipPath="url(#clip0_255_3792)">
<path d="M37.6135 23.5402L41.0904 25.1615L45.9394 17.1801C46.6784 15.9638 46.1969 14.3752 44.9071 13.7737L43.8837 13.2966C42.5939 12.6951 41.0675 13.3474 40.6108 14.6953L37.6135 23.5402Z" fill="url(#paint0_linear_255_3792)"/>
<path d="M45.9394 17.1804L41.0904 25.1618L37.6135 23.5405L40.6108 14.6956C40.6831 14.4823 40.7823 14.2865 40.903 14.1104L46.1924 16.6062C46.135 16.8028 46.0514 16.9959 45.9394 17.1804Z" fill="url(#paint1_linear_255_3792)"/>
<path d="M22.5957 12.1431C22.5957 13.6383 22.9911 15.0407 23.6829 16.2522C24.9154 18.4105 28.0652 18.4105 29.2978 16.2522C29.9896 15.0407 30.385 13.6382 30.385 12.1431C30.385 9.54563 29.1916 7.22795 27.324 5.7054C26.8412 5.31174 26.1395 5.31174 25.6565 5.7054C23.7891 7.22795 22.5957 9.54563 22.5957 12.1431Z" fill="url(#paint2_linear_255_3792)"/>
<path d="M29.2977 16.2521C29.9895 15.0407 30.3849 13.6382 30.3849 12.1431C30.3849 9.54561 29.1915 7.22793 27.3239 5.70537C27.0825 5.5085 26.7863 5.41016 26.4902 5.41016V17.8709C27.5858 17.8709 28.6814 17.3313 29.2977 16.2521Z" fill="url(#paint3_linear_255_3792)"/>
<path d="M30.385 12.1477C30.385 12.1461 30.3851 12.1447 30.3851 12.1431C30.3851 9.54563 29.1917 7.22795 27.3241 5.7054C26.8412 5.31174 26.1396 5.31174 25.6566 5.7054C23.7891 7.22795 22.5957 9.54563 22.5957 12.1431C22.5957 12.1447 22.5958 12.1461 22.5958 12.1477L26.4904 16.0423L30.385 12.1477Z" fill="url(#paint4_linear_255_3792)"/>
<path d="M26.4903 11.6405L29.5724 8.55842C29.0399 7.44856 28.2684 6.47522 27.324 5.7054C26.8411 5.31174 26.1395 5.31174 25.6565 5.7054C24.7122 6.47522 23.9406 7.44866 23.4082 8.55842L26.4903 11.6405Z" fill="url(#paint5_linear_255_3792)"/>
<path d="M29.4976 11.8962C28.2625 12.7388 27.3268 13.8558 26.7159 15.11C25.6275 17.3446 27.4026 19.9466 29.8801 19.7483C31.2708 19.6371 32.6522 19.1733 33.8873 18.3307C36.033 16.8669 37.2751 14.575 37.4802 12.1742C37.5333 11.5535 37.1379 10.9738 36.5405 10.7968C34.2304 10.112 31.6433 10.4323 29.4976 11.8962Z" fill="url(#paint6_linear_255_3792)"/>
<path d="M29.8801 19.7485C31.2708 19.6373 32.6521 19.1736 33.8873 18.331C36.033 16.8672 37.275 14.5752 37.4802 12.1744C37.5068 11.8641 37.4211 11.564 37.2542 11.3193L26.9607 18.3417C27.5782 19.2467 28.6414 19.8477 29.8801 19.7485Z" fill="url(#paint7_linear_255_3792)"/>
<path d="M33.8835 18.3333C33.8848 18.3324 33.8861 18.3316 33.8874 18.3307C36.0331 16.867 37.2751 14.575 37.4803 12.1742C37.5334 11.5535 37.1379 10.9737 36.5406 10.7967C34.2304 10.112 31.6432 10.4324 29.4976 11.8962C29.4963 11.897 29.4951 11.8979 29.4938 11.8988L28.4714 17.3109L33.8835 18.3333Z" fill="url(#paint8_linear_255_3792)"/>
<path d="M32.1077 14.8304L36.3906 15.6395C37.0073 14.5741 37.3766 13.3883 37.4803 12.1743C37.5334 11.5536 37.1379 10.9738 36.5406 10.7969C35.3724 10.4507 34.1335 10.3618 32.9167 10.5475L32.1077 14.8304Z" fill="url(#paint9_linear_255_3792)"/>
<path d="M31.3891 21.0062C33.2721 21.0062 34.7986 19.4796 34.7986 17.5966C34.7986 15.7135 33.2721 14.187 31.3891 14.187C29.506 14.187 27.9795 15.7135 27.9795 17.5966C27.9795 19.4796 29.506 21.0062 31.3891 21.0062Z" fill="url(#paint10_linear_255_3792)"/>
<path d="M27.9795 17.5964C27.9795 19.4794 29.506 21.006 31.3891 21.006C33.2721 21.006 34.7986 19.4794 34.7986 17.5964C34.7986 17.1886 34.7268 16.7976 34.5955 16.4351H28.1826C28.0514 16.7976 27.9795 17.1886 27.9795 17.5964Z" fill="url(#paint11_linear_255_3792)"/>
<path d="M28.9781 20.0077C30.3096 21.3393 32.4684 21.3393 33.8 20.0077C35.1315 18.6762 35.1315 16.5174 33.8 15.1858C33.5116 14.8975 33.1843 14.6718 32.8351 14.5083L28.3005 19.0429C28.464 19.392 28.6897 19.7193 28.9781 20.0077Z" fill="url(#paint12_linear_255_3792)"/>
<path d="M18.3691 9.08496C17.9453 9.32968 17.6125 9.67119 17.3823 10.0655C16.9722 10.7681 17.4876 11.6608 18.3011 11.657C18.7578 11.6549 19.22 11.5374 19.6437 11.2928C20.3799 10.8677 20.8416 10.1502 20.9675 9.37168C21 9.17041 20.8852 8.97148 20.6947 8.89902C19.9575 8.61894 19.1053 8.65996 18.3691 9.08496Z" fill="url(#paint13_linear_255_3792)"/>
<path d="M18.3011 11.6574C18.7576 11.6553 19.2199 11.5378 19.6437 11.2932C20.3799 10.8681 20.8415 10.1506 20.9675 9.37207C20.9838 9.27139 20.9632 9.17139 20.9147 9.0874L17.3828 11.1266C17.5621 11.4371 17.8943 11.6593 18.3011 11.6574Z" fill="url(#paint14_linear_255_3792)"/>
<path d="M19.6425 11.2936C19.6429 11.2933 19.6434 11.2931 19.6438 11.2928C20.3801 10.8677 20.8417 10.1503 20.9677 9.37175C21.0002 9.17048 20.8854 8.97155 20.6948 8.89909C19.9576 8.61892 19.1055 8.65993 18.3692 9.08503C18.3688 9.08532 18.3684 9.08552 18.368 9.08581L17.9014 10.827L19.6425 11.2936Z" fill="url(#paint15_linear_255_3792)"/>
<path d="M19.1489 10.1066L20.5269 10.4758C20.7543 10.1433 20.9039 9.76529 20.9676 9.37164C21.0001 9.17037 20.8854 8.97144 20.6947 8.89898C20.322 8.75728 19.9198 8.69791 19.5182 8.72857L19.1489 10.1066Z" fill="url(#paint16_linear_255_3792)"/>
<path d="M15.192 12.2622C15.4367 11.8383 15.7782 11.5055 16.1725 11.2753C16.8751 10.8653 17.7678 11.3807 17.764 12.1942C17.7619 12.6508 17.6444 13.113 17.3998 13.5368C16.9747 14.273 16.2572 14.7346 15.4787 14.8606C15.2774 14.8931 15.0785 14.7783 15.006 14.5877C14.7258 13.8506 14.7669 12.9984 15.192 12.2622Z" fill="url(#paint17_linear_255_3792)"/>
<path d="M17.7641 12.1941C17.762 12.6507 17.6445 13.113 17.3999 13.5367C16.9748 14.2729 16.2573 14.7346 15.4788 14.8605C15.3781 14.8769 15.2781 14.8562 15.1941 14.8078L17.2333 11.2759C17.5438 11.4552 17.7661 11.7874 17.7641 12.1941Z" fill="url(#paint18_linear_255_3792)"/>
<path d="M17.4006 13.5355C17.4003 13.5359 17.4001 13.5364 17.3998 13.5369C16.9747 14.2731 16.2572 14.7348 15.4787 14.8607C15.2774 14.8933 15.0785 14.7785 15.006 14.5879C14.7258 13.8507 14.7669 12.9985 15.192 12.2623C15.1923 12.2619 15.1925 12.2614 15.1927 12.261L16.934 11.7944L17.4006 13.5355Z" fill="url(#paint19_linear_255_3792)"/>
<path d="M16.2138 13.042L16.583 14.4199C16.2505 14.6474 15.8725 14.797 15.4788 14.8606C15.2775 14.8932 15.0786 14.7784 15.0062 14.5878C14.8645 14.215 14.8051 13.8129 14.8358 13.4112L16.2138 13.042Z" fill="url(#paint20_linear_255_3792)"/>
<path d="M15.7023 13.5007C16.4347 12.04 18.147 10.3277 19.6077 9.59536C21.2948 8.74946 23.3406 9.22299 24.493 10.7177C25.1137 11.5228 25.6442 12.4778 25.6819 13.4203C25.7607 15.3914 27.0002 16.843 26.5736 18.8351C26.3982 19.6539 25.7607 20.2914 24.9419 20.4667C22.9499 20.8934 21.4982 19.6539 19.5271 19.575C18.5847 19.5373 17.6296 19.0069 16.8246 18.3862C15.3299 17.2336 14.8564 15.1878 15.7023 13.5007Z" fill="url(#paint21_linear_255_3792)"/>
<path d="M15.9651 13.2067C16.1626 12.7819 16.4559 12.337 16.8062 11.91C16.9058 11.7887 16.8515 11.6032 16.701 11.5584C16.7 11.5581 16.6991 11.5578 16.6981 11.5575C16.4536 11.485 16.2625 11.2936 16.1854 11.0506C16.0713 10.6907 16.3778 10.334 16.7499 10.3982C16.942 10.4314 17.132 10.4893 17.3099 10.5582C17.6669 10.6965 18.0688 10.6446 18.3786 10.4196C18.6911 10.1927 19.0074 10.0008 19.3133 9.85858C20.7957 9.16922 22.657 9.6826 23.7579 11.0768C24.3508 11.8278 24.8689 12.7099 24.9429 13.5597C25.0979 15.3369 26.2752 16.6961 25.9762 18.4708C25.8556 19.1863 25.2927 19.7492 24.5772 19.8698C22.8026 20.1688 21.4434 18.9915 19.6661 18.8365C18.8164 18.7624 17.9342 18.2443 17.1833 17.6514C15.789 16.5504 15.2756 14.689 15.9651 13.2067Z" fill="url(#paint22_linear_255_3792)"/>
<path d="M19.6663 18.8362C18.8166 18.7621 17.9344 18.244 17.1834 17.6512C16.8824 17.4135 16.6226 17.1401 16.407 16.8431L17.4782 14.6687C17.691 15.0419 17.9856 15.3993 18.3464 15.7024C18.8674 16.1402 19.4628 16.5439 19.9968 16.6694C21.1135 16.9316 22.0664 17.7889 23.1389 17.769C23.58 17.7609 23.8679 17.473 23.8757 17.0322C23.8956 15.9597 23.0384 15.0068 22.7761 13.8901C22.6506 13.3562 22.247 12.7607 21.8092 12.2397C21.5061 11.8789 21.1487 11.5842 20.7754 11.3715L22.9499 10.3003C23.247 10.516 23.5203 10.7757 23.758 11.0768C24.3509 11.8277 24.869 12.7099 24.943 13.5596C25.098 15.3368 26.2753 16.696 25.9763 18.4707C25.8557 19.1862 25.2928 19.7491 24.5773 19.8697C22.8027 20.1686 21.4435 18.9911 19.6663 18.8362Z" fill="url(#paint23_linear_255_3792)"/>
<path d="M23.6582 19.9018C22.3021 19.7786 21.1249 18.9634 19.6663 18.8361C18.9468 18.7734 18.2043 18.3919 17.5376 17.9165L18.548 15.8667C19.0176 16.238 19.5307 16.5597 19.9969 16.6692C21.1136 16.9314 22.0664 17.7887 23.139 17.7688C23.5801 17.7607 23.868 17.4729 23.8758 17.032C23.8956 15.9595 23.0385 15.0066 22.7762 13.8899C22.6666 13.4237 22.3449 12.9106 21.9736 12.4411L24.0235 11.4307C24.4989 12.0974 24.8804 12.8398 24.9432 13.5594C25.0703 15.018 25.8855 16.1951 26.0088 17.5513L25.2327 19.1256L23.6582 19.9018Z" fill="url(#paint24_linear_255_3792)"/>
<path d="M19.6663 18.8362C19.4289 18.8155 19.1891 18.7592 18.9502 18.6772L19.7967 16.6105C19.8642 16.634 19.931 16.6538 19.9968 16.6692C21.1135 16.9314 22.0663 17.7887 23.1389 17.7688C23.58 17.7607 23.8679 17.4729 23.8757 17.032C23.8955 15.9595 23.0384 15.0066 22.7761 13.8899C22.7606 13.8241 22.7408 13.7572 22.7174 13.6897L24.7841 12.8433C24.866 13.0821 24.9224 13.322 24.9431 13.5594C25.098 15.3366 26.2754 16.6958 25.9764 18.4705C25.8558 19.186 25.2929 19.7489 24.5773 19.8695C22.8027 20.1686 21.4436 18.9911 19.6663 18.8362Z" fill="url(#paint25_linear_255_3792)"/>
<path d="M20.4897 18.9787L20.8403 16.969C21.6175 17.3184 22.3454 17.7835 23.1388 17.7687C23.5799 17.7606 23.8678 17.4728 23.8756 17.0319C23.8902 16.2386 23.4252 15.5105 23.0759 14.7334L25.0856 14.3828C25.4368 15.7816 26.2275 16.9794 25.9763 18.4704C25.8557 19.1859 25.2928 19.7488 24.5772 19.8694C23.0863 20.1206 21.8885 19.3299 20.4897 18.9787Z" fill="url(#paint26_linear_255_3792)"/>
<path d="M22.1416 17.5684C22.468 17.6924 22.7974 17.7751 23.1389 17.7688C23.58 17.7607 23.8679 17.4729 23.8757 17.032C23.882 16.6905 23.7992 16.3611 23.6752 16.0347L25.7155 16.2659C25.9485 16.9674 26.11 17.6774 25.9764 18.4704C25.8558 19.1859 25.2929 19.7488 24.5773 19.8694C23.7844 20.003 23.0743 19.8416 22.3729 19.6086L22.1416 17.5684Z" fill="url(#paint27_linear_255_3792)"/>
<path d="M16.7501 10.398C16.9423 10.4312 17.1322 10.4891 17.3101 10.558C17.6672 10.6963 18.069 10.6444 18.3788 10.4194C18.6913 10.1925 19.0077 10.0006 19.3135 9.85837C20.3956 9.35515 21.6792 9.49343 22.7219 10.1468L16.2537 16.615C15.6004 15.5723 15.4621 14.2886 15.9653 13.2066C16.1629 12.7818 16.4561 12.3369 16.8064 11.9099C16.906 11.7885 16.8517 11.6031 16.7012 11.5583C16.7003 11.558 16.6993 11.5577 16.6983 11.5574C16.4538 11.4849 16.2627 11.2935 16.1856 11.0505C16.0716 10.6904 16.3781 10.3337 16.7501 10.398Z" fill="url(#paint28_linear_255_3792)"/>
<path d="M18.3465 15.7022C18.8675 16.14 19.4629 16.5437 19.9968 16.6692C21.1135 16.9314 22.0664 17.7887 23.1389 17.7688C23.5801 17.7607 23.8679 17.4728 23.8758 17.032C23.8956 15.9595 23.0384 15.0066 22.7761 13.8899C22.6507 13.3559 22.247 12.7605 21.8092 12.2395C20.9964 11.2719 19.7937 10.7796 18.939 11.0685C18.9264 11.0727 18.9139 11.0771 18.9013 11.0817C18.706 11.1522 18.6466 11.3974 18.7863 11.551C18.7872 11.5519 18.7882 11.553 18.789 11.554C19.0556 11.8474 19.3163 12.1709 19.4423 12.4299C19.7061 12.972 20.219 13.5163 20.3489 14.0019C20.4022 14.2013 20.3085 14.2951 20.1089 14.242C19.6232 14.1121 19.0789 13.5992 18.5368 13.3353C18.2778 13.2095 17.9546 12.9485 17.6609 12.6821C17.6599 12.6812 17.6589 12.6803 17.6579 12.6794C17.5044 12.5397 17.2593 12.599 17.1887 12.7941C17.1842 12.8068 17.1798 12.8194 17.1755 12.832C16.8865 13.6868 17.3789 14.8894 18.3465 15.7022Z" fill="url(#paint29_linear_255_3792)"/>
<path d="M18.3465 15.7022C18.8675 16.14 19.4629 16.5437 19.9968 16.6692C21.1135 16.9314 22.0664 17.7887 23.1389 17.7688C23.5801 17.7607 23.8679 17.4728 23.8758 17.032C23.8956 15.9595 23.0384 15.0066 22.7761 13.8899C22.6507 13.3559 22.247 12.7605 21.8092 12.2395C20.9964 11.2719 19.7937 10.7796 18.939 11.0685C18.9264 11.0727 18.9139 11.0771 18.9013 11.0817C18.706 11.1522 18.6466 11.3974 18.7863 11.551C18.7872 11.5519 18.7882 11.553 18.789 11.554C19.0556 11.8474 19.3163 12.1709 19.4423 12.4299C19.7061 12.972 20.219 13.5163 20.3489 14.0019C20.4022 14.2013 20.3085 14.2951 20.1089 14.242C19.6232 14.1121 19.0789 13.5992 18.5368 13.3353C18.2778 13.2095 17.9546 12.9485 17.6609 12.6821C17.6599 12.6812 17.6589 12.6803 17.6579 12.6794C17.5044 12.5397 17.2593 12.599 17.1887 12.7941C17.1842 12.8068 17.1798 12.8194 17.1755 12.832C16.8865 13.6868 17.3789 14.8894 18.3465 15.7022Z" fill="url(#paint30_linear_255_3792)"/>
<path d="M24.4034 10.606C24.4338 10.6426 24.4637 10.6796 24.4929 10.7175C25.1136 11.5226 25.644 12.4775 25.6817 13.42C25.7605 15.3911 27.0001 16.8428 26.5734 18.8349C26.398 19.6536 25.7605 20.2911 24.9418 20.4665C22.9497 20.8932 21.498 19.6536 19.527 19.5748C18.5846 19.5371 17.6295 19.0066 16.8244 18.3859C16.7865 18.3567 16.7494 18.3268 16.7129 18.2965L24.4034 10.606Z" fill="url(#paint31_linear_255_3792)"/>
<path d="M15.7023 13.5008C16.2393 12.4297 17.3033 11.2238 18.4085 10.3677L26.6197 18.5788C26.6072 18.6633 26.592 18.7485 26.5735 18.835C26.3981 19.6537 25.7606 20.2912 24.9418 20.4666C22.9498 20.8933 21.4981 19.6537 19.527 19.5749C18.5846 19.5372 17.6295 19.0067 16.8245 18.386C15.3299 17.2337 14.8564 15.1879 15.7023 13.5008Z" fill="url(#paint32_linear_255_3792)"/>
<path d="M25.9589 22.3401C27.8419 22.3401 29.3685 20.8136 29.3685 18.9306C29.3685 17.0475 27.8419 15.521 25.9589 15.521C24.0758 15.521 22.5493 17.0475 22.5493 18.9306C22.5493 20.8136 24.0758 22.3401 25.9589 22.3401Z" fill="url(#paint33_linear_255_3792)"/>
<path d="M22.5493 18.9304C22.5493 20.8134 24.0758 22.3399 25.9589 22.3399C27.8419 22.3399 29.3685 20.8134 29.3685 18.9304C29.3685 18.5226 29.2966 18.1315 29.1653 17.769H22.7525C22.6212 18.1315 22.5493 18.5226 22.5493 18.9304Z" fill="url(#paint34_linear_255_3792)"/>
<path d="M23.5479 21.3417C24.8794 22.6732 27.0382 22.6732 28.3698 21.3417C29.7013 20.0102 29.7013 17.8514 28.3698 16.5198C28.0814 16.2314 27.7541 16.0058 27.4049 15.8423L22.8704 20.3769C23.0338 20.7261 23.2595 21.0533 23.5479 21.3417Z" fill="url(#paint35_linear_255_3792)"/>
<path d="M14.5626 24.5901C16.4457 24.5901 17.9722 23.0636 17.9722 21.1806C17.9722 19.2975 16.4457 17.771 14.5626 17.771C12.6796 17.771 11.1531 19.2975 11.1531 21.1806C11.1531 23.0636 12.6796 24.5901 14.5626 24.5901Z" fill="url(#paint36_linear_255_3792)"/>
<path d="M11.1531 21.1804C11.1531 23.0634 12.6795 24.5899 14.5626 24.5899C16.4457 24.5899 17.9722 23.0634 17.9722 21.1804C17.9722 20.7726 17.9003 20.3815 17.7691 20.019H11.3563C11.225 20.3815 11.1531 20.7726 11.1531 21.1804Z" fill="url(#paint37_linear_255_3792)"/>
<path d="M12.1517 23.5917C13.4832 24.9232 15.642 24.9232 16.9735 23.5917C18.3051 22.2602 18.3051 20.1014 16.9735 18.7698C16.6852 18.4814 16.3579 18.2558 16.0087 18.0923L11.4741 22.6269C11.6377 22.9761 11.8633 23.3033 12.1517 23.5917Z" fill="url(#paint38_linear_255_3792)"/>
<path d="M19.368 25.6179C21.6889 25.6179 23.5703 23.7365 23.5703 21.4156C23.5703 19.0948 21.6889 17.2134 19.368 17.2134C17.0472 17.2134 15.1658 19.0948 15.1658 21.4156C15.1658 23.7365 17.0472 25.6179 19.368 25.6179Z" fill="url(#paint39_linear_255_3792)"/>
<path d="M25.7792 29.0543C26.0272 28.735 26.2104 28.3573 26.3044 27.9365C26.6418 26.4273 25.6817 24.9043 24.1746 24.5578C23.8478 24.4827 23.5211 24.4674 23.2063 24.5047C22.7939 24.5536 22.3906 24.3447 22.1969 23.9773C21.3787 22.4261 19.9129 21.2284 18.0682 20.8112C16.1701 20.3819 14.2787 20.871 12.8581 21.9849C12.5327 22.2399 12.0808 22.2655 11.7256 22.054C11.4809 21.9082 11.2064 21.8019 10.9086 21.7458C9.6419 21.5066 8.3835 22.2902 8.04014 23.5328C7.99932 23.6804 7.97266 23.8281 7.95918 23.9749C7.91973 24.4038 7.6292 24.7702 7.2129 24.8808C5.66963 25.2906 4.41133 26.5537 4.10342 28.2515C3.717 30.3819 5.01241 32.4887 7.08897 33.102C7.76749 33.3024 8.45069 33.3274 9.09366 33.206C9.66758 33.0976 10.2266 33.4769 10.3073 34.0554C10.5459 35.7637 11.813 37.2268 13.595 37.6299C15.2723 38.0092 16.9417 37.3445 17.9248 36.0649C18.2879 35.5923 18.9783 35.5323 19.4172 35.9356C19.9675 36.4413 20.6585 36.8095 21.447 36.9712C23.6804 37.4292 25.9042 36.0236 26.449 33.8098C26.762 32.5379 26.4703 31.2646 25.7618 30.2851C25.4939 29.9147 25.4988 29.4152 25.7792 29.0543Z" fill="url(#paint40_linear_255_3792)"/>
<path d="M4.10342 28.2511C3.717 30.3816 5.01241 32.4883 7.08897 33.1017C7.76749 33.302 8.45069 33.327 9.09366 33.2057C9.66758 33.0973 10.2266 33.4766 10.3073 34.055C10.5459 35.7633 11.813 37.2265 13.595 37.6295C15.2723 38.0088 16.9417 37.3441 17.9248 36.0645C18.2879 35.5919 18.9783 35.5319 19.4172 35.9353C19.9675 36.4409 20.6585 36.8091 21.447 36.9708C23.6804 37.4288 25.9042 36.0232 26.449 33.8094C26.6727 32.9006 26.5862 31.9917 26.2609 31.1893L4.94883 26.3691C4.53174 26.8987 4.23301 27.5361 4.10342 28.2511Z" fill="url(#paint41_linear_255_3792)"/>
<path d="M17.9248 36.0649C18.2879 35.5923 18.9783 35.5323 19.4172 35.9356C19.9675 36.4413 20.6585 36.8095 21.447 36.9712C23.6804 37.4292 25.9042 36.0236 26.449 33.8098C26.762 32.5379 26.4703 31.2646 25.7618 30.2852C25.4939 29.9148 25.4989 29.4153 25.7793 29.0544C26.0272 28.7351 26.2104 28.3574 26.3045 27.9365C26.4972 27.0747 26.2662 26.2087 25.7523 25.5596L10.6016 35.1212C11.1184 36.347 12.1985 37.314 13.595 37.6299C15.2724 38.0092 16.9418 37.3445 17.9248 36.0649Z" fill="url(#paint42_linear_255_3792)"/>
<path d="M25.6656 30.1232C25.1244 29.4968 24.3852 29.0324 23.5156 28.8357C22.5091 28.6081 21.5058 28.7798 20.6702 29.2468C20.2538 28.5141 20.099 27.6295 20.2996 26.7426C20.5641 25.573 21.3851 24.6739 22.421 24.2603C22.6318 24.4457 22.9165 24.539 23.206 24.5043C23.5208 24.4673 23.8474 24.4827 24.1746 24.5573C25.6818 24.9042 26.6419 26.4273 26.3047 27.936C26.2102 28.3569 26.0273 28.735 25.779 29.0539C25.5379 29.3651 25.5003 29.778 25.6656 30.1232Z" fill="url(#paint43_linear_255_3792)"/>
<path d="M15.8431 31.7243C18.1629 32.249 20.4429 31.5595 21.8814 30.1023C20.7949 29.4439 20.1986 28.1429 20.4943 26.8352C20.7763 25.5885 21.7881 24.696 22.977 24.5057C22.6502 24.4699 22.3542 24.276 22.1967 23.9773C21.3785 22.4261 19.9127 21.2284 18.068 20.8112C16.1699 20.3819 14.2785 20.871 12.8579 21.9849C12.7206 22.0925 12.5606 22.1588 12.3951 22.1841C11.6731 22.8835 11.1493 23.7692 10.9186 24.7892C10.227 27.8476 12.4317 30.9527 15.8431 31.7243Z" fill="url(#paint44_linear_255_3792)"/>
<path d="M12.5109 22.1593C12.251 22.2312 11.9661 22.1971 11.7255 22.0538C11.4808 21.9081 11.2062 21.8018 10.9085 21.7455C9.6418 21.5064 8.3834 22.29 8.04004 23.5325C7.99922 23.6801 7.97256 23.8279 7.95908 23.9746C7.92217 24.3758 7.66563 24.7221 7.29199 24.8558C7.96523 24.69 8.68623 24.6734 9.40879 24.8367C10.5941 25.1048 11.5685 25.8074 12.202 26.7401C12.8005 26.3334 13.2466 25.7218 13.4146 24.9783C13.6525 23.927 13.2743 22.873 12.5109 22.1593Z" fill="url(#paint45_linear_255_3792)"/>
<path d="M44.4455 27.5406C44.7583 27.1378 44.9894 26.6612 45.1082 26.1302C45.5339 24.226 44.3225 22.3042 42.4208 21.8671C42.0083 21.7723 41.5963 21.753 41.199 21.8001C40.6786 21.8618 40.1698 21.5983 39.9254 21.1347C38.8931 19.1773 37.0435 17.6662 34.7159 17.1398C32.321 16.5981 29.9346 17.2152 28.142 18.6206C27.7314 18.9425 27.1612 18.9747 26.713 18.7078C26.4042 18.5239 26.0578 18.3898 25.6822 18.3189C24.0839 18.0171 22.4962 19.0059 22.0629 20.5736C22.0114 20.7598 21.9777 20.9463 21.9607 21.1314C21.911 21.6726 21.5443 22.1349 21.019 22.2743C19.0718 22.7914 17.4842 24.3852 17.0956 26.5275C16.608 29.2156 18.2426 31.8738 20.8627 32.6478C21.7188 32.9006 22.5809 32.9321 23.3921 32.779C24.1162 32.6423 24.8216 33.1208 24.9234 33.8507C25.2244 36.0063 26.8232 37.8524 29.0718 38.361C31.1881 38.8396 33.2945 38.0009 34.535 36.3864C34.9931 35.7902 35.8643 35.7145 36.4181 36.2233C37.1125 36.8613 37.9843 37.3258 38.9792 37.5299C41.7972 38.1078 44.6032 36.3343 45.2906 33.5409C45.6855 31.9362 45.3175 30.3296 44.4235 29.0937C44.0854 28.6264 44.0918 27.9961 44.4455 27.5406Z" fill="url(#paint46_linear_255_3792)"/>
<path d="M17.0956 26.5273C16.608 29.2155 18.2426 31.8737 20.8627 32.6477C21.7188 32.9006 22.5809 32.932 23.3921 32.7789C24.1162 32.6422 24.8216 33.1208 24.9234 33.8506C25.2245 36.0062 26.8232 37.8522 29.0718 38.3608C31.1881 38.8395 33.2945 38.0008 34.535 36.3863C34.9931 35.79 35.8643 35.7144 36.4181 36.2231C37.1125 36.8612 37.9843 37.3257 38.9792 37.5298C41.7972 38.1077 44.6032 36.3342 45.2906 33.5408C45.5727 32.3941 45.4638 31.2474 45.0533 30.2348L18.1624 24.1528C17.6361 24.8209 17.2592 25.6252 17.0956 26.5273Z" fill="url(#paint47_linear_255_3792)"/>
<path d="M34.5349 36.3863C34.993 35.79 35.8643 35.7144 36.418 36.2231C37.1125 36.8612 37.9842 37.3257 38.9792 37.5298C41.7971 38.1077 44.6032 36.3342 45.2906 33.5408C45.6855 31.936 45.3174 30.3294 44.4235 29.0936C44.0855 28.6263 44.0918 27.996 44.4456 27.5405C44.7583 27.1377 44.9895 26.6611 45.1083 26.1301C45.3513 25.0427 45.0599 23.95 44.4116 23.1309L25.2947 35.1955C25.9468 36.7422 27.3096 37.9623 29.0718 38.3608C31.188 38.8396 33.2946 38.0009 34.5349 36.3863Z" fill="url(#paint48_linear_255_3792)"/>
<path d="M44.3021 28.8895C43.6192 28.0989 42.6864 27.5132 41.5892 27.2649C40.3193 26.9777 39.0532 27.1943 37.9989 27.7836C37.4736 26.8591 37.2782 25.743 37.5314 24.6238C37.8652 23.1481 38.9011 22.0137 40.2081 21.4917C40.474 21.7257 40.8333 21.8435 41.1986 21.7997C41.5958 21.753 42.0078 21.7725 42.4208 21.8667C44.3225 22.3044 45.5339 24.2263 45.1085 26.1299C44.9893 26.6609 44.7584 27.138 44.4452 27.5403C44.141 27.9329 44.0936 28.4539 44.3021 28.8895Z" fill="url(#paint49_linear_255_3792)"/>
<path d="M31.9085 30.9097C34.8357 31.5717 37.7124 30.7017 39.5275 28.8631C38.1567 28.0323 37.4042 26.3907 37.7774 24.7407C38.1331 23.1676 39.4098 22.0414 40.9101 21.8014C40.4977 21.7563 40.1242 21.5115 39.9254 21.1347C38.8931 19.1773 37.0436 17.6662 34.7159 17.1398C32.321 16.5981 29.9346 17.2152 28.142 18.6206C27.9688 18.7565 27.767 18.8401 27.558 18.872C26.6471 19.7545 25.9861 20.8721 25.695 22.159C24.8224 26.0181 27.6042 29.9361 31.9085 30.9097Z" fill="url(#paint50_linear_255_3792)"/>
<path d="M27.7042 18.8408C27.3762 18.9315 27.0167 18.8885 26.7131 18.7077C26.4043 18.5238 26.0579 18.3896 25.6823 18.3187C24.084 18.0171 22.4963 19.0057 22.063 20.5735C22.0115 20.7597 21.9778 20.9462 21.9608 21.1312C21.9144 21.6374 21.5905 22.0744 21.1191 22.2431C21.9687 22.0339 22.8783 22.0129 23.7901 22.219C25.2858 22.5573 26.5151 23.4438 27.3145 24.6206C28.0696 24.1075 28.6325 23.3357 28.8446 22.3976C29.1445 21.0712 28.6673 19.7413 27.7042 18.8408Z" fill="url(#paint51_linear_255_3792)"/>
<path d="M44.4234 29.0941C44.0855 28.6268 44.0918 27.9965 44.4455 27.541C44.7583 27.1382 44.9895 26.6616 45.1082 26.1306C45.5339 24.2264 44.3225 22.3046 42.4208 21.8675C42.0083 21.7727 41.5963 21.7534 41.199 21.8005C40.6786 21.8622 40.1698 21.5986 39.9254 21.1352C38.8931 19.1778 37.0436 17.6667 34.7159 17.1403C32.321 16.5986 29.9346 17.2156 28.142 18.6211C27.7314 18.943 27.1612 18.9752 26.713 18.7083C26.4042 18.5244 26.0578 18.3903 25.6822 18.3194C24.0839 18.0176 22.4962 19.0063 22.0629 20.5741C22.0114 20.7603 21.9777 20.9468 21.9607 21.1319C21.9109 21.6731 21.5443 22.1354 21.019 22.2748C20.9825 22.2845 20.9465 22.2953 20.9103 22.3058C20.1358 21.5902 19.1704 21.0607 18.0681 20.8114C16.17 20.3821 14.2786 20.8712 12.858 21.9851C12.5326 22.2402 12.0807 22.2657 11.7255 22.0542C11.4808 21.9085 11.2063 21.8022 10.9086 21.746C9.6419 21.5069 8.3835 22.2904 8.04014 23.533C7.99942 23.6806 7.97266 23.8283 7.95919 23.975C7.91973 24.4039 7.6292 24.7703 7.2129 24.8809C5.66963 25.2907 4.41133 26.5538 4.10342 28.2516C3.717 30.382 5.01241 32.4888 7.08907 33.1022C7.76758 33.3026 8.45079 33.3276 9.09376 33.2062C9.66768 33.0978 10.2267 33.4771 10.3074 34.0556C10.546 35.7639 11.8131 37.2271 13.5951 37.6301C15.2724 38.0095 16.9419 37.3447 17.9249 36.0652C18.288 35.5925 18.9784 35.5325 19.4173 35.9359C19.9676 36.4415 20.6585 36.8097 21.4471 36.9714C22.9815 37.2861 24.5114 36.721 25.4955 35.6186C26.2045 36.9624 27.4738 38 29.0722 38.3615C31.1885 38.8402 33.2949 38.0015 34.5354 36.387C34.9935 35.7907 35.8647 35.715 36.4185 36.2238C37.1129 36.8619 37.9847 37.3265 38.9796 37.5305C41.7976 38.1084 44.6036 36.3349 45.291 33.5415C45.6855 31.9365 45.3174 30.3299 44.4234 29.0941Z" fill="url(#paint52_linear_255_3792)"/>
<path d="M6.1415 28.4783C8.02456 28.4783 9.55107 26.9518 9.55107 25.0687C9.55107 23.1857 8.02456 21.6592 6.1415 21.6592C4.25845 21.6592 2.73193 23.1857 2.73193 25.0687C2.73193 26.9518 4.25845 28.4783 6.1415 28.4783Z" fill="url(#paint53_linear_255_3792)"/>
<path d="M2.73193 25.0686C2.73193 26.9516 4.2584 28.4781 6.1415 28.4781C8.02451 28.4781 9.55107 26.9516 9.55107 25.0686C9.55107 24.6607 9.4792 24.2697 9.34795 23.9072H2.93516C2.80381 24.2697 2.73193 24.6606 2.73193 25.0686Z" fill="url(#paint54_linear_255_3792)"/>
<path d="M3.73052 27.4794C5.06206 28.8109 7.22085 28.8109 8.55239 27.4794C9.88394 26.1479 9.88394 23.9891 8.55239 22.6575C8.26401 22.3691 7.93677 22.1435 7.58755 21.98L3.05298 26.5145C3.21655 26.8638 3.44224 27.191 3.73052 27.4794Z" fill="url(#paint55_linear_255_3792)"/>
<path d="M45.2196 28.4783C47.1027 28.4783 48.6292 26.9518 48.6292 25.0687C48.6292 23.1857 47.1027 21.6592 45.2196 21.6592C43.3366 21.6592 41.8101 23.1857 41.8101 25.0687C41.8101 26.9518 43.3366 28.4783 45.2196 28.4783Z" fill="url(#paint56_linear_255_3792)"/>
<path d="M41.8101 25.0686C41.8101 26.9516 43.3365 28.4781 45.2196 28.4781C47.1026 28.4781 48.6292 26.9516 48.6292 25.0686C48.6292 24.6607 48.5573 24.2697 48.4261 23.9072H42.0133C41.8819 24.2697 41.8101 24.6606 41.8101 25.0686Z" fill="url(#paint57_linear_255_3792)"/>
<path d="M42.8086 27.4794C44.1402 28.8109 46.299 28.8109 47.6305 27.4794C48.9621 26.1479 48.9621 23.9891 47.6305 22.6575C47.3421 22.3691 47.0149 22.1435 46.6657 21.98L42.1311 26.5145C42.2946 26.8638 42.5203 27.191 42.8086 27.4794Z" fill="url(#paint58_linear_255_3792)"/>
<path d="M29.2543 28.2464C31.1374 28.2464 32.6639 26.7199 32.6639 24.8368C32.6639 22.9538 31.1374 21.4272 29.2543 21.4272C27.3712 21.4272 25.8447 22.9538 25.8447 24.8368C25.8447 26.7199 27.3712 28.2464 29.2543 28.2464Z" fill="url(#paint59_linear_255_3792)"/>
<path d="M25.8447 24.8366C25.8447 26.7196 27.3712 28.2462 29.2543 28.2462C31.1373 28.2462 32.6639 26.7196 32.6639 24.8366C32.6639 24.4288 32.592 24.0378 32.4607 23.6753H26.0479C25.9165 24.0379 25.8447 24.4288 25.8447 24.8366Z" fill="url(#paint60_linear_255_3792)"/>
<path d="M26.8433 27.2479C28.1749 28.5795 30.3336 28.5795 31.6652 27.2479C32.9967 25.9164 32.9967 23.7576 31.6652 22.4261C31.3768 22.1377 31.0496 21.912 30.7003 21.7485L26.1658 26.2831C26.3292 26.6323 26.5549 26.9596 26.8433 27.2479Z" fill="url(#paint61_linear_255_3792)"/>
<path d="M28.9808 44.5896H22.0188C18.0206 44.5896 14.4885 41.9852 13.3068 38.1654L13.1053 37.5143C12.8863 36.8062 13.4156 36.0884 14.1567 36.0884H36.8429C37.5841 36.0884 38.1134 36.8062 37.8943 37.5143L37.6928 38.1654C36.5112 41.9852 32.9792 44.5896 28.9808 44.5896Z" fill="url(#paint62_linear_255_3792)"/>
<path d="M13.3564 38.3208C14.5849 42.0557 18.0749 44.5897 22.0188 44.5897H28.9808C32.9246 44.5897 36.4146 42.0556 37.6431 38.3208H13.3564Z" fill="url(#paint63_linear_255_3792)"/>
<path d="M36.8431 36.0884H23.5056V44.5896H28.981C32.9792 44.5896 36.5113 41.9852 37.693 38.1654L37.8945 37.5143C38.1135 36.8062 37.5842 36.0884 36.8431 36.0884Z" fill="url(#paint64_linear_255_3792)"/>
<path d="M32.4931 41.8497H18.5069C10.4747 41.8497 3.37909 36.6176 1.00506 28.9441L0.600279 27.6359C0.16024 26.2135 1.22352 24.7715 2.71249 24.7715H48.2876C49.7765 24.7715 50.8398 26.2135 50.3998 27.6359L49.995 28.9441C47.6209 36.6176 40.5253 41.8497 32.4931 41.8497Z" fill="url(#paint65_linear_255_3792)"/>
<path d="M1.10498 29.2559C3.57275 36.7589 10.584 41.8498 18.5069 41.8498H32.4931C40.4161 41.8498 47.4272 36.7589 49.895 29.2559H1.10498Z" fill="url(#paint66_linear_255_3792)"/>
<path d="M0.646973 27.7866L1.00508 28.9442C1.66006 31.0612 2.675 32.9919 3.96924 34.6786H47.0308C48.325 32.9919 49.3399 31.0612 49.9949 28.9442L50.353 27.7866H0.646973Z" fill="url(#paint67_linear_255_3792)"/>
<path d="M48.2874 24.7715H21.4934V41.8497H32.493C40.5252 41.8497 47.6208 36.6176 49.9949 28.9441L50.3997 27.6359C50.8397 26.2135 49.7764 24.7715 48.2874 24.7715Z" fill="url(#paint68_linear_255_3792)"/>
<path d="M1.90093 31.2674H49.0992C49.3819 30.6601 49.6333 30.033 49.8509 29.3877H1.14917C1.36685 30.033 1.61821 30.6601 1.90093 31.2674Z" fill="url(#paint69_linear_255_3792)"/>
</g>
<defs>
<linearGradient id="paint0_linear_255_3792" x1="39.8874" y1="17.4354" x2="44.3936" y2="21.2604" gradientUnits="userSpaceOnUse">
<stop stopColor="#C8EFFE"/>
<stop offset="0.1044" stopColor="#BFECFD"/>
<stop offset="0.2723" stopColor="#A8E4FB"/>
<stop offset="0.4825" stopColor="#81D5F9"/>
<stop offset="0.727" stopColor="#4CC2F5"/>
<stop offset="0.9974" stopColor="#08A9F1"/>
<stop offset="1" stopColor="#08A9F1"/>
</linearGradient>
<linearGradient id="paint1_linear_255_3792" x1="42.161" y1="17.8076" x2="41.6894" y2="21.9471" gradientUnits="userSpaceOnUse">
<stop stopColor="#0290CF" stopOpacity="0"/>
<stop offset="0.9853" stopColor="#0290CF" stopOpacity="0.985"/>
<stop offset="1" stopColor="#0290CF"/>
</linearGradient>
<linearGradient id="paint2_linear_255_3792" x1="22.5957" y1="11.6406" x2="30.3851" y2="11.6406" gradientUnits="userSpaceOnUse">
<stop stopColor="#D1F19E"/>
<stop offset="1" stopColor="#78A91F"/>
</linearGradient>
<linearGradient id="paint3_linear_255_3792" x1="31.4722" y1="10.366" x2="24.8425" y2="12.1275" gradientUnits="userSpaceOnUse">
<stop stopColor="#026841" stopOpacity="0"/>
<stop offset="0.3243" stopColor="#046842" stopOpacity="0.324"/>
<stop offset="0.5509" stopColor="#0E6546" stopOpacity="0.551"/>
<stop offset="0.7476" stopColor="#1D614C" stopOpacity="0.748"/>
<stop offset="0.9263" stopColor="#335C54" stopOpacity="0.926"/>
<stop offset="1" stopColor="#3E5959"/>
</linearGradient>
<linearGradient id="paint4_linear_255_3792" x1="26.4904" y1="9.3761" x2="26.4904" y2="16.9638" gradientUnits="userSpaceOnUse">
<stop stopColor="#026841" stopOpacity="0"/>
<stop offset="0.3243" stopColor="#046842" stopOpacity="0.324"/>
<stop offset="0.5509" stopColor="#0E6546" stopOpacity="0.551"/>
<stop offset="0.7476" stopColor="#1D614C" stopOpacity="0.748"/>
<stop offset="0.9263" stopColor="#335C54" stopOpacity="0.926"/>
<stop offset="1" stopColor="#3E5959"/>
</linearGradient>
<linearGradient id="paint5_linear_255_3792" x1="26.4904" y1="6.89475" x2="26.4904" y2="12.2932" gradientUnits="userSpaceOnUse">
<stop stopColor="#026841" stopOpacity="0"/>
<stop offset="0.3243" stopColor="#046842" stopOpacity="0.324"/>
<stop offset="0.5509" stopColor="#0E6546" stopOpacity="0.551"/>
<stop offset="0.7476" stopColor="#1D614C" stopOpacity="0.748"/>
<stop offset="0.9263" stopColor="#335C54" stopOpacity="0.926"/>
<stop offset="1" stopColor="#3E5959"/>
</linearGradient>
<linearGradient id="paint6_linear_255_3792" x1="30.009" y1="11.7288" x2="34.4022" y2="18.1628" gradientUnits="userSpaceOnUse">
<stop stopColor="#D1F19E"/>
<stop offset="1" stopColor="#78A91F"/>
</linearGradient>
<linearGradient id="paint7_linear_255_3792" x1="35.7633" y1="18.2156" x2="30.5702" y2="13.7275" gradientUnits="userSpaceOnUse">
<stop stopColor="#026841" stopOpacity="0"/>
<stop offset="0.3243" stopColor="#046842" stopOpacity="0.324"/>
<stop offset="0.5509" stopColor="#0E6546" stopOpacity="0.551"/>
<stop offset="0.7476" stopColor="#1D614C" stopOpacity="0.748"/>
<stop offset="0.9263" stopColor="#335C54" stopOpacity="0.926"/>
<stop offset="1" stopColor="#3E5959"/>
</linearGradient>
<linearGradient id="paint8_linear_255_3792" x1="34.0762" y1="13.6686" x2="27.8088" y2="17.948" gradientUnits="userSpaceOnUse">
<stop stopColor="#026841" stopOpacity="0"/>
<stop offset="0.3243" stopColor="#046842" stopOpacity="0.324"/>
<stop offset="0.5509" stopColor="#0E6546" stopOpacity="0.551"/>
<stop offset="0.7476" stopColor="#1D614C" stopOpacity="0.748"/>
<stop offset="0.9263" stopColor="#335C54" stopOpacity="0.926"/>
<stop offset="1" stopColor="#3E5959"/>
</linearGradient>
<linearGradient id="paint9_linear_255_3792" x1="36.1257" y1="12.2693" x2="31.6666" y2="15.314" gradientUnits="userSpaceOnUse">
<stop stopColor="#026841" stopOpacity="0"/>
<stop offset="0.3243" stopColor="#046842" stopOpacity="0.324"/>
<stop offset="0.5509" stopColor="#0E6546" stopOpacity="0.551"/>
<stop offset="0.7476" stopColor="#1D614C" stopOpacity="0.748"/>
<stop offset="0.9263" stopColor="#335C54" stopOpacity="0.926"/>
<stop offset="1" stopColor="#3E5959"/>
</linearGradient>
<linearGradient id="paint10_linear_255_3792" x1="29.892" y1="16.0995" x2="32.7056" y2="18.9131" gradientUnits="userSpaceOnUse">
<stop stopColor="#A274BF"/>
<stop offset="0.1435" stopColor="#976FBB"/>
<stop offset="0.3928" stopColor="#7B61B3"/>
<stop offset="0.7158" stopColor="#4D4BA4"/>
<stop offset="1" stopColor="#1F3596"/>
</linearGradient>
<linearGradient id="paint11_linear_255_3792" x1="31.3891" y1="18.5563" x2="31.3891" y2="20.6247" gradientUnits="userSpaceOnUse">
<stop stopColor="#1F3596" stopOpacity="0"/>
<stop offset="0.2618" stopColor="#1E3190" stopOpacity="0.262"/>
<stop offset="0.6062" stopColor="#1D267F" stopOpacity="0.606"/>
<stop offset="0.9953" stopColor="#1B1464" stopOpacity="0.995"/>
<stop offset="1" stopColor="#1B1464"/>
</linearGradient>
<linearGradient id="paint12_linear_255_3792" x1="31.0645" y1="17.2723" x2="33.65" y2="19.8576" gradientUnits="userSpaceOnUse">
<stop stopColor="#1F3596" stopOpacity="0"/>
<stop offset="0.2618" stopColor="#1E3190" stopOpacity="0.262"/>
<stop offset="0.6062" stopColor="#1D267F" stopOpacity="0.606"/>
<stop offset="0.9953" stopColor="#1B1464" stopOpacity="0.995"/>
<stop offset="1" stopColor="#1B1464"/>
</linearGradient>
<linearGradient id="paint13_linear_255_3792" x1="18.5039" y1="8.99335" x2="19.7786" y2="11.2011" gradientUnits="userSpaceOnUse">
<stop stopColor="#78A91F"/>
<stop offset="0.1553" stopColor="#6DA423"/>
<stop offset="0.428" stopColor="#50992E"/>
<stop offset="0.7835" stopColor="#218741"/>
<stop offset="1" stopColor="#017B4E"/>
</linearGradient>
<linearGradient id="paint14_linear_255_3792" x1="19.8933" y1="10.98" x2="18.7531" y2="9.63683" gradientUnits="userSpaceOnUse">
<stop stopColor="#017B4E" stopOpacity="0"/>
<stop offset="0.473" stopColor="#01774B" stopOpacity="0.473"/>
<stop offset="0.8807" stopColor="#016D44" stopOpacity="0.881"/>
<stop offset="1" stopColor="#026841"/>
</linearGradient>
<linearGradient id="paint15_linear_255_3792" x1="19.9183" y1="9.64873" x2="17.7677" y2="10.8904" gradientUnits="userSpaceOnUse">
<stop stopColor="#017B4E" stopOpacity="0"/>
<stop offset="0.473" stopColor="#01774B" stopOpacity="0.473"/>
<stop offset="0.8807" stopColor="#016D44" stopOpacity="0.881"/>
<stop offset="1" stopColor="#026841"/>
</linearGradient>
<linearGradient id="paint16_linear_255_3792" x1="20.782" y1="9.08319" x2="19.1576" y2="10.1453" gradientUnits="userSpaceOnUse">
<stop stopColor="#017B4E" stopOpacity="0"/>
<stop offset="0.473" stopColor="#01774B" stopOpacity="0.473"/>
<stop offset="0.8807" stopColor="#016D44" stopOpacity="0.881"/>
<stop offset="1" stopColor="#026841"/>
</linearGradient>
<linearGradient id="paint17_linear_255_3792" x1="15.1002" y1="12.397" x2="17.308" y2="13.6717" gradientUnits="userSpaceOnUse">
<stop stopColor="#78A91F"/>
<stop offset="0.1553" stopColor="#6DA423"/>
<stop offset="0.428" stopColor="#50992E"/>
<stop offset="0.7835" stopColor="#218741"/>
<stop offset="1" stopColor="#017B4E"/>
</linearGradient>
<linearGradient id="paint18_linear_255_3792" x1="17.0866" y1="13.7865" x2="15.7435" y2="12.6463" gradientUnits="userSpaceOnUse">
<stop stopColor="#017B4E" stopOpacity="0"/>
<stop offset="0.473" stopColor="#01774B" stopOpacity="0.473"/>
<stop offset="0.8807" stopColor="#016D44" stopOpacity="0.881"/>
<stop offset="1" stopColor="#026841"/>
</linearGradient>
<linearGradient id="paint19_linear_255_3792" x1="15.7556" y1="13.8113" x2="16.9973" y2="11.6607" gradientUnits="userSpaceOnUse">
<stop stopColor="#017B4E" stopOpacity="0"/>
<stop offset="0.473" stopColor="#01774B" stopOpacity="0.473"/>
<stop offset="0.8807" stopColor="#016D44" stopOpacity="0.881"/>
<stop offset="1" stopColor="#026841"/>
</linearGradient>
<linearGradient id="paint20_linear_255_3792" x1="15.1902" y1="14.6753" x2="16.2523" y2="13.0509" gradientUnits="userSpaceOnUse">
<stop stopColor="#017B4E" stopOpacity="0"/>
<stop offset="0.473" stopColor="#01774B" stopOpacity="0.473"/>
<stop offset="0.8807" stopColor="#016D44" stopOpacity="0.881"/>
<stop offset="1" stopColor="#026841"/>
</linearGradient>
<linearGradient id="paint21_linear_255_3792" x1="22.3655" y1="10.9047" x2="19.9199" y2="20.9092" gradientUnits="userSpaceOnUse">
<stop stopColor="#FD4755"/>
<stop offset="1" stopColor="#A72B2B"/>
</linearGradient>
<linearGradient id="paint22_linear_255_3792" x1="23.1086" y1="10.974" x2="18.8226" y2="18.838" gradientUnits="userSpaceOnUse">
<stop stopColor="#FFA1AE"/>
<stop offset="0.1759" stopColor="#FF9AA8"/>
<stop offset="0.4315" stopColor="#FF8699"/>
<stop offset="0.7343" stopColor="#FF6780"/>
<stop offset="1" stopColor="#FF4565"/>
</linearGradient>
<linearGradient id="paint23_linear_255_3792" x1="19.8692" y1="13.7443" x2="18.2847" y2="12.1598" gradientUnits="userSpaceOnUse">
<stop stopColor="white" stopOpacity="0"/>
<stop offset="1" stopColor="white"/>
</linearGradient>
<linearGradient id="paint24_linear_255_3792" x1="21.0989" y1="14.974" x2="19.1295" y2="13.0046" gradientUnits="userSpaceOnUse">
<stop stopColor="white" stopOpacity="0"/>
<stop offset="1" stopColor="white"/>
</linearGradient>
<linearGradient id="paint25_linear_255_3792" x1="21.8016" y1="15.6767" x2="20.4836" y2="14.3587" gradientUnits="userSpaceOnUse">
<stop stopColor="white" stopOpacity="0"/>
<stop offset="1" stopColor="white"/>
</linearGradient>
<linearGradient id="paint26_linear_255_3792" x1="22.6271" y1="16.5022" x2="21.2541" y2="15.1292" gradientUnits="userSpaceOnUse">
<stop stopColor="white" stopOpacity="0"/>
<stop offset="1" stopColor="white"/>
</linearGradient>
<linearGradient id="paint27_linear_255_3792" x1="23.769" y1="17.644" x2="22.2307" y2="16.1057" gradientUnits="userSpaceOnUse">
<stop stopColor="white" stopOpacity="0"/>
<stop offset="1" stopColor="white"/>
</linearGradient>
<linearGradient id="paint28_linear_255_3792" x1="18.2583" y1="12.1326" x2="16.4047" y2="10.279" gradientUnits="userSpaceOnUse">
<stop stopColor="#D1F19E" stopOpacity="0"/>
<stop offset="1" stopColor="#78A91F"/>
</linearGradient>
<linearGradient id="paint29_linear_255_3792" x1="21.845" y1="9.83535" x2="19.84" y2="17.598" gradientUnits="userSpaceOnUse">
<stop stopColor="#FD4755" stopOpacity="0"/>
<stop offset="0.2613" stopColor="#F64452" stopOpacity="0.261"/>
<stop offset="0.6438" stopColor="#E33A4B" stopOpacity="0.644"/>
<stop offset="1" stopColor="#CA2E43"/>
</linearGradient>
<linearGradient id="paint30_linear_255_3792" x1="21.3227" y1="14.1841" x2="22.9805" y2="12.4165" gradientUnits="userSpaceOnUse">
<stop stopColor="#FD4755" stopOpacity="0"/>
<stop offset="0.2613" stopColor="#F64452" stopOpacity="0.261"/>
<stop offset="0.6438" stopColor="#E33A4B" stopOpacity="0.644"/>
<stop offset="1" stopColor="#CA2E43"/>
</linearGradient>
<linearGradient id="paint31_linear_255_3792" x1="22.0741" y1="17.5507" x2="23.8631" y2="21.5759" gradientUnits="userSpaceOnUse">
<stop stopColor="#A72B2B" stopOpacity="0"/>
<stop offset="0.2378" stopColor="#A22C2B" stopOpacity="0.238"/>
<stop offset="0.5507" stopColor="#912E29" stopOpacity="0.551"/>
<stop offset="0.9042" stopColor="#763227" stopOpacity="0.904"/>
<stop offset="1" stopColor="#6D3326"/>
</linearGradient>
<linearGradient id="paint32_linear_255_3792" x1="20.7755" y1="16.9617" x2="19.2475" y2="19.9806" gradientUnits="userSpaceOnUse">
<stop stopColor="#A72B2B" stopOpacity="0"/>
<stop offset="0.2378" stopColor="#A22C2B" stopOpacity="0.238"/>
<stop offset="0.5507" stopColor="#912E29" stopOpacity="0.551"/>
<stop offset="0.9042" stopColor="#763227" stopOpacity="0.904"/>
<stop offset="1" stopColor="#6D3326"/>
</linearGradient>
<linearGradient id="paint33_linear_255_3792" x1="24.4618" y1="17.4335" x2="27.2754" y2="20.2471" gradientUnits="userSpaceOnUse">
<stop stopColor="#A274BF"/>
<stop offset="0.1435" stopColor="#976FBB"/>
<stop offset="0.3928" stopColor="#7B61B3"/>
<stop offset="0.7158" stopColor="#4D4BA4"/>
<stop offset="1" stopColor="#1F3596"/>
</linearGradient>
<linearGradient id="paint34_linear_255_3792" x1="25.9589" y1="19.8903" x2="25.9589" y2="21.9588" gradientUnits="userSpaceOnUse">
<stop stopColor="#1F3596" stopOpacity="0"/>
<stop offset="0.2618" stopColor="#1E3190" stopOpacity="0.262"/>
<stop offset="0.6062" stopColor="#1D267F" stopOpacity="0.606"/>
<stop offset="0.9953" stopColor="#1B1464" stopOpacity="0.995"/>
<stop offset="1" stopColor="#1B1464"/>
</linearGradient>
<linearGradient id="paint35_linear_255_3792" x1="25.6343" y1="18.6062" x2="28.2198" y2="21.1917" gradientUnits="userSpaceOnUse">
<stop stopColor="#1F3596" stopOpacity="0"/>
<stop offset="0.2618" stopColor="#1E3190" stopOpacity="0.262"/>
<stop offset="0.6062" stopColor="#1D267F" stopOpacity="0.606"/>
<stop offset="0.9953" stopColor="#1B1464" stopOpacity="0.995"/>
<stop offset="1" stopColor="#1B1464"/>
</linearGradient>
<linearGradient id="paint36_linear_255_3792" x1="12.9911" y1="18.8722" x2="14.4761" y2="21.0535" gradientUnits="userSpaceOnUse">
<stop stopColor="#FFA1AE"/>
<stop offset="0.1759" stopColor="#FF9AA8"/>
<stop offset="0.4315" stopColor="#FF8699"/>
<stop offset="0.7343" stopColor="#FF6780"/>
<stop offset="1" stopColor="#FF4565"/>
</linearGradient>
<linearGradient id="paint37_linear_255_3792" x1="14.5626" y1="22.1403" x2="14.5626" y2="24.2088" gradientUnits="userSpaceOnUse">
<stop stopColor="#FD4755" stopOpacity="0"/>
<stop offset="0.2613" stopColor="#F64452" stopOpacity="0.261"/>
<stop offset="0.6438" stopColor="#E33A4B" stopOpacity="0.644"/>
<stop offset="1" stopColor="#CA2E43"/>
</linearGradient>
<linearGradient id="paint38_linear_255_3792" x1="14.2382" y1="20.8562" x2="16.8235" y2="23.4417" gradientUnits="userSpaceOnUse">
<stop stopColor="#FD4755" stopOpacity="0"/>
<stop offset="0.2613" stopColor="#F64452" stopOpacity="0.261"/>
<stop offset="0.6438" stopColor="#E33A4B" stopOpacity="0.644"/>
<stop offset="1" stopColor="#CA2E43"/>
</linearGradient>
<linearGradient id="paint39_linear_255_3792" x1="16.3752" y1="19.9922" x2="23.1904" y2="23.2482" gradientUnits="userSpaceOnUse">
<stop stopColor="#FFFBF5"/>
<stop offset="0.4893" stopColor="#FFF8EC"/>
<stop offset="1" stopColor="#FFF2DE"/>
</linearGradient>
<linearGradient id="paint40_linear_255_3792" x1="13.7312" y1="21.9338" x2="17.3789" y2="37.7556" gradientUnits="userSpaceOnUse">
<stop stopColor="#FFFBF5"/>
<stop offset="0.4893" stopColor="#FFF8EC"/>
<stop offset="1" stopColor="#FFF2DE"/>
</linearGradient>
<linearGradient id="paint41_linear_255_3792" x1="15.1313" y1="31.5707" x2="13.7653" y2="37.5972" gradientUnits="userSpaceOnUse">
<stop stopColor="#FFF2DE" stopOpacity="0"/>
<stop offset="0.2223" stopColor="#FFEDD7" stopOpacity="0.222"/>
<stop offset="0.5516" stopColor="#FFDFC3" stopOpacity="0.552"/>
<stop offset="0.9456" stopColor="#FFC8A2" stopOpacity="0.946"/>
<stop offset="1" stopColor="#FFC49D"/>
</linearGradient>
<linearGradient id="paint42_linear_255_3792" x1="19.8767" y1="33.5433" x2="21.9086" y2="37.3711" gradientUnits="userSpaceOnUse">
<stop stopColor="#FFF2DE" stopOpacity="0"/>
<stop offset="0.2223" stopColor="#FFEDD7" stopOpacity="0.222"/>
<stop offset="0.5516" stopColor="#FFDFC3" stopOpacity="0.552"/>
<stop offset="0.9456" stopColor="#FFC8A2" stopOpacity="0.946"/>
<stop offset="1" stopColor="#FFC49D"/>
</linearGradient>
<linearGradient id="paint43_linear_255_3792" x1="23.9974" y1="27.6173" x2="26.248" y2="28.6783" gradientUnits="userSpaceOnUse">
<stop stopColor="#FFF2DE" stopOpacity="0"/>
<stop offset="0.2223" stopColor="#FFEDD7" stopOpacity="0.222"/>
<stop offset="0.5516" stopColor="#FFDFC3" stopOpacity="0.552"/>
<stop offset="0.9456" stopColor="#FFC8A2" stopOpacity="0.946"/>
<stop offset="1" stopColor="#FFC49D"/>
</linearGradient>
<linearGradient id="paint44_linear_255_3792" x1="19.2113" y1="24.5254" x2="22.3588" y2="22.053" gradientUnits="userSpaceOnUse">
<stop stopColor="#FFF2DE" stopOpacity="0"/>
<stop offset="0.2223" stopColor="#FFEDD7" stopOpacity="0.222"/>
<stop offset="0.5516" stopColor="#FFDFC3" stopOpacity="0.552"/>
<stop offset="0.9456" stopColor="#FFC8A2" stopOpacity="0.946"/>
<stop offset="1" stopColor="#FFC49D"/>
</linearGradient>
<linearGradient id="paint45_linear_255_3792" x1="10.8564" y1="24.2751" x2="6.21922" y2="25.0635" gradientUnits="userSpaceOnUse">
<stop stopColor="#FFF2DE" stopOpacity="0"/>
<stop offset="0.2223" stopColor="#FFEDD7" stopOpacity="0.222"/>
<stop offset="0.5516" stopColor="#FFDFC3" stopOpacity="0.552"/>
<stop offset="0.9456" stopColor="#FFC8A2" stopOpacity="0.946"/>
<stop offset="1" stopColor="#FFC49D"/>
</linearGradient>
<linearGradient id="paint46_linear_255_3792" x1="29.2449" y1="18.5656" x2="33.8475" y2="38.5291" gradientUnits="userSpaceOnUse">
<stop stopColor="#FFFBF5"/>
<stop offset="0.4893" stopColor="#FFF8EC"/>
<stop offset="1" stopColor="#FFF2DE"/>
</linearGradient>
<linearGradient id="paint47_linear_255_3792" x1="31.0117" y1="30.7252" x2="29.288" y2="38.3294" gradientUnits="userSpaceOnUse">
<stop stopColor="#FFF2DE" stopOpacity="0"/>
<stop offset="0.2223" stopColor="#FFEDD7" stopOpacity="0.222"/>
<stop offset="0.5516" stopColor="#FFDFC3" stopOpacity="0.552"/>
<stop offset="0.9456" stopColor="#FFC8A2" stopOpacity="0.946"/>
<stop offset="1" stopColor="#FFC49D"/>
</linearGradient>
<linearGradient id="paint48_linear_255_3792" x1="36.999" y1="33.2139" x2="39.5628" y2="38.0437" gradientUnits="userSpaceOnUse">
<stop stopColor="#FFF2DE" stopOpacity="0"/>
<stop offset="0.2223" stopColor="#FFEDD7" stopOpacity="0.222"/>
<stop offset="0.5516" stopColor="#FFDFC3" stopOpacity="0.552"/>
<stop offset="0.9456" stopColor="#FFC8A2" stopOpacity="0.946"/>
<stop offset="1" stopColor="#FFC49D"/>
</linearGradient>
<linearGradient id="paint49_linear_255_3792" x1="42.1985" y1="25.7367" x2="45.0384" y2="27.0756" gradientUnits="userSpaceOnUse">
<stop stopColor="#FFF2DE" stopOpacity="0"/>
<stop offset="0.2223" stopColor="#FFEDD7" stopOpacity="0.222"/>
<stop offset="0.5516" stopColor="#FFDFC3" stopOpacity="0.552"/>
<stop offset="0.9456" stopColor="#FFC8A2" stopOpacity="0.946"/>
<stop offset="1" stopColor="#FFC49D"/>
</linearGradient>
<linearGradient id="paint50_linear_255_3792" x1="36.1598" y1="21.8357" x2="40.1311" y2="18.716" gradientUnits="userSpaceOnUse">
<stop stopColor="#FFF2DE" stopOpacity="0"/>
<stop offset="0.2223" stopColor="#FFEDD7" stopOpacity="0.222"/>
<stop offset="0.5516" stopColor="#FFDFC3" stopOpacity="0.552"/>
<stop offset="0.9456" stopColor="#FFC8A2" stopOpacity="0.946"/>
<stop offset="1" stopColor="#FFC49D"/>
</linearGradient>
<linearGradient id="paint51_linear_255_3792" x1="25.6177" y1="21.5198" x2="19.7667" y2="22.5145" gradientUnits="userSpaceOnUse">
<stop stopColor="#FFF2DE" stopOpacity="0"/>
<stop offset="0.2223" stopColor="#FFEDD7" stopOpacity="0.222"/>
<stop offset="0.5516" stopColor="#FFDFC3" stopOpacity="0.552"/>
<stop offset="0.9456" stopColor="#FFC8A2" stopOpacity="0.946"/>
<stop offset="1" stopColor="#FFC49D"/>
</linearGradient>
<linearGradient id="paint52_linear_255_3792" x1="24.7417" y1="21.0199" x2="24.7417" y2="24.7803" gradientUnits="userSpaceOnUse">
<stop stopColor="#FFF2DE" stopOpacity="0"/>
<stop offset="0.2223" stopColor="#FFEDD7" stopOpacity="0.222"/>
<stop offset="0.5516" stopColor="#FFDFC3" stopOpacity="0.552"/>
<stop offset="0.9456" stopColor="#FFC8A2" stopOpacity="0.946"/>
<stop offset="1" stopColor="#FFC49D"/>
</linearGradient>
<linearGradient id="paint53_linear_255_3792" x1="4.64453" y1="23.5717" x2="7.45801" y2="26.3853" gradientUnits="userSpaceOnUse">
<stop stopColor="#A274BF"/>
<stop offset="0.1435" stopColor="#976FBB"/>
<stop offset="0.3928" stopColor="#7B61B3"/>
<stop offset="0.7158" stopColor="#4D4BA4"/>
<stop offset="1" stopColor="#1F3596"/>
</linearGradient>
<linearGradient id="paint54_linear_255_3792" x1="6.1415" y1="26.0284" x2="6.1415" y2="28.0969" gradientUnits="userSpaceOnUse">
<stop stopColor="#1F3596" stopOpacity="0"/>
<stop offset="0.2618" stopColor="#1E3190" stopOpacity="0.262"/>
<stop offset="0.6062" stopColor="#1D267F" stopOpacity="0.606"/>
<stop offset="0.9953" stopColor="#1B1464" stopOpacity="0.995"/>
<stop offset="1" stopColor="#1B1464"/>
</linearGradient>
<linearGradient id="paint55_linear_255_3792" x1="5.81704" y1="24.744" x2="8.40239" y2="27.3294" gradientUnits="userSpaceOnUse">
<stop stopColor="#1F3596" stopOpacity="0"/>
<stop offset="0.2618" stopColor="#1E3190" stopOpacity="0.262"/>
<stop offset="0.6062" stopColor="#1D267F" stopOpacity="0.606"/>
<stop offset="0.9953" stopColor="#1B1464" stopOpacity="0.995"/>
<stop offset="1" stopColor="#1B1464"/>
</linearGradient>
<linearGradient id="paint56_linear_255_3792" x1="43.7226" y1="23.5717" x2="46.5361" y2="26.3853" gradientUnits="userSpaceOnUse">
<stop stopColor="#A274BF"/>
<stop offset="0.1435" stopColor="#976FBB"/>
<stop offset="0.3928" stopColor="#7B61B3"/>
<stop offset="0.7158" stopColor="#4D4BA4"/>
<stop offset="1" stopColor="#1F3596"/>
</linearGradient>
<linearGradient id="paint57_linear_255_3792" x1="45.2196" y1="26.0284" x2="45.2196" y2="28.0969" gradientUnits="userSpaceOnUse">
<stop stopColor="#1F3596" stopOpacity="0"/>
<stop offset="0.2618" stopColor="#1E3190" stopOpacity="0.262"/>
<stop offset="0.6062" stopColor="#1D267F" stopOpacity="0.606"/>
<stop offset="0.9953" stopColor="#1B1464" stopOpacity="0.995"/>
<stop offset="1" stopColor="#1B1464"/>
</linearGradient>
<linearGradient id="paint58_linear_255_3792" x1="44.8951" y1="24.744" x2="47.4804" y2="27.3294" gradientUnits="userSpaceOnUse">
<stop stopColor="#1F3596" stopOpacity="0"/>
<stop offset="0.2618" stopColor="#1E3190" stopOpacity="0.262"/>
<stop offset="0.6062" stopColor="#1D267F" stopOpacity="0.606"/>
<stop offset="0.9953" stopColor="#1B1464" stopOpacity="0.995"/>
<stop offset="1" stopColor="#1B1464"/>
</linearGradient>
<linearGradient id="paint59_linear_255_3792" x1="27.7572" y1="23.3398" x2="30.5708" y2="26.1533" gradientUnits="userSpaceOnUse">
<stop stopColor="#FFA1AE"/>
<stop offset="0.1759" stopColor="#FF9AA8"/>
<stop offset="0.4315" stopColor="#FF8699"/>
<stop offset="0.7343" stopColor="#FF6780"/>
<stop offset="1" stopColor="#FF4565"/>
</linearGradient>
<linearGradient id="paint60_linear_255_3792" x1="29.2543" y1="25.7966" x2="29.2543" y2="27.865" gradientUnits="userSpaceOnUse">
<stop stopColor="#FD4755" stopOpacity="0"/>
<stop offset="0.2613" stopColor="#F64452" stopOpacity="0.261"/>
<stop offset="0.6438" stopColor="#E33A4B" stopOpacity="0.644"/>
<stop offset="1" stopColor="#CA2E43"/>
</linearGradient>
<linearGradient id="paint61_linear_255_3792" x1="28.9297" y1="24.5126" x2="31.5151" y2="27.0979" gradientUnits="userSpaceOnUse">
<stop stopColor="#FD4755" stopOpacity="0"/>
<stop offset="0.2613" stopColor="#F64452" stopOpacity="0.261"/>
<stop offset="0.6438" stopColor="#E33A4B" stopOpacity="0.644"/>
<stop offset="1" stopColor="#CA2E43"/>
</linearGradient>
<linearGradient id="paint62_linear_255_3792" x1="24.2399" y1="35.7614" x2="29.1858" y2="43.2079" gradientUnits="userSpaceOnUse">
<stop stopColor="#FEF0AE"/>
<stop offset="1" stopColor="#FAC600"/>
</linearGradient>
<linearGradient id="paint63_linear_255_3792" x1="25.4998" y1="40.0509" x2="25.4998" y2="44.8387" gradientUnits="userSpaceOnUse">
<stop stopColor="#FE9738" stopOpacity="0"/>
<stop offset="1" stopColor="#FE9738"/>
</linearGradient>
<linearGradient id="paint64_linear_255_3792" x1="31.0169" y1="40.8416" x2="34.4771" y2="43.4943" gradientUnits="userSpaceOnUse">
<stop stopColor="#FE9738" stopOpacity="0"/>
<stop offset="1" stopColor="#FE9738"/>
</linearGradient>
<linearGradient id="paint65_linear_255_3792" x1="22.9689" y1="24.1145" x2="32.9047" y2="39.074" gradientUnits="userSpaceOnUse">
<stop stopColor="#FEF0AE"/>
<stop offset="1" stopColor="#FAC600"/>
</linearGradient>
<linearGradient id="paint66_linear_255_3792" x1="25.5" y1="32.7314" x2="25.5" y2="42.35" gradientUnits="userSpaceOnUse">
<stop stopColor="#FE9738" stopOpacity="0"/>
<stop offset="1" stopColor="#FE9738"/>
</linearGradient>
<linearGradient id="paint67_linear_255_3792" x1="-9.40869" y1="11.6998" x2="37.5128" y2="36.7617" gradientUnits="userSpaceOnUse">
<stop stopColor="#FE9738" stopOpacity="0"/>
<stop offset="1" stopColor="#FE9738"/>
</linearGradient>
<linearGradient id="paint68_linear_255_3792" x1="36.5833" y1="34.3204" x2="43.5344" y2="39.6496" gradientUnits="userSpaceOnUse">
<stop stopColor="#FE9738" stopOpacity="0"/>
<stop offset="1" stopColor="#FE9738"/>
</linearGradient>
<linearGradient id="paint69_linear_255_3792" x1="-22.3912" y1="30.3275" x2="30.7297" y2="30.3275" gradientUnits="userSpaceOnUse">
<stop stopColor="#FE9738" stopOpacity="0"/>
<stop offset="1" stopColor="#FE9738"/>
</linearGradient>
<clipPath id="clip0_255_3792">
<rect width="50" height="50" fill="white" transform="translate(0.5)"/>
</clipPath>
</defs>
</svg>
