<svg width="51" height="50" viewBox="0 0 51 50" fill="none" xmlns="http://www.w3.org/2000/svg">
<g clipPath="url(#clip0_255_2399)">
<path d="M22.4612 9.59814C22.4612 9.59814 7.27152 18.8911 1.65544 44.1459C1.2375 46.0252 3.38603 47.4132 4.92456 46.256C11.6579 41.1916 25.972 32.147 45.7783 28.8957C48.0358 28.5251 49.1755 25.9779 47.9475 24.0476C44.9557 19.345 37.9503 12.1058 22.4612 9.59814Z" fill="url(#paint0_linear_255_2399)"/>
<path d="M47.9105 23.9902C26.1478 26.6353 10.436 36.5073 3.28214 41.888C2.90547 42.1713 2.49234 42.3015 2.0892 42.3103C1.9393 42.9145 1.79322 43.5254 1.65459 44.149C1.23704 46.0271 3.38685 47.4125 4.92449 46.256C11.659 41.1907 25.977 32.1438 45.7887 28.8941C48.033 28.5259 49.1774 25.9854 47.9584 24.0654C47.9425 24.0404 47.9266 24.0153 47.9105 23.9902Z" fill="url(#paint1_linear_255_2399)"/>
<path d="M48.7462 25.8621C48.7462 25.8621 44.7901 11.6609 21.117 8.37891C21.117 8.37891 5.9971 17.5427 0.549849 41.8563C0.144359 43.6664 2.30054 44.9586 3.83132 43.8227C4.41573 43.3891 5.05759 42.9255 5.75573 42.4381C6.62965 41.8279 7.82956 42.4542 7.82956 43.52V43.5959C7.82956 44.7227 8.74299 45.6362 9.86985 45.6362C10.9967 45.6362 11.9101 44.7227 11.9101 43.5959V41.4585C11.9101 39.6025 12.923 37.8948 14.5526 37.0066C18.5408 34.8325 23.2647 32.6169 28.651 30.6947C29.5097 30.3883 30.4136 31.0259 30.4136 31.9376C30.4136 33.0645 31.327 33.9779 32.4539 33.9779C33.5807 33.9779 34.4942 33.0645 34.4942 31.9376V29.3116C34.4942 29.0162 34.6906 28.7568 34.975 28.6768L34.9883 28.6731C35.4112 28.5541 35.8308 28.872 35.8308 29.3114V35.9598C35.8308 37.0867 36.7443 38.0001 37.8711 38.0001C38.998 38.0001 39.9114 37.0867 39.9114 35.9598V30.2859C39.9114 28.6031 41.0998 27.1491 42.7517 26.8285C44.6948 26.4516 46.6936 26.1263 48.7462 25.8621Z" fill="url(#paint2_linear_255_2399)"/>
<path d="M21.1169 8.37939C21.1169 8.37939 18.23 10.1293 14.5247 14.128L33.8342 33.4375C34.239 33.0647 34.4942 32.5318 34.4942 31.9381V29.312C34.4942 29.0167 34.6906 28.7573 34.975 28.6773L34.9883 28.6736C35.4112 28.5546 35.8308 28.8725 35.8308 29.3118V35.4343L38.3406 37.9441C39.2407 37.7318 39.9114 36.9252 39.9114 35.9603V30.2863C39.9114 28.6035 41.0998 27.1495 42.7517 26.8289C44.6947 26.4518 46.6934 26.1266 48.746 25.8625C48.7461 25.8625 44.7901 11.6613 21.1169 8.37939Z" fill="url(#paint3_linear_255_2399)"/>
<path d="M26.0513 13.1466C25.8511 12.9199 25.6187 12.7044 25.3534 12.5043C23.1901 10.8729 19.6825 10.8729 17.5192 12.5043C15.4684 14.0508 15.3631 16.5075 17.2005 18.1488L32.9632 33.9115C33.8431 33.685 34.4942 32.8885 34.4942 31.9379V29.3118C34.4942 29.0164 34.6907 28.7571 34.975 28.6771L34.9883 28.6734C35.4113 28.5544 35.8309 28.8723 35.8309 29.3116V35.9601C35.8309 36.4481 36.0027 36.8958 36.2885 37.2469C36.4275 37.3911 36.581 37.5297 36.7475 37.6624C37.0699 37.8756 37.4558 38.0005 37.8711 38.0005C38.9979 38.0005 39.9114 37.087 39.9114 35.9602V30.2862C39.9114 29.3849 40.2525 28.5495 40.8229 27.9184L26.0513 13.1466Z" fill="url(#paint4_linear_255_2399)"/>
<path d="M18.4181 19.7029C17.6679 18.8356 16.3129 18.2563 14.7658 18.2563C12.4053 18.2563 10.4917 19.6046 10.4917 21.2678C10.4917 21.9777 10.8412 22.6298 11.4244 23.1446L21.7176 33.4701C23.8875 32.5054 26.1999 31.5695 28.6512 30.6947C28.8764 30.6143 29.1043 30.6003 29.3187 30.6377L18.4181 19.7029Z" fill="url(#paint5_linear_255_2399)"/>
<path d="M35.9435 22.1487C35.1838 21.3134 33.8558 20.7593 32.3433 20.7593C29.9828 20.7593 28.0691 22.1075 28.0691 23.7707C28.0691 23.8387 28.0735 23.9058 28.0797 23.9726C26.2352 22.9971 23.674 23.1298 22.0261 24.3725C20.2912 25.6808 20.1866 27.7527 21.7118 29.1534L24.7425 32.1841C26.0033 31.6729 27.3065 31.1748 28.651 30.695C29.5096 30.3886 30.4136 31.0261 30.4136 31.9379C30.4136 33.0648 31.327 33.9782 32.4538 33.9782C33.5807 33.9782 34.4941 33.0648 34.4941 31.9379V29.3118C34.4941 29.0164 34.6906 28.7571 34.9749 28.6771L34.9883 28.6734C35.4112 28.5544 35.8308 28.8723 35.8308 29.3116V35.9601C35.8308 37.0869 36.7442 38.0004 37.8711 38.0004C38.998 38.0004 39.9114 37.0869 39.9114 35.9601V30.2859C39.9114 29.1623 40.4418 28.1412 41.2857 27.4909L35.9435 22.1487Z" fill="url(#paint6_linear_255_2399)"/>
<path d="M21.419 33.6037L17.9124 30.0971C17.1528 29.2617 15.8247 28.7075 14.3119 28.7075C12.4603 28.7075 10.884 29.5373 10.2904 30.6978C8.56055 30.1297 6.47242 30.3781 5.05761 31.4451C3.32261 32.7534 3.2181 34.8254 4.7434 36.2259L11.9102 43.3927V41.4589C11.9102 39.6029 12.923 37.8952 14.5526 37.0069C16.6422 35.8676 18.9358 34.7175 21.419 33.6037Z" fill="url(#paint7_linear_255_2399)"/>
<path d="M10.0861 25.0854C10.1801 24.9081 10.1126 24.6882 9.93547 24.5942C9.75821 24.5002 9.53831 24.5676 9.44429 24.7448C9.35027 24.922 9.41772 25.1419 9.59488 25.236C9.77204 25.3301 9.99194 25.2626 10.0861 25.0854Z" fill="#FFEAA2"/>
<path d="M8.89341 25.2317C8.75351 25.1575 8.57988 25.2108 8.50566 25.3507C8.43145 25.4906 8.48468 25.6642 8.62459 25.7384C8.76449 25.8126 8.93812 25.7594 9.01233 25.6195C9.08655 25.4795 9.03331 25.306 8.89341 25.2317Z" fill="#FFEAA2"/>
<path d="M9.20849 26.7267C9.12418 26.682 9.01947 26.7141 8.97477 26.7984C8.93006 26.8827 8.96212 26.9874 9.04644 27.0321C9.13075 27.0769 9.23545 27.0448 9.28016 26.9604C9.32496 26.8761 9.29291 26.7715 9.20849 26.7267Z" fill="#FFEAA2"/>
<path d="M11.6879 27.2043C11.4873 27.1986 11.3202 27.3566 11.3146 27.5571C11.3089 27.7577 11.467 27.9248 11.6674 27.9304C11.868 27.9361 12.0352 27.7781 12.0408 27.5776C12.0465 27.377 11.8885 27.2098 11.6879 27.2043Z" fill="#FFEAA2"/>
<path d="M13.578 24.6349C13.4197 24.6304 13.2877 24.7552 13.2833 24.9134C13.2788 25.0717 13.4036 25.2037 13.5618 25.2082C13.7202 25.2127 13.8521 25.0879 13.8567 24.9296C13.8611 24.7713 13.7364 24.6393 13.578 24.6349Z" fill="#FFEAA2"/>
<path d="M10.9137 24.7437C10.8182 24.7411 10.7387 24.8163 10.7359 24.9117C10.7333 25.0072 10.8085 25.0867 10.9038 25.0894C10.9993 25.0921 11.0788 25.0169 11.0816 24.9215C11.0843 24.826 11.0091 24.7465 10.9137 24.7437Z" fill="#FFEAA2"/>
<path d="M10.3432 26.2328C10.1987 26.2657 10.1082 26.4096 10.141 26.5542C10.174 26.6987 10.3178 26.7892 10.4624 26.7563C10.6069 26.7234 10.6974 26.5796 10.6645 26.435C10.6315 26.2905 10.4877 26.2 10.3432 26.2328Z" fill="#FFEAA2"/>
<path d="M10.6437 25.4834C10.5296 25.5093 10.4581 25.623 10.4841 25.7371C10.5101 25.8512 10.6237 25.9227 10.7378 25.8967C10.8519 25.8707 10.9234 25.7571 10.8974 25.643C10.8713 25.5288 10.7578 25.4574 10.6437 25.4834Z" fill="#FFEAA2"/>
<path d="M9.78214 25.8983C9.85097 25.8827 9.89401 25.8142 9.87832 25.7454C9.86263 25.6766 9.7942 25.6335 9.72538 25.6492C9.65656 25.6649 9.61352 25.7333 9.6292 25.8022C9.64489 25.871 9.71332 25.914 9.78214 25.8983Z" fill="#FFEAA2"/>
<path d="M16.8207 24.0121C16.9147 23.8349 16.8472 23.615 16.6701 23.521C16.4928 23.4269 16.2729 23.4944 16.1789 23.6715C16.0849 23.8488 16.1523 24.0687 16.3295 24.1627C16.5068 24.2567 16.7267 24.1893 16.8207 24.0121Z" fill="#FFEAA2"/>
<path d="M15.0621 27.136C14.9222 27.0618 14.7486 27.1151 14.6744 27.255C14.6001 27.3949 14.6534 27.5685 14.7933 27.6427C14.9332 27.7169 15.1068 27.6637 15.181 27.5238C15.2552 27.3839 15.202 27.2103 15.0621 27.136Z" fill="#FFEAA2"/>
<path d="M14.6084 25.5583C14.5241 25.5135 14.4194 25.5457 14.3747 25.63C14.33 25.7143 14.362 25.819 14.4463 25.8637C14.5307 25.9085 14.6354 25.8763 14.6801 25.792C14.7248 25.7077 14.6927 25.6031 14.6084 25.5583Z" fill="#FFEAA2"/>
<path d="M18.7993 24.5021C18.5987 24.4964 18.4315 24.6545 18.4259 24.8549C18.4202 25.0555 18.5783 25.2227 18.7788 25.2283C18.9794 25.234 19.1465 25.0759 19.1521 24.8754C19.1578 24.6749 18.9999 24.5078 18.7993 24.5021Z" fill="#FFEAA2"/>
<path d="M18.759 24.0175C18.7635 23.8591 18.6387 23.7272 18.4804 23.7228C18.322 23.7184 18.1901 23.8431 18.1857 24.0013C18.1812 24.1596 18.306 24.2916 18.4642 24.2961C18.6225 24.3005 18.7545 24.1758 18.759 24.0175Z" fill="#FFEAA2"/>
<path d="M17.6483 23.6705C17.5528 23.6678 17.4733 23.7429 17.4705 23.8384C17.4679 23.9339 17.5431 24.0134 17.6385 24.0162C17.734 24.0188 17.8135 23.9436 17.8162 23.8482C17.8189 23.7527 17.7437 23.6732 17.6483 23.6705Z" fill="#FFEAA2"/>
<path d="M16.0819 26.1801C15.9374 26.213 15.8469 26.3569 15.8798 26.5015C15.9127 26.646 16.0565 26.7365 16.2012 26.7036C16.3457 26.6707 16.4362 26.5269 16.4033 26.3823C16.3704 26.2377 16.2265 26.1472 16.0819 26.1801Z" fill="#FFEAA2"/>
<path d="M17.3783 24.4106C17.2642 24.4366 17.1927 24.5502 17.2187 24.6642C17.2447 24.7784 17.3583 24.8498 17.4723 24.8238C17.5865 24.7979 17.6579 24.6842 17.6319 24.5702C17.6061 24.4561 17.4924 24.3846 17.3783 24.4106Z" fill="#FFEAA2"/>
<path d="M16.5168 24.8251C16.5856 24.8094 16.6286 24.741 16.6129 24.6722C16.5973 24.6033 16.5288 24.5603 16.46 24.576C16.3912 24.5917 16.3481 24.6601 16.3638 24.7289C16.3794 24.7976 16.4479 24.8408 16.5168 24.8251Z" fill="#FFEAA2"/>
<path d="M20.5873 29.8403C20.6813 29.663 20.6138 29.4431 20.4367 29.3491C20.2594 29.2551 20.0395 29.3225 19.9455 29.4997C19.8515 29.6769 19.9189 29.8968 20.0961 29.9908C20.2734 30.085 20.4933 30.0175 20.5873 29.8403Z" fill="#FFEAA2"/>
<path d="M19.3946 29.9866C19.2547 29.9124 19.0811 29.9656 19.0069 30.1055C18.9327 30.2454 18.9859 30.4191 19.1258 30.4933C19.2657 30.5675 19.4393 30.5143 19.5136 30.3744C19.5879 30.2344 19.5345 30.0608 19.3946 29.9866Z" fill="#FFEAA2"/>
<path d="M19.71 31.4816C19.6256 31.4369 19.5209 31.469 19.4762 31.5533C19.4315 31.6376 19.4636 31.7423 19.5479 31.787C19.6322 31.8317 19.7369 31.7996 19.7816 31.7153C19.8263 31.631 19.7943 31.5264 19.71 31.4816Z" fill="#FFEAA2"/>
<path d="M22.1892 31.9591C21.9886 31.9534 21.8214 32.1115 21.8158 32.312C21.8101 32.5126 21.9682 32.6797 22.1687 32.6853C22.3693 32.691 22.5364 32.533 22.542 32.3325C22.5476 32.132 22.3896 31.9647 22.1892 31.9591Z" fill="#FFEAA2"/>
<path d="M38.4328 23.771C38.365 23.6279 38.194 23.5668 38.0508 23.6346C37.9077 23.7023 37.8466 23.8734 37.9144 24.0165C37.9822 24.1597 38.1532 24.2207 38.2963 24.153C38.4395 24.0853 38.5006 23.9142 38.4328 23.771Z" fill="#FFEAA2"/>
<path d="M21.4149 29.4986C21.3194 29.496 21.2399 29.5712 21.2371 29.6665C21.2345 29.762 21.3097 29.8415 21.4051 29.8443C21.5006 29.8469 21.5801 29.7717 21.5828 29.6763C21.5855 29.5809 21.5103 29.5013 21.4149 29.4986Z" fill="#FFEAA2"/>
<path d="M20.8444 30.9882C20.6999 31.0211 20.6094 31.1649 20.6422 31.3096C20.6752 31.4541 20.819 31.5446 20.9636 31.5117C21.1081 31.4788 21.1986 31.3349 21.1658 31.1903C21.1329 31.0457 20.9889 30.9553 20.8444 30.9882Z" fill="#FFEAA2"/>
<path d="M21.1449 30.2387C21.0308 30.2647 20.9593 30.3783 20.9853 30.4925C21.0113 30.6066 21.1249 30.678 21.2389 30.6521C21.3531 30.6261 21.4245 30.5125 21.3985 30.3983C21.3726 30.2842 21.259 30.2128 21.1449 30.2387Z" fill="#FFEAA2"/>
<path d="M20.2834 30.6532C20.3522 30.6375 20.3952 30.5691 20.3795 30.5003C20.3639 30.4315 20.2954 30.3884 20.2266 30.4041C20.1578 30.4198 20.1147 30.4882 20.1304 30.557C20.1461 30.6259 20.2146 30.6689 20.2834 30.6532Z" fill="#FFEAA2"/>
<path d="M20.6127 13.9926C20.7067 13.8153 20.6392 13.5954 20.4621 13.5014C20.2848 13.4074 20.0649 13.4749 19.9709 13.652C19.8769 13.8293 19.9443 14.0492 20.1215 14.1432C20.2987 14.2373 20.5186 14.1699 20.6127 13.9926Z" fill="#FFEAA2"/>
<path d="M36.8757 26.2277C36.8785 26.0694 36.7523 25.9388 36.594 25.9361C36.4356 25.9333 36.305 26.0595 36.3023 26.2178C36.2995 26.3762 36.4257 26.5068 36.5841 26.5095C36.7424 26.5123 36.873 26.3862 36.8757 26.2277Z" fill="#FFEAA2"/>
<path d="M38.0765 25.1085C38.0782 25.013 38.0021 24.9343 37.9066 24.9326C37.8111 24.931 37.7324 25.0071 37.7307 25.1025C37.7291 25.198 37.8052 25.2768 37.9006 25.2784C37.9961 25.2801 38.0749 25.204 38.0765 25.1085Z" fill="#FFEAA2"/>
<path d="M22.5913 14.4826C22.3907 14.4769 22.2235 14.6349 22.2179 14.8354C22.2122 15.036 22.3703 15.2032 22.5708 15.2087C22.7714 15.2144 22.9385 15.0564 22.9441 14.8559C22.9498 14.6554 22.7917 14.4883 22.5913 14.4826Z" fill="#FFEAA2"/>
<path d="M22.551 13.9979C22.5555 13.8396 22.4307 13.7077 22.2724 13.7032C22.114 13.6987 21.9821 13.8235 21.9777 13.9818C21.9731 14.1401 22.098 14.2721 22.2562 14.2766C22.4145 14.281 22.5465 14.1563 22.551 13.9979Z" fill="#FFEAA2"/>
<path d="M21.4403 13.6509C21.3448 13.6483 21.2653 13.7234 21.2625 13.8189C21.2599 13.9144 21.3351 13.9939 21.4305 13.9966C21.526 13.9993 21.6055 13.9241 21.6082 13.8287C21.611 13.7332 21.5358 13.6536 21.4403 13.6509Z" fill="#FFEAA2"/>
<path d="M38.1905 26.7036C38.0956 26.5897 37.9264 26.5743 37.8125 26.6691C37.6985 26.764 37.6831 26.9332 37.778 27.0471C37.8729 27.161 38.0421 27.1764 38.156 27.0816C38.2699 26.9867 38.2854 26.8175 38.1905 26.7036Z" fill="#FFEAA2"/>
<path d="M21.1703 14.3911C21.0562 14.4171 20.9847 14.5307 21.0107 14.6447C21.0367 14.7588 21.1503 14.8303 21.2644 14.8043C21.3785 14.7783 21.45 14.6647 21.424 14.5507C21.398 14.4365 21.2844 14.3651 21.1703 14.3911Z" fill="#FFEAA2"/>
<path d="M20.3088 14.8056C20.3776 14.7899 20.4206 14.7214 20.4049 14.6526C20.3892 14.5838 20.3208 14.5408 20.252 14.5564C20.1832 14.5721 20.1401 14.6406 20.1558 14.7094C20.1715 14.7782 20.2399 14.8213 20.3088 14.8056Z" fill="#FFEAA2"/>
<path d="M30.5236 21.5204C30.417 21.6904 30.4684 21.9146 30.6384 22.0212C30.8084 22.1278 31.0326 22.0764 31.1391 21.9064C31.2457 21.7364 31.1943 21.5122 31.0243 21.4057C30.8543 21.299 30.6301 21.3504 30.5236 21.5204Z" fill="#FFEAA2"/>
<path d="M31.7239 21.46C31.8581 21.5441 32.035 21.5035 32.1192 21.3693C32.2033 21.2351 32.1627 21.0581 32.0285 20.974C31.8943 20.8899 31.7173 20.9305 31.6332 21.0647C31.5491 21.1989 31.5897 21.3759 31.7239 21.46Z" fill="#FFEAA2"/>
<path d="M31.5174 19.9459C31.5982 19.9966 31.705 19.9722 31.7557 19.8912C31.8064 19.8103 31.782 19.7036 31.7011 19.6529C31.6202 19.6022 31.5134 19.6266 31.4627 19.7075C31.412 19.7885 31.4365 19.8952 31.5174 19.9459Z" fill="#FFEAA2"/>
<path d="M29.0791 19.2911C29.2787 19.3112 29.4568 19.1657 29.4769 18.9661C29.497 18.7665 29.3515 18.5884 29.1519 18.5683C28.9523 18.5482 28.7742 18.6937 28.7541 18.8933C28.7339 19.093 28.8795 19.271 29.0791 19.2911Z" fill="#FFEAA2"/>
<path d="M27.0085 21.7177C27.1661 21.7335 27.3068 21.6186 27.3226 21.4611C27.3385 21.3035 27.2236 21.1629 27.0661 21.147C26.9085 21.1311 26.7678 21.246 26.752 21.4035C26.7361 21.5612 26.851 21.7018 27.0085 21.7177Z" fill="#FFEAA2"/>
<path d="M29.6737 21.8015C29.7687 21.8111 29.8535 21.7417 29.863 21.6467C29.8726 21.5517 29.8033 21.4669 29.7083 21.4574C29.6133 21.4478 29.5285 21.5171 29.519 21.6121C29.5093 21.707 29.5787 21.7918 29.6737 21.8015Z" fill="#FFEAA2"/>
<path d="M30.35 20.3565C30.4966 20.3341 30.5972 20.1971 30.5748 20.0507C30.5524 19.9041 30.4154 19.8035 30.2689 19.8259C30.1224 19.8483 30.0218 19.9853 30.0441 20.1317C30.0666 20.2784 30.2035 20.379 30.35 20.3565Z" fill="#FFEAA2"/>
<path d="M29.9964 21.0825C30.1121 21.0648 30.1915 20.9567 30.1738 20.841C30.1562 20.7254 30.048 20.6459 29.9323 20.6636C29.8167 20.6812 29.7372 20.7894 29.7549 20.9051C29.7725 21.0207 29.8807 21.1002 29.9964 21.0825Z" fill="#FFEAA2"/>
<path d="M30.8856 20.731C30.8158 20.7417 30.7679 20.8069 30.7786 20.8766C30.7893 20.9463 30.8545 20.9942 30.9242 20.9835C30.9939 20.9728 31.0418 20.9076 31.0311 20.8379C31.0205 20.7682 30.9553 20.7203 30.8856 20.731Z" fill="#FFEAA2"/>
<path d="M23.7294 22.105C23.6228 22.275 23.6742 22.4992 23.8442 22.6057C24.0142 22.7123 24.2384 22.6609 24.3449 22.4909C24.4514 22.3209 24.4001 22.0967 24.2301 21.9902C24.0601 21.8835 23.8359 21.935 23.7294 22.105Z" fill="#FFEAA2"/>
<path d="M25.7085 19.1157C25.8427 19.1999 26.0197 19.1593 26.1038 19.0251C26.1879 18.8908 26.1473 18.7139 26.0131 18.6298C25.8789 18.5456 25.7019 18.5862 25.6178 18.7205C25.5337 18.8546 25.5743 19.0315 25.7085 19.1157Z" fill="#FFEAA2"/>
<path d="M26.0471 20.7223C26.128 20.773 26.2348 20.7486 26.2855 20.6676C26.3361 20.5867 26.3117 20.4799 26.2307 20.4293C26.1499 20.3786 26.0431 20.403 25.9924 20.4839C25.9418 20.5648 25.9662 20.6716 26.0471 20.7223Z" fill="#FFEAA2"/>
<path d="M21.7912 21.4737C21.9908 21.4938 22.169 21.3483 22.1891 21.1487C22.2092 20.9491 22.0637 20.771 21.8641 20.7509C21.6645 20.7308 21.4863 20.8763 21.4662 21.0759C21.446 21.2755 21.5916 21.4536 21.7912 21.4737Z" fill="#FFEAA2"/>
<path d="M21.7964 21.9603C21.7805 22.1178 21.8954 22.2585 22.053 22.2743C22.2105 22.2902 22.3512 22.1753 22.367 22.0177C22.3829 21.8602 22.268 21.7195 22.1104 21.7036C21.9529 21.6878 21.8123 21.8027 21.7964 21.9603Z" fill="#FFEAA2"/>
<path d="M22.8792 22.3859C22.9742 22.3955 23.059 22.3262 23.0685 22.2312C23.0782 22.1362 23.0088 22.0514 22.9138 22.0419C22.8188 22.0323 22.734 22.1016 22.7245 22.1966C22.7149 22.2916 22.7842 22.3764 22.8792 22.3859Z" fill="#FFEAA2"/>
<path d="M24.6225 19.9962C24.769 19.9737 24.8696 19.8368 24.8473 19.6903C24.8248 19.5437 24.6879 19.4432 24.5414 19.4655C24.3948 19.488 24.2942 19.6249 24.3166 19.7714C24.3389 19.918 24.4759 20.0186 24.6225 19.9962Z" fill="#FFEAA2"/>
<path d="M23.2019 21.6675C23.3176 21.6497 23.397 21.5417 23.3794 21.426C23.3617 21.3103 23.2536 21.2309 23.1379 21.2485C23.0222 21.2663 22.9428 21.3743 22.9605 21.49C22.9781 21.6057 23.0862 21.6851 23.2019 21.6675Z" fill="#FFEAA2"/>
<path d="M24.0911 21.3159C24.0214 21.3266 23.9735 21.3918 23.9842 21.4615C23.9948 21.5313 24.06 21.5792 24.1297 21.5685C24.1995 21.5578 24.2474 21.4926 24.2367 21.4229C24.226 21.3532 24.1608 21.3053 24.0911 21.3159Z" fill="#FFEAA2"/>
<path d="M9.91753 38.7444C9.8891 38.9431 10.027 39.1271 10.2257 39.1555C10.4243 39.184 10.6083 39.046 10.6367 38.8474C10.6652 38.6488 10.5272 38.4647 10.3286 38.4363C10.13 38.408 9.94596 38.5459 9.91753 38.7444Z" fill="#FFEAA2"/>
<path d="M10.9901 38.203C11.1468 38.2255 11.2921 38.1165 11.3146 37.9598C11.337 37.803 11.2281 37.6577 11.0713 37.6353C10.9146 37.6128 10.7693 37.7217 10.7468 37.8785C10.7244 38.0352 10.8333 38.1806 10.9901 38.203Z" fill="#FFEAA2"/>
<path d="M10.187 36.9027C10.2815 36.9162 10.3691 36.8506 10.3827 36.756C10.3962 36.6615 10.3305 36.5739 10.236 36.5604C10.1415 36.5468 10.0538 36.6125 10.0403 36.707C10.0269 36.8015 10.0925 36.8892 10.187 36.9027Z" fill="#FFEAA2"/>
<path d="M7.6926 37.2935C7.88319 37.2309 7.98701 37.0257 7.92437 36.835C7.86172 36.6444 7.65652 36.5406 7.46584 36.6032C7.27525 36.6659 7.17143 36.8711 7.23407 37.0617C7.29672 37.2523 7.50192 37.3562 7.6926 37.2935Z" fill="#FFEAA2"/>
<path d="M6.78481 40.3513C6.9353 40.3019 7.01716 40.1398 6.96775 39.9893C6.91834 39.8388 6.75628 39.757 6.60579 39.8064C6.4553 39.8558 6.37343 40.0179 6.42284 40.1683C6.47226 40.3187 6.63432 40.4007 6.78481 40.3513Z" fill="#FFEAA2"/>
<path d="M9.2545 39.346C9.34519 39.3162 9.3946 39.2185 9.3648 39.1278C9.33499 39.0371 9.23725 38.9877 9.14656 39.0175C9.05588 39.0473 9.00647 39.145 9.03627 39.2357C9.06607 39.3264 9.16382 39.3758 9.2545 39.346Z" fill="#FFEAA2"/>
<path d="M9.28675 37.7518C9.41155 37.6719 9.44802 37.5058 9.36802 37.381C9.28812 37.2562 9.12204 37.2198 8.99724 37.2998C8.87243 37.3797 8.83596 37.5457 8.91596 37.6705C8.99596 37.7953 9.16194 37.8317 9.28675 37.7518Z" fill="#FFEAA2"/>
<path d="M9.25786 38.5584C9.35639 38.4953 9.38521 38.3642 9.32207 38.2657C9.25894 38.1671 9.12786 38.1383 9.02933 38.2014C8.9308 38.2646 8.90198 38.3957 8.96511 38.4942C9.02825 38.5927 9.15933 38.6214 9.25786 38.5584Z" fill="#FFEAA2"/>
<path d="M9.92803 37.8766C9.86862 37.9147 9.85127 37.9937 9.88931 38.0531C9.92735 38.1125 10.0064 38.1298 10.0658 38.0918C10.1252 38.0538 10.1425 37.9747 10.1045 37.9153C10.0666 37.8559 9.98754 37.8386 9.92803 37.8766Z" fill="#FFEAA2"/>
<path d="M3.94463 42.0355C3.9162 42.2341 4.05414 42.4181 4.25277 42.4466C4.4514 42.475 4.63542 42.3371 4.66385 42.1384C4.69228 41.9398 4.55434 41.7558 4.35571 41.7273C4.15718 41.6989 3.97316 41.8369 3.94463 42.0355Z" fill="#FFEAA2"/>
<path d="M4.54084 38.5004C4.69761 38.5228 4.8429 38.4139 4.86535 38.2571C4.88781 38.1004 4.77888 37.9551 4.62212 37.9326C4.46535 37.9102 4.32006 38.0191 4.29761 38.1759C4.27516 38.3326 4.38408 38.4779 4.54084 38.5004Z" fill="#FFEAA2"/>
<path d="M5.50219 39.8314C5.5967 39.845 5.68435 39.7793 5.69788 39.6848C5.71141 39.5902 5.64572 39.5026 5.55121 39.4891C5.4567 39.4755 5.36905 39.5412 5.35553 39.6357C5.342 39.7302 5.40768 39.8179 5.50219 39.8314Z" fill="#FFEAA2"/>
<path d="M1.91697 42.2447C2.10756 42.182 2.21128 41.9768 2.14873 41.7862C2.08608 41.5956 1.88089 41.4917 1.6902 41.5544C1.49961 41.617 1.39579 41.8222 1.45844 42.0129C1.52108 42.2035 1.72638 42.3073 1.91697 42.2447Z" fill="#FFEAA2"/>
<path d="M2.11912 42.6874C2.16854 42.8379 2.3306 42.9197 2.48109 42.8703C2.63158 42.8209 2.71344 42.6589 2.66403 42.5084C2.61461 42.3579 2.45256 42.276 2.30207 42.3254C2.15167 42.3748 2.06971 42.5369 2.11912 42.6874Z" fill="#FFEAA2"/>
<path d="M3.2816 42.6375C3.37229 42.6077 3.4217 42.5101 3.3919 42.4193C3.36209 42.3286 3.26435 42.2792 3.17366 42.309C3.08298 42.3388 3.03356 42.4365 3.06337 42.5272C3.09317 42.6179 3.19092 42.6673 3.2816 42.6375Z" fill="#FFEAA2"/>
<path d="M3.9054 39.7455C4.03021 39.6656 4.06668 39.4995 3.98668 39.3747C3.90677 39.2499 3.7407 39.2134 3.61589 39.2934C3.49109 39.3733 3.45462 39.5394 3.53462 39.6642C3.61452 39.789 3.7806 39.8254 3.9054 39.7455Z" fill="#FFEAA2"/>
<path d="M3.28496 41.8494C3.38349 41.7862 3.41231 41.6553 3.34917 41.5566C3.28604 41.4581 3.15496 41.4294 3.05643 41.4924C2.9579 41.5556 2.92908 41.6865 2.99221 41.7852C3.05535 41.8838 3.18643 41.9125 3.28496 41.8494Z" fill="#FFEAA2"/>
<path d="M3.95513 41.1676C3.89572 41.2057 3.87837 41.2847 3.91641 41.3441C3.95445 41.4035 4.03347 41.4209 4.09288 41.3828C4.15229 41.3448 4.16964 41.2658 4.1316 41.2064C4.09357 41.1469 4.01455 41.1296 3.95513 41.1676Z" fill="#FFEAA2"/>
<path d="M21.8277 21.7171C23.071 21.7171 24.0788 21.007 24.0788 20.131C24.0788 19.255 23.071 18.5449 21.8277 18.5449C20.5845 18.5449 19.5767 19.255 19.5767 20.131C19.5767 21.007 20.5845 21.7171 21.8277 21.7171Z" fill="url(#paint8_linear_255_2399)"/>
<path d="M21.5887 19.5324C21.7874 19.5324 21.9484 19.3714 21.9484 19.1727C21.9484 18.974 21.7874 18.813 21.5887 18.813C21.3901 18.813 21.229 18.974 21.229 19.1727C21.229 19.3714 21.3901 19.5324 21.5887 19.5324Z" fill="url(#paint9_linear_255_2399)"/>
<path d="M20.9209 20.3867C21.0777 20.3867 21.2048 20.2596 21.2048 20.1028C21.2048 19.946 21.0777 19.8188 20.9209 19.8188C20.7641 19.8188 20.637 19.946 20.637 20.1028C20.637 20.2596 20.7641 20.3867 20.9209 20.3867Z" fill="url(#paint10_linear_255_2399)"/>
<path d="M22.1585 20.5123C22.253 20.5123 22.3297 20.4356 22.3297 20.3411C22.3297 20.2466 22.253 20.1699 22.1585 20.1699C22.0639 20.1699 21.9873 20.2466 21.9873 20.3411C21.9873 20.4356 22.0639 20.5123 22.1585 20.5123Z" fill="url(#paint11_linear_255_2399)"/>
<path d="M12.505 29.7923C13.7482 29.7923 14.7561 29.0822 14.7561 28.2062C14.7561 27.3302 13.7482 26.6201 12.505 26.6201C11.2617 26.6201 10.2539 27.3302 10.2539 28.2062C10.2539 29.0822 11.2617 29.7923 12.505 29.7923Z" fill="url(#paint12_linear_255_2399)"/>
<path d="M12.266 27.6076C12.4646 27.6076 12.6257 27.4466 12.6257 27.2479C12.6257 27.0492 12.4646 26.8882 12.266 26.8882C12.0673 26.8882 11.9062 27.0492 11.9062 27.2479C11.9062 27.4466 12.0673 27.6076 12.266 27.6076Z" fill="url(#paint13_linear_255_2399)"/>
<path d="M11.5981 28.4619C11.7549 28.4619 11.8821 28.3348 11.8821 28.178C11.8821 28.0212 11.7549 27.894 11.5981 27.894C11.4413 27.894 11.3142 28.0212 11.3142 28.178C11.3142 28.3348 11.4413 28.4619 11.5981 28.4619Z" fill="url(#paint14_linear_255_2399)"/>
<path d="M12.836 28.5875C12.9305 28.5875 13.0071 28.5108 13.0071 28.4163C13.0071 28.3218 12.9305 28.2451 12.836 28.2451C12.7414 28.2451 12.6648 28.3218 12.6648 28.4163C12.6648 28.5108 12.7414 28.5875 12.836 28.5875Z" fill="url(#paint15_linear_255_2399)"/>
<path d="M24.1105 32.1145C25.3537 32.1145 26.3615 31.4044 26.3615 30.5285C26.3615 29.6525 25.3537 28.9424 24.1105 28.9424C22.8672 28.9424 21.8594 29.6525 21.8594 30.5285C21.8594 31.4044 22.8672 32.1145 24.1105 32.1145Z" fill="url(#paint16_linear_255_2399)"/>
<path d="M23.8714 29.9299C24.0701 29.9299 24.2311 29.7688 24.2311 29.5702C24.2311 29.3715 24.0701 29.2104 23.8714 29.2104C23.6728 29.2104 23.5117 29.3715 23.5117 29.5702C23.5117 29.7688 23.6728 29.9299 23.8714 29.9299Z" fill="url(#paint17_linear_255_2399)"/>
<path d="M23.2036 30.7842C23.3604 30.7842 23.4875 30.657 23.4875 30.5002C23.4875 30.3434 23.3604 30.2163 23.2036 30.2163C23.0468 30.2163 22.9197 30.3434 22.9197 30.5002C22.9197 30.657 23.0468 30.7842 23.2036 30.7842Z" fill="url(#paint18_linear_255_2399)"/>
<path d="M24.4412 30.9097C24.5357 30.9097 24.6124 30.8331 24.6124 30.7386C24.6124 30.644 24.5357 30.5674 24.4412 30.5674C24.3467 30.5674 24.27 30.644 24.27 30.7386C24.27 30.8331 24.3467 30.9097 24.4412 30.9097Z" fill="url(#paint19_linear_255_2399)"/>
<path d="M40.7115 26.8641C41.9548 26.8641 42.9626 26.1539 42.9626 25.278C42.9626 24.402 41.9548 23.6919 40.7115 23.6919C39.4683 23.6919 38.4604 24.402 38.4604 25.278C38.4604 26.1539 39.4683 26.8641 40.7115 26.8641Z" fill="url(#paint20_linear_255_2399)"/>
<path d="M40.4725 24.6794C40.6712 24.6794 40.8322 24.5183 40.8322 24.3197C40.8322 24.121 40.6712 23.96 40.4725 23.96C40.2738 23.96 40.1128 24.121 40.1128 24.3197C40.1128 24.5183 40.2738 24.6794 40.4725 24.6794Z" fill="url(#paint21_linear_255_2399)"/>
<path d="M39.8047 25.5337C39.9615 25.5337 40.0886 25.4065 40.0886 25.2497C40.0886 25.0929 39.9615 24.9658 39.8047 24.9658C39.6479 24.9658 39.5208 25.0929 39.5208 25.2497C39.5208 25.4065 39.6479 25.5337 39.8047 25.5337Z" fill="url(#paint22_linear_255_2399)"/>
<path d="M41.0423 25.6592C41.1368 25.6592 41.2134 25.5826 41.2134 25.4881C41.2134 25.3935 41.1368 25.3169 41.0423 25.3169C40.9477 25.3169 40.8711 25.3935 40.8711 25.4881C40.8711 25.5826 40.9477 25.6592 41.0423 25.6592Z" fill="url(#paint23_linear_255_2399)"/>
<path d="M21.9483 12.2849C23.1916 12.2849 24.1994 11.5748 24.1994 10.6989C24.1994 9.8229 23.1916 9.11279 21.9483 9.11279C20.7051 9.11279 19.6973 9.8229 19.6973 10.6989C19.6973 11.5748 20.7051 12.2849 21.9483 12.2849Z" fill="url(#paint24_linear_255_2399)"/>
<path d="M21.7093 10.1003C21.908 10.1003 22.069 9.93923 22.069 9.74057C22.069 9.54191 21.908 9.38086 21.7093 9.38086C21.5107 9.38086 21.3496 9.54191 21.3496 9.74057C21.3496 9.93923 21.5107 10.1003 21.7093 10.1003Z" fill="url(#paint25_linear_255_2399)"/>
<path d="M21.0415 10.9546C21.1983 10.9546 21.3254 10.8274 21.3254 10.6706C21.3254 10.5138 21.1983 10.3867 21.0415 10.3867C20.8847 10.3867 20.7576 10.5138 20.7576 10.6706C20.7576 10.8274 20.8847 10.9546 21.0415 10.9546Z" fill="url(#paint26_linear_255_2399)"/>
<path d="M22.2791 11.0801C22.3736 11.0801 22.4503 11.0035 22.4503 10.909C22.4503 10.8144 22.3736 10.7378 22.2791 10.7378C22.1845 10.7378 22.1079 10.8144 22.1079 10.909C22.1079 11.0035 22.1845 11.0801 22.2791 11.0801Z" fill="url(#paint27_linear_255_2399)"/>
<path d="M25.3537 12.5043C23.1904 10.8729 19.6828 10.8729 17.5195 12.5043C15.3561 14.1357 15.3561 16.7807 17.5195 18.412C19.6828 20.0434 23.1904 20.0434 25.3537 18.412C27.517 16.7807 27.517 14.1357 25.3537 12.5043ZM18.9491 16.5203C17.5755 15.6155 17.5755 14.1481 18.9491 13.2434C20.3227 12.3386 22.5499 12.339 23.9235 13.2438C25.2971 14.1486 25.2976 15.6156 23.9241 16.5203C22.5504 17.4251 20.3226 17.4251 18.9491 16.5203Z" fill="url(#paint28_linear_255_2399)"/>
<path d="M18.1783 17.4902C19.9776 18.7981 22.8958 18.7981 24.695 17.4902C26.4948 16.1819 26.4943 14.0611 24.695 12.7532C22.8952 11.4449 19.9781 11.4449 18.1783 12.7532C16.379 14.0611 16.3784 16.1819 18.1783 17.4902ZM23.9241 13.2432C25.2977 14.148 25.2977 15.6154 23.9241 16.5201C22.5505 17.4249 20.3233 17.4245 18.9497 16.5197C17.5761 15.6149 17.5756 14.1479 18.9491 13.2432C20.3228 12.3385 22.5505 12.3385 23.9241 13.2432Z" fill="url(#paint29_linear_255_2399)"/>
<path d="M3.63132 37.7181C4.44172 38.0309 5.47515 37.7991 5.93966 37.2002C6.03103 37.0824 5.99054 36.944 5.86328 36.8021C5.7226 36.6452 5.77309 36.4383 5.96623 36.312L5.99887 36.2907C6.24838 36.1276 6.19123 35.8396 5.8876 35.7307L4.67926 35.2977C4.37564 35.1889 4.01064 35.3255 3.96956 35.5634C3.93789 35.7467 3.72456 35.8887 3.4624 35.8994C3.2527 35.9079 3.08868 35.9593 3.00505 36.0671C2.54044 36.6661 2.82093 37.4052 3.63132 37.7181Z" fill="url(#paint30_linear_255_2399)"/>
<path d="M11.7447 31.4452C9.89817 30.0528 6.90435 30.0528 5.05778 31.4452C3.21121 32.8377 3.21121 35.0953 5.05778 36.4878C6.90435 37.8802 9.89817 37.8802 11.7447 36.4878C13.5912 35.0953 13.5912 32.8377 11.7447 31.4452ZM6.27797 34.8731C5.10552 34.1008 5.10552 32.8484 6.27797 32.0761C7.45042 31.3038 9.35141 31.3041 10.5239 32.0764C11.6963 32.8486 11.6968 34.1008 10.5243 34.8731C9.35199 35.6453 7.45042 35.6453 6.27797 34.8731Z" fill="url(#paint31_linear_255_2399)"/>
<path d="M5.62004 35.7011C7.15582 36.8175 9.64661 36.8175 11.1824 35.7011C12.7187 34.5845 12.7182 32.7742 11.1824 31.6578C9.64612 30.5411 7.15631 30.5411 5.62004 31.6578C4.08426 32.7743 4.08377 34.5845 5.62004 35.7011ZM10.5245 32.0761C11.6969 32.8484 11.6969 34.1009 10.5245 34.8731C9.352 35.6454 7.45102 35.6451 6.27857 34.8728C5.10612 34.1006 5.10563 32.8484 6.27808 32.0761C7.45043 31.3039 9.352 31.3039 10.5245 32.0761Z" fill="url(#paint32_linear_255_2399)"/>
<path d="M33.8083 26.4479C32.9979 26.135 31.9645 26.3669 31.5 26.9657C31.4086 27.0836 31.4491 27.222 31.5763 27.3639C31.717 27.5207 31.6665 27.7277 31.4734 27.854L31.4408 27.8752C31.1912 28.0384 31.2484 28.3264 31.552 28.4352L32.7604 28.8683C33.064 28.9771 33.429 28.8404 33.4701 28.6026C33.5017 28.4193 33.7151 28.2773 33.9772 28.2666C34.1869 28.2581 34.3509 28.2067 34.4346 28.0989C34.8992 27.4998 34.6187 26.7607 33.8083 26.4479Z" fill="url(#paint33_linear_255_2399)"/>
<path d="M32.3432 26.7822C34.7037 26.7822 36.6173 25.4339 36.6173 23.7707C36.6173 22.1076 34.7037 20.7593 32.3432 20.7593C29.9827 20.7593 28.0691 22.1076 28.0691 23.7707C28.0691 25.4339 29.9827 26.7822 32.3432 26.7822Z" fill="url(#paint34_linear_255_2399)"/>
<path d="M31.8896 22.6338C32.2668 22.6338 32.5725 22.328 32.5725 21.9509C32.5725 21.5738 32.2668 21.2681 31.8896 21.2681C31.5125 21.2681 31.2068 21.5738 31.2068 21.9509C31.2068 22.328 31.5125 22.6338 31.8896 22.6338Z" fill="url(#paint35_linear_255_2399)"/>
<path d="M30.6216 24.256C30.9194 24.256 31.1608 24.0146 31.1608 23.7169C31.1608 23.4191 30.9194 23.1777 30.6216 23.1777C30.3239 23.1777 30.0825 23.4191 30.0825 23.7169C30.0825 24.0146 30.3239 24.256 30.6216 24.256Z" fill="url(#paint36_linear_255_2399)"/>
<path d="M32.9715 24.4942C33.151 24.4942 33.2965 24.3487 33.2965 24.1692C33.2965 23.9897 33.151 23.8442 32.9715 23.8442C32.792 23.8442 32.6465 23.9897 32.6465 24.1692C32.6465 24.3487 32.792 24.4942 32.9715 24.4942Z" fill="url(#paint37_linear_255_2399)"/>
<path d="M14.312 34.7305C16.6725 34.7305 18.5861 33.3822 18.5861 31.719C18.5861 30.0558 16.6725 28.7075 14.312 28.7075C11.9514 28.7075 10.0378 30.0558 10.0378 31.719C10.0378 33.3822 11.9514 34.7305 14.312 34.7305Z" fill="url(#paint38_linear_255_2399)"/>
<path d="M13.8581 30.582C14.2353 30.582 14.541 30.2763 14.541 29.8992C14.541 29.522 14.2353 29.2163 13.8581 29.2163C13.481 29.2163 13.1753 29.522 13.1753 29.8992C13.1753 30.2763 13.481 30.582 13.8581 30.582Z" fill="url(#paint39_linear_255_2399)"/>
<path d="M12.5904 32.2042C12.8881 32.2042 13.1295 31.9628 13.1295 31.6651C13.1295 31.3673 12.8881 31.126 12.5904 31.126C12.2926 31.126 12.0513 31.3673 12.0513 31.6651C12.0513 31.9628 12.2926 32.2042 12.5904 32.2042Z" fill="url(#paint40_linear_255_2399)"/>
<path d="M14.9402 32.4425C15.1197 32.4425 15.2652 32.297 15.2652 32.1175C15.2652 31.938 15.1197 31.7925 14.9402 31.7925C14.7607 31.7925 14.6152 31.938 14.6152 32.1175C14.6152 32.297 14.7607 32.4425 14.9402 32.4425Z" fill="url(#paint41_linear_255_2399)"/>
<path d="M23.4177 22.6115C22.6073 22.2986 21.5739 22.5305 21.1093 23.1293C21.018 23.2471 21.0585 23.3856 21.1857 23.5274C21.3264 23.6843 21.2759 23.8913 21.0828 24.0175L21.0501 24.0388C20.8006 24.202 20.8578 24.49 21.1614 24.5988L22.3697 25.0319C22.6734 25.1407 23.0384 25.004 23.0794 24.7662C23.1111 24.5828 23.3244 24.4409 23.5866 24.4302C23.7963 24.4217 23.9603 24.3703 24.0439 24.2624C24.5085 23.6635 24.2281 22.9244 23.4177 22.6115Z" fill="url(#paint42_linear_255_2399)"/>
<path d="M24.6291 32.0706C25.6219 31.9053 26.3616 31.2785 26.3616 30.5285C26.3616 29.6525 25.3537 28.9424 24.1105 28.9424C23.3195 28.9424 22.6252 29.2304 22.2236 29.6651L24.6291 32.0706Z" fill="url(#paint43_linear_255_2399)"/>
<path d="M28.713 24.3725C26.8664 22.98 23.8726 22.98 22.026 24.3725C20.1795 25.7649 20.1795 28.0226 22.026 29.415C23.8726 30.8075 26.8664 30.8075 28.713 29.415C30.5596 28.0226 30.5596 25.7649 28.713 24.3725ZM23.2463 27.8003C22.0739 27.0281 22.0739 25.7756 23.2463 25.0033C24.4188 24.2311 26.3198 24.2314 27.4922 25.0036C28.6647 25.7759 28.6652 27.0281 27.4927 27.8003C26.3203 28.5726 24.4188 28.5726 23.2463 27.8003Z" fill="url(#paint44_linear_255_2399)"/>
<path d="M22.5883 28.6284C24.1241 29.7448 26.6149 29.7448 28.1507 28.6284C29.6869 27.5117 29.6864 25.7014 28.1507 24.5851C26.6144 23.4684 24.1246 23.4684 22.5883 24.5851C21.0525 25.7015 21.052 27.5117 22.5883 28.6284ZM27.4926 25.0035C28.6651 25.7757 28.6651 27.0282 27.4926 27.8005C26.3202 28.5727 24.4192 28.5724 23.2467 27.8002C22.0743 27.0279 22.0738 25.7757 23.2462 25.0035C24.4187 24.2311 26.3202 24.2311 27.4926 25.0035Z" fill="url(#paint45_linear_255_2399)"/>
<path d="M7.96016 27.3179C6.88271 27.3179 6.00928 27.9399 6.00928 28.7074C6.00928 29.4748 6.88271 30.0969 7.96016 30.0969C9.03761 30.0969 9.91104 29.4748 9.91104 28.7074C9.91104 27.9399 9.03761 27.3179 7.96016 27.3179ZM7.96016 29.2972C7.50281 29.2972 7.13212 29.0332 7.13212 28.7074C7.13212 28.3817 7.50281 28.1176 7.96016 28.1176C8.41751 28.1176 8.7882 28.3816 8.7882 28.7074C8.7883 29.0332 8.41751 29.2972 7.96016 29.2972Z" fill="url(#paint46_linear_255_2399)"/>
<path d="M17.8476 24.6099C16.7702 24.6099 15.8967 25.2319 15.8967 25.9994C15.8967 26.7668 16.7702 27.3889 17.8476 27.3889C18.9251 27.3889 19.7985 26.7668 19.7985 25.9994C19.7985 25.2319 18.925 24.6099 17.8476 24.6099ZM17.8476 26.5891C17.3903 26.5891 17.0196 26.3251 17.0196 25.9993C17.0196 25.6736 17.3903 25.4095 17.8476 25.4095C18.305 25.4095 18.6757 25.6735 18.6757 25.9993C18.6757 26.3251 18.3049 26.5891 17.8476 26.5891Z" fill="url(#paint47_linear_255_2399)"/>
<path d="M30.4397 17.6182C29.3622 17.6182 28.4888 18.2402 28.4888 19.0077C28.4888 19.7751 29.3622 20.3972 30.4397 20.3972C31.5171 20.3972 32.3905 19.7751 32.3905 19.0077C32.3905 18.2402 31.5171 17.6182 30.4397 17.6182ZM30.4397 19.5975C29.9823 19.5975 29.6116 19.3335 29.6116 19.0077C29.6116 18.6819 29.9823 18.4179 30.4397 18.4179C30.897 18.4179 31.2677 18.6819 31.2677 19.0077C31.2677 19.3335 30.897 19.5975 30.4397 19.5975Z" fill="url(#paint48_linear_255_2399)"/>
<path d="M4.10079 38.1133C3.02333 38.1133 2.1499 38.7353 2.1499 39.5028C2.1499 40.2702 3.02333 40.8923 4.10079 40.8923C5.17824 40.8923 6.05167 40.2702 6.05167 39.5028C6.05167 38.7353 5.17824 38.1133 4.10079 38.1133ZM4.10079 40.0925C3.64343 40.0925 3.27275 39.8285 3.27275 39.5027C3.27275 39.177 3.64343 38.9129 4.10079 38.9129C4.55814 38.9129 4.92882 39.1769 4.92882 39.5027C4.92882 39.8285 4.55814 40.0925 4.10079 40.0925Z" fill="url(#paint49_linear_255_2399)"/>
<path d="M14.7658 24.2793C17.1263 24.2793 19.0399 22.931 19.0399 21.2678C19.0399 19.6046 17.1263 18.2563 14.7658 18.2563C12.4053 18.2563 10.4917 19.6046 10.4917 21.2678C10.4917 22.931 12.4053 24.2793 14.7658 24.2793Z" fill="url(#paint50_linear_255_2399)"/>
<path d="M14.3122 20.1308C14.6894 20.1308 14.9951 19.8251 14.9951 19.448C14.9951 19.0709 14.6894 18.7651 14.3122 18.7651C13.9351 18.7651 13.6294 19.0709 13.6294 19.448C13.6294 19.8251 13.9351 20.1308 14.3122 20.1308Z" fill="url(#paint51_linear_255_2399)"/>
<path d="M13.0442 21.753C13.342 21.753 13.5834 21.5117 13.5834 21.2139C13.5834 20.9162 13.342 20.6748 13.0442 20.6748C12.7465 20.6748 12.5051 20.9162 12.5051 21.2139C12.5051 21.5117 12.7465 21.753 13.0442 21.753Z" fill="url(#paint52_linear_255_2399)"/>
<path d="M15.3941 21.9913C15.5736 21.9913 15.7191 21.8458 15.7191 21.6663C15.7191 21.4868 15.5736 21.3413 15.3941 21.3413C15.2146 21.3413 15.0691 21.4868 15.0691 21.6663C15.0691 21.8458 15.2146 21.9913 15.3941 21.9913Z" fill="url(#paint53_linear_255_2399)"/>
<path d="M29.9521 13.5216C29.1417 13.2088 28.1083 13.4406 27.6438 14.0395C27.5524 14.1573 27.5929 14.2957 27.7201 14.4376C27.8608 14.5945 27.8103 14.8014 27.6172 14.9277L27.5845 14.949C27.335 15.1121 27.3922 15.4001 27.6958 15.509L28.9042 15.942C29.2078 16.0508 29.5728 15.9142 29.6139 15.6763C29.6455 15.493 29.8589 15.351 30.121 15.3403C30.3307 15.3318 30.4947 15.2804 30.5784 15.1726C31.0429 14.5736 30.7625 13.8345 29.9521 13.5216Z" fill="url(#paint54_linear_255_2399)"/>
<path d="M21.558 10.2276C25.2249 11.6216 28.6926 13.6909 33.1348 16.9538C37.577 20.2166 40.9944 25.1017 43.53 28.2636C44.8921 29.962 48.6422 29.6533 49.8806 27.7182C50.7076 26.4259 50.7101 23.8152 49.8674 22.62C47.3809 19.0935 43.1937 14.9507 38.0218 11.1518C32.8498 7.35289 27.7334 4.66211 23.7669 3.44868C22.4225 3.0374 20.9483 3.64083 20.1214 4.93309C18.883 6.86828 19.5883 9.47878 21.558 10.2276Z" fill="url(#paint55_linear_255_2399)"/>
</g>
<defs>
<linearGradient id="paint0_linear_255_2399" x1="22.3975" y1="29.3016" x2="25.0357" y2="35.0854" gradientUnits="userSpaceOnUse">
<stop stopColor="#FAA68E"/>
<stop offset="0.2061" stopColor="#FBA682"/>
<stop offset="0.5808" stopColor="#FDA861"/>
<stop offset="1" stopColor="#FFA936"/>
</linearGradient>
<linearGradient id="paint1_linear_255_2399" x1="25.1571" y1="35.4691" x2="22.9303" y2="29.028" gradientUnits="userSpaceOnUse">
<stop stopColor="#F82814" stopOpacity="0"/>
<stop offset="0.2454" stopColor="#F12817" stopOpacity="0.245"/>
<stop offset="0.6052" stopColor="#DD2820" stopOpacity="0.605"/>
<stop offset="1" stopColor="#C0272D"/>
</linearGradient>
<linearGradient id="paint2_linear_255_2399" x1="14.7221" y1="21.6834" x2="26.4714" y2="35.7545" gradientUnits="userSpaceOnUse">
<stop stopColor="#FFD945"/>
<stop offset="0.3043" stopColor="#FFCD3E"/>
<stop offset="0.8558" stopColor="#FFAD2B"/>
<stop offset="1" stopColor="#FFA325"/>
</linearGradient>
<linearGradient id="paint3_linear_255_2399" x1="30.9883" y1="20.9128" x2="35.1568" y2="15.0029" gradientUnits="userSpaceOnUse">
<stop stopColor="#F82814" stopOpacity="0"/>
<stop offset="1" stopColor="#C0272D"/>
</linearGradient>
<linearGradient id="paint4_linear_255_2399" x1="29.0538" y1="23.2436" x2="10.2689" y2="-5.81316" gradientUnits="userSpaceOnUse">
<stop stopColor="#F82814" stopOpacity="0"/>
<stop offset="1" stopColor="#C0272D"/>
</linearGradient>
<linearGradient id="paint5_linear_255_2399" x1="19.4403" y1="25.3564" x2="11.5254" y2="10.5291" gradientUnits="userSpaceOnUse">
<stop stopColor="#F82814" stopOpacity="0"/>
<stop offset="1" stopColor="#C0272D"/>
</linearGradient>
<linearGradient id="paint6_linear_255_2399" x1="32.0167" y1="29.5209" x2="24.1369" y2="14.6759" gradientUnits="userSpaceOnUse">
<stop stopColor="#F82814" stopOpacity="0"/>
<stop offset="1" stopColor="#C0272D"/>
</linearGradient>
<linearGradient id="paint7_linear_255_2399" x1="14.5891" y1="37.6371" x2="8.25712" y2="26.8727" gradientUnits="userSpaceOnUse">
<stop stopColor="#F82814" stopOpacity="0"/>
<stop offset="1" stopColor="#C0272D"/>
</linearGradient>
<linearGradient id="paint8_linear_255_2399" x1="21.3472" y1="18.9667" x2="22.3107" y2="21.3012" gradientUnits="userSpaceOnUse">
<stop stopColor="#BADA00"/>
<stop offset="0.2269" stopColor="#B0CE00"/>
<stop offset="0.6378" stopColor="#95AE00"/>
<stop offset="1" stopColor="#798C00"/>
</linearGradient>
<linearGradient id="paint9_linear_255_2399" x1="21.7991" y1="19.7857" x2="20.8801" y2="18.3516" gradientUnits="userSpaceOnUse">
<stop stopColor="#798C00" stopOpacity="0"/>
<stop offset="0.6542" stopColor="#556100" stopOpacity="0.654"/>
<stop offset="1" stopColor="#464F00"/>
</linearGradient>
<linearGradient id="paint10_linear_255_2399" x1="21.0688" y1="20.6192" x2="20.3432" y2="19.4871" gradientUnits="userSpaceOnUse">
<stop stopColor="#798C00" stopOpacity="0"/>
<stop offset="0.6542" stopColor="#556100" stopOpacity="0.654"/>
<stop offset="1" stopColor="#464F00"/>
</linearGradient>
<linearGradient id="paint11_linear_255_2399" x1="22.2143" y1="20.7129" x2="21.777" y2="20.0304" gradientUnits="userSpaceOnUse">
<stop stopColor="#798C00" stopOpacity="0"/>
<stop offset="0.6542" stopColor="#556100" stopOpacity="0.654"/>
<stop offset="1" stopColor="#464F00"/>
</linearGradient>
<linearGradient id="paint12_linear_255_2399" x1="12.0245" y1="27.0419" x2="12.9879" y2="29.3764" gradientUnits="userSpaceOnUse">
<stop stopColor="#BADA00"/>
<stop offset="0.2269" stopColor="#B0CE00"/>
<stop offset="0.6378" stopColor="#95AE00"/>
<stop offset="1" stopColor="#798C00"/>
</linearGradient>
<linearGradient id="paint13_linear_255_2399" x1="12.4724" y1="27.8661" x2="11.5535" y2="26.432" gradientUnits="userSpaceOnUse">
<stop stopColor="#798C00" stopOpacity="0"/>
<stop offset="0.6542" stopColor="#556100" stopOpacity="0.654"/>
<stop offset="1" stopColor="#464F00"/>
</linearGradient>
<linearGradient id="paint14_linear_255_2399" x1="11.7421" y1="28.6996" x2="11.0167" y2="27.5674" gradientUnits="userSpaceOnUse">
<stop stopColor="#798C00" stopOpacity="0"/>
<stop offset="0.6542" stopColor="#556100" stopOpacity="0.654"/>
<stop offset="1" stopColor="#464F00"/>
</linearGradient>
<linearGradient id="paint15_linear_255_2399" x1="12.8879" y1="28.7933" x2="12.4505" y2="28.1107" gradientUnits="userSpaceOnUse">
<stop stopColor="#798C00" stopOpacity="0"/>
<stop offset="0.6542" stopColor="#556100" stopOpacity="0.654"/>
<stop offset="1" stopColor="#464F00"/>
</linearGradient>
<linearGradient id="paint16_linear_255_2399" x1="23.63" y1="29.3641" x2="24.5934" y2="31.6987" gradientUnits="userSpaceOnUse">
<stop stopColor="#BADA00"/>
<stop offset="0.2269" stopColor="#B0CE00"/>
<stop offset="0.6378" stopColor="#95AE00"/>
<stop offset="1" stopColor="#798C00"/>
</linearGradient>
<linearGradient id="paint17_linear_255_2399" x1="24.0841" y1="30.1883" x2="23.1651" y2="28.7542" gradientUnits="userSpaceOnUse">
<stop stopColor="#798C00" stopOpacity="0"/>
<stop offset="0.6542" stopColor="#556100" stopOpacity="0.654"/>
<stop offset="1" stopColor="#464F00"/>
</linearGradient>
<linearGradient id="paint18_linear_255_2399" x1="23.3538" y1="31.0217" x2="22.6284" y2="29.8897" gradientUnits="userSpaceOnUse">
<stop stopColor="#798C00" stopOpacity="0"/>
<stop offset="0.6542" stopColor="#556100" stopOpacity="0.654"/>
<stop offset="1" stopColor="#464F00"/>
</linearGradient>
<linearGradient id="paint19_linear_255_2399" x1="24.4994" y1="31.1155" x2="24.062" y2="30.433" gradientUnits="userSpaceOnUse">
<stop stopColor="#798C00" stopOpacity="0"/>
<stop offset="0.6542" stopColor="#556100" stopOpacity="0.654"/>
<stop offset="1" stopColor="#464F00"/>
</linearGradient>
<linearGradient id="paint20_linear_255_2399" x1="40.231" y1="24.1138" x2="41.1945" y2="26.4482" gradientUnits="userSpaceOnUse">
<stop stopColor="#BADA00"/>
<stop offset="0.2269" stopColor="#B0CE00"/>
<stop offset="0.6378" stopColor="#95AE00"/>
<stop offset="1" stopColor="#798C00"/>
</linearGradient>
<linearGradient id="paint21_linear_255_2399" x1="40.6932" y1="24.9332" x2="39.7741" y2="23.4991" gradientUnits="userSpaceOnUse">
<stop stopColor="#798C00" stopOpacity="0"/>
<stop offset="0.6542" stopColor="#556100" stopOpacity="0.654"/>
<stop offset="1" stopColor="#464F00"/>
</linearGradient>
<linearGradient id="paint22_linear_255_2399" x1="39.9628" y1="25.7667" x2="39.2373" y2="24.6345" gradientUnits="userSpaceOnUse">
<stop stopColor="#798C00" stopOpacity="0"/>
<stop offset="0.6542" stopColor="#556100" stopOpacity="0.654"/>
<stop offset="1" stopColor="#464F00"/>
</linearGradient>
<linearGradient id="paint23_linear_255_2399" x1="41.1084" y1="25.8604" x2="40.671" y2="25.1778" gradientUnits="userSpaceOnUse">
<stop stopColor="#798C00" stopOpacity="0"/>
<stop offset="0.6542" stopColor="#556100" stopOpacity="0.654"/>
<stop offset="1" stopColor="#464F00"/>
</linearGradient>
<linearGradient id="paint24_linear_255_2399" x1="21.4679" y1="9.53456" x2="22.4313" y2="11.8691" gradientUnits="userSpaceOnUse">
<stop stopColor="#BADA00"/>
<stop offset="0.2269" stopColor="#B0CE00"/>
<stop offset="0.6378" stopColor="#95AE00"/>
<stop offset="1" stopColor="#798C00"/>
</linearGradient>
<linearGradient id="paint25_linear_255_2399" x1="21.9186" y1="10.3487" x2="20.9997" y2="8.91463" gradientUnits="userSpaceOnUse">
<stop stopColor="#798C00" stopOpacity="0"/>
<stop offset="0.6542" stopColor="#556100" stopOpacity="0.654"/>
<stop offset="1" stopColor="#464F00"/>
</linearGradient>
<linearGradient id="paint26_linear_255_2399" x1="21.1884" y1="11.1822" x2="20.4629" y2="10.0501" gradientUnits="userSpaceOnUse">
<stop stopColor="#798C00" stopOpacity="0"/>
<stop offset="0.6542" stopColor="#556100" stopOpacity="0.654"/>
<stop offset="1" stopColor="#464F00"/>
</linearGradient>
<linearGradient id="paint27_linear_255_2399" x1="22.3341" y1="11.2759" x2="21.8967" y2="10.5935" gradientUnits="userSpaceOnUse">
<stop stopColor="#798C00" stopOpacity="0"/>
<stop offset="0.6542" stopColor="#556100" stopOpacity="0.654"/>
<stop offset="1" stopColor="#464F00"/>
</linearGradient>
<linearGradient id="paint28_linear_255_2399" x1="22.71" y1="11.7049" x2="20.9811" y2="16.7501" gradientUnits="userSpaceOnUse">
<stop stopColor="#FFDECF"/>
<stop offset="0.3791" stopColor="#FDC4B0"/>
<stop offset="0.7655" stopColor="#FBAE97"/>
<stop offset="1" stopColor="#FAA68E"/>
</linearGradient>
<linearGradient id="paint29_linear_255_2399" x1="20.4318" y1="18.1211" x2="21.827" y2="14.0494" gradientUnits="userSpaceOnUse">
<stop stopColor="#FFDECF"/>
<stop offset="0.3791" stopColor="#FDC4B0"/>
<stop offset="0.7655" stopColor="#FBAE97"/>
<stop offset="1" stopColor="#FAA68E"/>
</linearGradient>
<linearGradient id="paint30_linear_255_2399" x1="4.18162" y1="35.9833" x2="5.76456" y2="38.5689" gradientUnits="userSpaceOnUse">
<stop stopColor="#A57C52"/>
<stop offset="0.1339" stopColor="#A26C4A"/>
<stop offset="0.5155" stopColor="#994336"/>
<stop offset="0.8174" stopColor="#942A2A"/>
<stop offset="1" stopColor="#922125"/>
</linearGradient>
<linearGradient id="paint31_linear_255_2399" x1="9.48896" y1="30.758" x2="8.01334" y2="35.0644" gradientUnits="userSpaceOnUse">
<stop stopColor="#FFDECF"/>
<stop offset="0.3791" stopColor="#FDC4B0"/>
<stop offset="0.7655" stopColor="#FBAE97"/>
<stop offset="1" stopColor="#FAA68E"/>
</linearGradient>
<linearGradient id="paint32_linear_255_2399" x1="7.54975" y1="36.2342" x2="8.74063" y2="32.7587" gradientUnits="userSpaceOnUse">
<stop stopColor="#FFDECF"/>
<stop offset="0.3791" stopColor="#FDC4B0"/>
<stop offset="0.7655" stopColor="#FBAE97"/>
<stop offset="1" stopColor="#FAA68E"/>
</linearGradient>
<linearGradient id="paint33_linear_255_2399" x1="32.4431" y1="26.8386" x2="34.5402" y2="30.3212" gradientUnits="userSpaceOnUse">
<stop stopColor="#A57C52"/>
<stop offset="0.1339" stopColor="#A26C4A"/>
<stop offset="0.5155" stopColor="#994336"/>
<stop offset="0.8174" stopColor="#942A2A"/>
<stop offset="1" stopColor="#922125"/>
</linearGradient>
<linearGradient id="paint34_linear_255_2399" x1="31.4309" y1="21.5602" x2="33.2602" y2="25.9926" gradientUnits="userSpaceOnUse">
<stop stopColor="#FF6359"/>
<stop offset="0.2243" stopColor="#FE5B50"/>
<stop offset="0.5952" stopColor="#FC4637"/>
<stop offset="1" stopColor="#F82814"/>
</linearGradient>
<linearGradient id="paint35_linear_255_2399" x1="32.3713" y1="22.9787" x2="30.6263" y2="20.2559" gradientUnits="userSpaceOnUse">
<stop stopColor="#F82814" stopOpacity="0"/>
<stop offset="0.2454" stopColor="#F12817" stopOpacity="0.245"/>
<stop offset="0.6052" stopColor="#DD2820" stopOpacity="0.605"/>
<stop offset="1" stopColor="#C0272D"/>
</linearGradient>
<linearGradient id="paint36_linear_255_2399" x1="30.9846" y1="24.5613" x2="29.6072" y2="22.4117" gradientUnits="userSpaceOnUse">
<stop stopColor="#F82814" stopOpacity="0"/>
<stop offset="0.2454" stopColor="#F12817" stopOpacity="0.245"/>
<stop offset="0.6052" stopColor="#DD2820" stopOpacity="0.605"/>
<stop offset="1" stopColor="#C0272D"/>
</linearGradient>
<linearGradient id="paint37_linear_255_2399" x1="33.1597" y1="24.7391" x2="32.3294" y2="23.4432" gradientUnits="userSpaceOnUse">
<stop stopColor="#F82814" stopOpacity="0"/>
<stop offset="0.2454" stopColor="#F12817" stopOpacity="0.245"/>
<stop offset="0.6052" stopColor="#DD2820" stopOpacity="0.605"/>
<stop offset="1" stopColor="#C0272D"/>
</linearGradient>
<linearGradient id="paint38_linear_255_2399" x1="13.3997" y1="29.5084" x2="15.2289" y2="33.9409" gradientUnits="userSpaceOnUse">
<stop stopColor="#FF6359"/>
<stop offset="0.2243" stopColor="#FE5B50"/>
<stop offset="0.5952" stopColor="#FC4637"/>
<stop offset="1" stopColor="#F82814"/>
</linearGradient>
<linearGradient id="paint39_linear_255_2399" x1="14.3314" y1="30.933" x2="12.5866" y2="28.2101" gradientUnits="userSpaceOnUse">
<stop stopColor="#F82814" stopOpacity="0"/>
<stop offset="0.2454" stopColor="#F12817" stopOpacity="0.245"/>
<stop offset="0.6052" stopColor="#DD2820" stopOpacity="0.605"/>
<stop offset="1" stopColor="#C0272D"/>
</linearGradient>
<linearGradient id="paint40_linear_255_2399" x1="12.9449" y1="32.5156" x2="11.5675" y2="30.3661" gradientUnits="userSpaceOnUse">
<stop stopColor="#F82814" stopOpacity="0"/>
<stop offset="0.2454" stopColor="#F12817" stopOpacity="0.245"/>
<stop offset="0.6052" stopColor="#DD2820" stopOpacity="0.605"/>
<stop offset="1" stopColor="#C0272D"/>
</linearGradient>
<linearGradient id="paint41_linear_255_2399" x1="15.1201" y1="32.6934" x2="14.2897" y2="31.3975" gradientUnits="userSpaceOnUse">
<stop stopColor="#F82814" stopOpacity="0"/>
<stop offset="0.2454" stopColor="#F12817" stopOpacity="0.245"/>
<stop offset="0.6052" stopColor="#DD2820" stopOpacity="0.605"/>
<stop offset="1" stopColor="#C0272D"/>
</linearGradient>
<linearGradient id="paint42_linear_255_2399" x1="22.0524" y1="23.0021" x2="24.1495" y2="26.4848" gradientUnits="userSpaceOnUse">
<stop stopColor="#A57C52"/>
<stop offset="0.1339" stopColor="#A26C4A"/>
<stop offset="0.5155" stopColor="#994336"/>
<stop offset="0.8174" stopColor="#942A2A"/>
<stop offset="1" stopColor="#922125"/>
</linearGradient>
<linearGradient id="paint43_linear_255_2399" x1="25.8193" y1="32.84" x2="21.6331" y2="24.925" gradientUnits="userSpaceOnUse">
<stop stopColor="#798C00" stopOpacity="0"/>
<stop offset="0.6542" stopColor="#556100" stopOpacity="0.654"/>
<stop offset="1" stopColor="#464F00"/>
</linearGradient>
<linearGradient id="paint44_linear_255_2399" x1="26.4546" y1="23.6863" x2="24.979" y2="27.9927" gradientUnits="userSpaceOnUse">
<stop stopColor="#FFDECF"/>
<stop offset="0.3791" stopColor="#FDC4B0"/>
<stop offset="0.7655" stopColor="#FBAE97"/>
<stop offset="1" stopColor="#FAA68E"/>
</linearGradient>
<linearGradient id="paint45_linear_255_2399" x1="24.5154" y1="29.1624" x2="25.7063" y2="25.6871" gradientUnits="userSpaceOnUse">
<stop stopColor="#FFDECF"/>
<stop offset="0.3791" stopColor="#FDC4B0"/>
<stop offset="0.7655" stopColor="#FBAE97"/>
<stop offset="1" stopColor="#FAA68E"/>
</linearGradient>
<linearGradient id="paint46_linear_255_2399" x1="7.1683" y1="27.1237" x2="8.07173" y2="28.9305" gradientUnits="userSpaceOnUse">
<stop stopColor="#8A7889"/>
<stop offset="0.3344" stopColor="#867385"/>
<stop offset="0.7039" stopColor="#7B667B"/>
<stop offset="1" stopColor="#6E566E"/>
</linearGradient>
<linearGradient id="paint47_linear_255_2399" x1="17.0557" y1="24.4156" x2="17.9592" y2="26.2225" gradientUnits="userSpaceOnUse">
<stop stopColor="#8A7889"/>
<stop offset="0.3344" stopColor="#867385"/>
<stop offset="0.7039" stopColor="#7B667B"/>
<stop offset="1" stopColor="#6E566E"/>
</linearGradient>
<linearGradient id="paint48_linear_255_2399" x1="29.6478" y1="17.4239" x2="30.5512" y2="19.2308" gradientUnits="userSpaceOnUse">
<stop stopColor="#8A7889"/>
<stop offset="0.3344" stopColor="#867385"/>
<stop offset="0.7039" stopColor="#7B667B"/>
<stop offset="1" stopColor="#6E566E"/>
</linearGradient>
<linearGradient id="paint49_linear_255_2399" x1="3.30892" y1="37.9191" x2="4.21235" y2="39.7259" gradientUnits="userSpaceOnUse">
<stop stopColor="#8A7889"/>
<stop offset="0.3344" stopColor="#867385"/>
<stop offset="0.7039" stopColor="#7B667B"/>
<stop offset="1" stopColor="#6E566E"/>
</linearGradient>
<linearGradient id="paint50_linear_255_2399" x1="13.8536" y1="19.0572" x2="15.6828" y2="23.4897" gradientUnits="userSpaceOnUse">
<stop stopColor="#FF6359"/>
<stop offset="0.2243" stopColor="#FE5B50"/>
<stop offset="0.5952" stopColor="#FC4637"/>
<stop offset="1" stopColor="#F82814"/>
</linearGradient>
<linearGradient id="paint51_linear_255_2399" x1="14.7846" y1="20.4765" x2="13.0398" y2="17.7535" gradientUnits="userSpaceOnUse">
<stop stopColor="#F82814" stopOpacity="0"/>
<stop offset="0.2454" stopColor="#F12817" stopOpacity="0.245"/>
<stop offset="0.6052" stopColor="#DD2820" stopOpacity="0.605"/>
<stop offset="1" stopColor="#C0272D"/>
</linearGradient>
<linearGradient id="paint52_linear_255_2399" x1="13.3979" y1="22.0591" x2="12.0205" y2="19.9095" gradientUnits="userSpaceOnUse">
<stop stopColor="#F82814" stopOpacity="0"/>
<stop offset="0.2454" stopColor="#F12817" stopOpacity="0.245"/>
<stop offset="0.6052" stopColor="#DD2820" stopOpacity="0.605"/>
<stop offset="1" stopColor="#C0272D"/>
</linearGradient>
<linearGradient id="paint53_linear_255_2399" x1="15.5731" y1="22.2369" x2="14.7427" y2="20.9409" gradientUnits="userSpaceOnUse">
<stop stopColor="#F82814" stopOpacity="0"/>
<stop offset="0.2454" stopColor="#F12817" stopOpacity="0.245"/>
<stop offset="0.6052" stopColor="#DD2820" stopOpacity="0.605"/>
<stop offset="1" stopColor="#C0272D"/>
</linearGradient>
<linearGradient id="paint54_linear_255_2399" x1="28.5868" y1="13.9122" x2="30.6839" y2="17.3949" gradientUnits="userSpaceOnUse">
<stop stopColor="#A57C52"/>
<stop offset="0.1339" stopColor="#A26C4A"/>
<stop offset="0.5155" stopColor="#994336"/>
<stop offset="0.8174" stopColor="#942A2A"/>
<stop offset="1" stopColor="#922125"/>
</linearGradient>
<linearGradient id="paint55_linear_255_2399" x1="37.0492" y1="12.9773" x2="33.3907" y2="18.9575" gradientUnits="userSpaceOnUse">
<stop stopColor="#FAA68E"/>
<stop offset="0.2061" stopColor="#FBA682"/>
<stop offset="0.5808" stopColor="#FDA861"/>
<stop offset="1" stopColor="#FFA936"/>
</linearGradient>
<clipPath id="clip0_255_2399">
<rect width="50" height="50" fill="white" transform="translate(0.5)"/>
</clipPath>
</defs>
</svg>