<svg width="51" height="50" viewBox="0 0 51 50" fill="none" xmlns="http://www.w3.org/2000/svg">
<g clipPath="url(#clip0_255_2419)">
<path d="M47.5605 29.2022C43.0022 34.5211 34.4729 37.7022 30.3458 34.1652C26.2186 30.6282 28.0563 21.7124 32.6146 16.3935C37.1729 11.0747 42.7255 11.3669 46.8527 14.9039C50.9798 18.4409 52.1188 23.8834 47.5605 29.2022Z" fill="url(#paint0_linear_255_2419)"/>
<path d="M47.5605 29.2022C43.0022 34.5211 34.4729 37.7022 30.3458 34.1652C26.2186 30.6282 28.0563 21.7124 32.6146 16.3935C37.1729 11.0747 42.7255 11.3669 46.8527 14.9039C50.9798 18.4409 52.1188 23.8834 47.5605 29.2022Z" fill="url(#paint1_linear_255_2419)"/>
<path d="M47.5605 29.2021C52.1188 23.8833 50.98 18.4408 46.8527 14.9038L30.3457 34.1651C34.4729 37.7021 43.0022 34.521 47.5605 29.2021Z" fill="url(#paint2_linear_255_2419)"/>
<path d="M49.8948 19.0316C49.0716 18.7844 48.2392 18.6283 47.4143 18.5628C45.2314 18.3895 43.0994 19.2837 41.6744 20.9463L37.2829 26.0706C36.8135 28.9328 37.6295 32.0918 39.6057 34.7234C42.554 33.624 45.4735 31.6376 47.5605 29.2023C50.5893 25.6682 51.102 22.0796 49.8948 19.0316Z" fill="url(#paint3_linear_255_2419)"/>
<path d="M47.5608 29.2025C44.1104 33.2287 38.3853 36.0284 34.0157 35.6185C33.2645 34.3481 32.7615 32.9917 32.5195 31.629L41.9684 20.6035C44.6607 20.6634 47.48 21.7012 49.8337 23.7185C49.985 23.8481 50.1328 23.9808 50.2765 24.1146C49.8969 25.7792 49.0224 27.4973 47.5608 29.2025Z" fill="url(#paint4_linear_255_2419)"/>
<path d="M47.5608 29.2026C43.1895 34.3032 35.1678 37.4366 30.8771 34.5665C30.8445 34.2465 30.8277 33.9253 30.8264 33.6045L39.353 23.6553C42.1267 23.2404 45.0579 23.9864 47.3548 25.9548C47.9083 26.4291 48.3969 26.9515 48.8203 27.5097C48.4621 28.0739 48.0439 28.6389 47.5608 29.2026Z" fill="url(#paint5_linear_255_2419)"/>
<path d="M45.8993 30.895C41.1545 35.1468 34.0131 37.308 30.3459 34.1652L36.146 27.3974C39.0627 26.8099 42.2102 27.5234 44.6448 29.6098C45.1083 30.0071 45.5261 30.4382 45.8993 30.895Z" fill="url(#paint6_linear_255_2419)"/>
<path d="M42.5226 33.3395C38.2117 35.8359 33.2151 36.6239 30.3459 34.1651L32.7253 31.3886C36.6088 30.3591 40.4106 31.199 42.5226 33.3395Z" fill="url(#paint7_linear_255_2419)"/>
<path d="M45.8993 30.895C41.1545 35.1468 34.0131 37.308 30.3459 34.1652L36.146 27.3974C39.0627 26.8099 42.2102 27.5234 44.6448 29.6098C45.1083 30.0071 45.5261 30.4382 45.8993 30.895Z" fill="url(#paint8_linear_255_2419)"/>
<path d="M42.3081 12.5294C42.6783 13.305 42.9602 14.1037 43.1512 14.9089C43.6565 17.0396 43.0994 19.2834 41.6744 20.9461L37.2829 26.0703C34.5264 26.9724 31.2797 26.6497 28.3765 25.0996C29.0115 22.0178 30.5275 18.8286 32.6145 16.3934C35.6435 12.8592 39.1111 11.8031 42.3081 12.5294Z" fill="url(#paint9_linear_255_2419)"/>
<path d="M32.6147 16.3933C29.1643 20.4193 27.2741 26.5058 28.3482 30.7609C29.7186 31.3089 31.136 31.5982 32.5197 31.6287L41.9685 20.6032C41.4971 17.9518 40.0399 15.3247 37.6861 13.3075C37.5348 13.1778 37.3811 13.0521 37.2267 12.9307C35.64 13.5606 34.0761 14.6879 32.6147 16.3933Z" fill="url(#paint10_linear_255_2419)"/>
<path d="M32.6147 16.393C28.2434 21.4936 26.3752 29.9005 29.8683 33.7012C30.1895 33.6844 30.5095 33.6518 30.8267 33.604L39.3533 23.6548C39.3386 20.8502 38.1527 18.0678 35.8558 16.0993C35.3024 15.625 34.7114 15.2221 34.095 14.8892C33.5922 15.3295 33.0978 15.8292 32.6147 16.393Z" fill="url(#paint11_linear_255_2419)"/>
<path d="M31.1964 18.2944C27.7212 23.6342 26.6788 31.0223 30.346 34.165L36.1461 27.3972C36.2801 24.4249 35.0931 21.4237 32.6587 19.3373C32.1949 18.9401 31.705 18.5932 31.1964 18.2944Z" fill="url(#paint12_linear_255_2419)"/>
<path d="M29.2976 22.0054C27.4907 26.6477 27.4769 31.7061 30.346 34.1648L32.7254 31.3884C33.1483 27.3931 31.7362 23.7647 29.2976 22.0054Z" fill="url(#paint13_linear_255_2419)"/>
<path d="M37.8631 31.2809C36.8204 31.001 35.3288 30.9766 33.873 31.2158C33.4784 31.2801 33.1006 31.3618 32.7441 31.4589L33.5065 30.5693C35.1175 30.2737 36.8284 30.2826 38.043 30.6083C38.2296 30.6588 38.3389 30.8491 38.2894 31.0346C38.2394 31.2205 38.0485 31.3304 37.8631 31.2809Z" fill="url(#paint14_linear_255_2419)"/>
<path d="M41.4662 27.8999C40.4592 27.5115 38.9788 27.328 37.506 27.4105C36.9993 27.439 36.515 27.4975 36.0652 27.5837L36.7613 26.7714C38.5252 26.5724 40.436 26.7557 41.7167 27.2505C41.8964 27.3206 41.9852 27.521 41.9161 27.7005C41.8471 27.8801 41.6458 27.9689 41.4662 27.8999Z" fill="url(#paint15_linear_255_2419)"/>
<path d="M44.5853 24.5399C43.6018 24.0965 42.1335 23.8308 40.6582 23.8313C40.1471 23.8313 39.6576 23.8637 39.2007 23.9249L39.6931 23.3504L39.9275 23.1527C41.7067 23.0486 43.6151 23.3385 44.8723 23.9058C45.0474 23.9859 45.1248 24.1913 45.0459 24.3663C44.9668 24.5413 44.7608 24.6193 44.5853 24.5399Z" fill="url(#paint16_linear_255_2419)"/>
<path d="M44.848 21.2861C44.0861 20.9745 43.0467 20.7783 41.9414 20.7269L42.5078 20.0659C43.4847 20.1532 44.3978 20.3507 45.1113 20.6416C45.2896 20.7155 45.3749 20.9178 45.3019 21.095C45.229 21.2732 45.0263 21.359 44.848 21.2861Z" fill="url(#paint17_linear_255_2419)"/>
<path d="M38.0427 30.6083C36.8281 30.2826 35.1172 30.2737 33.5063 30.5693L32.7439 31.4589C33.1003 31.3618 33.4782 31.2802 33.8727 31.2158C35.3286 30.9767 36.8202 31.001 37.8628 31.2809C38.0484 31.3304 38.2391 31.2205 38.2891 31.0345C38.3386 30.8491 38.2294 30.6588 38.0427 30.6083Z" fill="url(#paint18_linear_255_2419)"/>
<path d="M41.7167 27.2505C40.436 26.7557 38.5251 26.5724 36.7613 26.7714L36.0652 27.5837C36.5149 27.4976 36.9992 27.439 37.506 27.4105C38.9788 27.3279 40.4592 27.5114 41.4662 27.8999C41.6458 27.9689 41.8471 27.8801 41.9162 27.7006C41.9852 27.5209 41.8964 27.3205 41.7167 27.2505Z" fill="url(#paint19_linear_255_2419)"/>
<path d="M45.0457 24.3663C45.1247 24.1913 45.0472 23.9858 44.872 23.9057C43.6149 23.3385 41.7065 23.0487 39.9273 23.1527L39.6928 23.3504L39.2004 23.9249C39.6574 23.8637 40.1469 23.8313 40.658 23.8312C42.1333 23.8307 43.6015 24.0966 44.585 24.5398C44.7607 24.6193 44.9666 24.5413 45.0457 24.3663Z" fill="url(#paint20_linear_255_2419)"/>
<path d="M45.3019 21.095C45.3748 20.9178 45.2897 20.7155 45.1113 20.6416C44.3978 20.3507 43.4847 20.1532 42.5078 20.0659L41.9414 20.7269C43.0467 20.7783 44.0861 20.9745 44.848 21.2861C45.0262 21.359 45.2289 21.2732 45.3019 21.095Z" fill="url(#paint21_linear_255_2419)"/>
<path d="M32.045 26.2947C32.4812 27.2822 32.7337 28.7525 32.7203 30.2279C32.7171 30.6277 32.6942 31.0136 32.6528 31.3807L33.4152 30.491C33.4607 28.8538 33.1898 27.1644 32.6821 26.0141C32.6037 25.8373 32.3989 25.7585 32.2231 25.8358C32.0469 25.9137 31.9676 26.119 32.045 26.2947Z" fill="url(#paint22_linear_255_2419)"/>
<path d="M34.8347 22.2165C35.3727 23.1522 35.7807 24.587 35.9246 26.0551C35.9741 26.5603 35.9904 27.0478 35.9741 27.5054L36.6702 26.6931C36.5969 24.9194 36.1231 23.0593 35.4381 21.8693C35.3413 21.7025 35.1297 21.6455 34.9628 21.7412C34.796 21.837 34.739 22.0496 34.8347 22.2165Z" fill="url(#paint23_linear_255_2419)"/>
<path d="M37.6774 18.6198C38.2661 19.5239 38.7535 20.9341 38.979 22.3921C39.0572 22.8971 39.1002 23.3858 39.1097 23.8468L39.6021 23.2722L39.7614 23.0102C39.5919 21.236 39.0134 19.3945 38.2603 18.2391C38.1544 18.0783 37.9395 18.0333 37.7786 18.1381C37.6176 18.2429 37.572 18.4585 37.6774 18.6198Z" fill="url(#paint24_linear_255_2419)"/>
<path d="M40.8524 17.8621C41.277 18.5674 41.63 19.5645 41.85 20.649L42.4165 19.988C42.1807 19.0361 41.8457 18.164 41.4489 17.5034C41.3486 17.3384 41.1357 17.2852 40.9717 17.3844C40.8068 17.4837 40.753 17.6971 40.8524 17.8621Z" fill="url(#paint25_linear_255_2419)"/>
<path d="M43.4088 19.7431C35.9558 27.591 30.4788 36.8835 27.2882 47.0734C27.0065 47.9731 26.0339 48.4579 25.1482 48.135C24.2811 47.8187 23.8403 46.8514 24.1747 45.991C28.1653 35.7224 34.4205 26.5152 42.6346 18.9527C42.8474 18.7567 43.1768 18.76 43.388 18.9584C43.5546 19.1152 43.6017 19.3489 43.5278 19.5511C43.5024 19.6205 43.4632 19.6859 43.4088 19.7431Z" fill="url(#paint26_linear_255_2419)"/>
<path d="M32.7703 30.1011C29.2538 35.0117 26.3707 40.3399 24.1747 45.9906C23.8403 46.851 24.2811 47.8184 25.1482 48.1346C26.0339 48.4576 27.0065 47.9727 27.2882 47.0729C28.6856 42.61 30.5218 38.3191 32.7703 34.2464V30.1011Z" fill="url(#paint27_linear_255_2419)"/>
<path d="M4.19676 35.8528C9.28084 40.6715 18.0934 42.9533 21.8326 39.0082C25.5718 35.0632 22.8215 26.3854 17.7374 21.5666C12.6533 16.7479 7.16073 17.6129 3.42157 21.5579C-0.317593 25.503 -0.887319 31.034 4.19676 35.8528Z" fill="url(#paint28_linear_255_2419)"/>
<path d="M4.19676 35.8529C-0.887319 31.0342 -0.317593 25.5031 3.42157 21.5581L21.8326 39.0084C18.0934 42.9534 9.28084 40.6718 4.19676 35.8529Z" fill="url(#paint29_linear_255_2419)"/>
<path d="M0.82264 25.978C1.6158 25.647 2.42762 25.4055 3.24129 25.2551C5.39452 24.8569 7.6077 25.5258 9.19696 27.0321L14.095 31.6746C14.858 34.4728 14.3732 37.6993 12.6798 40.5213C9.63358 39.7328 6.5243 38.0591 4.19657 35.8527C0.818441 32.6509 -0.0628089 29.1346 0.82264 25.978Z" fill="url(#paint30_linear_255_2419)"/>
<path d="M4.19619 35.8526C8.04463 39.5002 14.0287 41.6927 18.3323 40.8328C18.9481 39.4915 19.3081 38.0903 19.4078 36.71L8.86914 26.7212C6.19736 27.0593 3.50068 28.3832 1.36816 30.6331C1.23105 30.7777 1.09775 30.9249 0.96875 31.073C1.51865 32.6894 2.56621 34.3076 4.19619 35.8526Z" fill="url(#paint31_linear_255_2419)"/>
<path d="M4.19624 35.8528C9.07173 40.4738 17.3746 42.7605 21.3453 39.462C21.3446 39.1403 21.3281 38.8191 21.2961 38.5L11.7861 29.4862C8.98433 29.3604 6.14604 30.4056 4.06509 32.6012C3.56362 33.1302 3.13169 33.7003 2.76831 34.2993C3.18306 34.8233 3.65747 35.3422 4.19624 35.8528Z" fill="url(#paint32_linear_255_2419)"/>
<path d="M6.02417 37.3644C11.1833 41.1025 18.51 42.5134 21.8324 39.0081L15.3633 32.8765C12.4015 32.5939 9.34468 33.6292 7.13901 35.9562C6.71899 36.3994 6.348 36.8715 6.02417 37.3644Z" fill="url(#paint33_linear_255_2419)"/>
<path d="M9.63574 39.4465C14.1818 41.4835 19.2331 41.7504 21.8325 39.008L19.1787 36.4926C15.2094 35.8703 11.5149 37.0991 9.63574 39.4465Z" fill="url(#paint34_linear_255_2419)"/>
<path d="M6.02441 37.3644C11.1836 41.1025 18.5103 42.5134 21.8326 39.0081L15.3636 32.8765C12.4018 32.5939 9.34492 33.6292 7.13926 35.9562C6.71924 36.3994 6.34824 36.8715 6.02441 37.3644Z" fill="url(#paint35_linear_255_2419)"/>
<path d="M7.69628 18.7261C7.40829 19.5359 7.21054 20.3594 7.1039 21.18C6.82167 23.3515 7.608 25.5256 9.19726 27.0321L14.0953 31.6745C16.9304 32.2865 20.1263 31.6297 22.8535 29.7876C21.903 26.788 20.0652 23.7728 17.7375 21.5665C14.3593 18.3647 10.8009 17.673 7.69628 18.7261Z" fill="url(#paint36_linear_255_2419)"/>
<path d="M17.7375 21.566C21.5859 25.2136 24.0956 31.0718 23.4674 35.4152C22.1611 36.1021 20.7812 36.5364 19.4081 36.71L8.86938 26.7211C9.06401 24.0351 10.2416 21.2714 12.3741 19.0215C12.5112 18.8769 12.651 18.7358 12.7919 18.5991C14.4353 19.0616 16.1075 20.021 17.7375 21.566Z" fill="url(#paint37_linear_255_2419)"/>
<path d="M17.7375 21.566C21.5859 25.2136 24.0956 31.0718 23.4674 35.4152C22.1611 36.1021 20.7812 36.5364 19.4081 36.71L8.86938 26.7211C9.06401 24.0351 10.2416 21.2714 12.3741 19.0215C12.5112 18.8769 12.651 18.7358 12.7919 18.5991C14.4353 19.0616 16.1075 20.021 17.7375 21.566Z" fill="url(#paint38_linear_255_2419)"/>
<path d="M17.7374 21.5662C22.6129 26.1873 25.3408 34.3558 22.2597 38.4974C21.9385 38.5139 21.6168 38.5145 21.2964 38.4999L11.7863 29.4861C11.5107 26.6951 12.4024 23.805 14.4834 21.6095C14.9848 21.0805 15.5309 20.6186 16.1097 20.2236C16.6552 20.6096 17.1986 21.0555 17.7374 21.5662Z" fill="url(#paint39_linear_255_2419)"/>
<path d="M19.3448 23.3105C23.3537 28.2621 25.1549 35.5027 21.8325 39.008L15.3635 32.8765C14.9227 29.9341 15.7928 26.8262 17.9984 24.4991C18.4184 24.056 18.8699 23.6603 19.3448 23.3105Z" fill="url(#paint40_linear_255_2419)"/>
<path d="M21.6175 26.8052C23.895 31.2356 24.432 36.2654 21.8326 39.0079L19.1788 36.4926C18.3449 32.5623 19.374 28.8074 21.6175 26.8052Z" fill="url(#paint41_linear_255_2419)"/>
<path d="M14.057 36.9176C15.0651 36.5313 16.5462 36.3528 18.019 36.44C18.4181 36.4632 18.8024 36.5054 19.167 36.565L18.3166 35.759C16.6837 35.6316 14.9829 35.8176 13.8085 36.2671C13.628 36.3367 13.5391 36.5371 13.6075 36.7165C13.6765 36.8966 13.8776 36.9861 14.057 36.9176Z" fill="url(#paint42_linear_255_2419)"/>
<path d="M10.1234 33.927C11.0847 33.4365 12.5383 33.1008 14.0117 33.0306C14.5187 33.0064 15.0064 33.0146 15.4627 33.0538L14.6862 32.3178C12.9111 32.3023 11.0296 32.6824 9.8068 33.307C9.63531 33.3953 9.56783 33.6038 9.65504 33.7753C9.74244 33.9467 9.95191 34.0142 10.1234 33.927Z" fill="url(#paint43_linear_255_2419)"/>
<path d="M6.67341 30.9079C7.60583 30.3652 9.03864 29.949 10.5061 29.7968C11.0145 29.7439 11.5047 29.7255 11.9655 29.7392L11.4164 29.2187L11.1627 29.0464C9.3822 29.127 7.51403 29.6126 6.32233 30.3068C6.15642 30.4046 6.10065 30.6169 6.19733 30.7828C6.29401 30.9488 6.507 31.0051 6.67341 30.9079Z" fill="url(#paint44_linear_255_2419)"/>
<path d="M6.07566 27.6989C6.80125 27.3102 7.81482 27.0074 8.90887 26.842L8.27703 26.2432C7.31443 26.4311 6.42674 26.722 5.74705 27.0852C5.57732 27.1771 5.51346 27.3871 5.60438 27.5559C5.69539 27.7256 5.90584 27.7898 6.07566 27.6989Z" fill="url(#paint45_linear_255_2419)"/>
<path d="M13.8089 36.2666C14.9834 35.8171 16.6841 35.6311 18.3171 35.7585L19.1674 36.5645C18.8029 36.5048 18.4186 36.4626 18.0195 36.4395C16.5466 36.3523 15.0656 36.5308 14.0575 36.9171C13.8781 36.9855 13.677 36.896 13.6081 36.7161C13.5395 36.5367 13.6285 36.3362 13.8089 36.2666Z" fill="url(#paint46_linear_255_2419)"/>
<path d="M9.80725 33.3065C11.03 32.6818 12.9115 32.3018 14.6866 32.3174L15.4631 33.0533C15.0069 33.0141 14.5192 33.006 14.0121 33.0301C12.5388 33.1004 11.0852 33.436 10.1239 33.9265C9.95237 34.0137 9.74289 33.9463 9.65559 33.7748C9.56829 33.6033 9.63577 33.3948 9.80725 33.3065Z" fill="url(#paint47_linear_255_2419)"/>
<path d="M6.19758 30.7823C6.1009 30.6164 6.15666 30.404 6.32258 30.3063C7.51428 29.612 9.38244 29.1264 11.1629 29.0459L11.4166 29.2182L11.9657 29.7387C11.5049 29.7251 11.0147 29.7435 10.5064 29.7963C9.03889 29.9484 7.60607 30.3646 6.67365 30.9074C6.50725 31.0045 6.29426 30.9482 6.19758 30.7823Z" fill="url(#paint48_linear_255_2419)"/>
<path d="M5.60464 27.5554C5.51372 27.3866 5.57749 27.1767 5.74731 27.0847C6.427 26.7215 7.3147 26.4307 8.2773 26.2427L8.90913 26.8415C7.81509 27.007 6.80151 27.3097 6.07593 27.6984C5.90601 27.7895 5.69556 27.7252 5.60464 27.5554Z" fill="url(#paint49_linear_255_2419)"/>
<path d="M19.3284 31.3562C18.9967 32.3835 18.8977 33.8721 19.0637 35.3381C19.1082 35.7354 19.1709 36.1168 19.25 36.4778L18.3996 35.6718C18.1849 34.0481 18.2796 32.3398 18.6656 31.143C18.7254 30.9591 18.9209 30.8595 19.1037 30.9182C19.287 30.9774 19.3871 31.1734 19.3284 31.3562Z" fill="url(#paint50_linear_255_2419)"/>
<path d="M16.1316 27.5887C15.6933 28.5749 15.4359 30.0443 15.4447 31.5193C15.4477 32.0269 15.4819 32.5135 15.5455 32.967L14.769 32.2311C14.6584 30.4594 14.9372 28.5602 15.4955 27.3058C15.5745 27.1299 15.779 27.0513 15.9549 27.1292C16.1309 27.2071 16.2095 27.4127 16.1316 27.5887Z" fill="url(#paint51_linear_255_2419)"/>
<path d="M12.9321 24.305C12.4401 25.2652 12.1012 26.7182 12.0278 28.1917C12.0022 28.7022 12.0101 29.1927 12.0484 29.6521L11.4993 29.1316L11.3136 28.8875C11.2988 27.1053 11.6837 25.2139 12.3132 23.9867C12.4018 23.8158 12.6109 23.7487 12.7818 23.8364C12.9527 23.9241 13.0203 24.1336 12.9321 24.305Z" fill="url(#paint52_linear_255_2419)"/>
<path d="M9.6957 23.8798C9.34629 24.6253 9.09834 25.6536 8.9917 26.7548L8.35986 26.156C8.496 25.1847 8.73887 24.2827 9.06514 23.5845C9.14785 23.4101 9.3541 23.3351 9.52744 23.4169C9.70186 23.4986 9.77734 23.7054 9.6957 23.8798Z" fill="url(#paint53_linear_255_2419)"/>
<path d="M24.8227 42.7318V48.5162C20.6315 39.9422 14.7186 32.3188 7.34715 26.0145C7.28758 25.9634 7.24159 25.9022 7.20926 25.8357C7.11483 25.6417 7.13778 25.4052 7.2867 25.2315C7.47645 25.0128 7.80409 24.9754 8.03563 25.1481C14.6522 30.0789 20.2971 36.0139 24.8227 42.7318Z" fill="url(#paint54_linear_255_2419)"/>
<path d="M16.6938 35.6732C19.8659 39.6471 22.5891 43.9466 24.8229 48.5163V42.7319C22.4211 39.1667 19.704 35.8221 16.6938 32.731V35.6732Z" fill="url(#paint55_linear_255_2419)"/>
<path d="M36.7138 12.6647C36.7138 20.6223 31.7083 29.6714 25.5335 29.6714C19.3588 29.6714 14.3533 20.6223 14.3533 12.6647C14.3533 4.70723 19.3588 0.854492 25.5334 0.854492C31.7081 0.854492 36.7138 4.70713 36.7138 12.6647Z" fill="url(#paint56_linear_255_2419)"/>
<path d="M36.7137 12.6646C36.7137 4.70713 31.7082 0.854492 25.5334 0.854492V29.6713C31.7081 29.6713 36.7137 20.6222 36.7137 12.6646Z" fill="url(#paint57_linear_255_2419)"/>
<path d="M31.2086 2.16602C30.3159 2.56133 29.4824 3.04189 28.7225 3.59531C26.7116 5.05957 25.5334 7.40693 25.5334 9.89453V17.5609C27.2444 20.3768 30.2834 22.4984 33.9335 23.3076C35.6639 20.1799 36.7138 16.3082 36.7138 12.6648C36.7137 7.37715 34.5032 3.90273 31.2086 2.16602Z" fill="url(#paint58_linear_255_2419)"/>
<path d="M36.714 12.6646C36.714 18.688 33.8453 25.3353 29.7732 28.2117C28.1861 27.6713 26.7496 26.873 25.5334 25.8766V9.38135C27.9001 7.44277 31.0991 6.25391 34.6206 6.25391C34.8469 6.25391 35.0724 6.25898 35.2954 6.26836C36.1983 7.98486 36.714 10.1133 36.714 12.6646Z" fill="url(#paint59_linear_255_2419)"/>
<path d="M36.7141 12.6643C36.7141 20.2953 32.111 28.9279 26.2883 29.6241C26.0237 29.3723 25.7717 29.1075 25.5334 28.8318V13.9468C27.6193 11.5384 30.6991 10.0151 34.1355 10.0151C34.9635 10.0151 35.7711 10.1045 36.549 10.2729C36.6571 11.0244 36.7141 11.821 36.7141 12.6643Z" fill="url(#paint60_linear_255_2419)"/>
<path d="M36.532 15.3526C35.5823 22.5275 31.02 29.6709 25.5334 29.6709V19.5456C27.615 16.8828 30.8574 15.1714 34.4998 15.1714C35.1933 15.1714 35.8724 15.2344 36.532 15.3526Z" fill="url(#paint61_linear_255_2419)"/>
<path d="M35.4265 19.9575C33.5535 25.2977 29.826 29.671 25.5334 29.671V25.5172C28.1223 21.7582 32.0225 19.6724 35.4265 19.9575Z" fill="url(#paint62_linear_255_2419)"/>
<path d="M36.532 15.3526C35.5823 22.5275 31.02 29.6709 25.5334 29.6709V19.5456C27.615 16.8828 30.8574 15.1714 34.4998 15.1714C35.1933 15.1714 35.8724 15.2344 36.532 15.3526Z" fill="url(#paint63_linear_255_2419)"/>
<path d="M19.8581 2.16602C20.7509 2.56133 21.5844 3.04189 22.3443 3.59531C24.3553 5.05957 25.5334 7.40693 25.5334 9.89453V17.5609C23.8225 20.3768 20.7834 22.4984 17.1333 23.3076C15.4029 20.1799 14.353 16.3082 14.353 12.6648C14.353 7.37715 16.5636 3.90273 19.8581 2.16602Z" fill="url(#paint64_linear_255_2419)"/>
<path d="M14.3528 12.6646C14.3528 18.688 17.2215 25.3353 21.2936 28.2117C22.8807 27.6713 24.3172 26.873 25.5333 25.8766V9.38135C23.1666 7.44277 19.9677 6.25391 16.4462 6.25391C16.2199 6.25391 15.9944 6.25898 15.7714 6.26836C14.8685 7.98486 14.3528 10.1133 14.3528 12.6646Z" fill="url(#paint65_linear_255_2419)"/>
<path d="M14.3528 12.6643C14.3528 20.2953 18.9559 28.9279 24.7786 29.6241C25.0432 29.3723 25.2952 29.1075 25.5334 28.8318V13.9468C23.4476 11.5384 20.3678 10.0151 16.9314 10.0151C16.1034 10.0151 15.2958 10.1045 14.5179 10.2729C14.4098 11.0244 14.3528 11.821 14.3528 12.6643Z" fill="url(#paint66_linear_255_2419)"/>
<path d="M14.5349 15.3526C15.4846 22.5275 20.0469 29.6709 25.5334 29.6709V19.5456C23.4519 16.8828 20.2095 15.1714 16.5671 15.1714C15.8736 15.1714 15.1945 15.2344 14.5349 15.3526Z" fill="url(#paint67_linear_255_2419)"/>
<path d="M15.6404 19.9575C17.5134 25.2977 21.2409 29.671 25.5334 29.671V25.5172C22.9446 21.7582 19.0444 19.6724 15.6404 19.9575Z" fill="url(#paint68_linear_255_2419)"/>
<path d="M29.8855 21.6266C28.7792 22.1559 27.4746 23.2376 26.3955 24.5201C26.1027 24.8672 25.8372 25.217 25.6016 25.5643V24.2333C26.7726 22.7874 28.255 21.5304 29.5435 20.9134C29.7418 20.819 29.9767 20.9024 30.0711 21.099C30.1655 21.2963 30.0821 21.5321 29.8855 21.6266Z" fill="url(#paint69_linear_255_2419)"/>
<path d="M30.494 16.0464C29.3384 16.4558 27.9257 17.3918 26.7164 18.5518C26.3003 18.9509 25.9258 19.3594 25.6016 19.7661V18.5509C26.976 17.0752 28.7597 15.8208 30.2302 15.3009C30.437 15.2285 30.6616 15.3358 30.7349 15.5417C30.8081 15.7478 30.7 15.9733 30.494 16.0464Z" fill="url(#paint70_linear_255_2419)"/>
<path d="M30.7008 10.8426C29.5247 11.1872 28.0618 12.0434 26.7896 13.1344C26.3487 13.5122 25.9505 13.902 25.6016 14.2926V13.4331L25.6577 13.0893C27.1155 11.6843 28.9758 10.5235 30.4796 10.0835C30.6898 10.0231 30.9085 10.1431 30.9698 10.3525C31.031 10.5617 30.9109 10.7814 30.7008 10.8426Z" fill="url(#paint71_linear_255_2419)"/>
<path d="M28.5223 7.84185C27.6347 8.13628 26.5931 8.7354 25.6016 9.50816V8.51929C26.5088 7.87251 27.4423 7.36783 28.2729 7.09126C28.4813 7.0232 28.7043 7.13462 28.7724 7.34146C28.8414 7.54908 28.7299 7.7729 28.5223 7.84185Z" fill="url(#paint72_linear_255_2419)"/>
<path d="M29.5435 20.9134C28.2551 21.5304 26.7726 22.7874 25.6016 24.2333V25.5642C25.8373 25.217 26.1028 24.8672 26.3955 24.52C27.4746 23.2375 28.7792 22.1558 29.8855 21.6265C30.0821 21.5321 30.1655 21.2963 30.0711 21.0989C29.9767 20.9024 29.7418 20.819 29.5435 20.9134Z" fill="url(#paint73_linear_255_2419)"/>
<path d="M30.2304 15.3009C28.7599 15.8208 26.9761 17.0752 25.6018 18.5509V19.7661C25.926 19.3594 26.3005 18.9509 26.7167 18.5518C27.9259 17.3918 29.3386 16.4557 30.4943 16.0464C30.7002 15.9733 30.8083 15.7477 30.7351 15.5417C30.6619 15.3358 30.4372 15.2285 30.2304 15.3009Z" fill="url(#paint74_linear_255_2419)"/>
<path d="M30.9698 10.3524C30.9086 10.1431 30.6898 10.0231 30.4796 10.0835C28.9759 10.5234 27.1155 11.6843 25.6577 13.0892L25.6016 13.4331V14.2926C25.9505 13.9019 26.3487 13.5122 26.7896 13.1344C28.0618 12.0433 29.5247 11.1873 30.7008 10.8426C30.9111 10.7813 31.0312 10.5617 30.9698 10.3524Z" fill="url(#paint75_linear_255_2419)"/>
<path d="M28.7726 7.34146C28.7045 7.13462 28.4816 7.0232 28.2731 7.09126C27.4425 7.36783 26.5089 7.87251 25.6018 8.51929V9.50816C26.5932 8.7354 27.6349 8.13628 28.5225 7.84185C28.73 7.7729 28.8416 7.54908 28.7726 7.34146Z" fill="url(#paint76_linear_255_2419)"/>
<path d="M21.1813 21.6266C22.2876 22.1559 23.5922 23.2376 24.6713 24.5201C24.9641 24.8672 25.2296 25.217 25.4652 25.5643V24.2333C24.2942 22.7874 22.8118 21.5304 21.5233 20.9134C21.325 20.819 21.0901 20.9024 20.9957 21.099C20.9013 21.2963 20.9847 21.5321 21.1813 21.6266Z" fill="url(#paint77_linear_255_2419)"/>
<path d="M20.5729 16.0464C21.7285 16.4558 23.1412 17.3918 24.3505 18.5518C24.7666 18.9509 25.1411 19.3594 25.4654 19.7661V18.5509C24.0909 17.0752 22.3073 15.8208 20.8366 15.3009C20.6298 15.2285 20.4052 15.3358 20.332 15.5417C20.2588 15.7478 20.3669 15.9733 20.5729 16.0464Z" fill="url(#paint78_linear_255_2419)"/>
<path d="M20.366 10.8426C21.5421 11.1872 23.0049 12.0434 24.2772 13.1344C24.718 13.5122 25.1163 13.902 25.4652 14.2926V13.4331L25.409 13.0893C23.9512 11.6843 22.091 10.5235 20.5872 10.0835C20.3769 10.0231 20.1583 10.1431 20.097 10.3525C20.0358 10.5617 20.1558 10.7814 20.366 10.8426Z" fill="url(#paint79_linear_255_2419)"/>
<path d="M22.5447 7.84185C23.4323 8.13628 24.4739 8.7354 25.4654 9.50816V8.51929C24.5582 7.87251 23.6247 7.36783 22.7941 7.09126C22.5856 7.0232 22.3627 7.13462 22.2946 7.34146C22.2256 7.54908 22.3371 7.7729 22.5447 7.84185Z" fill="url(#paint80_linear_255_2419)"/>
<path d="M25.5334 49.1449C24.4393 49.1449 23.5633 48.2376 23.6018 47.1441L24.9865 7.81309C24.9968 7.51856 25.2386 7.28516 25.5334 7.28516C25.8281 7.28516 26.0699 7.51856 26.0802 7.81309L27.4649 47.1441C27.5034 48.2375 26.6274 49.1449 25.5334 49.1449Z" fill="url(#paint81_linear_255_2419)"/>
<path d="M23.6018 47.144C23.5633 48.2374 24.4393 49.1448 25.5334 49.1448C26.6274 49.1448 27.5034 48.2375 27.4649 47.144L27.1114 37.1025H23.9553L23.6018 47.144Z" fill="url(#paint82_linear_255_2419)"/>
</g>
<defs>
<linearGradient id="paint0_linear_255_2419" x1="36.9727" y1="14.3581" x2="41.1757" y2="34.5806" gradientUnits="userSpaceOnUse">
<stop stopColor="#78A91F"/>
<stop offset="0.1553" stopColor="#6DA423"/>
<stop offset="0.428" stopColor="#50992E"/>
<stop offset="0.7835" stopColor="#218741"/>
<stop offset="1" stopColor="#017B4E"/>
</linearGradient>
<linearGradient id="paint1_linear_255_2419" x1="39.2939" y1="24.7737" x2="32.9038" y2="21.5786" gradientUnits="userSpaceOnUse">
<stop stopColor="#017B4E" stopOpacity="0"/>
<stop offset="0.473" stopColor="#01774B" stopOpacity="0.473"/>
<stop offset="0.8807" stopColor="#016D44" stopOpacity="0.881"/>
<stop offset="1" stopColor="#026841"/>
</linearGradient>
<linearGradient id="paint2_linear_255_2419" x1="42.6939" y1="26.8429" x2="38.6633" y2="24.6523" gradientUnits="userSpaceOnUse">
<stop stopColor="#026841" stopOpacity="0"/>
<stop offset="0.3243" stopColor="#046842" stopOpacity="0.324"/>
<stop offset="0.5509" stopColor="#0E6546" stopOpacity="0.551"/>
<stop offset="0.7476" stopColor="#1D614C" stopOpacity="0.748"/>
<stop offset="0.9263" stopColor="#335C54" stopOpacity="0.926"/>
<stop offset="1" stopColor="#3E5959"/>
</linearGradient>
<linearGradient id="paint3_linear_255_2419" x1="43.2498" y1="23.361" x2="41.7854" y2="18.7549" gradientUnits="userSpaceOnUse">
<stop stopColor="#017B4E" stopOpacity="0"/>
<stop offset="0.473" stopColor="#01774B" stopOpacity="0.473"/>
<stop offset="0.8807" stopColor="#016D44" stopOpacity="0.881"/>
<stop offset="1" stopColor="#026841"/>
</linearGradient>
<linearGradient id="paint4_linear_255_2419" x1="41.1505" y1="24.6229" x2="40.8968" y2="20.9815" gradientUnits="userSpaceOnUse">
<stop stopColor="#017B4E" stopOpacity="0"/>
<stop offset="0.473" stopColor="#01774B" stopOpacity="0.473"/>
<stop offset="0.8807" stopColor="#016D44" stopOpacity="0.881"/>
<stop offset="1" stopColor="#026841"/>
</linearGradient>
<linearGradient id="paint5_linear_255_2419" x1="39.8519" y1="27.0033" x2="39.8953" y2="23.9451" gradientUnits="userSpaceOnUse">
<stop stopColor="#017B4E" stopOpacity="0"/>
<stop offset="0.473" stopColor="#01774B" stopOpacity="0.473"/>
<stop offset="0.8807" stopColor="#016D44" stopOpacity="0.881"/>
<stop offset="1" stopColor="#026841"/>
</linearGradient>
<linearGradient id="paint6_linear_255_2419" x1="37.9711" y1="31.6371" x2="37.4318" y2="27.8914" gradientUnits="userSpaceOnUse">
<stop stopColor="#017B4E" stopOpacity="0"/>
<stop offset="0.473" stopColor="#01774B" stopOpacity="0.473"/>
<stop offset="0.8807" stopColor="#016D44" stopOpacity="0.881"/>
<stop offset="1" stopColor="#026841"/>
</linearGradient>
<linearGradient id="paint7_linear_255_2419" x1="37.3419" y1="36.4366" x2="35.5596" y2="31.2966" gradientUnits="userSpaceOnUse">
<stop stopColor="#017B4E" stopOpacity="0"/>
<stop offset="0.473" stopColor="#01774B" stopOpacity="0.473"/>
<stop offset="0.8807" stopColor="#016D44" stopOpacity="0.881"/>
<stop offset="1" stopColor="#026841"/>
</linearGradient>
<linearGradient id="paint8_linear_255_2419" x1="38.0742" y1="30.1959" x2="38.1248" y2="34.8121" gradientUnits="userSpaceOnUse">
<stop stopColor="#017B4E" stopOpacity="0"/>
<stop offset="0.473" stopColor="#01774B" stopOpacity="0.473"/>
<stop offset="0.8807" stopColor="#016D44" stopOpacity="0.881"/>
<stop offset="1" stopColor="#026841"/>
</linearGradient>
<linearGradient id="paint9_linear_255_2419" x1="38.7772" y1="19.9859" x2="44.5919" y2="21.737" gradientUnits="userSpaceOnUse">
<stop stopColor="#017B4E" stopOpacity="0"/>
<stop offset="0.473" stopColor="#01774B" stopOpacity="0.473"/>
<stop offset="0.8807" stopColor="#016D44" stopOpacity="0.881"/>
<stop offset="1" stopColor="#026841"/>
</linearGradient>
<linearGradient id="paint10_linear_255_2419" x1="39.1003" y1="21.9098" x2="42.7379" y2="21.6059" gradientUnits="userSpaceOnUse">
<stop stopColor="#017B4E" stopOpacity="0"/>
<stop offset="0.473" stopColor="#01774B" stopOpacity="0.473"/>
<stop offset="0.8807" stopColor="#016D44" stopOpacity="0.881"/>
<stop offset="1" stopColor="#026841"/>
</linearGradient>
<linearGradient id="paint11_linear_255_2419" x1="36.7675" y1="23.5022" x2="39.7834" y2="22.9935" gradientUnits="userSpaceOnUse">
<stop stopColor="#017B4E" stopOpacity="0"/>
<stop offset="0.473" stopColor="#01774B" stopOpacity="0.473"/>
<stop offset="0.8807" stopColor="#016D44" stopOpacity="0.881"/>
<stop offset="1" stopColor="#026841"/>
</linearGradient>
<linearGradient id="paint12_linear_255_2419" x1="33.132" y1="25.8059" x2="36.8933" y2="25.1391" gradientUnits="userSpaceOnUse">
<stop stopColor="#017B4E" stopOpacity="0"/>
<stop offset="0.473" stopColor="#01774B" stopOpacity="0.473"/>
<stop offset="0.8807" stopColor="#016D44" stopOpacity="0.881"/>
<stop offset="1" stopColor="#026841"/>
</linearGradient>
<linearGradient id="paint13_linear_255_2419" x1="29.5206" y1="28.0032" x2="32.9531" y2="28.9774" gradientUnits="userSpaceOnUse">
<stop stopColor="#017B4E" stopOpacity="0"/>
<stop offset="0.473" stopColor="#01774B" stopOpacity="0.473"/>
<stop offset="0.8807" stopColor="#016D44" stopOpacity="0.881"/>
<stop offset="1" stopColor="#026841"/>
</linearGradient>
<linearGradient id="paint14_linear_255_2419" x1="34.7319" y1="34.2337" x2="38.5044" y2="19.4594" gradientUnits="userSpaceOnUse">
<stop stopColor="#D1F19E"/>
<stop offset="1" stopColor="#78A91F"/>
</linearGradient>
<linearGradient id="paint15_linear_255_2419" x1="37.1319" y1="34.8467" x2="40.9045" y2="20.0724" gradientUnits="userSpaceOnUse">
<stop stopColor="#D1F19E"/>
<stop offset="1" stopColor="#78A91F"/>
</linearGradient>
<linearGradient id="paint16_linear_255_2419" x1="39.2374" y1="35.3843" x2="43.01" y2="20.61" gradientUnits="userSpaceOnUse">
<stop stopColor="#D1F19E"/>
<stop offset="1" stopColor="#78A91F"/>
</linearGradient>
<linearGradient id="paint17_linear_255_2419" x1="39.8691" y1="35.5455" x2="43.6418" y2="20.7712" gradientUnits="userSpaceOnUse">
<stop stopColor="#D1F19E"/>
<stop offset="1" stopColor="#78A91F"/>
</linearGradient>
<linearGradient id="paint18_linear_255_2419" x1="35.7133" y1="31.293" x2="34.5552" y2="30.3466" gradientUnits="userSpaceOnUse">
<stop stopColor="#026841" stopOpacity="0"/>
<stop offset="0.3243" stopColor="#046842" stopOpacity="0.324"/>
<stop offset="0.5509" stopColor="#0E6546" stopOpacity="0.551"/>
<stop offset="0.7476" stopColor="#1D614C" stopOpacity="0.748"/>
<stop offset="0.9263" stopColor="#335C54" stopOpacity="0.926"/>
<stop offset="1" stopColor="#3E5959"/>
</linearGradient>
<linearGradient id="paint19_linear_255_2419" x1="38.8812" y1="27.4164" x2="37.7232" y2="26.47" gradientUnits="userSpaceOnUse">
<stop stopColor="#026841" stopOpacity="0"/>
<stop offset="0.3243" stopColor="#046842" stopOpacity="0.324"/>
<stop offset="0.5509" stopColor="#0E6546" stopOpacity="0.551"/>
<stop offset="0.7476" stopColor="#1D614C" stopOpacity="0.748"/>
<stop offset="0.9263" stopColor="#335C54" stopOpacity="0.926"/>
<stop offset="1" stopColor="#3E5959"/>
</linearGradient>
<linearGradient id="paint20_linear_255_2419" x1="41.8544" y1="23.778" x2="40.6963" y2="22.8316" gradientUnits="userSpaceOnUse">
<stop stopColor="#026841" stopOpacity="0"/>
<stop offset="0.3243" stopColor="#046842" stopOpacity="0.324"/>
<stop offset="0.5509" stopColor="#0E6546" stopOpacity="0.551"/>
<stop offset="0.7476" stopColor="#1D614C" stopOpacity="0.748"/>
<stop offset="0.9263" stopColor="#335C54" stopOpacity="0.926"/>
<stop offset="1" stopColor="#3E5959"/>
</linearGradient>
<linearGradient id="paint21_linear_255_2419" x1="44.0355" y1="21.1092" x2="42.8773" y2="20.1628" gradientUnits="userSpaceOnUse">
<stop stopColor="#026841" stopOpacity="0"/>
<stop offset="0.3243" stopColor="#046842" stopOpacity="0.324"/>
<stop offset="0.5509" stopColor="#0E6546" stopOpacity="0.551"/>
<stop offset="0.7476" stopColor="#1D614C" stopOpacity="0.748"/>
<stop offset="0.9263" stopColor="#335C54" stopOpacity="0.926"/>
<stop offset="1" stopColor="#3E5959"/>
</linearGradient>
<linearGradient id="paint22_linear_255_2419" x1="29.5984" y1="29.8005" x2="43.6259" y2="23.8219" gradientUnits="userSpaceOnUse">
<stop stopColor="#D1F19E"/>
<stop offset="1" stopColor="#78A91F"/>
</linearGradient>
<linearGradient id="paint23_linear_255_2419" x1="28.6274" y1="27.5219" x2="42.6548" y2="21.5432" gradientUnits="userSpaceOnUse">
<stop stopColor="#D1F19E"/>
<stop offset="1" stopColor="#78A91F"/>
</linearGradient>
<linearGradient id="paint24_linear_255_2419" x1="27.7753" y1="25.5228" x2="41.8027" y2="19.5442" gradientUnits="userSpaceOnUse">
<stop stopColor="#D1F19E"/>
<stop offset="1" stopColor="#78A91F"/>
</linearGradient>
<linearGradient id="paint25_linear_255_2419" x1="27.5195" y1="24.9232" x2="41.547" y2="18.9445" gradientUnits="userSpaceOnUse">
<stop stopColor="#D1F19E"/>
<stop offset="1" stopColor="#78A91F"/>
</linearGradient>
<linearGradient id="paint26_linear_255_2419" x1="30.1159" y1="31.9612" x2="35.302" y2="33.9506" gradientUnits="userSpaceOnUse">
<stop stopColor="#D1F19E"/>
<stop offset="1" stopColor="#78A91F"/>
</linearGradient>
<linearGradient id="paint27_linear_255_2419" x1="29.2953" y1="39.2154" x2="26.8687" y2="38.5278" gradientUnits="userSpaceOnUse">
<stop stopColor="#026841" stopOpacity="0"/>
<stop offset="0.3243" stopColor="#046842" stopOpacity="0.324"/>
<stop offset="0.5509" stopColor="#0E6546" stopOpacity="0.551"/>
<stop offset="0.7476" stopColor="#1D614C" stopOpacity="0.748"/>
<stop offset="0.9263" stopColor="#335C54" stopOpacity="0.926"/>
<stop offset="1" stopColor="#3E5959"/>
</linearGradient>
<linearGradient id="paint28_linear_255_2419" x1="13.1851" y1="19.9995" x2="11.0895" y2="40.5531" gradientUnits="userSpaceOnUse">
<stop stopColor="#78A91F"/>
<stop offset="0.1553" stopColor="#6DA423"/>
<stop offset="0.428" stopColor="#50992E"/>
<stop offset="0.7835" stopColor="#218741"/>
<stop offset="1" stopColor="#017B4E"/>
</linearGradient>
<linearGradient id="paint29_linear_255_2419" x1="8.78089" y1="33.0116" x2="12.5651" y2="30.4161" gradientUnits="userSpaceOnUse">
<stop stopColor="#026841" stopOpacity="0"/>
<stop offset="0.3243" stopColor="#046842" stopOpacity="0.324"/>
<stop offset="0.5509" stopColor="#0E6546" stopOpacity="0.551"/>
<stop offset="0.7476" stopColor="#1D614C" stopOpacity="0.748"/>
<stop offset="0.9263" stopColor="#335C54" stopOpacity="0.926"/>
<stop offset="1" stopColor="#3E5959"/>
</linearGradient>
<linearGradient id="paint30_linear_255_2419" x1="7.8684" y1="29.6041" x2="8.85026" y2="24.8702" gradientUnits="userSpaceOnUse">
<stop stopColor="#017B4E" stopOpacity="0"/>
<stop offset="0.473" stopColor="#01774B" stopOpacity="0.473"/>
<stop offset="0.8807" stopColor="#016D44" stopOpacity="0.881"/>
<stop offset="1" stopColor="#026841"/>
</linearGradient>
<linearGradient id="paint31_linear_255_2419" x1="10.0872" y1="30.6427" x2="9.96395" y2="26.9936" gradientUnits="userSpaceOnUse">
<stop stopColor="#017B4E" stopOpacity="0"/>
<stop offset="0.473" stopColor="#01774B" stopOpacity="0.473"/>
<stop offset="0.8807" stopColor="#016D44" stopOpacity="0.881"/>
<stop offset="1" stopColor="#026841"/>
</linearGradient>
<linearGradient id="paint32_linear_255_2419" x1="11.6247" y1="32.8772" x2="11.266" y2="29.839" gradientUnits="userSpaceOnUse">
<stop stopColor="#017B4E" stopOpacity="0"/>
<stop offset="0.473" stopColor="#01774B" stopOpacity="0.473"/>
<stop offset="0.8807" stopColor="#016D44" stopOpacity="0.881"/>
<stop offset="1" stopColor="#026841"/>
</linearGradient>
<linearGradient id="paint33_linear_255_2419" x1="13.9742" y1="37.2936" x2="14.1244" y2="33.5112" gradientUnits="userSpaceOnUse">
<stop stopColor="#017B4E" stopOpacity="0"/>
<stop offset="0.473" stopColor="#01774B" stopOpacity="0.473"/>
<stop offset="0.8807" stopColor="#016D44" stopOpacity="0.881"/>
<stop offset="1" stopColor="#026841"/>
</linearGradient>
<linearGradient id="paint34_linear_255_2419" x1="15.0955" y1="42.004" x2="16.3385" y2="36.7062" gradientUnits="userSpaceOnUse">
<stop stopColor="#017B4E" stopOpacity="0"/>
<stop offset="0.473" stopColor="#01774B" stopOpacity="0.473"/>
<stop offset="0.8807" stopColor="#016D44" stopOpacity="0.881"/>
<stop offset="1" stopColor="#026841"/>
</linearGradient>
<linearGradient id="paint35_linear_255_2419" x1="13.7231" y1="35.8704" x2="14.1489" y2="40.4685" gradientUnits="userSpaceOnUse">
<stop stopColor="#017B4E" stopOpacity="0"/>
<stop offset="0.473" stopColor="#01774B" stopOpacity="0.473"/>
<stop offset="0.8807" stopColor="#016D44" stopOpacity="0.881"/>
<stop offset="1" stopColor="#026841"/>
</linearGradient>
<linearGradient id="paint36_linear_255_2419" x1="11.9705" y1="25.7849" x2="6.36587" y2="28.127" gradientUnits="userSpaceOnUse">
<stop stopColor="#017B4E" stopOpacity="0"/>
<stop offset="0.473" stopColor="#01774B" stopOpacity="0.473"/>
<stop offset="0.8807" stopColor="#016D44" stopOpacity="0.881"/>
<stop offset="1" stopColor="#026841"/>
</linearGradient>
<linearGradient id="paint37_linear_255_2419" x1="11.8739" y1="27.7337" x2="8.22343" y2="27.8066" gradientUnits="userSpaceOnUse">
<stop stopColor="#017B4E" stopOpacity="0"/>
<stop offset="0.473" stopColor="#01774B" stopOpacity="0.473"/>
<stop offset="0.8807" stopColor="#016D44" stopOpacity="0.881"/>
<stop offset="1" stopColor="#026841"/>
</linearGradient>
<linearGradient id="paint38_linear_255_2419" x1="16.8685" y1="27.7888" x2="19.74" y2="26.0092" gradientUnits="userSpaceOnUse">
<stop stopColor="#017B4E" stopOpacity="0"/>
<stop offset="0.473" stopColor="#01774B" stopOpacity="0.473"/>
<stop offset="0.8807" stopColor="#016D44" stopOpacity="0.881"/>
<stop offset="1" stopColor="#026841"/>
</linearGradient>
<linearGradient id="paint39_linear_255_2419" x1="14.3592" y1="29.0779" x2="11.3061" y2="28.8828" gradientUnits="userSpaceOnUse">
<stop stopColor="#017B4E" stopOpacity="0"/>
<stop offset="0.473" stopColor="#01774B" stopOpacity="0.473"/>
<stop offset="0.8807" stopColor="#016D44" stopOpacity="0.881"/>
<stop offset="1" stopColor="#026841"/>
</linearGradient>
<linearGradient id="paint40_linear_255_2419" x1="18.1875" y1="30.9929" x2="14.3765" y2="30.7175" gradientUnits="userSpaceOnUse">
<stop stopColor="#017B4E" stopOpacity="0"/>
<stop offset="0.473" stopColor="#01774B" stopOpacity="0.473"/>
<stop offset="0.8807" stopColor="#016D44" stopOpacity="0.881"/>
<stop offset="1" stopColor="#026841"/>
</linearGradient>
<linearGradient id="paint41_linear_255_2419" x1="22.0074" y1="32.8066" x2="18.6928" y2="34.1299" gradientUnits="userSpaceOnUse">
<stop stopColor="#017B4E" stopOpacity="0"/>
<stop offset="0.473" stopColor="#01774B" stopOpacity="0.473"/>
<stop offset="0.8807" stopColor="#016D44" stopOpacity="0.881"/>
<stop offset="1" stopColor="#026841"/>
</linearGradient>
<linearGradient id="paint42_linear_255_2419" x1="17.4648" y1="39.5438" x2="12.1872" y2="25.2335" gradientUnits="userSpaceOnUse">
<stop stopColor="#D1F19E"/>
<stop offset="1" stopColor="#78A91F"/>
</linearGradient>
<linearGradient id="paint43_linear_255_2419" x1="15.1401" y1="40.4008" x2="9.8626" y2="26.0905" gradientUnits="userSpaceOnUse">
<stop stopColor="#D1F19E"/>
<stop offset="1" stopColor="#78A91F"/>
</linearGradient>
<linearGradient id="paint44_linear_255_2419" x1="13.1006" y1="41.153" x2="7.82311" y2="26.8427" gradientUnits="userSpaceOnUse">
<stop stopColor="#D1F19E"/>
<stop offset="1" stopColor="#78A91F"/>
</linearGradient>
<linearGradient id="paint45_linear_255_2419" x1="12.4889" y1="41.3787" x2="7.21136" y2="27.0683" gradientUnits="userSpaceOnUse">
<stop stopColor="#D1F19E"/>
<stop offset="1" stopColor="#78A91F"/>
</linearGradient>
<linearGradient id="paint46_linear_255_2419" x1="16.1852" y1="36.7185" x2="17.2398" y2="35.6574" gradientUnits="userSpaceOnUse">
<stop stopColor="#026841" stopOpacity="0"/>
<stop offset="0.3243" stopColor="#046842" stopOpacity="0.324"/>
<stop offset="0.5509" stopColor="#0E6546" stopOpacity="0.551"/>
<stop offset="0.7476" stopColor="#1D614C" stopOpacity="0.748"/>
<stop offset="0.9263" stopColor="#335C54" stopOpacity="0.926"/>
<stop offset="1" stopColor="#3E5959"/>
</linearGradient>
<linearGradient id="paint47_linear_255_2419" x1="12.6333" y1="33.1881" x2="13.6879" y2="32.127" gradientUnits="userSpaceOnUse">
<stop stopColor="#026841" stopOpacity="0"/>
<stop offset="0.3243" stopColor="#046842" stopOpacity="0.324"/>
<stop offset="0.5509" stopColor="#0E6546" stopOpacity="0.551"/>
<stop offset="0.7476" stopColor="#1D614C" stopOpacity="0.748"/>
<stop offset="0.9263" stopColor="#335C54" stopOpacity="0.926"/>
<stop offset="1" stopColor="#3E5959"/>
</linearGradient>
<linearGradient id="paint48_linear_255_2419" x1="9.29976" y1="29.875" x2="10.3543" y2="28.8138" gradientUnits="userSpaceOnUse">
<stop stopColor="#026841" stopOpacity="0"/>
<stop offset="0.3243" stopColor="#046842" stopOpacity="0.324"/>
<stop offset="0.5509" stopColor="#0E6546" stopOpacity="0.551"/>
<stop offset="0.7476" stopColor="#1D614C" stopOpacity="0.748"/>
<stop offset="0.9263" stopColor="#335C54" stopOpacity="0.926"/>
<stop offset="1" stopColor="#3E5959"/>
</linearGradient>
<linearGradient id="paint49_linear_255_2419" x1="6.85465" y1="27.445" x2="7.90923" y2="26.3838" gradientUnits="userSpaceOnUse">
<stop stopColor="#026841" stopOpacity="0"/>
<stop offset="0.3243" stopColor="#046842" stopOpacity="0.324"/>
<stop offset="0.5509" stopColor="#0E6546" stopOpacity="0.551"/>
<stop offset="0.7476" stopColor="#1D614C" stopOpacity="0.748"/>
<stop offset="0.9263" stopColor="#335C54" stopOpacity="0.926"/>
<stop offset="1" stopColor="#3E5959"/>
</linearGradient>
<linearGradient id="paint50_linear_255_2419" x1="22.1389" y1="34.6048" x2="7.56577" y2="30.1035" gradientUnits="userSpaceOnUse">
<stop stopColor="#D1F19E"/>
<stop offset="1" stopColor="#78A91F"/>
</linearGradient>
<linearGradient id="paint51_linear_255_2419" x1="22.87" y1="32.2377" x2="8.29685" y2="27.7365" gradientUnits="userSpaceOnUse">
<stop stopColor="#D1F19E"/>
<stop offset="1" stopColor="#78A91F"/>
</linearGradient>
<linearGradient id="paint52_linear_255_2419" x1="23.5116" y1="30.1606" x2="8.93852" y2="25.6593" gradientUnits="userSpaceOnUse">
<stop stopColor="#D1F19E"/>
<stop offset="1" stopColor="#78A91F"/>
</linearGradient>
<linearGradient id="paint53_linear_255_2419" x1="23.704" y1="29.5375" x2="9.13084" y2="25.0362" gradientUnits="userSpaceOnUse">
<stop stopColor="#D1F19E"/>
<stop offset="1" stopColor="#78A91F"/>
</linearGradient>
<linearGradient id="paint54_linear_255_2419" x1="19.4717" y1="34.9772" x2="15.1643" y2="37.3433" gradientUnits="userSpaceOnUse">
<stop stopColor="#D1F19E"/>
<stop offset="1" stopColor="#78A91F"/>
</linearGradient>
<linearGradient id="paint55_linear_255_2419" x1="22.0108" y1="40.1147" x2="23.3051" y2="39.589" gradientUnits="userSpaceOnUse">
<stop stopColor="#026841" stopOpacity="0"/>
<stop offset="0.3243" stopColor="#046842" stopOpacity="0.324"/>
<stop offset="0.5509" stopColor="#0E6546" stopOpacity="0.551"/>
<stop offset="0.7476" stopColor="#1D614C" stopOpacity="0.748"/>
<stop offset="0.9263" stopColor="#335C54" stopOpacity="0.926"/>
<stop offset="1" stopColor="#3E5959"/>
</linearGradient>
<linearGradient id="paint56_linear_255_2419" x1="16.62" y1="7.6749" x2="35.2013" y2="22.0046" gradientUnits="userSpaceOnUse">
<stop stopColor="#78A91F"/>
<stop offset="0.1553" stopColor="#6DA423"/>
<stop offset="0.428" stopColor="#50992E"/>
<stop offset="0.7835" stopColor="#218741"/>
<stop offset="1" stopColor="#017B4E"/>
</linearGradient>
<linearGradient id="paint57_linear_255_2419" x1="30.7875" y1="14.2094" x2="25.6916" y2="15.3014" gradientUnits="userSpaceOnUse">
<stop stopColor="#026841" stopOpacity="0"/>
<stop offset="0.3243" stopColor="#046842" stopOpacity="0.324"/>
<stop offset="0.5509" stopColor="#0E6546" stopOpacity="0.551"/>
<stop offset="0.7476" stopColor="#1D614C" stopOpacity="0.748"/>
<stop offset="0.9263" stopColor="#335C54" stopOpacity="0.926"/>
<stop offset="1" stopColor="#3E5959"/>
</linearGradient>
<linearGradient id="paint58_linear_255_2419" x1="28.6914" y1="10.7954" x2="24.0217" y2="7.90654" gradientUnits="userSpaceOnUse">
<stop stopColor="#017B4E" stopOpacity="0"/>
<stop offset="0.473" stopColor="#01774B" stopOpacity="0.473"/>
<stop offset="0.8807" stopColor="#016D44" stopOpacity="0.881"/>
<stop offset="1" stopColor="#026841"/>
</linearGradient>
<linearGradient id="paint59_linear_255_2419" x1="27.8143" y1="13.4362" x2="24.9023" y2="10.4839" gradientUnits="userSpaceOnUse">
<stop stopColor="#017B4E" stopOpacity="0"/>
<stop offset="0.473" stopColor="#01774B" stopOpacity="0.473"/>
<stop offset="0.8807" stopColor="#016D44" stopOpacity="0.881"/>
<stop offset="1" stopColor="#026841"/>
</linearGradient>
<linearGradient id="paint60_linear_255_2419" x1="28.4551" y1="16.4491" x2="26.2307" y2="13.7798" gradientUnits="userSpaceOnUse">
<stop stopColor="#017B4E" stopOpacity="0"/>
<stop offset="0.473" stopColor="#01774B" stopOpacity="0.473"/>
<stop offset="0.8807" stopColor="#016D44" stopOpacity="0.881"/>
<stop offset="1" stopColor="#026841"/>
</linearGradient>
<linearGradient id="paint61_linear_255_2419" x1="30.2606" y1="21.8361" x2="27.025" y2="19.0051" gradientUnits="userSpaceOnUse">
<stop stopColor="#017B4E" stopOpacity="0"/>
<stop offset="0.473" stopColor="#01774B" stopOpacity="0.473"/>
<stop offset="0.8807" stopColor="#016D44" stopOpacity="0.881"/>
<stop offset="1" stopColor="#026841"/>
</linearGradient>
<linearGradient id="paint62_linear_255_2419" x1="33.268" y1="26.4405" x2="27.9293" y2="23.3264" gradientUnits="userSpaceOnUse">
<stop stopColor="#017B4E" stopOpacity="0"/>
<stop offset="0.473" stopColor="#01774B" stopOpacity="0.473"/>
<stop offset="0.8807" stopColor="#016D44" stopOpacity="0.881"/>
<stop offset="1" stopColor="#026841"/>
</linearGradient>
<linearGradient id="paint63_linear_255_2419" x1="29.2835" y1="20.5171" x2="32.7416" y2="24.4605" gradientUnits="userSpaceOnUse">
<stop stopColor="#017B4E" stopOpacity="0"/>
<stop offset="0.473" stopColor="#01774B" stopOpacity="0.473"/>
<stop offset="0.8807" stopColor="#016D44" stopOpacity="0.881"/>
<stop offset="1" stopColor="#026841"/>
</linearGradient>
<linearGradient id="paint64_linear_255_2419" x1="22.3384" y1="11.1934" x2="28.6477" y2="8.40264" gradientUnits="userSpaceOnUse">
<stop stopColor="#017B4E" stopOpacity="0"/>
<stop offset="0.473" stopColor="#01774B" stopOpacity="0.473"/>
<stop offset="0.8807" stopColor="#016D44" stopOpacity="0.881"/>
<stop offset="1" stopColor="#026841"/>
</linearGradient>
<linearGradient id="paint65_linear_255_2419" x1="24.0356" y1="12.6424" x2="26.9475" y2="9.68994" gradientUnits="userSpaceOnUse">
<stop stopColor="#017B4E" stopOpacity="0"/>
<stop offset="0.473" stopColor="#01774B" stopOpacity="0.473"/>
<stop offset="0.8807" stopColor="#016D44" stopOpacity="0.881"/>
<stop offset="1" stopColor="#026841"/>
</linearGradient>
<linearGradient id="paint66_linear_255_2419" x1="23.2018" y1="15.741" x2="25.4263" y2="13.0717" gradientUnits="userSpaceOnUse">
<stop stopColor="#017B4E" stopOpacity="0"/>
<stop offset="0.473" stopColor="#01774B" stopOpacity="0.473"/>
<stop offset="0.8807" stopColor="#016D44" stopOpacity="0.881"/>
<stop offset="1" stopColor="#026841"/>
</linearGradient>
<linearGradient id="paint67_linear_255_2419" x1="21.7749" y1="20.3871" x2="24.5251" y2="17.0302" gradientUnits="userSpaceOnUse">
<stop stopColor="#017B4E" stopOpacity="0"/>
<stop offset="0.473" stopColor="#01774B" stopOpacity="0.473"/>
<stop offset="0.8807" stopColor="#016D44" stopOpacity="0.881"/>
<stop offset="1" stopColor="#026841"/>
</linearGradient>
<linearGradient id="paint68_linear_255_2419" x1="20.2859" y1="24.9531" x2="23.9663" y2="23.2545" gradientUnits="userSpaceOnUse">
<stop stopColor="#017B4E" stopOpacity="0"/>
<stop offset="0.473" stopColor="#01774B" stopOpacity="0.473"/>
<stop offset="0.8807" stopColor="#016D44" stopOpacity="0.881"/>
<stop offset="1" stopColor="#026841"/>
</linearGradient>
<linearGradient id="paint69_linear_255_2419" x1="29.388" y1="26.4717" x2="21.7138" y2="10.9412" gradientUnits="userSpaceOnUse">
<stop stopColor="#D1F19E"/>
<stop offset="1" stopColor="#78A91F"/>
</linearGradient>
<linearGradient id="paint70_linear_255_2419" x1="31.9109" y1="25.225" x2="24.2366" y2="9.69445" gradientUnits="userSpaceOnUse">
<stop stopColor="#D1F19E"/>
<stop offset="1" stopColor="#78A91F"/>
</linearGradient>
<linearGradient id="paint71_linear_255_2419" x1="34.1242" y1="24.1314" x2="26.4499" y2="8.6008" gradientUnits="userSpaceOnUse">
<stop stopColor="#D1F19E"/>
<stop offset="1" stopColor="#78A91F"/>
</linearGradient>
<linearGradient id="paint72_linear_255_2419" x1="34.7883" y1="23.8032" x2="27.114" y2="8.27261" gradientUnits="userSpaceOnUse">
<stop stopColor="#D1F19E"/>
<stop offset="1" stopColor="#78A91F"/>
</linearGradient>
<linearGradient id="paint73_linear_255_2419" x1="28.0593" y1="23.2097" x2="26.3606" y2="23.2501" gradientUnits="userSpaceOnUse">
<stop stopColor="#026841" stopOpacity="0"/>
<stop offset="0.3243" stopColor="#046842" stopOpacity="0.324"/>
<stop offset="0.5509" stopColor="#0E6546" stopOpacity="0.551"/>
<stop offset="0.7476" stopColor="#1D614C" stopOpacity="0.748"/>
<stop offset="0.9263" stopColor="#335C54" stopOpacity="0.926"/>
<stop offset="1" stopColor="#3E5959"/>
</linearGradient>
<linearGradient id="paint74_linear_255_2419" x1="27.9241" y1="17.5236" x2="26.2254" y2="17.564" gradientUnits="userSpaceOnUse">
<stop stopColor="#026841" stopOpacity="0"/>
<stop offset="0.3243" stopColor="#046842" stopOpacity="0.324"/>
<stop offset="0.5509" stopColor="#0E6546" stopOpacity="0.551"/>
<stop offset="0.7476" stopColor="#1D614C" stopOpacity="0.748"/>
<stop offset="0.9263" stopColor="#335C54" stopOpacity="0.926"/>
<stop offset="1" stopColor="#3E5959"/>
</linearGradient>
<linearGradient id="paint75_linear_255_2419" x1="27.797" y1="12.1873" x2="26.0983" y2="12.2277" gradientUnits="userSpaceOnUse">
<stop stopColor="#026841" stopOpacity="0"/>
<stop offset="0.3243" stopColor="#046842" stopOpacity="0.324"/>
<stop offset="0.5509" stopColor="#0E6546" stopOpacity="0.551"/>
<stop offset="0.7476" stopColor="#1D614C" stopOpacity="0.748"/>
<stop offset="0.9263" stopColor="#335C54" stopOpacity="0.926"/>
<stop offset="1" stopColor="#3E5959"/>
</linearGradient>
<linearGradient id="paint76_linear_255_2419" x1="27.7038" y1="8.2729" x2="26.0051" y2="8.31333" gradientUnits="userSpaceOnUse">
<stop stopColor="#026841" stopOpacity="0"/>
<stop offset="0.3243" stopColor="#046842" stopOpacity="0.324"/>
<stop offset="0.5509" stopColor="#0E6546" stopOpacity="0.551"/>
<stop offset="0.7476" stopColor="#1D614C" stopOpacity="0.748"/>
<stop offset="0.9263" stopColor="#335C54" stopOpacity="0.926"/>
<stop offset="1" stopColor="#3E5959"/>
</linearGradient>
<linearGradient id="paint77_linear_255_2419" x1="21.6788" y1="26.4717" x2="29.353" y2="10.9412" gradientUnits="userSpaceOnUse">
<stop stopColor="#D1F19E"/>
<stop offset="1" stopColor="#78A91F"/>
</linearGradient>
<linearGradient id="paint78_linear_255_2419" x1="19.156" y1="25.225" x2="26.8303" y2="9.69445" gradientUnits="userSpaceOnUse">
<stop stopColor="#D1F19E"/>
<stop offset="1" stopColor="#78A91F"/>
</linearGradient>
<linearGradient id="paint79_linear_255_2419" x1="16.9425" y1="24.1314" x2="24.6169" y2="8.6008" gradientUnits="userSpaceOnUse">
<stop stopColor="#D1F19E"/>
<stop offset="1" stopColor="#78A91F"/>
</linearGradient>
<linearGradient id="paint80_linear_255_2419" x1="16.2787" y1="23.8032" x2="23.953" y2="8.27261" gradientUnits="userSpaceOnUse">
<stop stopColor="#D1F19E"/>
<stop offset="1" stopColor="#78A91F"/>
</linearGradient>
<linearGradient id="paint81_linear_255_2419" x1="23.5967" y1="28.4666" x2="27.2722" y2="27.9998" gradientUnits="userSpaceOnUse">
<stop stopColor="#D1F19E"/>
<stop offset="1" stopColor="#78A91F"/>
</linearGradient>
<linearGradient id="paint82_linear_255_2419" x1="26.4926" y1="44.3924" x2="28.5857" y2="48.0323" gradientUnits="userSpaceOnUse">
<stop stopColor="#026841" stopOpacity="0"/>
<stop offset="0.3243" stopColor="#046842" stopOpacity="0.324"/>
<stop offset="0.5509" stopColor="#0E6546" stopOpacity="0.551"/>
<stop offset="0.7476" stopColor="#1D614C" stopOpacity="0.748"/>
<stop offset="0.9263" stopColor="#335C54" stopOpacity="0.926"/>
<stop offset="1" stopColor="#3E5959"/>
</linearGradient>
<clipPath id="clip0_255_2419">
<rect width="50" height="50" fill="white" transform="translate(0.5)"/>
</clipPath>
</defs>
</svg>